<svg width="695" height="541" viewBox="0 0 695 541" fill="none" xmlns="http://www.w3.org/2000/svg">
<path d="M349.88 0.176888C349.347 1.24355 347.747 7.24355 346.28 13.3769C340.547 36.4436 337.08 39.6436 310.947 46.1769C304.413 47.9102 299.88 49.5102 300.947 49.7769C302.013 50.1769 307.747 51.7769 313.613 53.3769C319.48 54.9769 327.213 58.1769 330.813 60.5769C338.547 65.5102 342.147 72.3102 346.413 90.0436C348.013 96.3102 349.747 101.244 350.28 100.844C350.68 100.577 351.88 96.8436 352.813 92.5769C355.213 82.1769 360.547 68.1769 363.347 65.1102C366.68 61.3769 379.48 55.2436 390.413 52.1769C395.613 50.7102 400.28 49.3769 400.547 49.1102C400.813 48.7102 397.213 47.7769 392.68 46.8436C388.013 46.0436 379.747 43.5102 374.147 41.3769L364.013 37.5102L359.88 28.4436C357.613 23.5102 354.547 14.7102 353.213 8.84355C351.747 2.97689 350.28 -0.889778 349.88 0.176888Z" fill="url(#paint0_linear_3061_7051)"/>
<path d="M106.279 12.7097C106.279 18.3097 101.346 89.3763 99.6127 108.843C98.946 116.843 97.4794 135.243 96.2794 149.51C95.2127 163.776 92.8127 188.976 90.946 205.51C89.2127 222.043 87.0794 241.776 86.2794 249.51C85.0794 262.043 76.946 329.376 70.4127 381.51C69.0794 392.176 68.0127 400.976 68.146 401.11C68.2794 401.243 78.8127 402.843 91.6127 404.71C181.213 417.776 265.079 457.243 320.013 512.443C332.146 524.71 332.813 525.11 329.479 519.243C317.346 498.043 301.346 477.776 284.546 462.31C267.746 446.843 245.746 429.776 228.946 419.376C210.013 407.643 176.413 390.71 157.213 383.376C148.679 380.043 141.213 376.843 140.679 376.443C139.746 375.376 141.746 354.71 148.279 300.843C150.946 279.51 155.479 240.576 158.413 214.176C161.346 187.776 164.146 165.11 164.679 163.643C165.613 161.51 166.679 161.776 177.213 167.243C209.213 184.043 238.546 205.643 264.279 231.51C310.546 277.91 332.279 324.176 343.479 399.776C344.813 408.31 348.946 458.043 348.946 464.71C348.946 466.176 349.213 466.976 349.479 466.71C349.879 466.443 351.079 452.043 352.279 434.843C357.346 362.043 371.346 314.31 400.279 270.843C428.279 228.843 469.746 192.443 516.546 168.976L531.479 161.51L532.146 165.91C532.546 168.176 535.879 197.11 539.613 230.176C546.946 295.243 555.479 369.91 556.013 374.043C556.279 376.176 553.746 377.643 541.613 382.176C465.213 411.376 400.946 461.91 370.546 516.443L366.279 524.043L381.346 509.11C418.946 471.51 471.479 440.443 529.213 421.643C557.479 412.576 580.813 407.376 615.346 402.71L627.746 401.11L627.079 394.976C626.679 391.643 624.146 373.243 621.613 354.176C611.613 277.776 601.213 177.376 596.279 108.176C591.479 41.243 588.946 9.10968 588.546 8.57635C587.746 7.77631 547.879 32.1763 520.946 50.043C494.413 67.643 457.746 94.7097 440.013 109.776C414.946 130.976 384.413 161.243 364.013 185.11L358.013 192.043L356.146 219.11C353.213 262.843 350.279 317.51 350.279 327.376C350.279 346.71 348.946 333.776 346.946 296.71C344.813 255.11 342.813 222.576 341.479 203.51L340.546 191.51L329.613 178.843C290.413 133.51 237.346 90.043 162.146 41.7763C141.079 28.3097 108.013 8.17633 106.946 8.17633C106.546 8.17633 106.279 10.1763 106.279 12.7097Z" fill="url(#paint1_linear_3061_7051)"/>
<path d="M49.746 53.7768C49.346 58.4435 48.4126 73.5101 47.6126 87.5101C43.0793 165.51 33.746 250.31 19.6126 340.443C10.946 396.577 5.0793 432.977 2.2793 449.243C0.812633 457.777 -0.1207 464.843 0.0126334 465.11C0.2793 465.243 6.41263 464.31 13.746 462.843C83.8793 449.377 165.479 457.243 235.746 484.577C268.279 497.243 304.013 516.31 326.013 532.843C331.346 536.843 336.146 540.177 336.679 540.177C337.213 540.177 331.879 534.443 324.946 527.377C304.546 506.843 273.479 484.577 244.946 470.177C185.079 440.043 119.746 422.843 53.6126 419.777L46.946 419.51L47.346 413.51C47.6126 410.177 51.6126 377.243 56.2793 340.177C65.746 265.91 68.2793 244.843 74.2793 186.843C78.2793 148.177 84.946 68.5768 84.946 58.8435V53.9101L69.6126 49.7768C61.0793 47.3768 53.346 45.5101 52.4126 45.5101C51.0793 45.5101 50.2793 47.9101 49.746 53.7768Z" fill="url(#paint2_linear_3061_7051)"/>
<path d="M627.614 49.5102C619.88 51.6436 613.08 53.3769 612.414 53.5102C610.547 53.5102 613.614 109.11 618.414 163.51C623.214 219.377 629.88 275.377 642.147 366.444C645.88 393.644 648.947 416.577 648.947 417.377C648.947 418.71 646.68 418.977 619.08 421.51C586.814 424.444 546.147 432.977 516.414 442.977C457.48 462.977 403.347 494.577 371.747 527.51C360.147 539.644 358.28 543.644 367.88 535.777C388.414 519.11 432.28 495.377 465.614 482.844C495.48 471.644 540.947 461.377 578.28 457.51C609.614 454.31 658.147 457.244 693.214 464.444C695.347 464.977 694.947 460.977 690.947 436.177C673.747 331.377 660.814 242.71 656.414 200.177C652.014 158.177 646.28 76.1769 646.28 55.7769C646.28 43.6436 647.614 44.0435 627.614 49.5102Z" fill="url(#paint3_linear_3061_7051)"/>
<path d="M64.946 470.843C45.346 472.177 23.346 475.777 21.4793 477.91C19.8793 479.643 14.2793 498.577 14.2793 502.043C14.2793 503.777 14.8126 503.91 19.6126 502.177C28.546 498.977 64.2793 492.443 84.546 490.31C106.279 487.91 151.213 487.51 171.746 489.51C201.879 492.577 234.279 498.977 259.346 507.11C266.279 509.243 272.146 510.71 272.413 510.443C273.213 509.643 251.079 500.043 235.079 494.177C186.813 476.71 116.679 467.11 64.946 470.843Z" fill="url(#paint4_linear_3061_7051)"/>
<path d="M582.279 470.444C551.346 472.311 511.346 479.111 482.946 487.511C465.212 492.711 439.346 502.577 430.279 507.644C423.612 511.244 423.746 511.244 445.746 504.844C462.412 499.911 484.946 495.111 508.946 491.244C521.479 489.244 532.012 488.844 566.279 488.844C612.812 488.977 628.679 490.577 662.812 498.711C672.279 500.977 680.412 502.844 680.946 502.844C682.146 502.844 676.012 478.844 674.546 477.244C673.079 475.777 650.012 472.444 631.079 470.844C614.946 469.644 599.079 469.377 582.279 470.444Z" fill="url(#paint5_linear_3061_7051)"/>
<defs>
<linearGradient id="paint0_linear_3061_7051" x1="350.676" y1="1.52588e-05" x2="350.676" y2="100.866" gradientUnits="userSpaceOnUse">
<stop stop-color="#CFCFCF"/>
<stop offset="1" stop-color="#252525"/>
</linearGradient>
<linearGradient id="paint1_linear_3061_7051" x1="347.94" y1="8.17633" x2="347.94" y2="524.043" gradientUnits="userSpaceOnUse">
<stop stop-color="#CFCFCF"/>
<stop offset="1" stop-color="#252525"/>
</linearGradient>
<linearGradient id="paint2_linear_3061_7051" x1="168.358" y1="45.5101" x2="168.358" y2="540.177" gradientUnits="userSpaceOnUse">
<stop stop-color="#CFCFCF"/>
<stop offset="1" stop-color="#252525"/>
</linearGradient>
<linearGradient id="paint3_linear_3061_7051" x1="528.105" y1="45.8557" x2="528.105" y2="539.836" gradientUnits="userSpaceOnUse">
<stop stop-color="#CFCFCF"/>
<stop offset="1" stop-color="#252525"/>
</linearGradient>
<linearGradient id="paint4_linear_3061_7051" x1="143.357" y1="470.044" x2="143.357" y2="510.475" gradientUnits="userSpaceOnUse">
<stop stop-color="#CFCFCF"/>
<stop offset="1" stop-color="#252525"/>
</linearGradient>
<linearGradient id="paint5_linear_3061_7051" x1="553.762" y1="469.776" x2="553.762" y2="510.068" gradientUnits="userSpaceOnUse">
<stop stop-color="#CFCFCF"/>
<stop offset="1" stop-color="#252525"/>
</linearGradient>
</defs>
</svg>
