<svg width="373" height="243" viewBox="0 0 373 243" fill="none" xmlns="http://www.w3.org/2000/svg">
<path d="M203.267 198.288C197.141 212.101 191.413 227.059 186.263 241.114C186.123 241.496 185.781 241.936 185.685 242.08C185.589 242.223 185.107 241.514 185.03 241.316L181.113 231.424L172.896 211C169.716 203.09 166.189 195.623 161.794 188.319C157.398 181.014 150.982 175.941 142.898 173.438C135.245 171.066 127.558 169.954 119.581 169.268L98.4104 167.443L40.4089 162.943L0 159.023C0.971845 158.557 2.17561 158.366 3.31311 158.337L15.5974 158.043L34.6404 157.661L70.4036 157.276L100.788 156.839L266.532 156.846L298.04 157.283L334.79 157.665L363.79 158.047C366.647 158.083 369.286 158.201 372.276 158.905L345.951 161.446L326.985 163.013L305.988 164.657L259.825 168.405C249.381 169.253 239.287 170.259 229.146 172.696C226.414 173.353 223.985 174.392 221.529 175.607C211.859 180.386 207.636 188.454 203.267 198.303V198.288ZM187.643 197.984C189.344 190.528 192.061 178.834 197.344 173.68C199.78 171.301 202.795 170.171 205.847 168.156L190.78 166.254L184.702 165.858L179.033 166.309L165.041 168.108C174.652 173.122 176.349 176.15 179.972 185.911L185.332 208.133L187.647 197.987L187.643 197.984Z" fill="#C8CAD4"/>
<path d="M140.101 139.715C130.555 145.081 118.621 145.103 108.832 140.677C98.1934 135.864 93.0028 125.473 93.3268 114.229C93.6728 102.3 100.402 92.1098 112.094 88.5566C120.222 86.0899 129.303 86.1596 137.17 89.4265C147.96 93.9011 153.912 103.999 153.692 115.386C153.497 125.403 149.337 134.521 140.097 139.715H140.101ZM125.088 135.24C134.961 135.009 137.623 127.011 138.33 119.001C138.886 112.691 137.737 105.001 134.111 99.8219C131.972 96.7679 130.018 94.8371 126.45 94.0296C121.374 92.8806 115.745 94.8922 112.65 99.264C109.66 103.489 109.02 108.562 109.038 113.782C109.06 119.6 109.955 125.285 113.485 129.925C116.261 133.574 120.343 135.35 125.088 135.24Z" fill="#C8CAD4"/>
<path d="M313.439 87.7197C314.12 87.7197 314.366 88.9236 314.256 89.4118C313.811 91.4087 308.605 90.8691 308.583 96.5366L308.462 124.61C308.436 130.557 305.439 135.736 300.75 139.146C294.996 143.323 287.839 143.933 280.937 143.665C275.202 143.444 269.47 142.596 264.979 138.999C261.18 135.96 258.887 131.9 258.846 126.934L258.585 95.4097C258.563 92.7045 253.674 90.748 252.75 89.834C252.411 89.4999 252.798 87.749 253.339 87.749H278.298C281.445 91.8161 273.372 89.7422 273.38 95.9347L273.402 124.764C273.405 130.656 277.653 134.55 283.363 134.392C285.991 134.319 288.583 134.484 290.991 133.541C294.285 132.252 296.586 129.389 296.593 125.689L296.63 95.7474C296.638 90.3442 288.491 91.2949 291.602 87.7417L313.435 87.7233L313.439 87.7197Z" fill="#C8CAD4"/>
<path d="M344.538 143.654C336.498 144.131 325.406 143.323 318.397 138.97C317.179 138.592 317.252 127.282 317.175 125.491C323.643 122.253 319.498 128.875 329.113 132.513C333.211 134.062 337.3 134.521 341.74 134.4C344.755 134.315 347.663 134.132 350.012 132.028C351.455 130.736 351.967 128.685 351.514 126.783C350.347 121.875 339.542 120.257 333.619 118.164L327.689 116.072C323.997 114.769 320.831 112.332 318.725 109.032C317.363 106.895 317.109 104.252 317.124 101.701C317.149 97.8397 318.942 94.448 321.979 92.0144C331.289 84.5482 348.536 86.2367 359.333 90.2745C359.808 94.5141 360.006 98.6693 359.844 102.935C356.531 104.682 357.709 100.659 350.424 97.3479C345.429 95.0794 333.535 92.3778 330.376 97.1864C328.502 100.042 330.406 103.713 333.623 104.671L349.776 109.479C353.921 110.713 357.702 112.717 360.849 115.565C367.991 122.03 366.316 134.477 358.696 139.52C354.459 142.325 349.633 143.349 344.538 143.65V143.654Z" fill="#C8CAD4"/>
<path d="M240.841 129.661C240.863 141.932 249.577 138.294 247.836 143.455L221.106 143.448C219.888 139.994 225.873 140.39 225.866 133.467L225.833 95.7107C225.833 92.2493 221.195 90.8618 220.289 89.8119C219.983 89.4596 220.363 87.7527 220.819 87.7527H245.439C245.885 87.7527 246.514 89.0117 246.337 89.4082C245.281 91.7794 240.775 90.9278 240.782 95.7584L240.838 129.661H240.841Z" fill="#C8CAD4"/>
<path d="M69.3288 132.447L66.4206 98.6436L60.1221 112.343L47.7237 138.962C47.5322 139.37 46.8807 139.99 46.5125 139.924C46.1444 139.858 45.3014 139.304 45.121 138.944L26.0265 100.986L25.3197 131.43C25.2313 135.237 26.575 138.298 29.9396 140.266C31.0882 140.765 31.9238 142.171 31.1986 143.452L7.09759 143.441C5.59196 139.359 12.1998 141.157 12.6894 132.777L15.2994 88.0977C15.4834 84.974 13.6391 82.566 10.7751 81.6924C9.63027 81.1198 8.69156 80.7123 8.66947 78.7852L30.9299 78.7559L41.2189 98.6583L48.4231 112.684L53.367 102.645L65.0512 78.7852L86.7889 78.7742C87.2785 79.8607 86.6233 81.0794 85.4563 81.3877C82.7396 82.1072 80.2216 84.4527 80.5382 87.7086L84.8673 132.274C85.714 140.974 93.3636 139.634 91.1328 143.433L63.299 143.463C62.3639 139.407 70.0135 140.46 69.3215 132.451L69.3288 132.447Z" fill="#C8CAD4"/>
<path d="M184.456 125.48C183.256 123.527 182.287 121.956 181.036 120.168C179.048 119.651 177.458 119.412 175.392 119.431L175.341 132.274C175.308 140.746 183.41 139.025 181.993 143.437L154.811 143.452C152.583 139.451 160.778 141.091 160.785 132.799L160.826 97.7186C160.837 89.1916 151.983 92.1905 155.061 87.7563L186.882 87.8334C191.328 87.8444 195.312 88.6373 199.501 89.911C202.832 90.9241 205.972 93.3395 207.555 96.5183C210.235 101.888 209.256 108.591 205.313 113.003C202.858 115.749 199.523 117.166 195.996 118.274L206.694 132.028C209.223 135.281 212.013 138.665 214.91 141.374C215.326 141.763 215.367 143.437 214.877 143.437H195.474L184.456 125.48ZM194.539 103.118C194.568 99.2382 192.529 96.3494 188.755 95.5602C187.493 95.2959 185.67 94.8738 184.345 94.8701L175.367 94.8408V112.218L182.703 112.266C185.339 112.284 188.133 111.862 190.427 110.779C193.515 109.318 194.513 106.561 194.539 103.122V103.118Z" fill="#C8CAD4"/>
<path d="M206.139 68.0705L163.706 68.0631C161.295 68.0631 158.589 68.7129 156.955 70.2582C155.504 71.6237 155.276 73.672 154.657 75.5073L148.175 75.4889C148.414 69.7627 146.846 61.3348 151.944 57.7412C157.948 53.5089 166.08 56.2729 173.248 49.5188C177.142 45.8445 178.578 30.9342 178.707 25.3878C178.747 23.6919 177.787 21.4822 176.98 20.0689L173.553 14.0527L182.83 1.19796C183.187 0.702419 183.853 0.14447 184.306 0.0343495C184.954 -0.127161 186.033 0.30598 186.393 0.808864L195.917 14.0454L192.165 20.2929C190.87 22.4512 190.266 24.8078 190.443 27.392C190.8 32.6337 191.643 37.6368 192.729 42.7244C195.95 57.8146 212.541 52.4811 218.641 58.7433C220.956 61.1182 221.089 64.4402 221.21 67.5639L221.52 75.4963L215.033 75.5183C214.396 73.6683 214.257 71.576 212.736 70.2472C211.216 68.9184 208.584 68.0742 206.139 68.0742V68.0705Z" fill="#C8CAD4"/>
</svg>
