<svg width="16" height="9" viewBox="0 0 16 9" fill="none" xmlns="http://www.w3.org/2000/svg">
<path d="M3.04538 4.56434C3.71871 3.42685 4.74719 2.54216 5.97253 2.04641C7.19788 1.55065 8.55219 1.4713 9.82704 1.82058C11.1019 2.16985 12.2266 2.92839 13.0282 3.97946C13.8298 5.03053 14.2637 6.31588 14.2633 7.63772C14.2633 7.85093 14.348 8.05541 14.4987 8.20617C14.6495 8.35694 14.854 8.44164 15.0672 8.44164C15.2804 8.44164 15.4849 8.35694 15.6356 8.20617C15.7864 8.05541 15.8711 7.85093 15.8711 7.63772C15.8712 6.02082 15.3581 4.44561 14.4058 3.13894C13.4535 1.83227 12.111 0.861561 10.5717 0.366615C9.03242 -0.128332 7.37577 -0.121977 5.84033 0.384763C4.3049 0.891504 2.96991 1.87248 2.02762 3.18642L1.59591 0.738489C1.55892 0.528475 1.44002 0.341757 1.26536 0.219412C1.0907 0.0970671 0.874588 0.0491166 0.664574 0.0861089C0.454559 0.123101 0.267842 0.242006 0.145497 0.416666C0.0231519 0.591326 -0.0247986 0.807434 0.0121937 1.01745L0.849877 5.7678C0.887154 5.97773 1.00629 6.16425 1.18109 6.28633C1.295 6.36271 1.42512 6.41156 1.56115 6.429C1.69719 6.44644 1.83542 6.432 1.96491 6.38682L6.53117 5.5821C6.74118 5.5451 6.9279 5.4262 7.05025 5.25154C7.17259 5.07688 7.22054 4.86077 7.18355 4.65076C7.14656 4.44074 7.02765 4.25403 6.85299 4.13168C6.67833 4.00934 6.46222 3.96139 6.25221 3.99838L3.04538 4.56434Z" fill="#BACAD6"/>
</svg>
