<svg width="17" height="16" viewBox="0 0 17 16" fill="none" xmlns="http://www.w3.org/2000/svg">
<path d="M10.8409 5.95C11.662 5.95 12.3284 6.6164 12.3284 7.4375V11.4742C12.3284 12.4888 11.9253 13.4619 11.2078 14.1794C10.4903 14.8969 9.51723 15.3 8.50255 15.3C7.48787 15.3 6.51475 14.8969 5.79727 14.1794C5.07978 13.4619 4.6767 12.4888 4.6767 11.4742V7.4375C4.6767 6.6164 5.34225 5.95 6.1642 5.95H10.8409ZM4.36135 5.95C4.05422 6.31785 3.86993 6.77261 3.83435 7.2505L3.82585 7.4375V11.4742C3.82585 12.1941 3.98905 12.8758 4.27975 13.4844C3.99868 13.5609 3.70543 13.5994 3.4 13.6C2.95343 13.6 2.51124 13.512 2.09868 13.3411C1.68612 13.1702 1.31127 12.9197 0.995537 12.6039C0.679806 12.2881 0.429382 11.9131 0.258566 11.5005C0.0877498 11.0879 -0.000111535 10.6457 1.0626e-07 10.1991V7.4375C1.40502e-05 7.06419 0.140395 6.70453 0.393278 6.42992C0.646161 6.15531 0.993055 5.98582 1.3651 5.9551L1.4875 5.95H4.36135ZM12.6438 5.95H15.5125C16.3336 5.95 17 6.6164 17 7.4375V10.2C17.0001 10.7212 16.8804 11.2354 16.6501 11.703C16.4199 12.1705 16.0852 12.5789 15.6719 12.8965C15.2587 13.2141 14.778 13.4325 14.2669 13.5347C13.7558 13.6369 13.2281 13.6203 12.7245 13.4861C12.9795 12.9523 13.1359 12.3641 13.1708 11.7419L13.1784 11.4742V7.4375C13.1784 6.87225 12.9787 6.35375 12.6438 5.95ZM8.5 0C9.1763 0 9.82491 0.26866 10.3031 0.746878C10.7813 1.2251 11.05 1.8737 11.05 2.55C11.05 3.2263 10.7813 3.8749 10.3031 4.35312C9.82491 4.83134 9.1763 5.1 8.5 5.1C7.8237 5.1 7.1751 4.83134 6.69688 4.35312C6.21866 3.8749 5.95 3.2263 5.95 2.55C5.95 1.8737 6.21866 1.2251 6.69688 0.746878C7.1751 0.26866 7.8237 0 8.5 0ZM14.025 0.85C14.5886 0.85 15.1291 1.07388 15.5276 1.4724C15.9261 1.87091 16.15 2.41142 16.15 2.975C16.15 3.53859 15.9261 4.07909 15.5276 4.4776C15.1291 4.87612 14.5886 5.1 14.025 5.1C13.4614 5.1 12.9209 4.87612 12.5224 4.4776C12.1239 4.07909 11.9 3.53859 11.9 2.975C11.9 2.41142 12.1239 1.87091 12.5224 1.4724C12.9209 1.07388 13.4614 0.85 14.025 0.85ZM2.975 0.85C3.53859 0.85 4.07909 1.07388 4.4776 1.4724C4.87612 1.87091 5.1 2.41142 5.1 2.975C5.1 3.53859 4.87612 4.07909 4.4776 4.4776C4.07909 4.87612 3.53859 5.1 2.975 5.1C2.41142 5.1 1.87091 4.87612 1.4724 4.4776C1.07388 4.07909 0.85 3.53859 0.85 2.975C0.85 2.41142 1.07388 1.87091 1.4724 1.4724C1.87091 1.07388 2.41142 0.85 2.975 0.85Z" fill="#DBDDE7"/>
</svg>
