<svg width="12" height="12" viewBox="0 0 12 12" fill="none" xmlns="http://www.w3.org/2000/svg">
<path d="M8.5 0C7.6035 0 6.791 0.168 6.156 0.4845C5.521 0.801 5 1.3165 5 2V4C5 4.0645 5.0215 4.127 5.0315 4.1875C4.53099 4.06043 4.01638 3.99742 3.5 4C2.6035 4 1.791 4.168 1.156 4.4845C0.521 4.801 0 5.3165 0 6V10C0 10.6835 0.5215 11.199 1.1565 11.5155C1.791 11.832 2.6035 12 3.5 12C4.3965 12 5.209 11.832 5.844 11.5155C6.478 11.199 7 10.6835 7 10V9.797C7.4891 9.92934 7.99332 9.99758 8.5 10C9.3965 10 10.209 9.832 10.844 9.5155C11.478 9.199 12 8.6835 12 8V2C12 1.3165 11.4785 0.801 10.8435 0.4845C10.2095 0.168 9.397 0 8.5 0ZM8.5 1C9.2615 1 9.9395 1.164 10.3905 1.3905C10.8415 1.617 11 1.8555 11 2C11 2.1445 10.842 2.383 10.3905 2.6095C9.94 2.836 9.2615 3 8.5 3C7.7385 3 7.0605 2.836 6.6095 2.6095C6.1585 2.383 6 2.1445 6 2C6 1.8555 6.158 1.617 6.6095 1.3905C7.06 1.164 7.7385 1 8.5 1ZM6 3.422C6.0525 3.451 6.1015 3.4885 6.1565 3.5155C6.791 3.832 7.6035 4 8.5 4C9.3965 4 10.209 3.832 10.844 3.5155C10.8985 3.4885 10.9475 3.451 11 3.422V4C11 4.145 10.842 4.383 10.3905 4.6095C9.9395 4.836 9.2615 5 8.5 5C7.7385 5 7.0605 4.836 6.6095 4.6095C6.1585 4.383 6 4.1445 6 4V3.422ZM3.5 5C4.2615 5 4.9395 5.164 5.3905 5.3905C5.8415 5.617 6 5.8555 6 6C6 6.1445 5.842 6.383 5.3905 6.6095C4.9395 6.836 4.2615 7 3.5 7C2.7385 7 2.0605 6.836 1.6095 6.6095C1.1585 6.383 1 6.1445 1 6C1 5.8555 1.158 5.617 1.6095 5.3905C2.06 5.164 2.7385 5 3.5 5ZM11 5.422V6C11 6.145 10.842 6.383 10.3905 6.6095C9.9395 6.836 9.2615 7 8.5 7C7.99066 7.00276 7.48419 6.92358 7 6.7655V6C7 5.9355 6.9785 5.873 6.9685 5.8125C7.4335 5.9335 7.949 6 8.5 6C9.3965 6 10.209 5.832 10.844 5.5155C10.8985 5.4885 10.9475 5.451 11 5.422ZM1 7.422C1.0525 7.451 1.1015 7.4885 1.1565 7.5155C1.791 7.832 2.6035 8 3.5 8C4.3965 8 5.209 7.832 5.844 7.5155C5.8985 7.4885 5.9475 7.451 6 7.422V8C6 8.145 5.842 8.383 5.3905 8.6095C4.9395 8.836 4.2615 9 3.5 9C2.7385 9 2.0605 8.836 1.6095 8.6095C1.1585 8.383 1 8.1445 1 8V7.422ZM11 7.422V8C11 8.145 10.842 8.383 10.3905 8.6095C9.9395 8.836 9.2615 9 8.5 9C7.9315 9 7.418 8.92 7 8.781V7.8125C7.459 7.9335 7.959 8 8.5 8C9.3965 8 10.209 7.832 10.844 7.5155C10.8985 7.4885 10.9475 7.451 11 7.422ZM1 9.422C1.0525 9.451 1.1015 9.4885 1.1565 9.5155C1.791 9.832 2.6035 10 3.5 10C4.3965 10 5.209 9.832 5.844 9.5155C5.8985 9.4885 5.9475 9.451 6 9.422V10C6 10.145 5.842 10.383 5.3905 10.6095C4.9395 10.836 4.2615 11 3.5 11C2.7385 11 2.0605 10.836 1.6095 10.6095C1.1585 10.383 1 10.1445 1 10V9.422Z" fill="#BACAD6"/>
</svg>
