<svg width="21" height="15" viewBox="0 0 21 15" fill="none" xmlns="http://www.w3.org/2000/svg">
<path fill-rule="evenodd" clip-rule="evenodd" d="M20.4255 0.459371C20.7193 0.75326 20.8843 1.15181 20.8843 1.56737C20.8843 1.98293 20.7193 2.38147 20.4255 2.67536L8.67897 14.4219C8.52373 14.5772 8.33943 14.7003 8.13659 14.7844C7.93375 14.8684 7.71635 14.9116 7.49679 14.9116C7.27723 14.9116 7.05983 14.8684 6.85699 14.7844C6.65415 14.7003 6.46985 14.5772 6.31462 14.4219L0.478441 8.58676C0.32876 8.44219 0.209369 8.26926 0.127234 8.07806C0.0451 7.88686 0.00186741 7.68121 5.91714e-05 7.47312C-0.00174907 7.26504 0.0379034 7.05867 0.116703 6.86607C0.195502 6.67347 0.31187 6.49849 0.459016 6.35134C0.606163 6.2042 0.781141 6.08783 0.973742 6.00903C1.16634 5.93023 1.37271 5.89058 1.5808 5.89239C1.78889 5.8942 1.99453 5.93743 2.18573 6.01956C2.37693 6.1017 2.54986 6.22109 2.69443 6.37077L7.49627 11.1726L18.2085 0.459371C18.354 0.313739 18.5268 0.198211 18.717 0.11939C18.9072 0.0405695 19.1111 0 19.317 0C19.5229 0 19.7267 0.0405695 19.9169 0.11939C20.1071 0.198211 20.28 0.313739 20.4255 0.459371Z" fill="#BACAD6"/>
</svg>
