<svg width="20" height="20" viewBox="0 0 20 20" fill="none" xmlns="http://www.w3.org/2000/svg">
<path fill-rule="evenodd" clip-rule="evenodd" d="M14.5908 0C16.0254 0 17.4012 0.569901 18.4157 1.58433C19.4301 2.59876 20 3.97463 20 5.40925C20 5.81755 19.8367 6.21073 19.5463 6.50108L18.7479 7.30105L15.7673 10.2817L8.11689 17.932C7.48347 18.5651 6.67685 18.9966 5.79864 19.1721L1.80938 19.9705C1.56518 20.0195 1.31267 20.0073 1.07429 19.9352C0.835908 19.8631 0.61903 19.7332 0.442922 19.5571C0.266814 19.381 0.136928 19.1641 0.0648021 18.9257C-0.00732385 18.6873 -0.0194566 18.4348 0.0294814 18.1906L0.827939 14.2014C1.00341 13.3232 1.43487 12.5165 2.06797 11.8831L9.71834 4.23273L13.4989 0.452157C13.7878 0.163321 14.1809 0 14.5908 0ZM11.0975 6.06253L3.67245 13.4876C3.35603 13.8041 3.1403 14.2071 3.05243 14.646L2.47778 17.5237L5.35405 16.9491C5.79342 16.8615 6.19701 16.6457 6.51393 16.3291L13.939 8.90401C13.8715 8.17279 13.5503 7.48823 13.031 6.96898C12.5118 6.44973 11.8272 6.12852 11.096 6.06102M15.7809 7.05607C15.2311 5.78148 14.2152 4.76505 12.9409 4.21459L14.8766 2.27893C16.3812 2.41503 17.5804 3.61574 17.7165 5.12193L15.7809 7.05607Z" fill="#BACAD6"/>
</svg>
