<svg width="21" height="20" viewBox="0 0 21 20" fill="none" xmlns="http://www.w3.org/2000/svg">
<path d="M6.61745 16.2046L10.4699 13.881L14.3223 16.2352L13.3133 11.8324L16.7071 8.89726L12.2432 8.49979L10.4699 4.34162L8.69654 8.46922L4.23262 8.86669L7.62642 11.8324L6.61745 16.2046ZM10.4699 16.755L5.39446 19.8125C5.17025 19.9551 4.93584 20.0163 4.69124 19.9959C4.44664 19.9755 4.23262 19.894 4.04917 19.7513C3.86572 19.6086 3.72304 19.4305 3.62113 19.2169C3.51921 19.0032 3.49883 18.7635 3.55998 18.4977L4.90527 12.7191L0.410773 8.83611C0.206941 8.65266 0.0797502 8.44353 0.0291999 8.20872C-0.0213504 7.9739 -0.00626693 7.7448 0.0744505 7.5214C0.155168 7.298 0.277467 7.11455 0.441348 6.97105C0.605229 6.82755 0.829444 6.73583 1.11399 6.69588L7.0455 6.17611L9.33861 0.733795C9.44052 0.489197 9.5987 0.305748 9.81313 0.183449C10.0276 0.0611494 10.2465 0 10.4699 0C10.6933 0 10.9122 0.0611494 11.1266 0.183449C11.3411 0.305748 11.4992 0.489197 11.6011 0.733795L13.8943 6.17611L19.8258 6.69588C20.1111 6.73664 20.3353 6.82837 20.4984 6.97105C20.6615 7.11373 20.7838 7.29718 20.8653 7.5214C20.9468 7.74561 20.9623 7.97513 20.9118 8.20994C20.8612 8.44476 20.7336 8.65348 20.529 8.83611L16.0345 12.7191L17.3798 18.4977C17.4409 18.7627 17.4205 19.0024 17.3186 19.2169C17.2167 19.4313 17.074 19.6094 16.8906 19.7513C16.7071 19.8932 16.4931 19.9747 16.2485 19.9959C16.0039 20.0171 15.7695 19.956 15.5453 19.8125L10.4699 16.755Z" fill="#BACAD6"/>
</svg>
