<svg width="20" height="20" viewBox="0 0 20 20" fill="none" xmlns="http://www.w3.org/2000/svg">
<path d="M4.32421 0C3.17736 0 2.07748 0.455586 1.26653 1.26653C0.455586 2.07748 0 3.17736 0 4.32421V11.0354C0 12.1822 0.455586 13.2821 1.26653 14.0931C2.07748 14.904 3.17736 15.3596 4.32421 15.3596H4.42475V19.459C4.42465 19.5641 4.45519 19.6669 4.51263 19.7549C4.57007 19.8429 4.65192 19.9123 4.74816 19.9545C4.8444 19.9967 4.95086 20.0099 5.05451 19.9926C5.15816 19.9752 5.25451 19.928 5.33176 19.8568L10.2181 15.3596H14.9412C16.0881 15.3596 17.188 14.904 17.9989 14.0931C18.8099 13.2821 19.2655 12.1822 19.2655 11.0354V4.32421C19.2655 3.17736 18.8099 2.07748 17.9989 1.26653C17.188 0.455586 16.0881 0 14.9412 0H4.32421Z" fill="#BACAD6"/>
</svg>
