<svg width="20" height="20" viewBox="0 0 20 20" fill="none" xmlns="http://www.w3.org/2000/svg">
<mask id="path-1-inside-1_484_1597" fill="white">
<path d="M13.4881 8.88287L15.7804 6.59003C16.4931 6.78098 17.249 6.7314 17.9307 6.449C18.6124 6.16659 19.1819 5.66713 19.5509 5.02809C19.9198 4.38904 20.0676 3.64611 19.9712 2.91453C19.8749 2.18294 19.5399 1.50359 19.0181 0.981813C18.4963 0.46004 17.817 0.125012 17.0854 0.0286878C16.3538 -0.0676362 15.6109 0.0801267 14.9718 0.44906C14.3328 0.817994 13.8333 1.38748 13.5509 2.0692C13.2685 2.75092 13.2189 3.50677 13.4099 4.21954L11.1182 6.51237"/>
</mask>
<path d="M13.4881 8.88287L15.7804 6.59003C16.4931 6.78098 17.249 6.7314 17.9307 6.449C18.6124 6.16659 19.1819 5.66713 19.5509 5.02809C19.9198 4.38904 20.0676 3.64611 19.9712 2.91453C19.8749 2.18294 19.5399 1.50359 19.0181 0.981813C18.4963 0.46004 17.817 0.125012 17.0854 0.0286878C16.3538 -0.0676362 15.6109 0.0801267 14.9718 0.44906C14.3328 0.817994 13.8333 1.38748 13.5509 2.0692C13.2685 2.75092 13.2189 3.50677 13.4099 4.21954L11.1182 6.51237" fill="#BACAD6"/>
<path d="M12.7809 8.17585C12.3904 8.56642 12.3905 9.19958 12.7811 9.59006C13.1717 9.98054 13.8048 9.98046 14.1953 9.58989L13.4881 8.88287L12.7809 8.17585ZM15.7804 6.59003L16.0391 5.62409C15.694 5.53163 15.3258 5.63034 15.0732 5.88301L15.7804 6.59003ZM13.4099 4.21954L14.1172 4.92647C14.3697 4.67386 14.4682 4.30576 14.3758 3.96076L13.4099 4.21954ZM10.4109 5.80544C10.0205 6.19606 10.0206 6.82922 10.4112 7.21965C10.8018 7.61008 11.435 7.60993 11.8254 7.21931L11.1182 6.51237L10.4109 5.80544ZM13.4881 8.88287L14.1953 9.58989L16.4876 7.29705L15.7804 6.59003L15.0732 5.88301L12.7809 8.17585L13.4881 8.88287ZM15.7804 6.59003L15.5216 7.55597C16.447 7.80388 17.4283 7.73952 18.3134 7.37286L17.9307 6.449L17.548 5.52513C17.0696 5.72329 16.5393 5.75808 16.0391 5.62409L15.7804 6.59003ZM17.9307 6.449L18.3134 7.37286C19.1985 7.00621 19.9379 6.35775 20.4169 5.52806L19.5509 5.02809L18.6848 4.52811C18.4259 4.97651 18.0263 5.32697 17.548 5.52513L17.9307 6.449ZM19.5509 5.02809L20.4169 5.52806C20.8959 4.69838 21.0877 3.73382 20.9627 2.78399L19.9712 2.91453L18.9798 3.04507C19.0474 3.5584 18.9437 4.0797 18.6848 4.52811L19.5509 5.02809ZM19.9712 2.91453L20.9627 2.78399C20.8376 1.83416 20.4026 0.952133 19.7252 0.274706L19.0181 0.981813L18.311 1.68892C18.6771 2.05504 18.9122 2.53173 18.9798 3.04507L19.9712 2.91453ZM19.0181 0.981813L19.7252 0.274706C19.0478 -0.402723 18.1658 -0.837696 17.2159 -0.962756L17.0854 0.0286878L16.9548 1.02013C17.4682 1.08772 17.9449 1.3228 18.311 1.68892L19.0181 0.981813ZM17.0854 0.0286878L17.2159 -0.962756C16.2661 -1.08781 15.3015 -0.895971 14.4718 -0.416977L14.9718 0.44906L15.4718 1.3151C15.9202 1.05622 16.4415 0.952542 16.9548 1.02013L17.0854 0.0286878ZM14.9718 0.44906L14.4718 -0.416977C13.6422 0.0620168 12.9937 0.801393 12.6271 1.68648L13.5509 2.0692L14.4748 2.45192C14.6729 1.97357 15.0234 1.57397 15.4718 1.3151L14.9718 0.44906ZM13.5509 2.0692L12.6271 1.68648C12.2604 2.57157 12.196 3.55291 12.4439 4.47831L13.4099 4.21954L14.3758 3.96076C14.2418 3.46063 14.2766 2.93026 14.4748 2.45192L13.5509 2.0692ZM13.4099 4.21954L12.7026 3.5126L10.4109 5.80544L11.1182 6.51237L11.8254 7.21931L14.1172 4.92647L13.4099 4.21954Z" fill="#BACAD6" mask="url(#path-1-inside-1_484_1597)"/>
<path d="M18.707 14.8081L17.1836 16.3306L11.0088 12.0278C10.8614 11.9253 10.6722 11.9108 10.5127 11.9849L10.4463 12.022L8.41602 13.3745L6.42773 11.3862L7.78125 9.35693C7.89435 9.18688 7.89307 8.96471 7.77734 8.79639L3.66699 2.81787L5.19238 1.29346L18.707 14.8081Z" fill="#BACAD6" stroke="#BACAD6" stroke-linecap="round" stroke-linejoin="round"/>
<mask id="path-4-inside-2_484_1597" fill="white">
<path d="M7.15436 9.0499C6.19241 8.76883 5.17256 8.7517 4.20171 9.00028C3.23086 9.24887 2.34475 9.75403 1.63624 10.4628C-0.545415 12.6445 -0.545415 16.1821 1.63624 18.3637C3.8179 20.5454 7.35549 20.5454 9.53715 18.3637C10.246 17.6553 10.7513 16.7692 11 15.7983C11.2487 14.8275 11.2316 13.8076 10.9506 12.8456"/>
</mask>
<path d="M7.15436 9.0499C6.19241 8.76883 5.17256 8.7517 4.20171 9.00028C3.23086 9.24887 2.34475 9.75403 1.63624 10.4628C-0.545415 12.6445 -0.545415 16.1821 1.63624 18.3637C3.8179 20.5454 7.35549 20.5454 9.53715 18.3637C10.246 17.6553 10.7513 16.7692 11 15.7983C11.2487 14.8275 11.2316 13.8076 10.9506 12.8456" fill="#BACAD6"/>
<path d="M6.87391 10.0098C7.40403 10.1647 7.95934 9.86047 8.11423 9.33035C8.26912 8.80023 7.96494 8.24492 7.43482 8.09003L7.15436 9.0499L6.87391 10.0098ZM1.63624 10.4628L2.34335 11.1699L2.34349 11.1698L1.63624 10.4628ZM9.53715 18.3637L8.83026 17.6564L8.83004 17.6566L9.53715 18.3637ZM11.9105 12.5652C11.7557 12.0351 11.2004 11.7309 10.6702 11.8857C10.1401 12.0406 9.83588 12.5958 9.99073 13.126L10.9506 12.8456L11.9105 12.5652ZM7.15436 9.0499L7.43482 8.09003C6.30068 7.75866 5.09829 7.73845 3.95367 8.03154L4.20171 9.00028L4.44976 9.96903C5.24684 9.76494 6.08414 9.77901 6.87391 10.0098L7.15436 9.0499ZM4.20171 9.00028L3.95367 8.03154C2.80904 8.32462 1.76432 8.92019 0.928999 9.75584L1.63624 10.4628L2.34349 11.1698C2.92518 10.5879 3.65268 10.1731 4.44976 9.96903L4.20171 9.00028ZM1.63624 10.4628L0.929138 9.7557C-1.64305 12.3279 -1.64305 16.4986 0.929138 19.0708L1.63624 18.3637L2.34335 17.6566C0.552216 15.8655 0.552216 12.961 2.34335 11.1699L1.63624 10.4628ZM1.63624 18.3637L0.929138 19.0708C3.50132 21.643 7.67207 21.643 10.2443 19.0708L9.53715 18.3637L8.83004 17.6566C7.03891 19.4477 4.13449 19.4477 2.34335 17.6566L1.63624 18.3637ZM9.53715 18.3637L10.244 19.071C11.0798 18.2358 11.6755 17.1911 11.9687 16.0465L11 15.7983L10.0312 15.5502C9.82708 16.3473 9.41225 17.0747 8.83026 17.6564L9.53715 18.3637ZM11 15.7983L11.9687 16.0465C12.2619 14.9018 12.2418 13.6994 11.9105 12.5652L10.9506 12.8456L9.99073 13.126C10.2214 13.9158 10.2354 14.7531 10.0312 15.5502L11 15.7983Z" fill="#BACAD6" mask="url(#path-4-inside-2_484_1597)"/>
</svg>
