<svg width="22" height="20" viewBox="0 0 22 20" fill="none" xmlns="http://www.w3.org/2000/svg">
<path d="M8.77387 0.177826L1.25047 3.4534C0.746075 3.67735 0.349839 4.09047 0.14712 4.60376C-0.0555991 5.11706 -0.0485766 5.68944 0.166675 6.1976L5.34362 18.7138C5.44687 18.968 5.59978 19.199 5.79341 19.3933C5.98705 19.5877 6.2175 19.7414 6.47129 19.8456C6.72508 19.9497 6.9971 20.0022 7.27142 19.9999C7.54574 19.9977 7.81685 19.9407 8.06888 19.8323L15.5839 16.5599C16.0902 16.3371 16.4884 15.924 16.6924 15.4098C16.8964 14.8957 16.8898 14.3219 16.674 13.8126L11.497 1.29739C11.3939 1.0434 11.2411 0.812517 11.0477 0.618253C10.8542 0.42399 10.624 0.270241 10.3705 0.165998C10.1169 0.0617553 9.84511 0.00911012 9.57097 0.011141C9.29684 0.0131719 9.02585 0.069838 8.77387 0.177826ZM14.721 1.05504e-07C15.252 -0.000167913 15.7633 0.20035 16.1526 0.561359C16.542 0.922367 16.7804 1.41718 16.8202 1.94662L16.8255 2.10445V5.78724C16.8252 6.05543 16.7225 6.31338 16.5384 6.5084C16.3543 6.70341 16.1027 6.82077 15.8349 6.83649C15.5672 6.8522 15.3036 6.7651 15.0979 6.59296C14.8923 6.42083 14.7601 6.17666 14.7284 5.91035L14.721 5.78724V2.10445H13.6688C13.4006 2.10415 13.1427 2.00146 12.9477 1.81735C12.7526 1.63325 12.6353 1.38162 12.6196 1.11389C12.6039 0.846161 12.691 0.582533 12.8631 0.376873C13.0352 0.171212 13.2794 0.0390414 13.5457 0.00736565L13.6688 1.05504e-07H14.721ZM17.9619 2.74631C18.0709 2.48971 18.2773 2.28685 18.5357 2.18229C18.7942 2.07773 19.0835 2.08001 19.3403 2.18863C19.6107 2.30227 19.8717 2.40959 20.1495 2.51903C20.6375 2.7262 21.0294 3.10996 21.2467 3.59357C21.464 4.07718 21.4908 4.625 21.3217 5.12749L21.2627 5.28112L18.8447 10.9358C18.7383 11.1812 18.5424 11.3769 18.2969 11.483C18.0514 11.5892 17.7746 11.5979 17.5229 11.5073C17.2713 11.4167 17.0635 11.2336 16.942 10.9953C16.8204 10.757 16.7942 10.4814 16.8686 10.2245L16.9107 10.1087L19.3266 4.45722L18.9415 4.30149L18.5185 4.12577C18.3912 4.07181 18.2758 3.99328 18.1788 3.89467C18.0819 3.79606 18.0053 3.67932 17.9535 3.5511C17.9018 3.42289 17.8757 3.28573 17.877 3.14745C17.8782 3.00918 17.9067 2.87251 17.9608 2.74525L17.9619 2.74631Z" fill="#BACAD6"/>
</svg>
