<svg width="19" height="20" viewBox="0 0 19 20" fill="none" xmlns="http://www.w3.org/2000/svg">
<path d="M17.4676 8.12172C17.8037 8.30678 18.084 8.57866 18.2792 8.90899C18.4744 9.23932 18.5774 9.61598 18.5774 9.99968C18.5774 10.3834 18.4744 10.76 18.2792 11.0904C18.084 11.4207 17.8037 11.6926 17.4676 11.8776L3.17566 19.7353C2.8492 19.9146 2.48167 20.0057 2.10927 19.9997C1.73688 19.9937 1.37247 19.8908 1.05195 19.7011C0.731428 19.5114 0.465856 19.2415 0.281396 18.918C0.0969356 18.5944 -4.80416e-05 18.2284 1.78529e-08 17.8559V2.14342C6.37975e-05 1.77089 0.0972007 1.40481 0.281837 1.08126C0.466473 0.757707 0.732235 0.487852 1.05293 0.298293C1.37362 0.108733 1.73817 0.00601298 2.11066 0.000256061C2.48314 -0.00550086 2.85069 0.0859043 3.17709 0.265462L17.4676 8.12172Z" fill="#BACAD6"/>
</svg>
