<svg width="8" height="10" viewBox="0 0 8 10" fill="none" xmlns="http://www.w3.org/2000/svg">
  <path
    d="M0 1.21467C9.49836e-06 1.14818 0.0132805 1.08236 0.0390365 1.02106C0.0647925 0.959762 0.102516 0.904215 0.15 0.857672C0.694922 0.323491 1.42292 0.0170379 2.18583 0.000689311C2.94873 -0.0156593 3.68919 0.259326 4.2565 0.769672L4.432 0.933672C4.79671 1.25322 5.2651 1.42939 5.75 1.42939C6.2349 1.42939 6.70329 1.25322 7.068 0.933672L7.1925 0.820172C7.4975 0.578672 7.956 0.771672 7.9975 1.15817L8 1.21467V5.71467C7.99999 5.78116 7.98672 5.84698 7.96096 5.90828C7.93521 5.96958 7.89748 6.02513 7.85 6.07167C7.30508 6.60585 6.57708 6.91231 5.81417 6.92865C5.05127 6.945 4.31081 6.67002 3.7435 6.15967L3.568 5.99567C3.21477 5.68617 2.76388 5.51085 2.29436 5.50043C1.82483 5.49001 1.36662 5.64515 1 5.93867V9.21467C0.999859 9.34211 0.951061 9.46469 0.863576 9.55736C0.776091 9.65002 0.656523 9.70579 0.529303 9.71326C0.402082 9.72073 0.27681 9.67933 0.179084 9.59754C0.0813573 9.51575 0.0185518 9.39972 0.00349998 9.27317L0 9.21467V1.21467Z"
    fill="currentColor"
  />
</svg>
