<svg width="20" height="18" viewBox="0 0 20 18" fill="none" xmlns="http://www.w3.org/2000/svg">
<path d="M16.6827 0C16.7908 0 16.8906 0.0581868 16.9438 0.152302L19.7468 5.10786C19.8599 5.30785 19.7154 5.55556 19.4856 5.55556H16.6867C16.567 5.55556 16.4588 5.48446 16.4113 5.37464L14.2681 0.419089C14.1824 0.221018 14.3276 0 14.5434 0H16.6827ZM12.2161 0C12.3357 0 12.4439 0.0710946 12.4914 0.180911L14.6347 5.13647C14.7204 5.33454 14.5752 5.55556 14.3594 5.55556H5.64063C5.42483 5.55556 5.27962 5.33454 5.36528 5.13647L7.50856 0.180911C7.55606 0.0710943 7.66427 0 7.78391 0H12.2161ZM3.05622 0.152302C3.10945 0.0581871 3.20921 0 3.31734 0H5.45659C5.67239 0 5.8176 0.221018 5.73194 0.419089L3.58866 5.37465C3.54117 5.48446 3.43296 5.55556 3.31331 5.55556H0.514353C0.284589 5.55556 0.140111 5.30785 0.253229 5.10786L3.05622 0.152302ZM0.424796 7.16197C0.257912 6.96739 0.396169 6.66667 0.652516 6.66667H3.30923C3.42384 6.66667 3.52844 6.73197 3.57876 6.83495L7.76736 15.4063C7.81944 15.5139 7.67361 15.6111 7.59375 15.5208L0.424796 7.16197ZM5.32624 7.08538C5.24092 6.88735 5.38613 6.66667 5.60175 6.66667H14.3984C14.614 6.66667 14.7592 6.88729 14.6739 7.0853L10.0972 17.7153C10.0625 17.7986 9.94097 17.7986 9.90625 17.7153L5.32624 7.08538ZM12.2326 15.4063L16.4212 6.83495C16.4716 6.73197 16.5762 6.66667 16.6908 6.66667H19.3473C19.6037 6.66667 19.7419 6.96744 19.575 7.16201L12.4062 15.5174C12.3264 15.6111 12.1806 15.5139 12.2326 15.4063Z" fill="#A4ADB6"/>
</svg>
