<svg width="10" height="8" viewBox="0 0 10 8" fill="none" xmlns="http://www.w3.org/2000/svg">
  <path
    fill-rule="evenodd"
    clip-rule="evenodd"
    d="M9.62048 0.216365C9.75886 0.354788 9.8366 0.542505 9.8366 0.738235C9.8366 0.933966 9.75886 1.12168 9.62048 1.26011L4.08782 6.79276C4.01471 6.86589 3.9279 6.92391 3.83237 6.96349C3.73683 7.00307 3.63443 7.02344 3.53102 7.02344C3.4276 7.02344 3.3252 7.00307 3.22967 6.96349C3.13413 6.92391 3.04732 6.86589 2.97421 6.79276L0.225348 4.0444C0.154847 3.9763 0.0986134 3.89485 0.0599278 3.8048C0.0212423 3.71474 0.000879556 3.61788 2.78699e-05 3.51987C-0.000823816 3.42186 0.0178526 3.32466 0.0549673 3.23394C0.092082 3.14323 0.146892 3.06081 0.216198 2.99151C0.285505 2.9222 0.36792 2.86739 0.458636 2.83028C0.549351 2.79316 0.64655 2.77448 0.744561 2.77534C0.842572 2.77619 0.939431 2.79655 1.02949 2.83524C1.11954 2.87392 1.201 2.93016 1.26909 3.00066L3.53077 5.26234L8.57625 0.216365C8.6448 0.147772 8.72619 0.0933582 8.81578 0.0562333C8.90537 0.0191084 9.00139 0 9.09837 0C9.19534 0 9.29137 0.0191084 9.38095 0.0562333C9.47054 0.0933582 9.55193 0.147772 9.62048 0.216365Z"
    fill="currentColor"
  />
</svg>
