<svg width="24" height="24" viewBox="0 0 24 24" fill="none" xmlns="http://www.w3.org/2000/svg">
<path fill-rule="evenodd" clip-rule="evenodd" d="M20 12C20 12 20 12 20 12C20 9.24 17.76 7 15 7C12.86 7 11.04 8.33 10.32 10.2C9.62 9.46 8.62 9 7.5 9C5.29 9 3.5 10.79 3.5 13C3.5 15.21 5.29 17 7.5 17H20C21.93 17 23.5 15.43 23.5 13.5C23.5 11.57 21.93 10 20 10V12Z" fill="black"/>
<path d="M7 19.5C7 20.33 6.33 21 5.5 21C4.67 21 4 20.33 4 19.5C4 18.67 4.67 18 5.5 18C6.33 18 7 18.67 7 19.5Z" fill="black"/>
<path d="M12 19.5C12 20.33 11.33 21 10.5 21C9.67 21 9 20.33 9 19.5C9 18.67 9.67 18 10.5 18C11.33 18 12 18.67 12 19.5Z" fill="black"/>
<path d="M17 19.5C17 20.33 16.33 21 15.5 21C14.67 21 14 20.33 14 19.5C14 18.67 14.67 18 15.5 18C16.33 18 17 18.67 17 19.5Z" fill="black"/>
</svg>
