<svg width="24" height="24" viewBox="0 0 24 24" fill="none" xmlns="http://www.w3.org/2000/svg">
<path fill-rule="evenodd" clip-rule="evenodd" d="M12 2C9.24 2 7 4.24 7 7C7 9.76 9.24 12 12 12C14.76 12 17 9.76 17 7C17 4.24 14.76 2 12 2ZM12 10C10.34 10 9 8.66 9 7C9 5.34 10.34 4 12 4C13.66 4 15 5.34 15 7C15 8.66 13.66 10 12 10Z" fill="black"/>
<path d="M2 14C2 14 4 12 7 14C10 16 14 16 17 14C20 12 22 14 22 14V16C22 16 20 18 17 16C14 14 10 14 7 16C4 18 2 16 2 16V14Z" fill="black"/>
<path d="M2 18C2 18 4 16 7 18C10 20 14 20 17 18C20 16 22 18 22 18V20C22 20 20 22 17 20C14 18 10 18 7 20C4 22 2 20 2 20V18Z" fill="black"/>
</svg>
