<svg width="20" height="20" viewBox="0 0 20 20" fill="none" xmlns="http://www.w3.org/2000/svg">
  <path
    d="M17.35 9.59736L15.22 11.7274L13.81 10.3074L6.1 18.0174L1.5 19.8774L0 18.3774L1.86 13.7774L9.57 6.06736L8.15 4.65736L10.28 2.52736L17.35 9.59736ZM14.76 0.87736C15.3225 0.315558 16.085 0 16.88 0C17.675 0 18.4375 0.315558 19 0.87736C19.5618 1.43986 19.8774 2.20236 19.8774 2.99736C19.8774 3.79236 19.5618 4.55486 19 5.11736L17.08 7.03736L12.84 2.79736L14.76 0.87736ZM3.56 14.9074L2.5 17.3774L4.97 16.3174L12.4 8.87736L11 7.47736L3.56 14.9074Z"
    fill="currentColor"
  />
</svg>
