<svg viewBox="0 0 130 52" fill="none" xmlns="http://www.w3.org/2000/svg" x="0" y="0"><g id="Frame 1294756080">
<g id="Vector_9">
<path d="M25.0009,52c13.81,0 25,-11.6406 25,-26c0,-14.3594 -11.19,-26 -25,-26c-13.81,0 -25,11.6406 -25,26c0,14.3594 11.19,26 25,26z" fill="#D4CDC8"/>
<path fill-rule="evenodd" clip-rule="evenodd" d="M11.3209,25.7255c7.28,-3.3022 12.14,-5.4793 14.57,-6.5312c6.95,-3.0032 8.39,-3.5249 9.33,-3.5421c0.21,-0.0038 0.67,0.0495 0.97,0.3023c0.25,0.2134 0.32,0.5017 0.36,0.7041c0.03,0.2023 0.07,0.6633 0.04,1.0235c-0.38,4.1112 -2.01,14.088 -2.84,18.6927c-0.35,1.9484 -1.04,2.6016 -1.7,2.6656c-1.46,0.1389 -2.56,-0.9978 -3.96,-1.9565c-2.2,-1.5 -3.45,-2.4338 -5.58,-3.8975c-2.47,-1.6916 -0.87,-2.6214 0.54,-4.1409c0.36,-0.3976 6.76,-6.4486 6.88,-6.9975c0.02,-0.0686 0.03,-0.3245 -0.11,-0.4597c-0.15,-0.1351 -0.36,-0.0889 -0.52,-0.0521c-0.22,0.0521 -3.74,2.4683 -10.55,7.2487c-0.99,0.7125 -1.9,1.0597 -2.71,1.0415c-0.89,-0.0201 -2.61,-0.5249 -3.88,-0.9564c-1.57,-0.5293 -2.81,-0.8091 -2.7,-1.708c0.05,-0.4682 0.67,-0.947 1.86,-1.4365z" fill="#111111"/>
</g>
<g id="Vector_10">
<path d="M80.0009,24.96c0,-11.7663 0,-17.6494 3.51,-21.3047c3.52,-3.6553 9.18,-3.6553 20.49,-3.6553h2c11.31,0 16.97,0 20.48,3.6553c3.52,3.6553 3.52,9.5384 3.52,21.3047v2.08c0,11.7663 0,17.6493 -3.52,21.3047c-3.51,3.6553 -9.17,3.6553 -20.48,3.6553h-2c-11.31,0 -16.97,0 -20.49,-3.6553c-3.51,-3.6554 -3.51,-9.5384 -3.51,-21.3047z" fill="#D4CDC8"/>
<path d="M106.6009,37.4618c-11.39,0 -17.89,-8.125 -18.16,-21.645h5.7c0.19,9.9233 4.4,14.1266 7.73,14.9933v-14.9933h5.38v8.5583c3.29,-0.3683 6.75,-4.2683 7.92,-8.5583h5.37c-0.9,5.2866 -4.65,9.1866 -7.31,10.79c2.66,1.3 6.94,4.7016 8.56,10.855h-5.92c-1.27,-4.1167 -4.43,-7.3017 -8.62,-7.735v7.735z" fill="#111111"/>
</g>
</g></svg>