<svg width="19" height="19" viewBox="0 0 19 19" fill="none" xmlns="http://www.w3.org/2000/svg">
<path d="M15.5996 16.5498V17.8496H2.59961V16.5498H15.5996ZM1.69727 16.0996C1.73209 16.1905 1.78436 16.2746 1.85449 16.3447C1.92454 16.4148 2.00888 16.4662 2.09961 16.501V17.8311C1.66149 17.7758 1.25112 17.5792 0.935547 17.2637C0.619947 16.9481 0.422434 16.5378 0.367188 16.0996H1.69727ZM17.832 16.0996C17.7768 16.5378 17.5793 16.9481 17.2637 17.2637C16.9481 17.5792 16.5377 17.7758 16.0996 17.8311V16.501C16.1903 16.4662 16.2747 16.4148 16.3447 16.3447C16.4149 16.2746 16.4671 16.1905 16.502 16.0996H17.832ZM17.8496 9.34961V15.5996H16.5498V9.34961H17.8496ZM1.64941 2.59961V15.5996H0.349609V2.59961H1.64941ZM17.1992 8.44922C17.3715 8.44922 17.5373 8.51787 17.6592 8.63965C17.7197 8.7002 17.7665 8.77208 17.7988 8.84961H16.5996C16.632 8.77198 16.6796 8.70027 16.7402 8.63965C16.862 8.51803 17.0271 8.44932 17.1992 8.44922ZM2.09961 1.69727C2.00875 1.73209 1.92463 1.78436 1.85449 1.85449C1.78436 1.92463 1.73209 2.00875 1.69727 2.09961H0.367188C0.422434 1.66145 0.619947 1.25115 0.935547 0.935547C1.25115 0.619947 1.66145 0.422434 2.09961 0.367188V1.69727ZM8.84961 0.349609V1.64941H2.59961V0.349609H8.84961ZM9.34961 0.399414C9.42727 0.431761 9.49893 0.479399 9.55957 0.540039C9.68135 0.661919 9.75 0.827701 9.75 1C9.7499 1.17211 9.68119 1.33721 9.55957 1.45898C9.49895 1.51961 9.42724 1.56726 9.34961 1.59961V0.399414Z" fill="#BACAD6" stroke="#BACAD6" stroke-width="0.5"/>
<path d="M1 14.05L5.81185 9.6391C5.97404 9.49046 6.18505 9.40636 6.40502 9.40272C6.62499 9.39907 6.83867 9.47612 7.0057 9.6193L12.7 14.5M10.9 12.25L13.0478 10.1021C13.201 9.94885 13.4044 9.85598 13.6206 9.84061C13.8368 9.82523 14.0512 9.88838 14.2246 10.0184L17.2 12.25M11.8 3.7H17.2M14.5 1V6.4" stroke="#BACAD6" stroke-width="2" stroke-linecap="round" stroke-linejoin="round"/>
</svg>
