<svg width="22" height="22" viewBox="0 0 22 22" fill="none" xmlns="http://www.w3.org/2000/svg">
<path fill-rule="evenodd" clip-rule="evenodd" d="M19.4973 8.96001C19.1578 5.47679 17.0985 0 10.7345 0C4.37049 0 2.31121 5.47679 1.97166 8.96001C0.780466 9.4121 -0.00526197 10.5558 2.65325e-05 11.8298V13.3633C2.65325e-05 15.0572 1.37319 16.4303 3.067 16.4303C4.76086 16.4303 6.13403 15.0571 6.13403 13.3633V11.8298C6.12848 10.5832 5.37166 9.46309 4.21712 8.99287C4.43621 6.97739 5.50967 2.19072 10.7345 2.19072C15.9593 2.19072 17.0218 6.97739 17.2409 8.99287C16.0887 9.46411 15.3357 10.585 15.335 11.8298V13.3633C15.3373 13.9404 15.5019 14.5052 15.8098 14.9933C16.1178 15.4814 16.5567 15.8731 17.0766 16.1236C16.6166 16.9889 15.4445 18.161 12.5637 18.5115C11.9879 17.6371 10.8738 17.2923 9.90468 17.6888C8.93565 18.0851 8.38251 19.1119 8.58461 20.1392C8.7867 21.1665 9.68749 21.9071 10.7345 21.9071C11.1402 21.9048 11.5373 21.79 11.8815 21.5753C12.2258 21.3606 12.5037 21.0546 12.6842 20.6912C17.3833 20.1545 18.8839 17.7338 19.3549 16.3098C20.6292 15.897 21.4861 14.7027 21.4689 13.3633V11.8298C21.4742 10.5558 20.6885 9.4121 19.4973 8.96001ZM3.9433 13.3633C3.9433 13.8473 3.55098 14.2396 3.067 14.2396C2.58302 14.2396 2.19075 13.8473 2.19075 13.3633V11.8298C2.18987 11.7142 2.21188 11.5995 2.25552 11.4924C2.29916 11.3853 2.36356 11.2879 2.44502 11.2059C2.52648 11.1238 2.62338 11.0586 2.73013 11.0142C2.83689 10.9697 2.95138 10.9468 3.06703 10.9468C3.18267 10.9468 3.29717 10.9697 3.40392 11.0142C3.51067 11.0586 3.60757 11.1238 3.68903 11.2059C3.77049 11.2879 3.83489 11.3853 3.87853 11.4924C3.92217 11.5995 3.94419 11.7142 3.9433 11.8298V13.3633ZM17.5257 11.8298C17.5257 11.3458 17.918 10.9535 18.402 10.9535C18.8859 10.9535 19.2783 11.3458 19.2783 11.8298V13.3633C19.2783 13.8473 18.8859 14.2396 18.402 14.2396C17.918 14.2396 17.5257 13.8473 17.5257 13.3633V11.8298Z" fill="#BACAD6"/>
</svg>
