<svg width="40" height="40" viewBox="0 0 40 40" fill="none" xmlns="http://www.w3.org/2000/svg">
<mask id="path-1-inside-1_207_1894" fill="white">
<path d="M12 40C5.37258 40 -2.34843e-07 34.6274 -5.24537e-07 28L-1.22392e-06 12C-1.51361e-06 5.37259 5.37258 -2.34843e-07 12 -5.24537e-07L28 -1.22392e-06C34.6274 -1.51361e-06 40 5.37258 40 12L40 28C40 34.6274 34.6274 40 28 40L12 40Z"/>
</mask>
<path d="M12 40C5.37258 40 -2.34843e-07 34.6274 -5.24537e-07 28L-1.22392e-06 12C-1.51361e-06 5.37259 5.37258 -2.34843e-07 12 -5.24537e-07L28 -1.22392e-06C34.6274 -1.51361e-06 40 5.37258 40 12L40 28C40 34.6274 34.6274 40 28 40L12 40Z" fill="#171716"/>
<path d="M-5.24537e-07 28L0.499999 28L0.499999 12L-1.22392e-06 12L-0.500001 12L-0.500001 28L-5.24537e-07 28ZM12 -5.24537e-07L12 0.499999L28 0.499999L28 -1.22392e-06L28 -0.500001L12 -0.500001L12 -5.24537e-07ZM40 12L39.5 12L39.5 28L40 28L40.5 28L40.5 12L40 12ZM28 40L28 39.5L12 39.5L12 40L12 40.5L28 40.5L28 40ZM40 28L39.5 28C39.5 34.3513 34.3513 39.5 28 39.5L28 40L28 40.5C34.9036 40.5 40.5 34.9036 40.5 28L40 28ZM28 -1.22392e-06L28 0.499999C34.3513 0.499998 39.5 5.64873 39.5 12L40 12L40.5 12C40.5 5.09644 34.9036 -0.500002 28 -0.500001L28 -1.22392e-06ZM-1.22392e-06 12L0.499999 12C0.499998 5.64873 5.64872 0.5 12 0.499999L12 -5.24537e-07L12 -0.500001C5.09644 -0.5 -0.500002 5.09644 -0.500001 12L-1.22392e-06 12ZM-5.24537e-07 28L-0.500001 28C-0.5 34.9036 5.09644 40.5 12 40.5L12 40L12 39.5C5.64873 39.5 0.5 34.3513 0.499999 28L-5.24537e-07 28Z" fill="url(#paint0_linear_207_1894)" mask="url(#path-1-inside-1_207_1894)"/>
<defs>
<linearGradient id="paint0_linear_207_1894" x1="28.4744" y1="11.2037" x2="-84.689" y2="-10.732" gradientUnits="userSpaceOnUse">
<stop stop-color="#31302E"/>
<stop offset="1" stop-color="#BACAD6"/>
</linearGradient>
</defs>
</svg>
