<svg viewBox="0 0 43.832 43.1249" fill="none" xmlns="http://www.w3.org/2000/svg" xmlns:xlink="http://www.w3.org/1999/xlink" x="0" y="0"><path id="Vector_9" d="M12.534,42.1901l1.738,-0.46l-6.198,-23.13l-1.738,0.46c-1.911,0.51 -3.046,2.53 -2.522,4.49l4.291,16.02c0.525,1.95 2.518,3.14 4.429,2.62zM34.141,11.6101l-11.487,3.08l0.34,-6.52c0.056,-1.18 -0.437,-2.32 -1.328,-3.08c-0.908,-0.74 -2.098,-1.02 -3.211,-0.72l-1.06,0.29c-0.521,0.14 -0.946,0.5 -1.166,1l-4.929,11l6.465,24.13l17.917,-4.8c0.707,-0.19 1.337,-0.6 1.807,-1.17c0.47,-0.56 0.757,-1.27 0.823,-2.01l1.292,-14.37c0.017,-0.21 -0.006,-0.43 -0.063,-0.65l-0.953,-3.56c-0.525,-1.95 -2.518,-3.14 -4.43,-2.62z" fill="currentColor"/></svg>