<svg viewBox="0 0 33.1416 24.4339" fill="none" xmlns="http://www.w3.org/2000/svg" xmlns:xlink="http://www.w3.org/1999/xlink" x="0" y="0"><g id="arrow-right">
<path id="Vector_22" d="M20.9268,24.4348c-0.34,0 -0.681,-0.13 -0.949,-0.4c-0.52,-0.51 -0.52,-1.37 0,-1.89l9.925,-9.93l-9.925,-9.93c-0.52,-0.52 -0.52,-1.38 0,-1.9c0.519,-0.51 1.379,-0.51 1.899,0l10.875,10.88c0.52,0.52 0.52,1.38 0,1.9l-10.875,10.87c-0.269,0.27 -0.609,0.4 -0.95,0.4z" fill="currentColor"/>
<path id="Vector_23" d="M31.4978,13.5548h-30.154c-0.735,0 -1.344,-0.61 -1.344,-1.34c0,-0.74 0.609,-1.34 1.344,-1.34h30.154c0.734,0 1.343,0.6 1.343,1.34c0,0.73 -0.609,1.34 -1.343,1.34z" fill="currentColor"/>
</g></svg>