<svg viewBox="0 0 12.0742 12.0678" fill="none" xmlns="http://www.w3.org/2000/svg" xmlns:xlink="http://www.w3.org/1999/xlink" x="0" y="0"><g id="Vector_35">
<path d="M7.209,12.0689c0.42,0 0.71,-0.36 0.92,-0.91l3.78,-9.86c0.1,-0.26 0.17,-0.5 0.17,-0.69c0,-0.38 -0.24,-0.61 -0.62,-0.61c-0.19,0 -0.43,0.06 -0.69,0.16l-9.91,3.8c-0.48,0.18 -0.86,0.48 -0.86,0.9c0,0.53 0.4,0.71 0.96,0.87l4.16,1.22l1.21,4.11c0.17,0.58 0.35,1.01 0.88,1.01zM5.379,6.0789l-3.98,-1.22c-0.09,-0.03 -0.12,-0.05 -0.12,-0.09c0,-0.04 0.02,-0.07 0.11,-0.1l7.79,-2.95c0.46,-0.18 0.9,-0.41 1.33,-0.6c-0.38,0.31 -0.85,0.68 -1.17,0.99zM7.309,10.7989c-0.05,0 -0.07,-0.04 -0.1,-0.13l-1.22,-3.98l3.97,-3.96c0.31,-0.31 0.69,-0.79 1,-1.19c-0.2,0.44 -0.43,0.89 -0.61,1.35l-2.95,7.79c-0.03,0.09 -0.05,0.12 -0.09,0.12z" fill="currentColor"/>
<path d="M5.379,6.0789l-3.98,-1.22c-0.09,-0.03 -0.12,-0.05 -0.12,-0.09c0,-0.04 0.02,-0.07 0.11,-0.1l7.79,-2.95c0.46,-0.18 0.9,-0.41 1.33,-0.6c-0.38,0.31 -0.85,0.68 -1.17,0.99z" fill="currentColor"/>
<path d="M7.309,10.7989c-0.05,0 -0.07,-0.04 -0.1,-0.13l-1.22,-3.98l3.97,-3.96c0.31,-0.31 0.69,-0.79 1,-1.19c-0.2,0.44 -0.43,0.89 -0.61,1.35l-2.95,7.79c-0.03,0.09 -0.05,0.12 -0.09,0.12z" fill="currentColor"/>
</g></svg>