<svg viewBox="0 0 175.2708 33.0833" fill="none" xmlns="http://www.w3.org/2000/svg" xmlns:xlink="http://www.w3.org/1999/xlink" id="d130c8c8" x="0" y="0"><g id="presentation page" data-node-id="22:2158" clip-path="url(#clip0_22_2158)"><g id="Приключение здесь" data-node-id="63:71"><g id="Frame 1294756086" data-node-id="68:178"><g id="Frame 1294756085" data-node-id="68:177"><g id="Component 5" data-node-id="103:78"><g id="Frame 1294756133" data-node-id="103:79"><g id="Frame 1294755816" data-node-id="103:86">
<rect x="-0.364583" y="0.364583" width="31.3542" height="31.3542" rx="8.38542" transform="matrix(-1, 0, 0, 1, 31.489599999999996, 0.5)" fill="#171716"/>
<rect x="-0.364583" y="0.364583" width="31.3542" height="31.3542" rx="8.38542" transform="matrix(-1, 0, 0, 1, 31.489599999999996, 0.5)" stroke="#31302E" stroke-width="0.729167"/>
<path id="Vector_27" data-node-id="103:87" d="M12.6116,16.79c0.491,-0.83 1.241,-1.48 2.134,-1.84c0.894,-0.36 1.881,-0.42 2.811,-0.16c0.929,0.25 1.749,0.81 2.334,1.57c0.584,0.77 0.901,1.71 0.9,2.67c0,0.16 0.062,0.3 0.172,0.41c0.11,0.11 0.259,0.18 0.415,0.18c0.155,0 0.304,-0.07 0.414,-0.18c0.11,-0.11 0.172,-0.25 0.172,-0.41c0,-1.18 -0.374,-2.33 -1.069,-3.28c-0.694,-0.95 -1.673,-1.66 -2.795,-2.02c-1.123,-0.36 -2.331,-0.36 -3.45,0.01c-1.12,0.37 -2.093,1.09 -2.78,2.04l-0.315,-1.78c-0.027,-0.15 -0.114,-0.29 -0.241,-0.38c-0.128,-0.09 -0.285,-0.12 -0.438,-0.1c-0.153,0.03 -0.29,0.12 -0.379,0.24c-0.089,0.13 -0.124,0.29 -0.097,0.44l0.611,3.47c0.027,0.15 0.114,0.29 0.241,0.37c0.083,0.06 0.178,0.1 0.277,0.11c0.1,0.01 0.2,0 0.295,-0.03l3.329,-0.59c0.154,-0.03 0.29,-0.11 0.379,-0.24c0.089,-0.13 0.124,-0.28 0.097,-0.44c-0.027,-0.15 -0.114,-0.29 -0.241,-0.38c-0.127,-0.09 -0.285,-0.12 -0.438,-0.09z" fill="#808080"/>
</g><g id="Frame 1294755811" data-node-id="103:88">
<rect x="36.229600000000005" y="0.8600000000001273" width="31.3542" height="31.3542" rx="8.38542" fill="#171716"/>
<rect x="36.229600000000005" y="0.8600000000001273" width="31.3542" height="31.3542" rx="8.38542" stroke="#31302E" stroke-width="0.729167"/>
<path id="Vector_28" data-node-id="103:89" d="M55.4726,16.79c-0.491,-0.83 -1.241,-1.48 -2.135,-1.84c-0.893,-0.36 -1.881,-0.42 -2.81,-0.16c-0.93,0.25 -1.75,0.81 -2.335,1.57c-0.584,0.77 -0.9,1.71 -0.9,2.67c0,0.16 -0.062,0.3 -0.172,0.41c-0.11,0.11 -0.259,0.18 -0.414,0.18c-0.156,0 -0.305,-0.07 -0.415,-0.18c-0.11,-0.11 -0.172,-0.25 -0.172,-0.41c0,-1.18 0.374,-2.33 1.069,-3.28c0.694,-0.95 1.673,-1.66 2.796,-2.02c1.122,-0.36 2.33,-0.36 3.45,0.01c1.119,0.37 2.093,1.09 2.78,2.04l0.314,-1.78c0.027,-0.15 0.114,-0.29 0.241,-0.38c0.128,-0.09 0.285,-0.12 0.439,-0.1c0.153,0.03 0.289,0.12 0.378,0.24c0.089,0.13 0.124,0.29 0.097,0.44l-0.611,3.47c-0.027,0.15 -0.114,0.29 -0.241,0.37c-0.083,0.06 -0.178,0.1 -0.277,0.11c-0.099,0.01 -0.2,0 -0.295,-0.03l-3.329,-0.59c-0.153,-0.03 -0.289,-0.11 -0.379,-0.24c-0.089,-0.13 -0.124,-0.28 -0.097,-0.44c0.027,-0.15 0.114,-0.29 0.241,-0.38c0.128,-0.09 0.285,-0.12 0.438,-0.09z" fill="#808080"/>
</g><g id="Frame 52" data-node-id="103:90">
<rect x="71.95859999999999" y="0.8600000000001273" width="31.3542" height="31.3542" rx="8.38542" fill="#171716"/>
<rect x="71.95859999999999" y="0.8600000000001273" width="31.3542" height="31.3542" rx="8.38542" stroke="#31302E" stroke-width="0.729167"/>
<g id="Group_5" data-node-id="103:91">
<path id="Vector_29" data-node-id="103:92" d="M92.0276,20.15c-0.854,0.85 -1.941,1.43 -3.123,1.67c-1.183,0.23 -2.408,0.11 -3.522,-0.35c-1.114,-0.46 -2.067,-1.24 -2.738,-2.24c-0.671,-1 -1.03,-2.18 -1.033,-3.39" stroke="#808080" stroke-width="1.09375" stroke-miterlimit="10" stroke-linecap="round"/>
<path id="Vector_30" data-node-id="103:93" d="M91.5356,23.28l0.607,-2.46c0.028,-0.1 0.034,-0.21 0.017,-0.32c-0.016,-0.11 -0.055,-0.22 -0.113,-0.31c-0.058,-0.1 -0.135,-0.18 -0.226,-0.24c-0.09,-0.07 -0.193,-0.11 -0.301,-0.13l-2.459,-0.62" stroke="#808080" stroke-width="1.09375" stroke-linecap="round" stroke-linejoin="round"/>
<path id="Vector_31" data-node-id="103:94" d="M83.2426,12.92c0.854,-0.85 1.94,-1.43 3.123,-1.66c1.183,-0.24 2.408,-0.11 3.522,0.35c1.115,0.46 2.067,1.24 2.738,2.24c0.671,1 1.031,2.18 1.033,3.39" stroke="#808080" stroke-width="1.09375" stroke-miterlimit="10" stroke-linecap="round"/>
<path id="Vector_32" data-node-id="103:95" d="M83.7336,9.79l-0.606,2.46c-0.028,0.11 -0.034,0.22 -0.017,0.33c0.016,0.11 0.055,0.22 0.113,0.31c0.058,0.09 0.135,0.18 0.226,0.24c0.09,0.06 0.193,0.11 0.301,0.13l2.458,0.62" stroke="#808080" stroke-width="1.09375" stroke-linecap="round" stroke-linejoin="round"/>
</g>
</g><g id="Component 1" data-node-id="103:96">
<g clip-path="url(#clip6_22_2158)">
<rect x="107.3226" y="0.5" width="32.0833" height="32.0833" rx="8.75" fill="#171716"/>
<path id="Vector_33" data-node-id="I103:96;1905:1469" d="M121.2196,11.83c0.436,-1.28 2.2,-1.31 2.717,-0.12l0.043,0.12l0.589,1.72c0.135,0.4 0.352,0.76 0.639,1.06c0.286,0.3 0.634,0.54 1.02,0.7l0.159,0.06l1.72,0.59c1.276,0.43 1.315,2.2 0.117,2.71l-0.117,0.05l-1.72,0.58c-0.395,0.14 -0.757,0.36 -1.06,0.64c-0.303,0.29 -0.542,0.64 -0.699,1.02l-0.059,0.16l-0.588,1.72c-0.436,1.28 -2.199,1.32 -2.715,0.12l-0.046,-0.12l-0.587,-1.72c-0.135,-0.39 -0.353,-0.75 -0.639,-1.06c-0.287,-0.3 -0.635,-0.54 -1.021,-0.7l-0.157,-0.06l-1.721,-0.58c-1.277,-0.44 -1.316,-2.2 -0.117,-2.72l0.117,-0.04l1.721,-0.59c0.394,-0.14 0.755,-0.35 1.059,-0.64c0.303,-0.29 0.541,-0.63 0.699,-1.02l0.059,-0.16zM128.4336,9.32c0.136,0 0.27,0.03 0.386,0.11c0.116,0.07 0.209,0.17 0.269,0.29l0.035,0.09l0.255,0.75l0.749,0.25c0.137,0.05 0.256,0.14 0.344,0.25c0.088,0.11 0.14,0.25 0.149,0.4c0.009,0.14 -0.025,0.28 -0.097,0.41c-0.072,0.12 -0.18,0.22 -0.31,0.29l-0.086,0.03l-0.748,0.26l-0.255,0.75c-0.047,0.13 -0.133,0.25 -0.248,0.34c-0.114,0.09 -0.252,0.14 -0.397,0.15c-0.144,0.01 -0.287,-0.02 -0.412,-0.1c-0.125,-0.07 -0.225,-0.18 -0.289,-0.31l-0.035,-0.08l-0.255,-0.75l-0.749,-0.26c-0.137,-0.04 -0.256,-0.13 -0.344,-0.24c-0.088,-0.12 -0.14,-0.26 -0.149,-0.4c-0.009,-0.14 0.025,-0.29 0.097,-0.41c0.073,-0.13 0.18,-0.23 0.31,-0.29l0.086,-0.04l0.748,-0.25l0.256,-0.75c0.049,-0.14 0.142,-0.27 0.266,-0.36c0.123,-0.09 0.272,-0.13 0.424,-0.13z" fill="#808080"/>
</g>
<rect x="107.6876" y="0.8600000000001273" width="31.3542" height="31.3542" rx="8.38542" stroke="#31302E" stroke-width="0.729167"/>
</g><g id="Frame 1294755814" data-node-id="103:97">
<rect x="143.41660000000002" y="0.8600000000001273" width="31.3542" height="31.3542" rx="8.38542" fill="#171716"/>
<rect x="143.41660000000002" y="0.8600000000001273" width="31.3542" height="31.3542" rx="8.38542" stroke="#31302E" stroke-width="0.729167"/>
<path id="Vector_34" data-node-id="103:98" d="M165.0576,15.17c0.245,0.13 0.45,0.33 0.592,0.57c0.142,0.24 0.217,0.52 0.217,0.8c0,0.28 -0.075,0.55 -0.217,0.79c-0.142,0.24 -0.347,0.44 -0.592,0.58l-10.421,5.73c-0.238,0.13 -0.506,0.19 -0.778,0.19c-0.271,0 -0.537,-0.08 -0.771,-0.22c-0.233,-0.14 -0.427,-0.33 -0.562,-0.57c-0.134,-0.23 -0.205,-0.5 -0.205,-0.77v-11.46c0,-0.27 0.071,-0.54 0.206,-0.77c0.134,-0.24 0.328,-0.44 0.562,-0.58c0.234,-0.13 0.5,-0.21 0.771,-0.21c0.272,-0.01 0.54,0.06 0.778,0.19z" fill="#808080"/>
</g></g></g></g></g></g></g><defs><clipPath id="clip0_22_2158">
<rect width="1400" height="5034" fill="white" x="-121.6354" y="-2165.68"/>
</clipPath><clipPath id="clip6_22_2158">
<rect x="107.3226" y="0.5" width="32.0833" height="32.0833" rx="8.75" fill="white"/>
</clipPath></defs></svg>