<svg viewBox="0 0 8.75 8.75" fill="none" xmlns="http://www.w3.org/2000/svg" xmlns:xlink="http://www.w3.org/1999/xlink" x="0" y="0"><path id="Vector_26" d="M6.1979,-0.0038c-0.6537,0 -1.2461,0.13 -1.7091,0.36c-0.4631,0.23 -0.843,0.6 -0.843,1.1v1.46c0,0.05 0.0157,0.09 0.023,0.14c-0.3649,-0.1 -0.7402,-0.14 -1.1167,-0.14c-0.6537,0 -1.2461,0.12 -1.7092,0.35c-0.463,0.23 -0.8429,0.61 -0.8429,1.11v2.92c0,0.49 0.3803,0.87 0.8433,1.1c0.4627,0.23 1.0551,0.35 1.7088,0.35c0.6537,0 1.2461,-0.12 1.7092,-0.35c0.4623,-0.23 0.8429,-0.61 0.8429,-1.1v-0.15c0.3566,0.09 0.7243,0.14 1.0937,0.15c0.6537,0 1.2462,-0.13 1.7092,-0.36c0.4623,-0.23 0.8429,-0.6 0.8429,-1.1v-4.38c0,-0.5 -0.3802,-0.87 -0.8433,-1.1c-0.4623,-0.23 -1.0547,-0.36 -1.7088,-0.36zM6.1979,0.7262c0.5553,0 1.0497,0.12 1.3785,0.29c0.3289,0.16 0.4445,0.34 0.4445,0.44c0,0.11 -0.1153,0.28 -0.4445,0.45c-0.3285,0.16 -0.8232,0.28 -1.3785,0.28c-0.5552,0 -1.0496,-0.12 -1.3785,-0.28c-0.3288,-0.17 -0.4444,-0.34 -0.4444,-0.45c0,-0.1 0.1152,-0.28 0.4444,-0.44c0.3285,-0.17 0.8233,-0.29 1.3785,-0.29zM4.375,2.4962c0.0383,0.02 0.074,0.05 0.1141,0.07c0.4627,0.23 1.0551,0.35 1.7088,0.35c0.6537,0 1.2462,-0.12 1.7092,-0.35c0.0397,-0.02 0.0755,-0.05 0.1138,-0.07v0.42c0,0.11 -0.1153,0.28 -0.4445,0.44c-0.3288,0.17 -0.8232,0.29 -1.3785,0.29c-0.5552,0 -1.0496,-0.12 -1.3785,-0.29c-0.3288,-0.16 -0.4444,-0.33 -0.4444,-0.44zM2.5521,3.6462c0.5553,0 1.0496,0.12 1.3785,0.28c0.3288,0.17 0.4444,0.34 0.4444,0.45c0,0.1 -0.1152,0.28 -0.4444,0.44c-0.3289,0.17 -0.8232,0.29 -1.3785,0.29c-0.5553,0 -1.0496,-0.12 -1.3785,-0.29c-0.3288,-0.16 -0.4444,-0.34 -0.4444,-0.44c0,-0.11 0.1152,-0.28 0.4444,-0.45c0.3285,-0.16 0.8232,-0.28 1.3785,-0.28zM8.0209,3.9562v0.42c0,0.1 -0.1153,0.28 -0.4445,0.44c-0.3288,0.17 -0.8232,0.29 -1.3785,0.29c-0.3714,0 -0.7407,-0.06 -1.0937,-0.17v-0.56c0,-0.05 -0.0157,-0.09 -0.023,-0.14c0.3391,0.09 0.715,0.14 1.1167,0.14c0.6537,0 1.2462,-0.12 1.7092,-0.35c0.0397,-0.02 0.0755,-0.05 0.1138,-0.07zM0.7292,5.4162c0.0383,0.02 0.074,0.04 0.1141,0.06c0.4627,0.23 1.0551,0.36 1.7088,0.36c0.6537,0 1.2461,-0.13 1.7092,-0.36c0.0397,-0.02 0.0754,-0.04 0.1137,-0.06v0.42c0,0.1 -0.1152,0.28 -0.4444,0.44c-0.3289,0.17 -0.8232,0.29 -1.3785,0.29c-0.5553,0 -1.0496,-0.12 -1.3785,-0.29c-0.3288,-0.16 -0.4444,-0.34 -0.4444,-0.44zM8.0209,5.4162v0.42c0,0.1 -0.1153,0.28 -0.4445,0.44c-0.3288,0.17 -0.8232,0.29 -1.3785,0.29c-0.4145,0 -0.7889,-0.06 -1.0937,-0.16v-0.71c0.3347,0.09 0.6993,0.14 1.0937,0.14c0.6537,0 1.2462,-0.13 1.7092,-0.36c0.0397,-0.02 0.0755,-0.04 0.1138,-0.06zM0.7292,6.8662c0.0383,0.03 0.074,0.05 0.1141,0.07c0.4627,0.23 1.0551,0.36 1.7088,0.36c0.6537,0 1.2461,-0.13 1.7092,-0.36c0.0397,-0.02 0.0754,-0.04 0.1137,-0.07v0.43c0,0.1 -0.1152,0.27 -0.4444,0.44c-0.3289,0.17 -0.8232,0.28 -1.3785,0.28c-0.5553,0 -1.0496,-0.11 -1.3785,-0.28c-0.3288,-0.17 -0.4444,-0.34 -0.4444,-0.44z" fill="currentColor"/></svg>