<svg viewBox="0 0 43 43" fill="none" xmlns="http://www.w3.org/2000/svg" xmlns:xlink="http://www.w3.org/1999/xlink" x="0" y="0"><path id="Vector_10" fill-rule="evenodd" clip-rule="evenodd" d="M19.079,4.3h4.833c0.16,0 0.314,0.06 0.427,0.17c0.113,0.1 0.177,0.25 0.177,0.4c0,5.18 5.91,8.43 10.637,5.83c0.138,-0.07 0.301,-0.09 0.454,-0.05c0.153,0.04 0.284,0.13 0.364,0.26l2.421,3.98c0.079,0.13 0.1,0.29 0.059,0.43c-0.042,0.15 -0.142,0.27 -0.28,0.35c-4.727,2.59 -4.727,9.07 0,11.66c0.137,0.08 0.237,0.2 0.278,0.35c0.041,0.14 0.021,0.3 -0.057,0.43l-2.421,3.98c-0.08,0.13 -0.211,0.22 -0.364,0.26c-0.153,0.04 -0.316,0.02 -0.454,-0.05c-4.727,-2.6 -10.637,0.64 -10.637,5.82c0,0.15 -0.063,0.3 -0.176,0.41c-0.113,0.1 -0.265,0.16 -0.425,0.16h-4.833c-0.16,0 -0.313,-0.06 -0.426,-0.16c-0.114,-0.11 -0.177,-0.26 -0.177,-0.41c0,-5.18 -5.91,-8.42 -10.637,-5.83c-0.139,0.08 -0.303,0.1 -0.456,0.06c-0.154,-0.04 -0.285,-0.14 -0.365,-0.27l-2.415,-3.98c-0.078,-0.13 -0.1,-0.28 -0.059,-0.43c0.041,-0.14 0.14,-0.27 0.276,-0.34c4.727,-2.6 4.727,-9.07 0,-11.67c-0.136,-0.07 -0.235,-0.2 -0.276,-0.34c-0.041,-0.15 -0.021,-0.3 0.056,-0.43l2.418,-3.98c0.08,-0.13 0.212,-0.23 0.365,-0.27c0.154,-0.04 0.318,-0.02 0.456,0.06c4.727,2.59 10.637,-0.65 10.637,-5.83c0,-0.32 0.268,-0.57 0.6,-0.57zM13.951,4.87c0,-2.69 2.294,-4.87 5.128,-4.87h4.833c2.837,0 5.131,2.18 5.131,4.87c0.001,0.43 0.12,0.85 0.346,1.22c0.225,0.37 0.549,0.67 0.938,0.89c0.39,0.21 0.831,0.32 1.281,0.32c0.45,0 0.891,-0.11 1.281,-0.32c1.178,-0.64 2.577,-0.82 3.89,-0.48c1.313,0.33 2.432,1.14 3.113,2.26l2.421,3.98c1.415,2.33 0.573,5.31 -1.878,6.65c-0.39,0.21 -0.713,0.52 -0.938,0.89c-0.225,0.37 -0.344,0.79 -0.344,1.22c0,0.43 0.119,0.85 0.344,1.22c0.225,0.37 0.548,0.68 0.938,0.89c1.177,0.65 2.035,1.71 2.387,2.96c0.352,1.24 0.169,2.57 -0.509,3.69l-2.421,3.98c-0.681,1.12 -1.8,1.93 -3.113,2.26c-1.313,0.34 -2.712,0.16 -3.89,-0.48c-0.39,-0.21 -0.831,-0.32 -1.281,-0.32c-0.45,0 -0.891,0.11 -1.281,0.32c-0.389,0.22 -0.713,0.52 -0.938,0.89c-0.226,0.37 -0.345,0.79 -0.346,1.22c0,2.69 -2.294,4.87 -5.128,4.87h-4.833c-1.36,0 -2.664,-0.51 -3.626,-1.43c-0.962,-0.91 -1.502,-2.15 -1.502,-3.44c-0.001,-0.43 -0.12,-0.85 -0.345,-1.22c-0.225,-0.37 -0.549,-0.67 -0.939,-0.89c-0.389,-0.21 -0.831,-0.32 -1.28,-0.32c-0.45,0 -0.892,0.11 -1.282,0.32c-1.177,0.64 -2.576,0.82 -3.889,0.48c-1.313,-0.33 -2.433,-1.14 -3.113,-2.26l-2.421,-3.98c-0.679,-1.12 -0.862,-2.45 -0.51,-3.69c0.352,-1.25 1.211,-2.31 2.387,-2.96c0.389,-0.21 0.712,-0.52 0.937,-0.89c0.225,-0.37 0.343,-0.79 0.343,-1.22c0,-0.43 -0.118,-0.85 -0.343,-1.22c-0.225,-0.37 -0.548,-0.67 -0.937,-0.89c-1.176,-0.64 -2.035,-1.71 -2.387,-2.95c-0.352,-1.25 -0.169,-2.58 0.51,-3.7l2.418,-3.98c0.68,-1.12 1.8,-1.93 3.113,-2.26c1.313,-0.34 2.712,-0.16 3.889,0.48c0.39,0.21 0.832,0.32 1.282,0.32c0.449,0 0.891,-0.11 1.28,-0.32c0.39,-0.22 0.714,-0.52 0.939,-0.89c0.225,-0.37 0.344,-0.79 0.345,-1.22zM26.025,21.5c0,1.14 -0.477,2.23 -1.326,3.04c-0.849,0.8 -2.001,1.26 -3.202,1.26c-1.201,0 -2.352,-0.46 -3.201,-1.26c-0.849,-0.81 -1.326,-1.9 -1.326,-3.04c0,-1.14 0.477,-2.24 1.326,-3.04c0.849,-0.81 2,-1.26 3.201,-1.26c1.201,0 2.353,0.45 3.202,1.26c0.849,0.8 1.326,1.9 1.326,3.04zM30.553,21.5c0,2.28 -0.954,4.46 -2.653,6.08c-1.698,1.61 -4.001,2.52 -6.403,2.52c-2.401,0 -4.705,-0.91 -6.403,-2.52c-1.698,-1.62 -2.652,-3.8 -2.652,-6.08c0,-2.28 0.954,-4.47 2.652,-6.08c1.698,-1.62 4.002,-2.52 6.403,-2.52c2.402,0 4.705,0.9 6.403,2.52c1.699,1.61 2.653,3.8 2.653,6.08z" fill="currentColor"/></svg>