<svg viewBox="0 0 36.7693 43.642" fill="none" xmlns="http://www.w3.org/2000/svg" xmlns:xlink="http://www.w3.org/1999/xlink" x="0" y="0"><path id="Vector_11" d="M21.91,21.7801l-21.57,-2.2l-0.29,-16.37c-0.01,-0.43 0.07,-0.87 0.25,-1.25c0.17,-0.39 0.42,-0.71 0.73,-0.95c0.3,-0.23 0.66,-0.37 1.02,-0.4c0.37,-0.02 0.73,0.06 1.06,0.25l32.05,18.36c0.36,0.21 0.66,0.53 0.88,0.93c0.21,0.41 0.33,0.87 0.34,1.35c0.01,0.47 -0.09,0.94 -0.29,1.35c-0.21,0.41 -0.5,0.74 -0.85,0.96l-31.36,19.51c-0.32,0.2 -0.68,0.3 -1.05,0.28c-0.37,-0.01 -0.72,-0.14 -1.04,-0.36c-0.31,-0.22 -0.58,-0.54 -0.76,-0.92c-0.19,-0.38 -0.29,-0.8 -0.3,-1.24l-0.29,-16.37z" fill="currentColor"/></svg>