<svg viewBox="0 0 33.1414 24.4339" fill="none" xmlns="http://www.w3.org/2000/svg" xmlns:xlink="http://www.w3.org/1999/xlink" x="0" y="0"><g id="arrow-right_2">
<path id="Vector_24" d="M12.2147,24.435c0.3405,0 0.6809,-0.13 0.9496,-0.4c0.5196,-0.51 0.5196,-1.37 0,-1.89l-9.9258,-9.93l9.9258,-9.93c0.5196,-0.52 0.5196,-1.38 0,-1.9c-0.5196,-0.51 -1.3796,-0.51 -1.8991,0l-10.8755,10.88c-0.5195,0.52 -0.5195,1.38 0,1.9l10.8755,10.87c0.2687,0.27 0.6091,0.4 0.9495,0.4z" fill="currentColor"/>
<path id="Vector_25" d="M1.6439,13.555h30.154c0.734,0 1.344,-0.61 1.344,-1.34c0,-0.74 -0.61,-1.34 -1.344,-1.34h-30.154c-0.7346,0 -1.3437,0.6 -1.3437,1.34c0,0.73 0.6091,1.34 1.3437,1.34z" fill="currentColor"/>
</g></svg>