<svg width="54" height="56" viewBox="0 0 54 56" fill="none" xmlns="http://www.w3.org/2000/svg">
<path d="M13.0676 55.6765L15.6718 54.9788L6.60045 21.1241L3.99624 21.8219C1.13162 22.5895 -0.584147 25.5613 0.183426 28.4259L6.46357 51.8637C7.23115 54.7284 10.2029 56.4441 13.0676 55.6765ZM45.6635 10.6572L28.4497 15.2696L29.0148 5.71194C29.11 3.98381 28.3821 2.30878 27.0557 1.21277C25.7032 0.123751 23.9244 -0.264875 22.2577 0.181713L20.6691 0.607367C19.8879 0.816705 19.2494 1.35063 18.9151 2.08218L11.4441 18.2632L20.9062 53.5762L47.7555 46.3819C48.8148 46.0961 49.7617 45.494 50.4697 44.6559C51.1778 43.8178 51.6134 42.7837 51.7183 41.6916L53.7771 20.6248C53.8045 20.3104 53.7728 19.984 53.6891 19.6715L52.2935 14.463C51.5259 11.5984 48.5542 9.88266 45.6895 10.6502L45.6635 10.6572Z" fill="#BACAD6" fill-opacity="0.82"/>
</svg>
