<svg width="19" height="20" viewBox="0 0 19 20" fill="none" xmlns="http://www.w3.org/2000/svg">
<path fill-rule="evenodd" clip-rule="evenodd" d="M8.42668 1.99973H10.5611C10.6318 1.99973 10.6996 2.02782 10.7496 2.07783C10.7996 2.12783 10.8277 2.19565 10.8277 2.26636C10.8277 4.67671 13.438 6.18451 15.5257 4.978C15.5867 4.94355 15.6587 4.93444 15.7263 4.95265C15.7939 4.97086 15.8516 5.01492 15.887 5.07532L16.9562 6.92574C16.9911 6.98681 17.0004 7.05917 16.9822 7.12709C16.964 7.195 16.9196 7.25297 16.8589 7.28836C14.7712 8.49353 14.7712 11.5065 16.8589 12.713C16.9193 12.7484 16.9634 12.8061 16.9816 12.8737C16.9998 12.9413 16.9907 13.0133 16.9562 13.0743L15.887 14.9247C15.8516 14.9851 15.7939 15.0291 15.7263 15.0473C15.6587 15.0656 15.5867 15.0565 15.5257 15.022C13.438 13.8155 10.8277 15.322 10.8277 17.731C10.8277 17.8015 10.7998 17.8691 10.7501 17.919C10.7004 17.969 10.6329 17.9972 10.5624 17.9976H8.42801C8.3573 17.9976 8.28948 17.9695 8.23948 17.9195C8.18947 17.8695 8.16138 17.8017 8.16138 17.731C8.16138 15.3206 5.55106 13.8142 3.46334 15.0193C3.40228 15.0542 3.32991 15.0635 3.262 15.0453C3.19408 15.0271 3.13612 14.9828 3.10072 14.922L2.0342 13.0716C1.99963 13.0108 1.99032 12.9389 2.00827 12.8713C2.02623 12.8037 2.07001 12.7459 2.13019 12.7103C4.21791 11.5038 4.21791 8.49087 2.13019 7.28436C2.07014 7.24899 2.02633 7.1915 2.00814 7.12423C1.98995 7.05695 1.99883 6.98522 2.03286 6.92441L3.10072 5.07266C3.13634 5.01212 3.1944 4.96809 3.2623 4.95011C3.33019 4.93214 3.40244 4.94168 3.46334 4.97667C5.55106 6.18318 8.16138 4.67538 8.16138 2.26503C8.16138 2.11838 8.28003 1.99973 8.42668 1.99973ZM6.16165 2.26636C6.16165 1.0132 7.17485 0 8.42668 0H10.5611C11.8142 0 12.8274 1.0132 12.8274 2.26636C12.8278 2.46496 12.8804 2.65996 12.9799 2.83183C13.0794 3.0037 13.2223 3.14641 13.3943 3.24565C13.5663 3.34489 13.7614 3.39718 13.96 3.39728C14.1586 3.39739 14.3537 3.3453 14.5259 3.24623C15.0461 2.94662 15.664 2.86565 16.2438 3.02112C16.8237 3.17659 17.3182 3.55577 17.6188 4.07546L18.688 5.92588C19.3132 7.00973 18.9413 8.39355 17.8588 9.0188C17.6866 9.11828 17.5436 9.26132 17.4442 9.43355C17.3448 9.60578 17.2924 9.80114 17.2924 10C17.2924 10.1989 17.3448 10.3942 17.4442 10.5665C17.5436 10.7387 17.6866 10.8817 17.8588 10.9812C18.3784 11.2818 18.7576 11.7763 18.9131 12.3562C19.0686 12.936 18.9876 13.5539 18.688 14.0741L17.6188 15.9245C17.3182 16.4442 16.8237 16.8234 16.2438 16.9789C15.664 17.1343 15.0461 17.0534 14.5259 16.7538C14.3537 16.6547 14.1586 16.6026 13.96 16.6027C13.7614 16.6028 13.5663 16.6551 13.3943 16.7544C13.2223 16.8536 13.0794 16.9963 12.9799 17.1682C12.8804 17.34 12.8278 17.535 12.8274 17.7336C12.8274 18.9855 11.8142 20 10.5624 20H8.42801C7.82717 19.9996 7.25105 19.7607 6.82631 19.3357C6.40157 18.9107 6.16298 18.3345 6.16298 17.7336C6.16258 17.535 6.11 17.34 6.01051 17.1682C5.91101 16.9963 5.7681 16.8536 5.59608 16.7544C5.42406 16.6551 5.22898 16.6028 5.03039 16.6027C4.83179 16.6026 4.63666 16.6547 4.46454 16.7538C3.9443 17.0534 3.32644 17.1343 2.74657 16.9789C2.1667 16.8234 1.6722 16.4442 1.37162 15.9245L0.302429 14.0741C0.0028109 13.5539 -0.0781507 12.936 0.0773146 12.3562C0.23278 11.7763 0.611969 11.2818 1.13165 10.9812C1.30353 10.8816 1.44621 10.7386 1.54541 10.5665C1.6446 10.3944 1.69681 10.1993 1.69681 10.0007C1.69681 9.80203 1.6446 9.60689 1.54541 9.43479C1.44621 9.2627 1.30353 9.1197 1.13165 9.02013C0.611969 8.71955 0.23278 8.22505 0.0773146 7.64518C-0.0781507 7.06531 0.0028109 6.44745 0.302429 5.92721L1.37029 4.07546C1.67087 3.55577 2.16536 3.17659 2.74523 3.02112C3.3251 2.86565 3.94297 2.94662 4.46321 3.24623C4.63533 3.3453 4.83046 3.39739 5.02905 3.39728C5.22765 3.39718 5.42273 3.34489 5.59474 3.24565C5.76676 3.14641 5.90968 3.0037 6.00918 2.83183C6.10867 2.65996 6.16125 2.46496 6.16165 2.26636ZM11.4943 9.99867C11.4943 10.529 11.2836 11.0377 10.9086 11.4127C10.5335 11.7877 10.0249 11.9984 9.49454 11.9984C8.96417 11.9984 8.45553 11.7877 8.08051 11.4127C7.70549 11.0377 7.4948 10.529 7.4948 9.99867C7.4948 9.4683 7.70549 8.95966 8.08051 8.58464C8.45553 8.20962 8.96417 7.99893 9.49454 7.99893C10.0249 7.99893 10.5335 8.20962 10.9086 8.58464C11.2836 8.95966 11.4943 9.4683 11.4943 9.99867ZM13.494 9.99867C13.494 11.0594 13.0726 12.0767 12.3226 12.8267C11.5725 13.5768 10.5553 13.9981 9.49454 13.9981C8.43381 13.9981 7.41653 13.5768 6.66649 12.8267C5.91644 12.0767 5.49507 11.0594 5.49507 9.99867C5.49507 8.93794 5.91644 7.92066 6.66649 7.17062C7.41653 6.42057 8.43381 5.9992 9.49454 5.9992C10.5553 5.9992 11.5725 6.42057 12.3226 7.17062C13.0726 7.92066 13.494 8.93794 13.494 9.99867Z" fill="#BACAD6"/>
</svg>
