<svg width="20" height="19" viewBox="0 0 20 19" fill="none" xmlns="http://www.w3.org/2000/svg">
<path fill-rule="evenodd" clip-rule="evenodd" d="M8.41319 0.719429C8.59215 0.504732 8.81413 0.329929 9.06481 0.206295C9.31548 0.0826622 9.58928 0.0129439 9.86856 0.0016372C10.1478 -0.00966951 10.4264 0.0376864 10.6862 0.140651C10.9461 0.243615 11.1815 0.399901 11.3772 0.599429L11.4852 0.719429L15.4172 5.43743H18.4022C18.612 5.43698 18.8196 5.48087 19.0114 5.56622C19.2031 5.65158 19.3746 5.77646 19.5147 5.93271C19.6548 6.08895 19.7603 6.27303 19.8243 6.47288C19.8884 6.67274 19.9094 6.88386 19.8862 7.09243L19.7942 7.85843L19.6942 8.59843L19.6122 9.15243L19.5172 9.74743L19.4092 10.3724L19.2872 11.0204L19.1512 11.6814C19.0792 12.0148 19.0019 12.3478 18.9192 12.6804C18.6978 13.5585 18.4199 14.4213 18.0872 15.2634L17.8662 15.8034L17.6522 16.2914L17.4502 16.7254L17.3562 16.9194L17.1072 17.4094C16.7872 18.0194 16.1832 18.3794 15.5442 18.4314L15.3842 18.4374H4.50419C4.15459 18.44 3.81085 18.3477 3.50967 18.1701C3.20849 17.9926 2.9612 17.7366 2.79419 17.4294L2.56219 16.9794L2.38219 16.6094L2.28719 16.4044L2.08719 15.9554C1.63049 14.895 1.25996 13.7994 0.979191 12.6794C0.924902 12.462 0.8729 12.244 0.823191 12.0254L0.681191 11.3774L0.554191 10.7434L0.442191 10.1304L0.342191 9.54343L0.255191 8.98943L0.181191 8.47643L0.0911911 7.79343L0.0251912 7.23743L0.0081912 7.08443C-0.0124944 6.88797 0.00609385 6.68935 0.0628744 6.50014C0.119655 6.31093 0.213494 6.1349 0.338933 5.98229C0.464372 5.82968 0.618906 5.70353 0.793545 5.6112C0.968184 5.51886 1.15944 5.46217 1.35619 5.44443L1.49219 5.43743H4.48119L8.41319 0.719429ZM7.91019 10.1594C7.84254 9.92349 7.69048 9.72066 7.48297 9.58958C7.27545 9.4585 7.02697 9.40832 6.78485 9.44859C6.54272 9.48886 6.32387 9.61677 6.16996 9.80797C6.01604 9.99917 5.93782 10.2403 5.95019 10.4854L5.96319 10.6014L6.46319 13.6014L6.48819 13.7154C6.55584 13.9514 6.7079 14.1542 6.91542 14.2853C7.12293 14.4164 7.37141 14.4665 7.61353 14.4263C7.85566 14.386 8.07451 14.2581 8.22843 14.0669C8.38234 13.8757 8.46056 13.6346 8.44819 13.3894L8.43519 13.2734L7.93519 10.2734L7.91019 10.1594ZM13.1132 9.45143C12.8715 9.41111 12.6234 9.46094 12.416 9.59146C12.2086 9.72197 12.0564 9.92408 11.9882 10.1594L11.9632 10.2734L11.4632 13.2734C11.4215 13.525 11.4774 13.7831 11.6196 13.9948C11.7619 14.2065 11.9796 14.3558 12.2283 14.4123C12.477 14.4687 12.7379 14.428 12.9576 14.2985C13.1773 14.169 13.3392 13.9604 13.4102 13.7154L13.4352 13.6014L13.9352 10.6014C13.9786 10.3399 13.9163 10.0719 13.7622 9.8563C13.6081 9.64066 13.3746 9.49504 13.1132 9.45143ZM9.94919 1.99943L7.08419 5.43743H12.8142L9.94919 1.99943Z" fill="#BACAD6"/>
</svg>
