<svg width="18" height="18" viewBox="0 0 18 18" fill="none" xmlns="http://www.w3.org/2000/svg">
<path d="M16.5798 0.571625C17.3416 1.3334 17.3416 2.5699 16.5798 3.33167L11.3357 8.57575L16.5798 13.8198C16.9458 14.1858 17.1514 14.6822 17.1514 15.1999C17.1514 15.7175 16.9458 16.2139 16.5798 16.5799C16.2138 16.9459 15.7174 17.1515 15.1998 17.1515C14.6822 17.1515 14.1858 16.9459 13.8198 16.5799L8.57568 11.3358L3.3316 16.5799C2.9656 16.9459 2.46919 17.1515 1.95158 17.1515C1.43397 17.1515 0.937561 16.9459 0.571556 16.5799C0.205552 16.2139 -6.90472e-05 15.7175 -6.83729e-05 15.1999C-6.83729e-05 14.6822 0.205552 14.1858 0.571557 13.8198L5.81564 8.57575L0.571556 3.33167C0.205552 2.96566 -6.7277e-05 2.46925 -6.76985e-05 1.95165C-6.74456e-05 1.43404 0.205552 0.937629 0.571556 0.571625C0.937561 0.20562 1.43397 3.79402e-07 1.95158 8.00871e-07C2.46919 5.4799e-07 2.9656 0.20562 3.3316 0.571625L8.57568 5.81571L13.8198 0.571625C14.5815 -0.190147 15.818 -0.190148 16.5798 0.571625Z" fill="#DBDDE7"/>
</svg>
