<svg width="19" height="20" viewBox="0 0 19 20" fill="none" xmlns="http://www.w3.org/2000/svg">
<path d="M15.5 17.7686V19.0684H2.5V17.7686H15.5ZM1.59766 17.3184C1.63248 17.4092 1.68475 17.4933 1.75488 17.5635C1.82493 17.6335 1.90927 17.6849 2 17.7197V19.0498C1.56188 18.9945 1.15151 18.798 0.835938 18.4824C0.520337 18.1668 0.322825 17.7565 0.267578 17.3184H1.59766ZM17.7324 17.3184C17.6772 17.7565 17.4797 18.1668 17.1641 18.4824C16.8485 18.798 16.4381 18.9945 16 19.0498V17.7197C16.0907 17.6849 16.1751 17.6335 16.2451 17.5635C16.3153 17.4933 16.3675 17.4092 16.4023 17.3184H17.7324ZM17.75 10.5684V16.8184H16.4502V10.5684H17.75ZM1.5498 3.81836V16.8184H0.25V3.81836H1.5498ZM17.0996 9.66797C17.2719 9.66797 17.4377 9.73662 17.5596 9.8584C17.6201 9.91895 17.6669 9.99083 17.6992 10.0684H16.5C16.5323 9.99073 16.58 9.91902 16.6406 9.8584C16.7624 9.73678 16.9275 9.66807 17.0996 9.66797ZM2 2.91602C1.90914 2.95084 1.82502 3.00311 1.75488 3.07324C1.68475 3.14338 1.63248 3.2275 1.59766 3.31836H0.267578C0.322825 2.8802 0.520337 2.4699 0.835938 2.1543C1.15154 1.8387 1.56184 1.64118 2 1.58594V2.91602ZM8.75 1.56836V2.86816H2.5V1.56836H8.75ZM9.25 1.61816C9.32766 1.65051 9.39932 1.69815 9.45996 1.75879C9.58174 1.88067 9.65039 2.04645 9.65039 2.21875C9.65029 2.39086 9.58158 2.55596 9.45996 2.67773C9.39934 2.73836 9.32763 2.78601 9.25 2.81836V1.61816Z" fill="#BACAD6" stroke="#BACAD6" stroke-width="0.5"/>
<path d="M1.32422 15.3181L5.71224 10.8576C5.87443 10.709 6.08544 10.6249 6.30541 10.6212C6.52538 10.6176 6.73907 10.6946 6.90609 10.8378L12.6004 15.7185M10.8004 13.4685L12.9482 11.3207C13.1014 11.1674 13.3048 11.0745 13.521 11.0591C13.7372 11.0437 13.9516 11.1069 14.125 11.237L16.9541 13.4685" stroke="#BACAD6" stroke-width="2" stroke-linecap="round" stroke-linejoin="round"/>
<path d="M16.8763 6.33691C16.3801 6.83144 15.7487 7.16802 15.0616 7.30422C14.3744 7.44042 13.6624 7.37015 13.0151 7.10226C12.3679 6.83436 11.8144 6.38085 11.4245 5.79888C11.0346 5.21691 10.8257 4.53253 10.8242 3.83203" stroke="#BACAD6" stroke-width="0.635542" stroke-miterlimit="10" stroke-linecap="round"/>
<path d="M16.5909 8.15658L16.9434 6.72788C16.9596 6.66562 16.963 6.60071 16.9535 6.53708C16.9439 6.47346 16.9215 6.41243 16.8877 6.35769C16.8539 6.30296 16.8093 6.25565 16.7567 6.21864C16.7041 6.18162 16.6445 6.15566 16.5815 6.14233L15.1528 5.78516" stroke="#BACAD6" stroke-width="0.635542" stroke-linecap="round" stroke-linejoin="round"/>
<path d="M11.772 2.137C12.2681 1.64232 12.8996 1.30562 13.5868 1.16933C14.274 1.03305 14.9861 1.10329 15.6335 1.3712C16.2808 1.63911 16.8343 2.09269 17.2243 2.67475C17.6142 3.25681 17.823 3.94129 17.8245 4.64188" stroke="#BACAD6" stroke-width="0.635542" stroke-miterlimit="10" stroke-linecap="round"/>
<path d="M12.0572 0.318359L11.7047 1.74706C11.6886 1.80935 11.6852 1.87426 11.6948 1.93789C11.7044 2.00152 11.7268 2.06254 11.7607 2.11727C11.7946 2.17199 11.8391 2.21929 11.8918 2.2563C11.9444 2.29331 12.004 2.31927 12.067 2.3326L13.4953 2.68978" stroke="#BACAD6" stroke-width="0.635542" stroke-linecap="round" stroke-linejoin="round"/>
</svg>
