<svg width="19" height="20" viewBox="0 0 19 20" fill="none" xmlns="http://www.w3.org/2000/svg">
<path d="M15.034 14.9569C13.863 16.1241 12.3727 16.9185 10.751 17.24C9.12919 17.5614 7.44856 17.3956 5.92091 16.7633C4.39327 16.131 3.087 15.0606 2.16678 13.6871C1.24656 12.3135 0.753589 10.6982 0.75 9.04492" stroke="#BACAD6" stroke-width="1.5" stroke-miterlimit="10" stroke-linecap="round"/>
<path d="M14.36 19.2498L15.192 15.8778C15.2303 15.7309 15.2384 15.5777 15.2159 15.4275C15.1933 15.2774 15.1405 15.1333 15.0607 15.0041C14.9808 14.8749 14.8756 14.7633 14.7514 14.6759C14.6272 14.5886 14.4866 14.5273 14.338 14.4958L10.966 13.6528" stroke="#BACAD6" stroke-width="1.5" stroke-linecap="round" stroke-linejoin="round"/>
<path d="M2.986 5.04294C4.15691 3.87542 5.6473 3.08073 7.26924 2.75907C8.89118 2.43742 10.572 2.6032 12.0999 3.23552C13.6277 3.86783 14.9342 4.93837 15.8544 6.31215C16.7747 7.68592 17.2676 9.30142 17.271 10.9549" stroke="#BACAD6" stroke-width="1.5" stroke-miterlimit="10" stroke-linecap="round"/>
<path d="M3.66 0.75L2.828 4.122C2.78984 4.26901 2.78187 4.42223 2.80457 4.57241C2.82727 4.72258 2.88018 4.8666 2.96009 4.99576C3.04 5.12493 3.14525 5.23655 3.2695 5.32391C3.39375 5.41126 3.53442 5.47252 3.683 5.504L7.054 6.347" stroke="#BACAD6" stroke-width="1.5" stroke-linecap="round" stroke-linejoin="round"/>
</svg>
