<svg width="19" height="20" viewBox="0 0 19 20" fill="none" xmlns="http://www.w3.org/2000/svg">
<path d="M15.034 14.9572C13.863 16.1243 12.3727 16.9187 10.751 17.2402C9.12919 17.5617 7.44856 17.3958 5.92091 16.7635C4.39327 16.1312 3.087 15.0609 2.16678 13.6873C1.24656 12.3137 0.753589 10.6985 0.75 9.04517" stroke="#BACAD6" stroke-width="1.5" stroke-miterlimit="10" stroke-linecap="round"/>
<path d="M14.3598 19.2501L15.1918 15.8781C15.2301 15.7311 15.2383 15.5779 15.2157 15.4278C15.1931 15.2776 15.1403 15.1336 15.0605 15.0044C14.9806 14.8752 14.8754 14.7635 14.7512 14.6762C14.627 14.5888 14.4864 14.5275 14.3378 14.4961L10.9658 13.6531" stroke="#BACAD6" stroke-width="1.5" stroke-linecap="round" stroke-linejoin="round"/>
<path d="M2.98584 5.04307C4.15675 3.87554 5.64714 3.08085 7.26908 2.7592C8.89102 2.43754 10.5719 2.60332 12.0997 3.23564C13.6276 3.86796 14.934 4.93849 15.8543 6.31227C16.7745 7.68604 17.2674 9.30154 17.2708 10.9551" stroke="#BACAD6" stroke-width="1.5" stroke-miterlimit="10" stroke-linecap="round"/>
<path d="M3.66005 0.750122L2.82805 4.12212C2.78989 4.26913 2.78192 4.42235 2.80462 4.57253C2.82732 4.72271 2.88022 4.86672 2.96013 4.99589C3.04004 5.12505 3.1453 5.23668 3.26955 5.32403C3.3938 5.41138 3.53446 5.47265 3.68305 5.50412L7.05405 6.34712" stroke="#BACAD6" stroke-width="1.5" stroke-linecap="round" stroke-linejoin="round"/>
</svg>
