<svg width="17" height="15" viewBox="0 0 17 15" fill="none" xmlns="http://www.w3.org/2000/svg">
<path d="M7.95757 9.99146C7.63971 9.47424 7.38329 9.05813 7.05178 8.58466C6.52528 8.44758 6.10407 8.38439 5.55709 8.38925L5.54344 11.791C5.53467 14.0349 7.68066 13.5789 7.30528 14.7475L0.105813 14.7514C-0.484068 13.6917 1.68631 14.1263 1.68826 11.9301L1.69898 2.63859C1.70191 0.380135 -0.642995 1.17444 0.172113 0L8.60009 0.0204157C9.7779 0.0233323 10.8329 0.233331 11.9424 0.57069C12.8248 0.839022 13.6565 1.47874 14.0757 2.32068C14.7856 3.74303 14.5262 5.51829 13.482 6.6869C12.8316 7.41412 11.9483 7.78939 11.0142 8.083L13.8476 11.7259C14.5174 12.5873 15.2565 13.4837 16.0238 14.2011C16.134 14.3042 16.1447 14.7475 16.015 14.7475H10.8758L7.95757 9.99146ZM10.6281 4.06872C10.6359 3.04109 10.0958 2.27596 9.09638 2.06693C8.76195 1.99693 8.27932 1.88513 7.92832 1.88415L5.55027 1.87637V6.47884L7.49346 6.49148C8.19157 6.49634 8.9316 6.38454 9.53903 6.09774C10.3571 5.71079 10.6213 4.98066 10.6281 4.06969V4.06872Z" fill="#4c8dff"/>
</svg>
