<svg viewBox="0 0 32.0165 32.0165" fill="none" xmlns="http://www.w3.org/2000/svg" xmlns:xlink="http://www.w3.org/1999/xlink" x="0" y="0"><path id="Vector_6" d="M24.0123,8.0041c0.762,0.7618 0.762,1.9983 0,2.7601l-5.244,5.244l5.244,5.2441c0.366,0.366 0.572,0.8624 0.572,1.38c0,0.5177 -0.206,1.0141 -0.572,1.3801c-0.366,0.366 -0.862,0.5716 -1.38,0.5716c-0.518,0 -1.014,-0.2056 -1.38,-0.5716l-5.244,-5.2441l-5.244,5.2441c-0.366,0.366 -0.862,0.5716 -1.38,0.5716c-0.518,0 -1.014,-0.2056 -1.38,-0.5716c-0.366,-0.366 -0.572,-0.8624 -0.572,-1.3801c0,-0.5176 0.206,-1.014 0.572,-1.38l5.244,-5.2441l-5.244,-5.244c-0.366,-0.366 -0.572,-0.8625 -0.572,-1.3801c0,-0.5176 0.206,-1.014 0.572,-1.38c0.366,-0.366 0.862,-0.5716 1.38,-0.5716c0.518,0 1.014,0.2056 1.38,0.5716l5.244,5.2441l5.244,-5.2441c0.762,-0.7618 1.998,-0.7618 2.76,0z" fill="currentColor"/></svg>