<svg viewBox="0 0 17 17" fill="none" xmlns="http://www.w3.org/2000/svg" xmlns:xlink="http://www.w3.org/1999/xlink" x="0" y="0"><path id="Vector_5" d="M16,16l-5,-5M1,6.8333c0,0.7661 0.151,1.5246 0.444,2.2324c0.293,0.7077 0.723,1.3507 1.265,1.8924c0.541,0.5417 1.184,0.9714 1.892,1.2645c0.708,0.2932 1.466,0.4441 2.232,0.4441c0.766,0 1.525,-0.1509 2.233,-0.4441c0.707,-0.2931 1.35,-0.7228 1.892,-1.2645c0.542,-0.5417 0.971,-1.1847 1.265,-1.8924c0.293,-0.7078 0.444,-1.4663 0.444,-2.2324c0,-0.766 -0.151,-1.5246 -0.444,-2.2323c-0.294,-0.7077 -0.723,-1.3508 -1.265,-1.8925c-0.542,-0.5416 -1.185,-0.9713 -1.892,-1.2645c-0.708,-0.2931 -1.467,-0.444 -2.233,-0.444c-0.766,0 -1.524,0.1509 -2.232,0.444c-0.708,0.2932 -1.351,0.7229 -1.892,1.2645c-0.542,0.5417 -0.972,1.1848 -1.265,1.8925c-0.293,0.7077 -0.444,1.4663 -0.444,2.2323z" stroke="#BACAD6" stroke-width="2" stroke-linecap="round" stroke-linejoin="round"/></svg>