<svg width="17" height="17" viewBox="0 0 17 17" fill="none" xmlns="http://www.w3.org/2000/svg">
<path d="M9.89096 16.5501C10.4599 16.5501 10.8627 16.0607 11.155 15.3023L16.3297 1.78512C16.4719 1.42176 16.5589 1.09783 16.5589 0.82919C16.5589 0.315834 16.2349 0 15.7212 0C15.4526 0 15.1287 0.0788742 14.7653 0.221117L1.17738 5.42681C0.513356 5.67962 0 6.08241 0 6.65914C0 7.38586 0.553131 7.63091 1.31154 7.86012L7.01542 9.53468L8.67448 15.1674C8.91144 15.9653 9.15615 16.5501 9.89096 16.5501ZM7.37137 8.33437L1.91995 6.66723C1.79355 6.62745 1.75411 6.59577 1.75411 6.54049C1.75411 6.48521 1.78546 6.44611 1.9041 6.39858L12.5848 2.35375C13.2168 2.11679 13.8252 1.80062 14.4097 1.53198C13.8886 1.95871 13.2408 2.46431 12.8063 2.8988L7.37137 8.33437ZM10.0177 14.8125C9.95467 14.8125 9.92298 14.7569 9.88354 14.6305L8.2164 9.17974L13.6516 3.7445C14.0784 3.31777 14.6076 2.65408 15.0265 2.11713C14.7579 2.71711 14.4417 3.32553 14.197 3.96562L10.1522 14.6463C10.1047 14.765 10.073 14.8125 10.0177 14.8125Z" fill="#171716"/>
<path d="M7.37137 8.33437L1.91995 6.66723C1.79355 6.62745 1.75411 6.59577 1.75411 6.54049C1.75411 6.48521 1.78546 6.44611 1.9041 6.39858L12.5848 2.35375C13.2168 2.11679 13.8252 1.80062 14.4097 1.53198C13.8886 1.95871 13.2408 2.46431 12.8063 2.8988L7.37137 8.33437Z" fill="#171716"/>
<path d="M10.0177 14.8125C9.95467 14.8125 9.92298 14.7569 9.88354 14.6305L8.2164 9.17974L13.6516 3.7445C14.0784 3.31777 14.6076 2.65408 15.0265 2.11713C14.7579 2.71711 14.4417 3.32553 14.197 3.96562L10.1522 14.6463C10.1047 14.765 10.073 14.8125 10.0177 14.8125Z" fill="#171716"/>
</svg>
