<svg width="56" height="59" viewBox="0 0 56 59" fill="none" xmlns="http://www.w3.org/2000/svg">
<path fill-rule="evenodd" clip-rule="evenodd" d="M24.6962 5.86066H30.9515C31.1588 5.86066 31.3575 5.94299 31.5041 6.08953C31.6506 6.23607 31.7329 6.43483 31.7329 6.64208C31.7329 13.7061 39.383 18.1251 45.5016 14.5891C45.6802 14.4882 45.8913 14.4615 46.0894 14.5148C46.2875 14.5682 46.4567 14.6973 46.5604 14.8743L49.6939 20.2974C49.7961 20.4764 49.8235 20.6884 49.77 20.8875C49.7166 21.0865 49.5867 21.2564 49.4087 21.3601C43.2901 24.8922 43.2901 33.7222 49.4087 37.2581C49.5857 37.3619 49.7148 37.531 49.7682 37.7291C49.8215 37.9272 49.7949 38.1384 49.6939 38.317L46.5604 43.74C46.4567 43.9171 46.2875 44.0462 46.0894 44.0996C45.8913 44.1529 45.6802 44.1262 45.5016 44.0253C39.383 40.4893 31.7329 44.9044 31.7329 51.9645C31.7329 52.1711 31.6511 52.3692 31.5054 52.5157C31.3597 52.6621 31.162 52.7449 30.9554 52.7459H24.7001C24.4929 52.7459 24.2941 52.6636 24.1476 52.517C24.001 52.3705 23.9187 52.1717 23.9187 51.9645C23.9187 44.9004 16.2686 40.4854 10.1501 44.0174C9.97112 44.1196 9.75904 44.147 9.56 44.0936C9.36096 44.0402 9.19108 43.9103 9.08735 43.7322L5.96166 38.3092C5.86035 38.131 5.83307 37.9202 5.88569 37.7222C5.93831 37.5241 6.06662 37.3547 6.24297 37.2503C12.3615 33.7144 12.3615 24.8843 6.24297 21.3484C6.067 21.2447 5.9386 21.0763 5.8853 20.8791C5.83199 20.6819 5.858 20.4717 5.95776 20.2935L9.08735 14.8665C9.19173 14.6891 9.36189 14.5601 9.56088 14.5074C9.75986 14.4547 9.97159 14.4827 10.1501 14.5852C16.2686 18.1211 23.9187 13.7022 23.9187 6.63817C23.9187 6.20839 24.2664 5.86066 24.6962 5.86066ZM18.0581 6.64208C18.0581 2.9694 21.0275 0 24.6962 0H30.9515C34.6242 0 37.5936 2.9694 37.5936 6.64208C37.5947 7.2241 37.7488 7.79559 38.0404 8.2993C38.332 8.803 38.7509 9.22123 39.255 9.51208C39.7592 9.80293 40.3309 9.95618 40.9129 9.95649C41.4949 9.95679 42.0668 9.80413 42.5712 9.5138C44.0959 8.6357 45.9067 8.39843 47.6061 8.85405C49.3056 9.30968 50.7548 10.421 51.6357 11.944L54.7692 17.3671C56.6016 20.5436 55.5116 24.5991 52.339 26.4316C51.8344 26.7231 51.4153 27.1423 51.124 27.6471C50.8327 28.1518 50.6793 28.7244 50.6793 29.3072C50.6793 29.89 50.8327 30.4625 51.124 30.9673C51.4153 31.4721 51.8344 31.8913 52.339 32.1828C53.862 33.0637 54.9733 34.513 55.429 36.2124C55.8846 37.9118 55.6473 39.7226 54.7692 41.2473L51.6357 46.6704C50.7548 48.1934 49.3056 49.3047 47.6061 49.7603C45.9067 50.216 44.0959 49.9787 42.5712 49.1006C42.0668 48.8103 41.4949 48.6576 40.9129 48.6579C40.3309 48.6582 39.7592 48.8115 39.255 49.1023C38.7509 49.3931 38.332 49.8114 38.0404 50.3151C37.7488 50.8188 37.5947 51.3903 37.5936 51.9723C37.5936 55.6411 34.6242 58.6144 30.9554 58.6144H24.7001C22.9392 58.6133 21.2508 57.9131 20.006 56.6676C18.7612 55.4221 18.062 53.7332 18.062 51.9723C18.0608 51.3903 17.9067 50.8188 17.6151 50.3151C17.3235 49.8114 16.9047 49.3931 16.4005 49.1023C15.8964 48.8115 15.3247 48.6582 14.7427 48.6579C14.1606 48.6576 13.5888 48.8103 13.0843 49.1006C11.5596 49.9787 9.74886 50.216 8.04942 49.7603C6.34998 49.3047 4.90075 48.1934 4.01983 46.6704L0.886333 41.2473C0.00823795 39.7226 -0.229038 37.9118 0.226587 36.2124C0.682212 34.513 1.79351 33.0637 3.31655 32.1828C3.82028 31.891 4.23845 31.4719 4.52915 30.9676C4.81985 30.4632 4.97287 29.8913 4.97287 29.3091C4.97287 28.727 4.81985 28.1551 4.52915 27.6507C4.23845 27.1464 3.82028 26.7273 3.31655 26.4355C1.79351 25.5545 0.682212 24.1053 0.226587 22.4059C-0.229038 20.7064 0.00823795 18.8957 0.886333 17.371L4.01592 11.944C4.89684 10.421 6.34607 9.30968 8.04551 8.85405C9.74495 8.39843 11.5557 8.6357 13.0804 9.5138C13.5848 9.80413 14.1567 9.95679 14.7387 9.95649C15.3208 9.95618 15.8925 9.80293 16.3966 9.51208C16.9008 9.22123 17.3196 8.803 17.6112 8.2993C17.9028 7.79559 18.0569 7.2241 18.0581 6.64208ZM33.6865 29.3033C33.6865 30.8576 33.069 32.3483 31.9699 33.4474C30.8708 34.5465 29.3802 35.1639 27.8258 35.1639C26.2715 35.1639 24.7808 34.5465 23.6817 33.4474C22.5826 32.3483 21.9652 30.8576 21.9652 29.3033C21.9652 27.7489 22.5826 26.2583 23.6817 25.1592C24.7808 24.0601 26.2715 23.4426 27.8258 23.4426C29.3802 23.4426 30.8708 24.0601 31.9699 25.1592C33.069 26.2583 33.6865 27.7489 33.6865 29.3033ZM39.5471 29.3033C39.5471 32.412 38.3122 35.3933 36.114 37.5915C33.9159 39.7897 30.9345 41.0246 27.8258 41.0246C24.7171 41.0246 21.7358 39.7897 19.5376 37.5915C17.3394 35.3933 16.1045 32.412 16.1045 29.3033C16.1045 26.1946 17.3394 23.2132 19.5376 21.0151C21.7358 18.8169 24.7171 17.582 27.8258 17.582C30.9345 17.582 33.9159 18.8169 36.114 21.0151C38.3122 23.2132 39.5471 26.1946 39.5471 29.3033Z" fill="#BACAD6" fill-opacity="0.82"/>
</svg>
