<svg width="688" height="669" viewBox="0 0 688 669" fill="none" xmlns="http://www.w3.org/2000/svg">
<g clip-path="url(#clip0_3067_7095)">
<path d="M359.93 508.61L343.67 613.81L333.16 539.16C328.77 507.97 322.32 478.1 313.31 448.06C300.41 405.04 280.06 368.92 239.2 348.11C221.47 339.08 203.27 332.9 183.66 328.58L105.49 311.37L185.91 294.07C203.97 290.19 220.66 284.24 237.2 276.36C282.02 255.03 302.23 215.65 315.34 169.44C321.78 146.74 326.79 124.62 329.99 101.07L343.76 0L354.8 83.54C358.49 111.49 363.71 138.2 370.95 165.36C380.4 200.8 395.78 236.53 424.45 259.89C437.23 270.3 451.31 277.79 466.88 283.41C488.86 291.35 510.95 296.67 533.85 301.41L581.69 311.3L522 324.16C498.96 329.12 476.94 335.19 455.5 344.58C430.07 355.71 410.11 373.46 396.04 397.25C386.99 412.55 380.3 428.27 375.16 445.38C368.86 466.33 363.37 486.38 359.93 508.62V508.61ZM343.58 386.29C346.76 372.34 349.5 360.77 355.25 349.47C360.8 338.14 368.87 329.24 379.78 322.9C388.18 319.04 396.74 316.29 405.42 314.65L384.77 307.68C357.61 294.9 349.18 270.89 343.77 241.98C337.21 280.56 322.93 306.16 281.72 314.6L299.83 319.46C329.07 330.47 338.67 358.14 343.59 386.29H343.58Z" fill="white"/>
<path d="M330.26 668.3C307.6 635.09 282.01 605.36 251.83 578.46C220.39 550.44 186.94 525.62 151.25 503.01C103.12 472.43 52.94 446.55 0 423.52C50.66 419.56 101.83 427.91 148.64 449.75C186.11 467.27 218.99 491.97 247.46 521.98C285.33 563.51 314.62 612.37 330.25 668.3H330.26Z" fill="white"/>
<path d="M526.261 509.35C458.901 553.7 402.571 601 356.891 668.91C375.281 604.32 411.291 547.63 459.441 502.73C484.751 479.67 512.911 461.24 544.151 447.35C589.171 427.44 637.721 419.44 687.471 423.62C631.321 447.85 577.641 475.88 526.261 509.34V509.35Z" fill="white"/>
</g>
<defs>
<clipPath id="clip0_3067_7095">
<rect width="687.47" height="668.91" fill="white"/>
</clipPath>
</defs>
</svg>
