<svg width="63" height="46" viewBox="0 0 63 46" fill="none" xmlns="http://www.w3.org/2000/svg">
<path d="M28.3275 0.489576C45.1458 -1.74482 59.7684 3.87981 60.9873 13.0545L62.4585 24.1283C63.6774 33.3029 51.0307 42.5504 34.2123 44.7848C17.693 46.9795 3.29362 41.5928 1.63148 32.7081L1.55253 32.2199L0.0813254 21.1461C-1.13757 11.9715 11.5091 2.72397 28.3275 0.489576ZM32.7411 33.711C22.4425 35.0792 12.9635 33.4987 6.88715 29.9617L7.08944 31.4843C7.78164 36.6945 19.3105 41.1299 33.4767 39.2479C47.3466 37.4052 57.1976 30.3773 56.9511 25.1924L56.9216 24.8639L56.722 23.3409C51.78 28.3417 43.0425 32.3424 32.7411 33.711ZM29.0631 6.02648C14.8969 7.90852 4.92602 15.2003 5.61823 20.4105C6.31043 25.6207 17.8393 30.0561 32.0055 28.1741C46.1717 26.292 56.1426 19.0003 55.4503 13.7901C54.7581 8.57984 43.2292 4.14443 29.0631 6.02648Z" fill="#BACAD6" fill-opacity="0.82"/>
</svg>
