<svg width="22" height="22" viewBox="0 0 22 22" fill="none" xmlns="http://www.w3.org/2000/svg">
<path fill-rule="evenodd" clip-rule="evenodd" d="M17.0649 10.7226C16.9706 10.8169 16.667 11.0896 15.5661 10.6828C14.4607 10.2746 13.0518 9.31511 11.5942 7.85605C10.1351 6.39699 9.17717 4.98951 8.76745 3.88416C8.36068 2.78323 8.63333 2.47963 8.72766 2.38531C8.82198 2.29099 9.12558 2.01833 10.2265 2.4251C10.3641 2.47619 10.5065 2.53564 10.6539 2.60343C11.6856 3.08094 12.9236 3.97406 14.1984 5.25185C15.6575 6.71091 16.6169 8.11839 17.0251 9.22374C17.4319 10.3247 17.1593 10.6283 17.0649 10.7226ZM10.0305 9.41975C11.2832 10.6725 12.592 11.682 13.8344 12.3261H2.21052V12.2863C2.20914 12.0299 2.25926 11.7758 2.3579 11.5391L6.48748 5.15753L6.74097 4.77434C7.3187 6.25845 8.49185 7.88111 10.0305 9.41975ZM15.7636 3.68962C18.9278 6.85534 20.5387 10.3763 18.6286 12.2878C17.6757 13.2401 16.625 14.0893 15.4939 14.8212L9.07547 18.9729C9.07547 18.9729 6.20893 20.883 2.38884 17.0629C-1.43272 13.2398 0.477327 10.3748 0.477327 10.3748L4.63049 3.95638C5.36288 2.82522 6.21256 1.77448 7.16543 0.821607C9.074 -1.08844 12.5949 0.522426 15.7606 3.68962M18.5019 21.9058C19.9256 21.9058 21.081 20.7783 21.081 19.3856C21.081 17.5669 19.3567 15.3179 18.8527 14.7019C18.8106 14.65 18.7573 14.6083 18.6968 14.58C18.6363 14.5516 18.5702 14.5374 18.5034 14.5383C18.4359 14.5379 18.3692 14.5526 18.308 14.5811C18.2468 14.6097 18.1928 14.6514 18.1497 14.7033C17.6486 15.3253 15.9227 17.592 15.9227 19.3871C15.9227 20.7783 17.0782 21.9073 18.5019 21.9073" fill="#BACAD6"/>
</svg>
