<svg width="16" height="9" viewBox="0 0 16 9" fill="none" xmlns="http://www.w3.org/2000/svg">
<path d="M12.8257 4.56434C12.1524 3.42685 11.1239 2.54216 9.89856 2.04641C8.67321 1.55065 7.31891 1.4713 6.04405 1.82058C4.7692 2.16985 3.64445 2.92839 2.84289 3.97946C2.04133 5.03053 1.60739 6.31588 1.60784 7.63772C1.60784 7.85093 1.52314 8.05541 1.37237 8.20617C1.22161 8.35694 1.01713 8.44164 0.803918 8.44164C0.590706 8.44164 0.386226 8.35694 0.235461 8.20617C0.0846977 8.05541 0 7.85093 0 7.63772C-0.000103951 6.02082 0.512959 4.44561 1.4653 3.13894C2.41764 1.83227 3.76012 0.861561 5.2994 0.366615C6.83868 -0.128332 8.49532 -0.121977 10.0308 0.384763C11.5662 0.891504 12.9012 1.87248 13.8435 3.18642L14.2752 0.738489C14.3122 0.528475 14.4311 0.341757 14.6057 0.219412C14.7804 0.0970671 14.9965 0.0491166 15.2065 0.0861089C15.4165 0.123101 15.6033 0.242006 15.7256 0.416666C15.8479 0.591326 15.8959 0.807434 15.8589 1.01745L15.0212 5.7678C14.9839 5.97773 14.8648 6.16425 14.69 6.28633C14.5761 6.36271 14.446 6.41156 14.3099 6.429C14.1739 6.44644 14.0357 6.432 13.9062 6.38682L9.33993 5.5821C9.12991 5.5451 8.94319 5.4262 8.82085 5.25154C8.6985 5.07688 8.65055 4.86077 8.68755 4.65076C8.72454 4.44074 8.84344 4.25403 9.0181 4.13168C9.19276 4.00934 9.40887 3.96139 9.61889 3.99838L12.8257 4.56434Z" fill="#BACAD6"/>
</svg>
