<svg width="204" height="81" viewBox="0 0 204 81" fill="none" xmlns="http://www.w3.org/2000/svg">
<path d="M68.0208 18.339C65.8037 10.0424 54.9913 5.6576 43.9956 8.59592L4.00195 19.2832L18.5162 73.5979L58.7558 62.8449C78.5036 57.5677 82.5362 72.6582 82.5362 72.6582M68.0208 18.339C65.8025 10.0379 72.9876 0.848569 83.9833 -2.08975L123.977 -12.777L138.491 41.5376L98.4975 52.2249C78.5036 57.5677 82.5362 72.6582 82.5362 72.6582M68.0208 18.339L82.5362 72.6582M95.1433 74.74C95.8723 72.4496 97.3802 70.2748 99.4975 68.46C101.615 66.6451 104.258 65.2622 107.129 64.4667L136.121 56.7193M72.648 80.7513C70.893 79.1105 68.5035 77.9645 65.7574 77.4467C63.0113 76.9289 60.0214 77.0605 57.1354 77.8262L28.1435 85.5735" stroke="white" stroke-width="8" stroke-miterlimit="10" stroke-linecap="round" stroke-linejoin="round"/>
<path d="M201.553 9.49385C201.553 9.49385 168.279 15.6493 150.723 57.2805C137.249 89.2241 135.715 115.901 135.715 115.901L143.054 109.627C146.72 97.4016 148.905 92.2056 153.485 84.4455C165.131 85.066 176.407 82.0009 183.581 68.2671C174.401 67.8841 167.643 70.0667 157.723 73.4937C167.299 63.0119 174.687 59.4537 185.858 58.6406L188.136 49.0141C180.04 49.3756 174.842 50.4635 167.593 54.0343C174.667 46.0508 179.775 41.3025 190.414 39.3876L193.667 29.8495C186.838 30.958 182.962 32.6435 175.701 36.3536C181.153 28.4338 186.813 24.1008 195.897 21.3706C195.897 21.3706 198.501 12.167 201.553 9.49385Z" fill="white"/>
</svg>
