<svg width="232" height="68" viewBox="0 0 232 68" fill="none" xmlns="http://www.w3.org/2000/svg">
<path d="M216.224 4.82599C216.338 3.72732 215.54 2.74428 214.441 2.63032L205.796 1.73367C204.698 1.61971 203.715 2.41797 203.601 3.51665L202.486 14.265C202.372 15.3637 201.389 16.1619 200.29 16.048L189.542 14.9331C188.443 14.8191 187.46 15.6174 187.346 16.7161L186.45 25.3606C186.336 26.4592 187.134 27.4423 188.232 27.5562L198.981 28.6711C200.08 28.7851 200.878 29.7681 200.764 30.8668L199.649 41.6151C199.535 42.7138 200.333 43.6968 201.432 43.8108L210.076 44.7074C211.175 44.8214 212.158 44.0231 212.272 42.9245L213.387 32.1761C213.501 31.0774 214.484 30.2792 215.583 30.3931L226.331 31.508C227.43 31.622 228.413 30.8237 228.527 29.725L229.423 21.0805C229.537 19.9819 228.739 18.9988 227.64 18.8849L216.892 17.77C215.793 17.656 214.995 16.673 215.109 15.5743L216.224 4.82599Z" fill="white"/>
<rect x="62.3652" y="22.1406" width="25.272" height="15.9481" rx="5" transform="rotate(22.3601 62.3652 22.1406)" fill="white"/>
<rect y="74.4922" width="25.272" height="15.9481" rx="5" transform="rotate(-64.7304 0 74.4922)" fill="white"/>
<rect x="18.5625" y="39.0664" width="25.272" height="15.9481" rx="5" transform="rotate(-30.7096 18.5625 39.0664)" fill="white"/>
<rect x="98.3652" y="37.7148" width="25.272" height="15.9481" rx="5" transform="rotate(39.0059 98.3652 37.7148)" fill="white"/>
<rect x="158.734" y="48.9355" width="25.272" height="15.9481" rx="5" transform="rotate(-37.4816 158.734 48.9355)" fill="white"/>
<rect x="125.293" y="57.0586" width="25.272" height="15.9481" rx="5" transform="rotate(-3.15232 125.293 57.0586)" fill="white"/>
</svg>
