<svg width="296" height="303" viewBox="0 0 296 303" fill="none" xmlns="http://www.w3.org/2000/svg">
<g clip-path="url(#clip0_1200_3199)">
<path d="M20.2666 248.436V247.436C20.5424 244.68 22.4415 239.574 24.5528 237.467L28.5419 233.51C28.648 233.403 28.9344 232.988 28.8071 232.935L28.2766 232.733L25.9638 231.903C24.7013 231.446 23.6191 230.254 23.3433 228.935C23.0993 227.786 23.5024 226.403 24.8817 226.36C24.1178 227.977 24.3194 229.403 25.6986 230.265C27.3854 231.307 30.2287 232.446 31.4276 230.414L27.8947 230.02C26.1654 229.829 25.0832 227.488 25.8789 227.892L26.3457 228.126C27.7037 228.828 29.1678 229.339 30.7274 228.871C32.5628 228.318 33.7829 226.509 33.8571 224.562L34.0905 218.009C34.2921 212.487 37.2839 210.381 38.1963 208.828C38.5146 208.285 28.892 209.881 28.9768 217.466C29.0299 221.924 32.9341 222.126 32.7219 223.541C32.5097 224.956 25.9426 225.222 23.8738 219.349C22.2505 214.732 22.6219 209.604 25.0514 205.274C27.1202 201.583 31.2154 199.604 31.608 199.093C31.8307 198.795 26.9186 196.125 27.7037 189.976C28.1281 186.667 29.5179 183.784 31.9262 181.401C37.093 176.284 43.6389 177.294 44.0421 176.528C44.5937 175.475 42.7583 170.475 47.384 165.454C50.2591 162.326 54.2376 160.453 58.5344 160.198L67.4356 159.655C65.2925 150.112 69.2073 142.208 78.0131 138.772C79.9227 138.027 82.034 137.835 84.0285 137.25C85.726 135.761 87.1159 133.686 88.6648 132.027L90.8822 129.654C90.8822 129.654 90.7761 129.58 90.5321 129.42C89.365 129.654 86.2459 129.537 85.4926 128.846C84.8773 128.282 84.4423 127.782 84.6121 126.75L84.6969 126.239C84.7606 125.867 84.8242 125.356 84.8561 125.079C84.8985 124.643 81.2807 124.484 80.3259 122.558C79.9864 121.877 80.188 120.75 80.2729 119.898C77.3235 119.186 69.5681 115.42 72.8782 111.59C68.8785 110.398 65.5365 107.866 63.8815 104.089C62.8842 101.813 64.8681 100.983 64.0406 100.568C60.2213 98.6422 56.9218 94.9399 55.585 90.7057C54.8742 88.4503 56.9748 87.7482 57.5902 87.2694C57.6538 87.2269 57.3037 87.046 57.2294 86.9928C53.6859 84.1948 52.0945 81.3117 50.1955 77.0881C49.5165 75.5987 50.5986 73.9923 51.9884 72.9816C49.3149 70.9602 43.1297 60.7577 49.2512 60.0236C49.4422 60.0023 49.909 59.864 50.0682 59.8108C50.5031 59.6619 45.3576 55.1617 46.9596 48.2891C47.4583 46.1294 50.7896 47.2465 50.0045 46.0549C47.575 42.3846 45.8138 39.3206 46.8217 34.3098C47.1824 32.5012 49.7287 32.6501 51.2352 32.6288L51.6171 32.3522L49.8454 29.533C48.5298 27.4371 47.6068 25.2881 47.9781 22.7348C48.1585 21.5433 48.8799 20.6496 50.1424 20.373C52.9433 19.7773 55.7017 20.4262 58.2161 21.8305C61.2928 23.5434 64.0512 25.5115 66.6399 27.9584L80.1668 40.7675L90.9034 50.2572C92.9085 52.0233 94.9668 53.3957 97.3114 54.6404C103.698 58.0342 109.448 62.8961 112.281 69.7155C112.324 69.8112 112.483 70.0453 112.536 70.1304C112.589 70.2155 112.939 70.0134 113.013 69.9389C117.862 65.4068 123.676 62.3641 130.009 60.3321C130.423 59.9704 130.593 59.0555 130.455 58.4704C128.301 48.97 126.116 39.6611 124.588 30.033L122.328 15.7239C122.254 15.2239 122.604 14.3621 122.986 14.3089C123.315 14.2664 124.132 14.4472 124.344 14.7132C125.787 16.458 127.092 18.0963 128.344 20.0326C135.866 31.682 142.528 43.757 148.469 56.4171C157.986 56.3745 168.373 56.9384 177.306 59.7257C180.923 60.8215 184.138 62.396 187.65 64.3429C185.019 49.3317 182.865 34.8736 181.571 20.0326C181.528 19.5006 182.122 18.7772 182.483 18.7985C182.801 18.8091 183.544 19.0538 183.745 19.3198C187.151 23.937 194.196 39.7994 196.551 45.6826L205.611 68.3005C207.521 73.0561 207.967 78.0669 209.95 82.6416L211.266 85.663L215.308 108.781C215.531 110.047 214.672 110.813 213.611 110.983C213.462 111.004 213.154 111.164 213.038 111.239C212.953 111.292 212.942 111.834 213.038 112.015L216.963 119.313C219.085 123.25 219.372 127.846 217.504 131.899C215.223 136.857 209.505 137.154 209.059 138.772C208.847 139.538 209.027 140.665 209.526 141.261C214.29 146.942 218.661 150.804 218.958 158.996C219.085 162.613 217.844 165.571 216.093 168.56C213.823 172.443 214.343 177.316 216.592 181.061C220.422 187.444 229.45 192.689 231.349 200.721C232.379 205.083 230.904 209.349 227.403 211.966L224.973 213.785C228.559 216.051 229.97 215.988 232.962 218.871C235.954 221.754 237.333 225.733 236.803 229.935C236.697 230.765 236.93 231.701 237.45 232.329C240.113 235.51 242.171 238.903 243.89 242.68C245.502 246.223 246.489 249.723 247.911 253.659L251.581 237.499C250.669 236.893 249.682 236.371 249.226 235.595C247.613 232.818 250.361 230.148 250.223 229.669C250.001 228.914 247.465 227.956 248.643 225.701L258.053 207.711L261.31 201.732C261.533 201.327 262.413 200.955 262.817 201.061C263.167 201.157 263.856 201.732 263.941 202.125L267.145 216.062L269.978 229.424C270.243 230.69 269.331 231.722 268.291 232.201C265.851 233.318 268.864 235.946 266.594 238.286C265.734 239.18 264.45 239.308 263.039 239.542L259.814 254.138L255.751 273.564C255.56 274.479 256.09 275.33 256.865 275.554C259.146 276.192 260.546 278.192 260.843 280.565C261.14 282.937 261.788 284.799 263.252 286.661C267.485 292.033 263.771 293.512 266.71 295.895C268.185 297.097 269.14 298.778 269.203 300.512C269.267 302.406 268.588 304.161 267.135 305.449C264.896 307.428 268.832 309.545 264.079 314.598C261.225 317.63 264.429 319.343 260.801 322.832C257.607 325.907 261.49 327.003 258.477 334.992C258.032 336.184 258.265 337.45 258.552 338.833C258.711 339.631 260.27 348.823 258.637 348.408C258.244 347.078 257.894 345.812 257.629 344.472L256.536 338.929C256.345 338.929 255.846 339.439 255.793 339.716L255.146 342.684L254.658 342.855L254.011 340.865C249.81 344.482 244.335 344.94 239.296 342.312L237.036 350.557C236.537 350.844 235.593 350.802 234.882 350.631L237.28 340.163L241.778 320.641C242.107 319.226 241.566 317.96 240.219 317.46C238.543 316.832 236.707 316.747 234.946 317.322L228.803 343.344L226.734 350.748L225.175 350.685L227.509 339.056L224.835 337.386C221.939 335.578 220.878 332.216 220.73 328.726C220.623 328.652 220.464 328.567 220.316 328.514C218.247 332.141 217.112 334.078 217.186 338.408C216.74 338.493 216.221 337.822 216.104 337.195C215.658 334.546 216.316 332.003 217.483 329.545C219.159 326.024 221.005 322.705 222.469 319.045C224.252 314.609 224.878 310.077 225.546 305.353C226.013 302.087 227.509 299.119 229.037 296.31C232.379 290.15 226.968 276.362 222.947 272.415L216.815 266.394C217.133 268.447 218.3 270.022 219.637 271.522C220.231 272.181 220.867 272.724 221.048 273.724C215.839 272.373 213.473 265.16 213.579 260.415C213.706 255.085 209.558 256.947 208.911 248.957C208.709 246.499 203.723 246.585 201.272 241.882L199.84 239.137C199.776 239.01 199.532 238.776 199.447 238.691C199.384 238.637 199.15 238.935 199.108 239.01C196.583 243.052 193.792 246.893 189.931 249.712C189.209 250.234 188.976 250.797 189.368 251.638C192.254 257.681 193.623 265.766 187.926 270.724C187.225 271.33 186.758 272.075 186.896 272.979C187.003 273.639 187.491 274.543 188.159 274.82C191.681 276.256 189.602 278.873 192.806 280.671C194.238 281.48 195.734 282.203 197.071 283.139C198.408 284.075 198.047 286.288 197.134 287.374C195.639 289.14 194.312 290.735 192.923 292.586L194.026 303.587C194.132 304.661 195.013 306.151 196.137 306.161L204.476 306.193C205.452 306.193 206.301 307.162 206.598 308.034C207.807 311.534 208.921 314.885 209.866 318.428C210.194 319.673 209.569 320.854 208.37 321.151C201.909 322.769 194.652 325.035 189.305 328.982C188 329.939 186.61 330.439 184.997 329.556C180.987 327.365 176.765 325.62 172.277 324.471L161.561 321.737C160.331 321.417 159.556 320.407 159.906 319.002L162.622 307.959C162.877 306.906 163.779 306.215 164.85 306.204L173.232 306.108C174.017 306.108 174.568 304.449 174.59 303.746L174.844 293.235L169.752 288.267C169.083 287.618 168.606 286.873 168.638 285.98C168.659 285.203 169.126 284.48 169.794 283.958L173.582 280.98C175.831 279.203 174.346 276.894 176.552 275.533C177.274 275.086 177.698 274.394 177.539 273.586C177.433 273.064 176.722 272.405 176.107 272.192C167.821 269.33 166.187 260.606 167.418 252.861C167.545 252.095 167.195 251.617 166.495 251.351C162.113 249.723 157.922 247.893 153.976 245.404L148.427 241.914C145.955 245.957 152.756 250.297 155.885 254.489C159.758 259.691 160.596 266.947 155.588 271.915C154.994 272.511 154.941 273.33 155.344 274.011L157.816 278.043C159.906 281.448 160.564 285.554 159.259 289.374C157.594 294.246 152.978 295.172 152.204 295.874C151.567 296.459 154.103 300.183 152.671 305.278C151.716 308.715 149.276 311.204 145.86 312.226C143.547 312.917 140.725 313.215 138.465 312.726C138.274 312.683 137.818 312.268 137.934 312.172C138.794 311.428 141.52 311.449 142.751 308.619C141.075 310.491 133.68 311.63 132.842 310.162C132.8 310.087 132.916 309.949 133.012 309.928C133.107 309.906 133.532 309.842 133.648 309.864C136.354 310.215 139.292 308.523 139.823 305.576C140.173 303.619 140.024 301.608 139.017 299.81C137.011 296.236 131.304 299.002 129.712 288.852C127.474 290.991 128.333 295.044 130.773 297.172C130.964 297.342 131.251 297.927 131.113 298.129C130.359 299.246 126.041 299.204 123.442 295.757C120.493 291.852 121.31 286.405 125.15 283.331C126.678 282.107 128.153 280.916 129.574 279.607C131.972 277.405 127.718 275.607 126.317 270.937C125.288 267.5 125.331 263.724 126.519 260.319C128.047 255.968 131.802 252.234 132.227 248.063C132.651 243.893 129.585 244.308 130.137 239.606L128.895 236.691C128.492 235.744 128.301 234.829 127.346 234.382L124.736 233.137C125.702 238.052 127.94 244.106 125.458 248.797C124.227 251.127 121.713 252.319 119.135 252.361C117.925 252.383 116.928 253.053 116.705 254.234L114.435 265.915L116.493 261.319C117.098 265.787 114.244 270.32 112.101 273.83L107.666 281.075C107.178 281.873 106.361 282.043 105.428 281.597C105.077 283.831 103.497 285.012 101.905 286.278C101.29 287.82 101.29 289.799 101.491 291.682C106.404 288.597 109.968 284.097 112.525 278.958C112.78 278.437 113.162 277.979 113.597 277.682C114.021 279.299 113.289 280.554 112.663 281.937C110.329 287.139 106.531 291.289 101.449 293.831C100.781 294.842 100.834 296.768 101.534 297.661L103.974 300.789C105.279 302.459 106.807 303.555 108.982 304.395C105.746 305.938 103.009 302.395 101.184 300.119C98.0753 306.545 92.5903 302.64 92.0916 306.491C91.7203 309.396 92.081 312.311 92.8025 315.183C93.6512 318.598 94.5742 321.864 95.9216 325.109C96.8446 327.333 98.3617 329.067 99.6455 331.301C96.6749 329.897 94.6591 327.088 93.4284 324.12L89.6303 314.981L87.9646 321.769C86.8188 326.45 87.3811 330.897 89.1741 335.312L91.593 341.269C89.3544 341.854 85.6624 330.673 85.2592 328.896L82.4796 337.727C82.2568 338.418 81.7476 338.993 81.1216 339.365C80.9943 338.791 80.8776 338.163 80.9731 337.769L83.88 325.364L88.1344 307.715C89.2165 303.236 89.6621 298.948 89.8743 294.289C88.5587 293.086 87.3599 292.097 85.8958 291.14C74.4059 283.629 61.7384 282.448 48.5086 285.405C45.5698 286.065 42.9069 287.044 40.1591 288.395L38.2918 309.289L36.3397 333.365C36.2973 333.875 35.0242 344.695 34.186 343.184C34.1011 343.035 33.751 342.535 33.7616 342.184L34.5998 325.684L36.414 297.906C32.5416 297.576 28.2024 295.193 29.2315 290.81L32.7856 275.66C31.9368 273.798 28.4358 274.256 26.5898 270.788C25.9108 269.522 26.1866 268.043 26.3882 266.468C24.1814 268.224 23.407 271.405 24.7968 274.022C25.5819 275.49 27.0566 276.224 28.5737 277.128C27.8416 278.065 26.5261 277.767 25.5925 277.203C22.7704 275.511 21.7095 272.192 22.6006 268.926C23.8313 264.383 28.5525 263.107 28.7434 258.394C22.9826 257.479 20.8926 253.478 20.2666 248.382L20.2666 248.436ZM144.205 79.6734L156.087 76.62L154.092 73.0454C151.27 68.8963 149.424 64.5132 147.472 59.8959C144.788 53.5553 141.807 47.5869 138.422 41.6079L128.588 24.2455C127.463 22.2561 126.328 20.522 124.832 18.6708C126.041 27.618 127.569 36.0545 129.617 44.6932L138.327 81.5032C139.908 81.1521 141.245 80.6415 142.698 80.0244L139.345 67.8856L135.049 51.3743C138.932 60.4172 142.443 69.9708 144.226 79.6734H144.205ZM100.812 94.4825C99.1786 93.7059 97.7994 92.8654 96.7809 91.6313C96.0171 90.7164 96.3141 89.5461 97.2053 88.9397L98.5103 88.0461C96.8234 86.8758 92.2189 82.9714 95.2744 81.5139L96.5475 80.9075C95.5503 79.8117 92.4205 77.3009 93.6724 75.6094C94.0968 75.0349 94.8713 74.5774 95.4654 74.1838C94.3196 73.0773 93.248 71.9709 92.8131 70.4602C92.7388 70.2049 93.0252 69.3644 93.2693 69.4176C94.4893 69.6836 95.041 73.6731 99.9637 74.5987C100.59 74.7157 101.194 75.1413 101.396 75.7902C99.4121 76.1732 95.9746 74.8008 94.9349 75.9498C95.476 78.1627 97.3538 79.4606 99.3272 80.2585L102.627 81.5883C101.332 82.6735 97.9692 81.716 95.7518 82.4714C96.4839 85.8545 100.144 86.9822 102.956 88.429L98.6906 89.3759C98.4148 89.4397 97.8419 89.7482 97.8313 89.9929C97.8313 90.1951 97.9904 90.6206 98.192 90.9079C100.133 93.7165 104.727 94.5144 107.252 92.0143C108.992 90.2908 110.552 88.8652 113.363 89.0035C113.31 85.2587 113.034 81.9075 112.472 78.3329C111.167 70.0772 106.499 63.0769 99.3484 58.715C95.7625 56.5341 92.3993 54.4702 89.1422 51.7679C82.904 46.5762 77.0582 41.2143 71.2019 35.5758C68.1676 32.6608 65.3031 29.916 62.1415 27.2031C59.6165 25.0328 53.9193 20.9582 50.5774 22.7242C49.6544 23.2136 49.7393 24.9796 50.2167 25.9052C54.036 33.3416 59.2876 39.6185 65.9609 44.9485L64.3907 45.2783C66.8733 48.6614 70.0349 50.8743 73.6102 53.1403C75.6896 61.1726 86.1822 61.0875 87.0628 62.7684C87.1265 62.8961 86.596 63.1301 86.4263 63.1195L82.904 63.045C82.2886 63.0344 81.4505 63.5876 81.2065 64.0238C80.241 65.7898 82.9782 68.3112 84.6121 69.2474L89.2483 71.8858C88.2192 72.8326 83.2541 70.4177 82.5751 73.471C82.4053 74.237 82.9676 75.2902 83.5405 75.9179C85.2062 77.7265 87.328 78.9074 89.6409 79.7266C90.5427 80.0457 91.2323 80.2372 92.1235 81.0245L87.0416 81.1947C86.1504 81.2266 84.7076 82.0245 84.9091 83.0246C85.8321 87.6737 94.7864 88.8652 93.9164 89.2589C92.5266 89.8866 88.4739 89.1525 87.7842 91.3547C87.6357 91.8334 87.8585 92.7696 88.145 93.1739C90.4366 96.3123 93.2587 95.8549 96.1868 97.3337L93.5451 98.2486C91.9643 98.7912 90.9989 100.674 91.6991 102.206C92.2296 103.366 93.4602 103.876 94.7015 104.1C95.0728 102.015 96.3884 100.802 97.5236 99.1742L100.812 94.4612V94.4825ZM193.198 58.7895C194.609 64.1621 195.851 69.3963 196.869 74.8859C196.965 75.4179 197.485 75.9604 197.93 76.1945L206.99 80.7585C206.174 76.3434 204.805 72.4816 203.235 68.4495L196.233 50.5232C192.572 41.1611 188.753 32.0544 183.968 23.2242C184.668 31.182 185.857 38.4163 187.087 45.9805L190.302 65.7047C190.419 66.4069 190.652 67.4814 191.013 67.9707C192.116 69.4495 193.039 70.7049 194.365 71.939L191.819 54.9064C192.519 56.1405 192.838 57.3852 193.209 58.7895H193.198ZM69.0694 90.8866C65.9185 89.4823 62.2901 89.9291 59.1179 88.9397C58.6723 88.8014 57.6008 89.4823 57.6008 89.9397C63.4783 103.047 74.2468 99.0571 76.1883 99.9933C77.037 100.408 77.6948 101.047 78.6708 101.068C81.1746 101.11 83.4557 100.802 86.1398 100.515C85.4502 101.249 84.4847 101.44 83.5936 101.717C80.5063 102.674 77.7691 102.227 74.7242 101.749C72.1355 101.344 69.4832 101.823 66.8309 101.664C66.5444 101.642 65.8972 102.047 65.8654 102.334C65.8336 102.568 65.9503 103.153 66.0882 103.387C67.7751 106.164 70.2046 108.398 73.3768 109.238C76.3474 110.026 79.3711 110.036 82.3205 109.185L92.2614 106.313C87.6569 109.696 80.9519 111.047 75.4775 112.079C71.8278 112.77 78.3207 118.643 85.5457 117.515C88.9937 116.983 92.8979 115.707 95.4866 113.132C97.2478 111.377 96.0807 107.121 94.2665 105.972C93.0146 105.174 91.8794 104.994 90.914 104.185C89.3014 102.845 89.1104 100.844 90.2668 99.1423C90.5321 98.7593 90.8079 98.1635 91.0095 97.6847L87.6251 95.4719C86.5854 94.791 85.429 93.4505 85.5033 92.142C85.5669 90.7376 86.6278 89.9078 87.5933 88.8014L84.0604 86.0672C83.1904 85.397 82.4053 84.0991 82.6281 82.9926C82.8934 81.6734 83.9967 80.7798 84.9728 79.8861C82.9888 77.918 79.6469 76.1838 80.4108 73.2156C80.676 72.173 81.6521 71.439 82.8827 70.6411L79.9546 67.5452C78.4268 65.9387 78.7133 63.6408 80.4002 62.1407L76.9309 60.3321C74.1937 58.9065 72.7084 56.4915 71.4353 53.8638C69.3665 52.4063 67.0643 51.002 65.2076 49.3955C63.0752 47.5337 62.3431 45.2251 61.0276 43.0016C59.712 40.7781 57.4204 39.2461 55.7654 37.3737C54.3437 35.7566 52.4552 34.8417 50.3864 34.5119C47.2779 34.0119 48.6571 40.1292 50.397 42.9591C53.8451 48.555 58.736 52.8637 64.4862 56.0128C64.9212 57.5661 65.6851 58.8427 66.99 59.7576C68.7618 61.013 70.5123 62.2258 72.3901 63.2897C74.268 64.3536 76.1352 65.2685 78.0767 66.5664C73.5996 65.9068 69.706 63.6621 66.0139 61.2471C64.1573 60.0342 63.4253 57.9597 61.9081 56.6405C59.0118 54.1297 55.6062 52.4488 52.9539 49.6189C51.9566 48.555 50.3652 48.1295 48.9648 48.555C47.8296 56.1617 53.8026 61.4811 60.1152 64.3536L64.9424 66.5452C64.9106 69.6091 70.2471 70.8006 72.6448 72.1199C73.8118 72.7582 74.8091 73.6625 76.0928 74.1412C77.3022 74.5987 78.4162 75.0987 79.5408 75.6838C75.191 75.2796 65.6532 72.1411 63.3828 68.6835C62.8099 67.8112 62.3325 67.1835 61.4095 66.7898C58.5238 65.5877 55.8608 64.2365 53.1342 62.6939C51.893 61.9918 49.0178 61.1939 48.5298 62.279C48.4343 62.4918 48.4131 63.0769 48.498 63.3535C50.1955 68.8857 54.3649 73.1518 59.7438 75.2902C62.5341 76.3966 65.2925 77.0456 68.2101 77.7584C68.4753 77.8222 69.027 78.035 69.0058 78.2584L68.9315 79.1733C71.2656 82.0564 77.8858 83.0458 81.6096 84.1523C76.7612 85.0885 69.0694 83.3224 66.1625 79.0669C62.184 78.0563 58.4177 76.8966 54.5771 75.4498C53.8026 75.1625 52.9114 75.0774 52.1688 75.4923C52.3173 76.5988 52.7947 77.535 53.3252 78.5137C59.9454 90.6845 69.6211 88.0141 71.7536 89.3121C71.9976 89.461 71.9658 90.3334 72.1886 90.5249C73.3556 91.5249 75.2016 92.1526 76.7824 92.3335L84.8879 93.2803C82.2356 94.3655 79.5408 94.0144 76.9734 94.025C73.7694 94.0463 71.796 92.0781 69.0694 90.8653V90.8866ZM181.051 74.1199L186.175 67.3005C182.197 64.3961 177.624 62.5663 172.903 61.2258C165.71 59.3534 157.19 58.2895 149.583 58.864C151.918 64.8749 154.909 70.141 158.273 75.354C158.591 75.8541 159.323 76.0775 159.949 75.9498C166.951 74.5561 173.911 73.9072 181.051 74.1199ZM115.719 89.578C117.512 90.7483 119.06 90.5568 120.705 89.6844C125.437 87.1843 130.084 84.9715 135.059 82.9182C135.494 82.3862 135.738 81.1415 135.558 80.3755L131.272 62.396C124.376 64.4919 117.819 67.8218 113.427 73.8327C114.689 77.4499 115.199 81.0458 115.432 84.9183L115.719 89.578ZM192.148 100.089L200.763 85.3119C200.646 84.6629 200.328 83.8331 199.914 83.2799L189.188 69.0665C188.944 68.7474 188.01 68.524 187.777 68.8325L178.303 81.5671C177.815 82.216 178.154 83.1097 178.6 83.7267L190.641 100.249C190.779 100.43 191.236 100.685 191.427 100.696C191.618 100.706 191.989 100.376 192.148 100.1V100.089ZM125.564 92.642C139.802 85.2161 155.122 79.9074 171.067 79.1946L177.772 78.8967L179.629 76.1626C177.369 75.9924 175.534 75.9924 173.316 76.1626C156.564 77.4499 139.208 82.3118 124.333 90.1738L121.225 91.8122C122.477 93.2803 123.888 93.525 125.564 92.6526V92.642ZM209.505 87.4396C211.075 84.3757 201.802 79.9181 199.776 79.3968C200.455 80.5245 201.039 82.099 202.121 82.7267C204.709 84.2055 207.022 85.6417 209.505 87.4396ZM132.205 104.525C148.767 96.706 165.741 94.1314 183.894 94.3548L175.863 83.4288C175.322 82.6948 175.884 81.5671 176.213 80.4819C174.282 80.3117 172.393 80.3968 170.357 80.5883C160.235 81.5351 150.538 83.9076 140.979 87.3333C136.067 89.0886 131.516 90.9504 126.816 93.5782C127.834 94.9399 129.256 95.6953 130.89 96.0783C132.524 96.4613 133.638 97.7699 133.68 99.4082C133.733 101.493 129.808 101.908 132.205 104.525ZM203.394 89.6099C204.02 89.4823 204.593 89.7163 205.038 90.0993C207.478 92.1739 207.033 89.7908 210.205 92.8441C210.29 91.8547 210.354 90.3121 209.632 89.5248C207.723 87.4503 205.325 85.9502 203.001 84.6204C202.81 85.8651 202.428 86.8864 201.834 87.9077L197.113 95.8974L201.845 97.5677C205.325 98.7912 208.433 100.344 211.775 102.281C211.775 95.6102 210.566 98.7912 210.014 95.5676C209.07 90.0887 204.794 92.493 203.404 89.6206L203.394 89.6099ZM117.649 105.26C119.517 102.866 117.989 98.8231 115.92 97.1422C114.923 96.3336 113.745 96.3975 112.801 97.3124C110.923 99.121 108.939 96.6315 106.616 98.972C103.804 101.813 106.764 107.366 109.523 109.696C111.602 111.441 113.979 111.643 116.366 110.611C118.753 109.579 121.066 108.185 122.36 105.919C123.835 103.355 123.23 100.451 120.62 99.0571C120.058 98.7593 119.655 98.3656 119.241 97.6316C120.334 97.6635 120.938 97.8124 121.893 98.0784C121.681 92.3973 118.127 91.8015 113.756 91.0355C111.846 90.7057 110.085 91.376 109.035 93.0037C108.26 94.2165 107.008 94.674 105.629 94.8548C103.115 95.1846 101.11 96.8762 100.993 99.3763C102.383 98.1529 103.709 97.3337 105.385 97.9082C108.451 95.3017 110 97.6954 112.207 96.0251C113.618 94.9612 115.368 94.8761 116.769 96.0357C118.891 97.8124 120.058 100.568 119.867 103.387C119.517 108.281 113.819 110.324 110.658 109.079C108.6 108.27 107.793 105.994 107.942 103.951C108.122 101.472 109.936 99.8763 112.398 99.855C114.191 99.8338 116.016 100.483 116.642 102.313L117.639 105.26H117.649ZM127.007 107.887C129.108 105.589 129.871 102.728 129.627 99.887C128.704 96.8656 125.967 95.0144 122.901 94.8442C123.113 96.0251 122.912 97.3124 123.177 98.3869C124.195 102.536 125.872 104.142 127.007 107.877V107.887ZM186.27 98.5465C186.313 97.7911 185.761 96.2379 185.008 96.0889C183.141 95.7059 181.284 95.8655 179.364 95.823C164.182 95.5038 147.631 98.972 133.818 105.153C133.457 105.313 132.916 105.77 132.704 106.026C132.619 106.696 132.969 107.728 133.542 108.185C149.838 100.664 168.404 97.5996 186.281 98.5359L186.27 98.5465ZM131.972 100.855C132.906 100.068 132.821 99.1954 132.428 98.355C132.142 97.7592 131.42 97.1954 130.72 97.089L131.972 100.855ZM212.656 107.409C212.688 106.217 212.571 104.962 212.072 104.025C207.266 100.727 202.015 98.621 196.328 97.2486C195.787 98.0465 195.49 98.7061 195.235 99.5784L200.72 101.185C205.123 102.483 208.996 104.632 212.656 107.409ZM125.532 109.111C125.5 107.685 125.309 106.366 124.323 105.143C123.251 107.983 121.416 109.643 118.954 110.973C117.299 111.866 115.612 112.856 113.639 112.845C110.393 112.845 107.73 110.856 106.181 108.121C103.921 104.142 103.337 104.525 104.653 98.3763C102.563 98.8869 100.537 100.568 100.409 102.855C100.282 105.015 100.94 107.121 101.364 109.175C102.245 113.409 107.518 113.909 111.263 114.111C110.159 114.856 109.003 115.058 107.677 115.175C108.144 116.579 109.427 117.547 110.913 117.866L115.612 118.877C117.161 119.218 118.583 118.781 119.623 117.579C122.678 114.079 125.649 113.451 125.543 109.111H125.532ZM121.288 137.495C123.05 139.24 124.588 140.793 126.37 142.261C127.665 143.336 129.352 143.665 130.922 143.197C133.341 142.463 132.662 140.229 133.691 139.761C133.924 139.655 134.529 140.08 134.635 140.335L138.465 149.719C139.94 153.336 142.316 156.496 145.191 159.134C154.793 167.954 168.892 174.773 181.804 176.39C188.286 177.199 189.984 171.89 192.456 167.22L202.195 148.783C204.614 144.219 205.473 139.527 205.06 134.325L204.455 126.718L202.269 127.346C201.145 127.665 199.882 127.463 199.023 126.675L200.773 126.335C201.813 126.133 202.757 125.473 202.97 124.462C202.312 124.952 201.601 125.462 200.901 125.452C199.108 125.42 198.747 123.09 198.726 121.271C197.495 121.558 196.201 122.037 195.225 122.771C193.283 124.228 195.416 126.675 196.466 129.92C197.23 132.271 198.153 134.303 199.628 136.261C200.508 137.431 200.943 138.995 200.264 140.346C199.171 142.527 195.585 145.708 193.124 144.346C195.013 143.261 196.689 142.548 198.079 141.197C199.352 139.952 199.67 138.25 198.556 136.857C196.912 134.782 196.095 132.442 195.161 129.973L192.965 124.218C192.031 121.76 194.97 116.505 196.519 114.356C197.41 113.122 198.927 112.366 200.529 112.441L207.118 112.749C207.394 111.419 206.799 106.653 205.983 105.717C202.545 103.834 198.991 102.525 195.172 101.791C194.323 101.632 193.58 101.749 193.018 102.345C191.925 103.525 190.376 103.291 189.358 102.132C188.583 101.249 187.607 100.77 186.398 100.759L172.892 100.717C169.54 100.706 167.821 105.696 166.41 108.27C172.065 108.728 177.189 109.579 182.451 111.079C183.47 111.366 184.446 112.494 184.891 113.441C185.782 115.366 178.939 112.483 178.833 112.441C174.77 110.781 170.59 109.877 166.198 109.855C165.062 109.855 164.309 110.217 163.62 111.079C160.331 115.239 155.854 117.803 150.591 118.473C148.183 118.781 150.337 124.675 144.438 130.569C142.242 132.771 138.974 134.197 135.685 133.59L140.322 131.856C141.17 131.537 141.966 130.814 142.624 130.229C145.785 127.388 147.653 123.548 147.451 119.239C146.231 120.154 144.491 120.824 144.003 122.111L142.634 125.718C141.764 128.005 139.6 129.771 136.958 129.899C139.261 128.282 141.372 126.505 141.796 123.537C136.799 126.09 131.792 127.686 126.349 128.112C125.203 128.197 124.132 129.335 124.758 130.431C125.384 131.527 127.781 132.005 128.45 130.878C128.927 130.069 128.789 128.899 129.585 128.25C130.062 129.973 130.54 131.324 131.431 132.729C131.866 133.41 131.972 134.388 131.526 135.101C131.367 135.346 130.794 135.654 130.561 135.548C130.359 135.452 129.999 135.016 129.935 134.739C129.108 131.303 125.437 134.091 122.774 130.846L121.235 132.452C122.455 133.867 124.747 134.846 124.938 135.878C125.193 137.186 120.663 133.569 120.429 133.133C118.159 135.186 115.941 137.123 113.544 138.963C112.43 139.814 111.623 140.814 111.21 142.208C110.478 144.687 110.212 147.229 110.202 149.868C110.202 153.985 109.714 157.857 109.035 161.879L114.042 156.996C120.588 150.602 116.96 146.038 119.283 138.027C119.379 137.697 119.793 137.208 120.058 137.101C120.323 136.995 121.034 137.271 121.31 137.537L121.288 137.495ZM116.291 104.494C116.291 102.472 114.658 100.834 112.642 100.834C110.626 100.834 108.992 102.472 108.992 104.494C108.992 106.515 110.626 108.153 112.642 108.153C114.658 108.153 116.291 106.515 116.291 104.494ZM165.572 105.249L167.821 101.281C165.529 101.334 163.768 101.493 161.498 101.802C160.967 101.876 160.203 102.77 159.896 103.313C157.233 108.004 154.252 112.164 150.634 116.334C156.872 116.005 162.803 110.302 165.572 105.249ZM99.306 105.643L98.7861 101.834C98.0859 101.472 97.2053 102.153 96.9401 102.93C96.4202 104.462 96.7491 106.685 98.245 107.653C99.0407 107.749 99.3908 106.334 99.2953 105.643H99.306ZM128.704 118.558C123.973 119.154 126.911 124.048 117.766 125.76C135.367 128.271 149.371 118.154 156.946 102.738C149.594 104.228 142.984 106.302 136.492 109.228C132.662 110.951 132.725 112.77 131.516 116.558C134.465 116.068 137.128 114.834 139.25 112.866L142.772 109.59C142.465 111.802 140.99 113.239 139.452 114.558C136.481 117.1 132.789 118.43 128.715 118.569L128.704 118.558ZM123.018 116.228C125.225 117.058 128.089 116.92 129.606 114.888C131.123 112.856 132.205 107.568 130.158 105.908C129.129 107.206 127.803 108.185 127.028 109.504C126.158 110.983 127.633 112.398 123.018 116.228ZM216.422 123.356C215.011 117.558 211.871 115.93 210.173 109.217C209.961 108.377 209.643 107.611 208.624 107.292L209.271 111.59L209.813 117.132C210.046 119.569 216.221 125.675 211.701 134.974C216.422 132.931 217.504 127.782 216.422 123.356ZM110.722 119.367C105.258 117.303 108.366 115.473 104.483 114.302C101.778 113.483 100.123 111.526 99.8789 108.579C97.81 110.866 97.3326 116.409 100.102 117.962C102.107 119.079 104.197 119.984 106.414 120.633C107.942 121.079 109.639 120.515 110.732 119.377L110.722 119.367ZM197.548 118.835C200.179 117.249 203.511 117.537 205.813 120.026C207.192 119.026 207.744 117.366 207.648 115.685C207.489 112.707 199.447 114.505 197.686 115.579C195.638 116.824 194.811 119.558 194.662 121.803C197.516 119.994 200.445 119.484 203.903 119.675C202.089 118.047 199.999 118.781 197.548 118.835ZM97.81 119.079C96.4733 117.824 95.9322 116.377 95.72 114.537L92.0598 116.888C88.1131 119.43 82.8934 119.164 82.3311 120.792C82.2144 121.122 82.7024 121.845 83.0631 122.005C87.8373 124.143 94.0225 122.845 97.81 119.079ZM105.661 125.665C107.942 126.601 110.35 126.239 112.334 124.931C111.496 124.186 110.753 123.824 110.594 122.782C114.053 124.431 117.512 124.26 120.716 122.494C122.254 121.643 123.644 120.228 123.718 118.388C123.421 117.909 121.989 117.558 121.607 118.037C119.761 120.345 117.055 121.079 114.254 120.175C110.637 118.994 111.04 124.175 102.393 120.93C102.574 122.93 103.677 124.845 105.661 125.675V125.665ZM207.181 124.25C206.513 125.994 206.311 127.771 206.577 129.537L207.659 136.676C213.292 132.271 212.56 124.675 209.324 119.281L208.179 121.59L209.282 122.079C208.953 122.388 208.391 122.75 208.55 122.888L209.229 123.484L207.181 124.25ZM98.6163 124.314C99.7409 123.505 100.356 122.207 99.9637 120.824C99.9001 120.59 99.5075 120.175 99.2741 120.122C99.0938 120.079 98.5951 120.239 98.4572 120.388C93.4602 125.452 86.84 124.09 86.9992 126.473C87.0204 126.782 87.5084 127.324 87.8373 127.409C91.1686 128.303 95.9534 126.239 98.627 124.303L98.6163 124.314ZM106.435 128.633C104.802 128.048 103.401 127.335 101.979 126.431C98.8922 126.984 95.6351 128.229 93.2905 130.346C90.9458 132.463 88.7709 134.218 87.3599 137.027C94.2665 136.463 101.81 133.697 106.446 128.622L106.435 128.633ZM88.5375 141.931C93.1632 141.208 93.248 139.623 96.9189 139.218L92.4736 142.123C90.479 143.431 88.6648 144.942 87.3917 147.208C100.346 144.272 113.204 139.027 121.692 128.207C115.093 127.643 115.878 126.303 109.47 130.112L107.878 131.058C105.417 132.516 102.998 133.686 100.505 135.133C97.4918 136.878 94.0756 137.761 90.6382 138.229L82.5433 139.346C79.2331 139.804 76.2838 141.144 73.7481 143.261C69.1437 147.102 67.0961 153.23 69.2498 158.943C69.8121 159.506 71.7111 159.006 71.8809 158.283C72.0082 156.134 71.796 154.123 72.6129 152.155C75.3395 145.623 81.9916 142.953 88.5481 141.931H88.5375ZM124.726 148.229C127.102 149.038 127.484 151.464 128.471 153.634C129.596 148.102 125.734 143.367 120.588 141.282C119.294 146.229 119.633 152.113 124.556 154.815L127.251 156.294C128.004 153.336 126.116 150.868 124.726 148.229ZM222.204 212.264C225.811 211.86 228.527 209.253 229.344 205.934C230.087 202.891 229.302 199.859 227.7 197.242C223.955 191.146 220.167 188.954 216.093 183.422C214.756 181.614 214.024 179.582 213.133 177.582C212.879 179.124 213.006 180.667 213.356 182.167L214.459 186.986C212.719 185.146 212.338 182.763 211.828 180.412C211.075 176.954 211.499 173.55 213.017 170.358L215.191 165.794C218.417 159.028 216.571 152.272 211.977 146.761L207.309 141.165C205.845 144.985 206.831 148.868 209.07 152.017C211.606 155.581 212.295 159.868 210.958 164.06C210.47 165.581 209.961 167.188 208.529 168.071C210.407 163.156 211.542 158.528 208.603 153.91C207.372 151.974 206.492 150.123 205.495 147.825C204.55 149.208 203.521 150.527 203.012 152.027C201.792 155.602 202.545 159.421 204.338 162.698C208.996 171.23 206.98 175.922 209.982 182.497C213.25 189.646 221.101 193.444 223.753 202.136C224.825 205.625 224.146 209.115 222.204 212.243V212.264ZM65.9715 190.061L73.9921 187.667L78.5329 186.295C77.5781 187.337 76.4217 187.901 75.1167 188.38L67.6372 191.093C58.5874 194.37 58.5768 201.168 50.7365 204.413L41.5383 208.211C38.9708 209.274 36.9869 212.541 36.2124 215.115C34.6104 220.445 37.772 227.179 31.9899 232.775L26.3245 238.254C22.0171 242.425 19.9483 251.563 25.688 255.617C22.1975 245.148 32.2551 246.51 35.4061 236.616L37.9417 228.658C39.0451 225.19 40.5304 222.169 42.7053 219.275C51.0124 208.253 58.4813 207.519 61.0488 205.657C64.4119 203.221 67.4568 200.763 71.2125 198.891C75.9867 196.508 79.806 193.231 83.4026 189.189C83.1798 192.146 78.9467 196.189 76.9203 197.593L71.9976 200.998L77.716 200.157C84.2514 199.2 90.9776 196.487 94.4893 190.55C96.4202 187.274 97.5024 183.55 97.6191 179.741C93.7149 181.997 89.8849 183.401 85.726 183.997C85.482 184.029 84.7712 183.614 84.8985 183.422C84.994 183.263 85.3441 182.922 85.5351 182.858L90.723 181.082C102.987 176.89 107.507 165.188 108.122 153.091L108.674 142.091L105.332 143.506L99.6985 145.9C99.1999 146.112 98.6694 147.091 98.4996 147.676C97.0992 152.389 95.3063 156.836 92.5266 160.858C88.0495 167.337 80.8882 170.901 73.0267 170.273C70.6184 170.081 68.401 169.688 66.0246 169.294C61.7278 168.592 57.3355 169.22 53.792 171.73C52.0097 172.986 50.4925 174.539 50.1212 176.837C53.8769 177.22 57.675 177.167 61.0276 175.486L67.0218 172.496C67.3083 172.358 68.2207 172.613 68.2313 172.911C68.2313 173.156 68.0509 173.699 67.8494 173.847C65.9821 175.252 64.2634 176.709 62.7463 178.465C57.0173 185.082 53.2722 183.369 46.9915 188.699C41.7292 193.167 41.273 196.114 34.1224 200.253C32.7219 201.061 31.3852 201.923 30.112 202.891C26.1017 205.945 24.086 210.7 24.7225 215.743C24.9984 217.977 25.5819 220.264 27.6401 221.594C25.4121 215.807 28.3191 209.668 34.1011 207.657C42.0157 204.913 49.8666 206.998 54.4392 195.348C55.1394 193.561 55.776 191.838 56.7202 190.199C58.2798 187.497 60.5289 185.337 63.3828 184.103C70.3001 181.114 75.3289 183.263 84.2726 177.656C91.1792 173.316 96.8022 167.528 100.176 160.07L104.388 150.751C103.666 155.549 101.778 159.74 99.5181 163.922C95.3805 171.571 88.9407 177.763 81.0473 181.401C74.4908 184.422 68.4647 183.337 63.0433 186.359C60.147 187.965 58.1418 190.593 56.8687 193.646L54.3225 199.721C55.9563 198.487 57.0597 197.125 58.2161 195.689C60.2637 193.157 62.6614 191.072 65.9291 190.093L65.9715 190.061ZM83.2222 150.261L88.0601 143.495C81.1853 143.953 72.0082 149.857 73.4299 157.921C77.4296 156.538 80.7609 153.708 83.2222 150.261ZM181.295 224.445C180.796 220.892 179.894 217.477 178.812 214.062C177.56 210.115 174.781 207.466 171.439 205.136C170.834 208.753 170.494 212.009 170.166 215.488C170.134 215.764 169.773 216.296 169.54 216.392C168.415 216.86 168.638 209.945 168.797 209.221L170.388 196.242L172.5 178.273C161.296 174.975 151.334 168.145 143.112 160.23C139.197 157.272 137.107 152.24 135.388 147.74C134.964 146.623 134.55 145.538 133.733 144.602C133.383 144.208 132.301 144.612 131.93 144.931C130.699 145.985 131.335 148.155 131.813 149.825C132.768 153.134 133.362 156.347 133.277 159.847C133.266 160.347 133.542 161.166 133.829 161.57C136.025 164.613 136.566 168.337 135.409 171.89C135.006 173.124 135.346 174.401 136.195 175.379C139.133 178.763 140.131 183.156 138.751 187.486C138.295 188.912 138.242 190.667 139.155 191.976C142.666 197.019 143.292 203.189 141.287 209.051C140.258 212.051 145.563 215.551 145.446 221.743C145.425 222.988 145.891 224.116 146.921 224.903C153.679 230.052 163.418 234.02 171.99 233.339C176.849 232.956 182.08 229.935 181.305 224.456L181.295 224.445ZM46.0684 176.55C46.5565 177.145 48.1797 177.071 48.6889 176.55C50.2591 169.283 58.3752 165.741 65.0803 166.794L71.2868 167.762C85.4078 169.964 93.5027 158.549 97.4705 146.655L93.386 147.485L86.6915 148.804C85.1956 151.166 83.8058 153.432 81.8006 155.357C78.5754 158.453 74.6287 160.283 70.2789 161.262C63.8603 162.709 59.1497 161.304 54.0891 163.262C51.32 164.336 48.986 166.028 47.4158 168.539C45.9411 170.89 45.0287 173.741 46.0684 176.539V176.55ZM127.124 168.752C128.354 164.549 126.975 160.358 124.057 157.326C122.402 155.613 120.885 153.868 119.326 151.964C118.541 153.645 117.639 155.272 116.514 156.698C115.485 157.996 115.443 159.485 116.175 161.007C118.275 164.613 123.41 165.634 127.124 168.752ZM227.084 223.722C229.822 225.265 232.145 227.105 234.606 229.02C234.893 224.988 233.142 221.381 230.129 218.956C226.151 215.753 223.318 215.892 219.562 212.977L220.952 210.775C223.095 207.37 222.565 202.913 220.581 199.338C216.73 192.423 211.298 189.838 208.03 182.795C205.038 176.337 207.086 172.315 203.447 164.89C202.195 162.336 201.612 159.783 200.858 156.921C197.665 161.421 196.689 162.921 199.384 167.443C200.254 168.9 201.431 170.028 201.792 171.847C199.447 169.986 198.206 167.571 196.763 164.964C194.684 167.539 197.262 176.986 198.418 179.869C202.397 189.795 209.611 192.497 212.719 201.987C213.611 204.7 213.568 207.647 213.165 210.445C212.157 217.413 219.913 217.892 222.809 220.094C224.315 221.243 225.313 222.722 227.095 223.722H227.084ZM130.996 175.624C133.288 172.23 134.55 168.486 133.203 164.9C132.025 161.751 129.691 159.081 126.455 157.709C128.577 161.262 129.649 164.656 128.704 168.486C128.418 169.656 128.577 170.964 129.161 171.954L130.985 175.624H130.996ZM133.128 175.443C130.328 178.092 131.739 177.56 131.187 181.71C131.176 181.816 130.72 182.231 130.656 182.135C129.744 180.614 131.473 172.284 122.042 167.326C117.936 165.177 115.888 164.273 113.703 159.868C112.048 161.39 110.722 162.783 109.438 164.39C106.955 167.496 110.414 173.443 113.904 174.709C112.652 172.433 109.692 165.911 111.231 163.858C113.056 171.635 115.623 176.933 123.485 179.624C129.192 181.582 133.054 186.167 133.712 192.465C138.083 187.582 138.285 180.007 133.128 175.454V175.443ZM109.342 185.199C110.499 179.55 109.109 173.145 106.892 167.975C105.162 171.698 103.274 174.496 100.675 177.263C99.9213 178.06 99.8895 179.826 99.8152 180.912C99.4227 187.316 96.7279 192.88 91.7734 197.157C99.6879 197.029 107.836 193.54 109.342 185.21V185.199ZM193.018 191.082L199.49 195.072C208.582 200.678 206.609 208.668 207.192 210.487C207.712 212.126 208.974 213.243 210.502 214.083C211.584 208.583 211.977 203.881 209.324 198.934C204.794 190.497 198.227 188.742 195.204 175.348L194.058 170.262L190.832 175.326C189.835 176.89 188.498 177.933 186.716 178.848C188.106 186.72 189.421 192.423 194.96 198.327C197.251 200.774 199.797 202.742 202.131 205.125L205.537 208.594C206.142 203.87 203.893 199.317 200.02 196.721L194.8 193.231C194.026 192.71 193.368 191.987 192.997 191.093L193.018 191.082ZM123.58 181.465L116.949 178.752C115.177 178.029 113.724 177.071 112.058 175.826C112.578 183.773 116.429 190.572 124.28 192.806C126.954 193.561 129.192 194.731 131.526 196.189C133.436 189.986 129.564 183.912 123.569 181.465H123.58ZM35.6713 196.391C33.5919 194.827 32.3612 192.912 32.775 190.508C33.3691 186.986 36.17 184.337 39.6392 183.518C45.3258 182.178 49.8241 184.614 56.1155 181.295C57.9084 180.348 59.4786 179.22 60.7093 177.433C57.675 178.199 54.8423 178.763 51.755 178.656L43.6813 178.39C36.3821 178.507 29.7089 183.231 29.189 190.731C28.9662 193.912 30.5046 196.593 33.2418 198.083C34.2391 197.668 35.1302 197.082 35.6819 196.402L35.6713 196.391ZM207.425 221.977C207.351 219.945 206.651 218.477 205.792 216.988C204.03 213.913 201.495 211.636 198.429 209.817C198.195 209.679 194.514 207.604 195.373 207.242C195.522 207.179 195.904 207.104 196.084 207.179C200.476 208.828 203.977 211.892 206.672 215.807C207.075 211.179 198.408 204.2 195.076 201.232C192.488 198.923 190.44 196.497 188.838 193.423C186.833 189.593 185.634 185.646 185.39 181.263C185.337 180.252 184.912 179.209 184.096 178.954C183.279 178.699 181.974 178.656 181.677 179.646C180.913 182.21 182.907 185.433 183.395 188.04C181.454 186.018 180.87 183.348 180.488 180.667C180.329 179.529 179.862 178.826 178.717 178.773C177.794 178.731 176.966 179.412 176.892 180.539C176.457 187.561 181.433 192.859 186.981 196.327C187.862 196.88 188.658 197.423 189.347 198.2C186.568 197.423 184.414 195.838 182.207 194.146C178.908 191.604 177.093 188.093 175.693 184.124C175.067 189.965 177.39 195.476 181.539 199.295C183.692 201.285 186.037 202.7 188.689 203.923C195.288 206.966 192.891 207.53 192.265 207.253L183.894 203.434C184.658 207.764 187.024 211.253 190.397 213.913C195.15 217.658 201.951 219.02 207.436 221.956L207.425 221.977ZM47.5325 185.114C43.4373 184.018 37.4643 184.625 35.1621 188.646C33.5601 191.157 34.4088 194.253 37.093 195.54C41.1457 191.497 42.8644 188.816 47.5325 185.114ZM136.088 220.754C135.982 217.679 135.218 215.147 134.126 212.636C132.757 209.498 130.264 207.157 127.272 205.54C126.572 205.157 125.893 204.785 125.755 203.764C129.585 204.53 132.481 207.328 134.805 210.477C136.131 206.402 135.049 202.189 132.11 199.2C130.561 197.625 128.906 196.316 126.805 195.54L122.413 193.933C118.084 192.348 114.827 189.369 112.578 185.05C111.05 189.295 112.345 193.742 115.008 197.146C116.769 199.402 119.209 200.817 121.766 202.083C122.699 202.551 123.58 203.2 124.386 204.008C124.164 204.423 123.474 204.466 123.071 204.285L117.512 201.689C116.313 208.881 120.015 215.466 126.964 217.594C130.073 218.541 132.959 219.498 136.099 220.754H136.088ZM136.343 212.232C137.945 210.913 138.847 209.221 139.409 207.37C141.022 202.104 140.003 196.551 136.619 192.018C134.55 194.04 131.961 196.763 134.115 199.189C137.722 203.253 136.916 207.211 136.332 212.232H136.343ZM175.99 195.646C175.375 194.71 174.961 193.721 174.091 192.806C172.828 196.902 174.43 200.987 177.528 203.583C178.844 204.689 180.064 205.625 181.74 206.094C181.38 203.285 177.656 198.189 175.99 195.646ZM106.234 198.88C105.799 198.742 105.311 198.263 105.438 197.827C106.51 197.689 107.868 197.774 108.865 198.231L113.31 200.295L111.676 197.997C110.637 196.529 109.491 195.231 107.868 194.178C104.855 196.614 101.64 198.146 97.9055 198.774C96.5051 199.008 95.232 199.093 93.63 199.689C105.672 203.944 114.615 210.785 120.662 222.435C122.063 214.966 115.697 214.785 114.955 206.147C114.615 202.2 109.555 199.955 106.234 198.891V198.88ZM110.212 238.446C110.244 240.223 107.677 242.563 110.329 246.255C112.843 249.744 117.342 251.266 121.331 249.436C124.047 248.191 124.556 244.51 124.057 241.967C121.819 230.605 119.114 220.828 110.711 212.413C105.937 207.636 100.229 204.062 93.8846 201.87C91.2004 200.944 88.5587 200.306 85.7473 200.306C84.506 200.306 83.3283 201.125 82.1083 201.87C99.9531 204.625 115.231 216.956 118.668 234.744C118.753 235.169 118.106 235.382 118.01 235.265C117.48 234.552 116.154 229.797 115.273 227.775C111.857 219.945 106.043 213.562 98.6906 209.232C90.426 204.359 77.3765 200.263 68.1782 205.296C72.0931 205.455 75.679 205.296 79.4347 206.115C94.9561 209.519 109.915 221.318 110.212 238.457V238.446ZM260.695 226.562C262.636 227.552 264.493 228.722 266.328 229.86C266.562 230.009 267.304 230.084 267.453 229.871C267.601 229.658 267.782 229.041 267.729 228.754L263.4 207.902C263.082 206.391 262.827 205.04 262.053 203.668L250.828 225.967C250.658 226.296 250.733 227.201 251.019 227.318C252.388 227.86 256.684 224.52 260.695 226.552V226.562ZM185.464 232.084C186.928 226.382 186.79 220.435 185.379 214.711C184.223 210.051 181.231 208.264 176.86 206.423L180.032 211.349C184.35 218.051 185.178 230.722 180.35 239.148C180.213 239.393 180.467 240.127 180.679 240.074C182.748 239.467 184.881 234.403 185.475 232.095L185.464 232.084ZM103.751 266.713C106.679 260.351 108.366 255.734 109.247 248.925C109.342 248.212 108.96 247.372 108.536 246.882C105.343 243.287 108.653 240.244 108.578 238.169C108.356 232.126 106.107 226.541 102.086 222.03C97.757 217.168 92.6115 213.264 86.7127 210.477C77.8115 206.274 65.2819 205.923 56.6035 210.7C50.9699 213.807 46.1533 218.285 42.8963 223.881C38.939 230.69 34.8226 247.999 32.9659 256.67C46.1109 249.191 60.2743 248.5 74.3104 251.915C85.482 254.851 94.2347 259.926 103.741 266.692L103.751 266.713ZM141.669 228.807C144.565 222.764 143.494 217.296 139.017 212.583C138.03 212.955 136.672 214.083 136.831 215.19L137.606 220.732C137.722 221.562 138.041 222.552 138.571 223.169C139.993 224.828 140.725 226.584 141.669 228.807ZM181.751 243.138C189.124 237.946 191.904 227.328 190.047 219.051C189.538 216.785 188.53 214.69 186.451 213.498C188.276 221.583 188.435 230.02 184.711 237.095C183.024 240.308 179.831 242.042 181.751 243.127V243.138ZM213.6 229.222C214.3 226.605 214.215 224.211 213.558 221.86C212.603 219.232 210.799 216.998 208.306 215.615L209.155 223.286C210.714 225.211 212.306 227.084 213.611 229.222H213.6ZM213.77 237.733C213.727 234.382 212.932 231.584 211.595 228.882C209.59 225.509 206.587 223.041 202.906 221.594L193.474 217.902C193.442 221.158 194.27 224.158 195.564 226.988C197.601 231.35 201.495 234.127 206.205 235.02C208.9 235.531 211.245 236.435 213.77 237.733ZM140.396 232.627C140.587 228.488 138.836 224.828 135.622 222.669C131.399 220.137 128.1 220.169 123.633 218.264C123.665 221.786 124.949 225.137 127.474 227.562C131.442 230.999 135.643 230.595 140.396 232.627ZM230.469 249.872C229.694 247.074 228.602 244.584 227.191 241.946C228.145 242.616 228.92 243.553 229.493 244.606C232.495 250.159 231.105 252.191 236.399 256.872C240.028 260.085 241.715 264.607 240.834 269.405C240.399 271.798 241.343 271.83 243.147 273.128L246.457 259.66C245.439 249.968 240.102 238.499 233.132 231.69C228.294 226.956 222.385 223.775 215.966 221.679C216.656 225.701 215.361 227.765 218.141 230.467C220.687 232.946 221.95 236.116 221.992 239.691C222.003 240.935 224.241 242.925 225.037 245.031C225.875 247.244 226.543 249.414 227.138 251.691C228.442 256.681 232.103 256.5 233.386 261.936C233.673 263.213 234.288 264.383 235.232 265.298C236.866 266.873 237.906 268.617 238.946 270.894C240.028 268.234 239.954 265.192 238.924 262.617C236.707 257.064 232.474 257.106 230.469 249.872ZM129.001 232.956C129.68 231.946 129.192 231.084 128.322 230.626C123.983 228.392 122.625 224.094 122.084 223.85C121.267 223.477 123.06 228.414 123.867 229.403C125.193 231.052 127.23 232.02 129.012 232.946L129.001 232.956ZM178.388 237.999C180.191 236.914 180.934 234.329 181.04 232.414C177.507 234.595 174.049 235.659 170.144 235.659C161.222 235.659 152.618 232.009 145.403 226.754C144.555 227.765 144.788 229.094 145.849 229.85C151.578 233.946 157.88 236.808 164.681 238.637C167.725 239.457 172.797 241.01 174.993 238.84C175.884 237.957 177.401 238.595 178.388 237.999ZM187.459 248.68C192.477 245.446 196.031 240.776 198.333 235.424C198.461 234.648 198.301 233.754 197.718 233.275C195.469 231.424 194.121 229.158 192.562 226.477C191.766 230.978 190.748 234.935 188.488 238.648C186.228 242.361 183.056 244.191 182.822 245.053C182.791 245.191 183.13 245.393 183.268 245.499L187.459 248.67V248.68ZM263.199 230.499C263.931 230.946 264.578 231.222 265.511 231.478C264.939 230.637 264.323 230.201 263.517 229.669C259.125 226.765 257.385 226.52 252.441 228.701L252.77 229.307C252.95 229.648 257.777 227.179 263.199 230.488V230.499ZM262.838 236.531C263.273 236.829 264.206 236.988 264.599 236.797C265.533 235.51 265.267 233.552 263.856 232.605C260.302 230.222 256.95 229.286 252.823 231.009C251.953 231.371 251.253 231.999 251.093 232.68C250.892 233.595 250.966 234.701 251.794 235.02C255.624 233.637 259.443 234.158 262.848 236.52L262.838 236.531ZM219.329 243.999C221.122 238.914 219.393 233.744 215.032 230.595C214.735 230.946 214.343 231.648 214.396 231.956L215.552 239.244C215.849 241.127 217.982 242.489 219.34 244.01L219.329 243.999ZM132.174 240.191C131.972 241.084 132.365 242.212 132.959 242.723C134.402 243.978 137.722 238.627 144.841 241.808C145.128 241.935 145.711 241.893 145.891 241.744C146.517 241.212 145.934 239.382 145.754 238.648C144.693 234.393 146.157 233.297 144.268 232.063C143.77 231.743 142.433 231.52 142.083 232.233L141.149 234.18C138.592 234.563 136.354 230.68 131.94 233.414C131.102 233.935 130.656 234.829 130.847 235.818C130.975 236.488 131.77 237.786 132.746 237.435C135.781 236.361 138.751 235.499 141.945 236.01C142.751 236.137 143.621 236.233 144.13 237.201C141.446 237.169 133.022 236.414 132.163 240.191H132.174ZM174.07 243.393C173.868 241.425 171.057 242.106 168.022 241.531C160.734 240.137 153.976 237.35 147.631 233.52C147.292 236.403 147.133 238.84 149.658 240.563C155.461 244.521 161.784 247.563 168.564 249.542C170.622 246.233 174.293 245.627 174.059 243.404L174.07 243.393ZM211.266 246.627L217.515 244.223C215.181 240.457 211.584 238.148 207.415 237.063L201.633 235.552C202.237 239.903 203.649 242.723 207.478 244.68L211.266 246.616V246.627ZM250.711 277.033C252.409 276.554 252.738 275.543 253.056 274.118L261.14 238.425C259.061 236.85 256.6 236.254 254.075 236.722L244.781 276.841C244.675 277.299 244.791 278.011 245.067 278.288C246.903 277.948 248.94 277.522 250.701 277.033H250.711ZM179.29 241.286C179.056 240.393 178.197 239.776 177.465 239.648C176.86 239.542 175.417 239.903 175.364 240.723L176.871 250.925C176.966 251.595 177.666 252.191 178.239 252.223C181.931 252.446 179.841 243.404 179.29 241.297V241.286ZM151.536 281.395C153.36 283.756 154.114 286.565 153.382 289.352C152.925 291.076 151.737 292.395 150.74 294.087C153.785 294.012 156.225 291.927 157.286 289.182C158.548 285.895 158.018 282.171 156.193 279.139L153.413 274.511C151.185 270.798 150.443 266.734 150.941 262.415C151.737 255.627 148.618 250.489 145.605 244.574C145.393 244.159 144.735 243.723 144.279 243.499L145.425 247.255C145.743 248.276 145.679 249.542 145.393 250.489C144.406 248.276 143.451 241.467 139.95 242.733C140.81 245.233 141.054 247.627 140.767 250.212C139.95 257.436 140.799 258.245 142.889 264.777C144.799 270.756 143.473 274.064 141.255 279.767C143.207 278.894 145.711 275.15 147.005 275.256C147.005 275.671 146.804 276.426 146.539 276.692C143.122 280.32 143.409 285.778 146.984 289.118C148.056 290.129 149 291.257 150.018 292.374C152.427 290.82 152.83 285.288 151.896 285.884L151.292 286.267L151.546 281.384L151.536 281.395ZM129.235 297.608C126.222 294.533 125.999 290.097 128.853 286.927C131.123 284.405 132.874 281.724 134.783 278.809C134.815 280.469 133.988 281.756 133.309 283.118C132.227 285.31 131.484 287.533 131.675 289.969C131.951 293.533 134.582 296.353 138.348 296.395C134.996 293.161 134.486 288.703 136.64 284.799L140.215 278.309C142.698 273.788 142.857 268.713 141.064 263.872C140.162 261.458 139.324 259.074 139.038 256.468C138.645 252.936 140.735 245.627 138.263 243.521C136.725 242.244 134.518 244.648 134.317 246.18C134.03 248.361 133.85 250.297 133.065 252.223C130.784 257.819 127.198 260.904 127.665 267.383C127.898 270.703 129.15 273.852 131.749 276.15C132.205 274.469 132.121 272.735 131.622 271.054C130.402 266.947 130.667 262.543 133.16 259.021L132.481 262.138C131.834 265.107 131.877 268.075 133.086 270.894C134.73 274.724 133.595 279.097 130.232 281.607L126.519 284.373C123.506 286.618 122.562 290.863 124.291 294.204C125.235 296.044 126.943 297.608 129.235 297.619V297.608ZM29.4437 257.064L32.8068 244.467C30.9183 245.606 29.38 246.733 28.0432 248.265C25.6561 251 26.5367 255.096 29.433 257.064H29.4437ZM220.899 248.351C221.769 248.255 222.438 247.585 222.448 246.808C222.448 246.233 221.695 245.233 220.889 245.244C217.663 245.297 214.64 246.233 211.754 247.765C211.255 248.031 211.075 249.17 211.171 249.766C211.245 250.255 211.818 250.872 212.518 251.138C215.022 249.478 217.876 248.68 220.899 248.351ZM173.974 263.575C172.277 260.223 172.054 256.213 173.677 252.766C174.441 251.138 176.68 251.202 174.823 246.957C172.298 247.851 170.325 249.787 169.646 252.468C167.885 259.362 169.943 269.139 178.26 270.894C179.077 265.628 175.905 267.394 173.974 263.585V263.575ZM185.464 270.022C187.427 268.649 188.838 267.139 189.358 264.99C190.408 260.734 189.581 256.351 187.544 252.553C186.228 250.106 184.52 248.202 181.73 247.159C181.592 248.478 181.613 249.797 181.804 251.159C186.313 253.978 188.679 262.426 184.446 266.383L185.464 270.022ZM223.53 252.266C223.859 251.415 223.849 250.712 223.52 250.223C222.215 248.265 216.114 250.127 213.621 251.819C213.027 252.223 212.751 253.149 212.783 253.723C212.815 254.234 213.6 255.351 214.141 255.117C217.228 253.681 219.997 252.574 223.53 252.266ZM30.3242 268.649C29.2633 265.234 39.1724 261.819 41.6762 261.117C53.2191 257.915 65.3986 258.33 76.8142 262.17C85.2062 265 92.9404 269.117 100.123 274.213L106.032 278.405C110.043 270.947 112.578 261.075 114.254 252.681C114.371 252.074 113.766 251.202 113.268 251.021L110.552 250C109.586 256.617 107.655 262.458 104.791 268.256C104.695 268.447 104.261 268.83 104.048 268.798C103.879 268.777 103.539 268.607 103.348 268.468C98.9346 265.447 94.7227 262.5 89.991 259.968C76.5066 252.744 62.0036 249.68 46.896 252.861C42.0581 253.883 37.6659 255.67 33.5388 258.223C32.6052 258.808 31.8307 259.681 31.47 260.66L28.7328 267.926C27.831 270.33 31.8095 271.883 33.4221 272.639C34.8862 270.724 30.982 270.692 30.3454 268.649H30.3242ZM153.679 270.926C156.851 268.373 158.06 264.458 156.978 260.574C156.002 257.053 153.87 254.064 150.995 251.691C152.65 257.213 154.496 260.787 152.904 266.596C152.49 268.096 152.65 269.671 153.679 270.915V270.926ZM183.247 264.298C185.019 264.149 185.379 258.574 182.578 254.202C181.327 252.244 179.862 255.085 176.34 253.649C173.391 252.446 173.879 265.064 178.579 264.681L183.247 264.298ZM235.37 275.799C235.487 274.341 235.678 273.309 236.569 272.32C237.895 270.852 235.243 267.788 234.087 266.936C233.874 267.798 233.747 268.309 233.418 269.128C232.57 268.213 232.389 267.288 232.325 266.224C232.039 261.819 229.907 258.287 226.596 255.51C222.756 252.287 219.732 253.989 215.425 256C215.563 259.957 216.931 263.819 219.647 266.713C222.607 269.862 226.554 270.915 229.567 273.745C227.827 274.033 227.074 272.394 225.26 272.394C228.814 277.267 230.936 282.363 232.028 288.235C233.206 285.778 233.365 283.405 234.012 280.99C234.458 279.32 235.243 277.66 235.392 275.799H235.37ZM92.3038 279.139L88.9619 273.426C93.0252 277.458 95.7518 282.395 97.4705 287.852C97.7039 288.608 98.0647 289.257 98.7861 289.565L99.0407 277.384C86.3838 268.288 74.4483 262.468 58.6193 262.096C51.6383 261.926 44.8802 262.915 38.3555 265.319L36.7853 271.703C36.0214 274.788 35.2257 277.65 34.674 281.182C47.3628 274.054 60.2213 271.83 74.2256 276.001C82.1189 278.352 89.2059 282.118 95.72 287.139C95.1365 284.033 93.8103 281.682 92.325 279.139H92.3038ZM181.433 269.692C182.175 271.245 182.09 272.873 182.281 274.511C182.876 274.979 184.223 275.022 184.849 274.458L183.852 268.437C183.597 266.894 182.727 266.075 181.04 266.096C180.478 266.096 179.152 266.373 179.205 267.171L179.703 274.586C179.735 274.99 180.594 275.213 180.881 275.043C181.146 274.884 181.464 274.298 181.454 274.001L181.433 269.713V269.692ZM232.644 317.481C232.76 317.002 232.559 316.183 232.336 315.939C230.989 314.513 230.575 312.3 231.551 310.545C232.41 309.002 232.474 307.608 231.88 305.864C231.434 304.555 231.328 302.64 232.516 301.757C235.71 299.385 232.548 296.831 234.267 294.47C235.657 292.565 237.991 291.863 238.055 290.959C238.108 290.203 235.593 287.693 237.895 285.107C240.781 281.852 242.701 281.15 242.235 277.767C242.086 276.671 242.171 275.373 241.619 274.33C240.887 272.969 238.468 272.447 237.397 273.607C236.675 274.394 236.93 275.916 236.707 276.884L235.54 282.043C234.691 285.767 234.182 289.544 232.538 292.991L229.238 299.938C228.007 302.523 227.275 305.172 227.116 308.098C226.766 314.396 227.689 320.566 230.119 326.354C230.204 326.545 230.076 327.099 229.928 327.226C228.93 328.077 227.466 324.832 227.244 324.013L225.971 319.226C222.926 321.747 222.438 327.184 223.095 330.865C223.594 333.652 225.334 336.173 228.007 337.11L232.644 317.449V317.481ZM70.0455 282.288C79.318 283.831 87.3705 288.246 94.1498 294.406C95.2108 295.374 96.0913 296.321 96.7915 297.512C97.3538 298.459 96.9401 299.704 95.9216 300.161C93.5769 301.214 92.3463 300.917 92.1235 301.949C92.081 302.14 92.5797 302.683 92.7812 302.619L96.6006 301.417C97.5342 300.768 98.3829 300.034 98.4784 298.906C98.6906 296.438 98.7331 294.182 98.6163 291.693C91.0201 284.554 81.9916 279.65 71.9127 277.001C59.3725 273.713 46.0472 275.894 35.056 282.692C34.0693 283.309 33.4752 284.341 33.1781 285.363L31.5655 290.969C30.6956 294.001 33.942 294.587 36.414 295.672C37.581 293.852 34.6953 294.576 32.7644 292.001C31.6292 290.48 37.4537 287.363 38.6207 286.81C48.3282 282.182 59.1922 280.48 70.0349 282.288H70.0455ZM186.663 326.886C192.774 322.354 199.532 319.854 206.863 318.726L204.572 309.821C204.317 308.864 203.776 308.215 202.747 308.13L195.522 308.108C193.506 308.108 191.946 306.768 191.692 304.661L190.291 293.384C190.196 292.586 190.546 291.725 191.034 291.15L195.087 286.373C195.299 286.118 195.554 285.373 195.532 285.054C195.511 284.735 195.013 284.278 194.673 284.097L191.384 282.341C187.735 280.384 189.581 277.299 186.599 276.671C183.894 276.096 181.284 276.224 178.685 277.235C176.818 277.958 178.101 280.533 175.502 282.543L171.12 285.948L176.627 291.14C177.136 291.629 177.592 292.352 177.571 293.118L177.274 304.534C177.231 306.055 176.245 308.002 174.6 308.023L166.654 308.13C165.901 308.13 165.434 308.757 165.285 309.449L163.079 319.3C171.545 320.503 179.512 322.247 186.663 326.886ZM256.08 310.534C256.313 310.63 256.621 311.257 256.43 311.406C255.549 312.119 253.64 311.279 252.409 310.768L244.866 307.598C243.73 307.119 242.5 306.906 241.312 307.3L235.328 309.311C234.193 309.694 233.323 310.523 233.036 311.385C232.601 312.662 232.686 313.96 233.726 314.768C236.378 316.843 238.85 313.396 243.433 315.992C246.266 317.587 249.29 318.971 252.356 320.034C252.61 320.12 253.024 320.758 252.876 320.96C252.016 322.12 247.985 319.928 246.584 319.62C246.924 321.641 249.873 322.981 249.269 323.843C248.367 325.13 245.386 321.449 244.632 320.226C243.571 323.822 242.585 327.386 241.895 331.046C241.449 333.418 243.285 335.482 245.47 335.663C247.858 335.865 249.905 334.961 251.719 333.503C256.663 329.524 255.22 325.386 259.072 321.886C262.403 318.864 259.252 316.258 262.456 313.513C264.09 312.119 265.267 309.928 264.535 307.821C264.058 306.449 264.238 305.417 265.405 304.47C266.997 303.172 267.888 300.927 266.944 298.948C265.501 295.948 262.647 295.799 263.252 293.629C263.856 291.459 263.252 289.32 261.809 287.597C258.286 283.416 260.419 280.437 258.085 278.171C255.433 275.586 251.868 278.969 247.232 279.777C245.47 280.086 243.943 280.692 242.744 282.033L239.222 285.959C238.5 286.756 238.479 287.799 238.988 288.639C240.336 290.831 242.701 288.778 244.993 287.278C248.781 284.799 251.104 287.852 254.457 284.469C254.647 284.278 255.348 284.171 255.38 284.373C255.645 285.799 254 286.512 252.801 287.533C254.679 289.257 258.159 289.884 259.655 291.82C258.944 292.225 258.414 292.118 257.809 291.842C255.135 290.608 252.536 289.427 249.81 288.405C247.995 287.725 246.298 288.076 244.749 289.044L237.28 293.735C234.84 295.267 235.031 297.172 236.028 299.64L243.741 296.448C245.12 295.874 246.977 296.002 248.367 296.597L258.255 300.863C258.541 300.991 258.965 301.832 258.679 301.938C258.074 302.183 257.056 302.034 256.409 301.768L247.974 298.236C246.404 297.576 244.749 297.565 243.211 298.225L235.402 301.555C234.787 301.821 233.737 302.523 233.546 303.129C233.036 304.821 233.408 306.513 234.405 308.023L240.24 305.938C241.821 305.374 243.571 305.215 245.152 305.874L256.112 310.502L256.08 310.534ZM150.485 306.268C152.002 302.385 151.207 298.204 149.371 294.714C148.342 292.757 146.921 291.299 145.467 289.661C142.475 286.31 142.624 284.852 142.868 280.437C140.725 281.895 138.964 283.682 137.807 285.969C136.163 289.193 136.874 292.895 139.643 295.257L143.526 298.576C145.626 300.374 146.496 302.97 146.082 305.736C145.732 308.098 144.279 310.087 142.019 311.726C145.531 311.587 149.127 309.725 150.475 306.257L150.485 306.268ZM139.473 309.268C142.687 307.906 144.088 304.236 143.027 301.087C142.486 299.491 141.107 298.438 139.568 297.938C141.817 302.172 142.475 304.864 139.473 309.268ZM241.025 340.908C246.287 343.621 252.536 341.642 255.411 336.471C256.515 334.482 257.607 332.397 257.279 329.897C255.592 332.258 254.202 334.45 251.995 336.003C248.526 338.439 244.452 338.503 241.068 335.822C240.601 337.652 239.381 340.067 241.025 340.908Z" fill="currentColor"/>
<path d="M176.447 124.515C174.633 125.143 171.822 125.75 170.199 124.537C171.991 124.164 175.514 124.218 175.068 121.324C174.527 122.217 173.615 123.313 172.448 123.047C170.549 122.6 170.145 120.707 170.474 118.802L163.79 120.451C162.093 120.866 160.12 120.558 159.069 119.122C160.99 119.207 162.57 119.047 164.204 118.409C168.172 116.866 172.299 116.728 176.607 117.356C174.336 114.1 166.358 116.664 163.249 117.207C166.994 114.834 174.782 113.409 178.134 117.356C178.474 117.749 179.195 117.919 179.811 118.005C179.811 118.079 179.439 118.728 179.62 118.76L180.787 118.983L180.097 119.888L181.041 120.526L179.036 121.186L178.559 122.324L176.352 119.834L175.981 122.771C175.896 123.462 175.853 123.728 176.437 124.515H176.447Z" fill="currentColor"/>
<path d="M193.677 155.666C192.552 154.123 191.173 154.719 189.847 154.687C188.139 154.655 186.526 154.368 184.828 154.57L175.63 155.634C175.11 155.698 174.389 154.996 174.633 154.591L187.109 152.847L189.666 153.474L192.032 153.283C193.231 153.187 194.536 154.379 194.918 155.645C195.024 155.985 193.878 155.943 193.677 155.677V155.666Z" fill="currentColor"/>
<path d="M190.472 160.262C189.581 160.57 183.81 160.432 184.446 159.677C185.412 158.528 191.342 158.602 190.472 160.262Z" fill="currentColor"/>
<path d="M193.008 142.261L189.04 142.793C188.637 142.846 188.095 142.75 187.767 142.548C188.541 141.612 192.827 140.325 193.559 141.74C193.644 141.899 193.177 142.25 192.997 142.272L193.008 142.261Z" fill="currentColor"/>
<path d="M186.451 143.569C185.253 144.197 184.319 143.282 183.905 142.388C183.407 141.314 183.449 140.059 184.457 139.356C184.51 141.027 184.934 142.399 186.451 143.569Z" fill="currentColor"/>
<path d="M160.247 225.573C157.626 224.349 153.828 216.743 153.202 213.977L159.907 223.796C160.247 224.296 160.374 224.807 160.247 225.583V225.573Z" fill="currentColor"/>
<path d="M98.1497 68.3856C95.7838 67.8111 92.2403 65.9813 90.9566 64.0237C90.8611 63.8748 91.3491 63.3748 91.5401 63.4599C92.2615 63.8003 97.6617 67.2047 98.1497 68.3856Z" fill="currentColor"/>
<path d="M188.064 282.905C186.197 282.512 184.435 281.629 182.749 280.799C181.2 281.916 179.725 283.671 177.486 283.725C178.484 282.012 180.224 280.959 181.91 280.182C183.831 279.958 186.886 280.693 188.074 282.895L188.064 282.905Z" fill="currentColor"/>
<path d="M188.733 308.832C187.056 306.129 186.759 299.746 187.322 296.438C187.788 298.406 187.894 300.182 188.085 302.129L188.743 308.832H188.733Z" fill="currentColor"/>
<path d="M180.414 309.906C180.637 307.374 180.881 305.086 180.881 302.618C180.881 300.437 180.828 298.363 181.22 296.299C181.857 299.278 182.196 307.778 180.414 309.906Z" fill="currentColor"/>
<path d="M181.326 290.991C179.353 289.767 177.401 288.235 176.043 286.097C178.356 286.927 180.446 288.427 181.326 290.991Z" fill="currentColor"/>
<path d="M190.897 285.872C191.597 285.575 189.167 289.298 187.767 289.404C187.29 289.436 188.478 286.894 190.897 285.872Z" fill="currentColor"/>
<path d="M167.853 92.748C169.243 92.4182 170.845 91.9076 170.887 90.3969C170.94 88.5564 169.593 87.1201 168.331 85.9499L164.861 83.9072C167.694 84.12 170.113 85.9392 171.45 88.2691C172.139 89.4713 172.097 90.9607 171.28 91.8969C170.463 92.8331 168.988 93.3119 167.853 92.748Z" fill="currentColor"/>
<path d="M146.953 94.3969C147.727 94.6842 148.289 95.6417 148.035 96.397C147.855 96.9077 147.154 97.4822 146.592 97.7481C146.889 97.1204 147.133 96.6204 147.292 96.2268C147.451 95.8332 146.613 95.0352 146.178 94.8969L143.346 94.0139C142.232 93.6628 141.478 92.599 141.807 91.4074C142.136 90.2159 143.165 89.0988 144.417 88.918C143.865 89.4712 143.239 90.0457 142.889 90.6734C142.327 91.684 142.889 92.8862 143.855 93.2373L146.953 94.3756V94.3969Z" fill="currentColor"/>
<path d="M119.326 247.574C116.62 248.542 113.65 247.67 111.878 245.478C110.509 243.776 110.393 241.223 111.634 239.414C113.098 237.286 115.729 236.542 118.19 237.201C120.471 237.808 122.466 239.808 122.572 242.425C122.668 244.744 121.607 246.766 119.315 247.585L119.326 247.574ZM117.225 246.468C119.474 246.436 120.959 244.766 120.906 242.691C120.864 241.063 119.888 239.797 118.53 239.01C117.172 238.223 115.708 238.116 114.265 238.946C113.31 239.489 112.281 240.723 112.355 242.191C112.483 244.712 114.626 246.51 117.225 246.468Z" fill="currentColor"/>
<path d="M150.115 274.373L151.6 278.99C147.823 275.969 147.845 267.873 149.394 263.532C150.89 264.617 148.746 270.15 150.115 274.373Z" fill="currentColor"/>
<path d="M232.612 277.404C232.23 276.16 232.018 275.287 231.849 274.202C231.297 270.66 229.769 267.596 227.244 265.095C225.154 263.032 221.441 259.468 222.024 256.031C223.032 258.861 224.38 261.095 226.608 263C230.363 266.213 232.761 270.479 233.323 275.436C233.398 276.117 233.355 276.628 232.612 277.404Z" fill="currentColor"/>
<path d="M196.689 85.3217C195.84 86.8218 192.392 92.7688 191.098 93.0773C190.79 93.1518 190.143 92.8327 189.91 92.5454L183.586 84.6196C182.918 83.7791 182.982 82.7471 183.618 81.9173L188.392 75.7256C188.753 75.2575 189.91 74.6936 190.398 75.2894L196.233 82.4705C196.827 83.194 197.198 84.3961 196.678 85.3217H196.689ZM190.917 91.2156C191.851 89.79 196.137 84.7047 195.044 83.4918L189.591 76.7256L185.241 82.3322C184.743 82.9705 184.69 83.8004 185.326 84.4068L190.928 91.2156H190.917Z" fill="currentColor"/>
<path d="M259.083 223.998C259.327 220.583 259.932 217.402 261.205 214.157C261.088 217.477 260.558 220.796 259.083 223.998Z" fill="currentColor"/>
<path d="M205.293 96.4936C204.147 96.8979 202.917 96.1957 201.994 95.4298C201.071 94.6638 200.774 93.419 201.177 92.3232C201.729 94.5787 203.15 95.5787 205.293 96.4936Z" fill="currentColor"/>
<path d="M114.425 105.132C114.032 105.94 112.876 106.057 112.144 105.77C111.412 105.483 110.68 104.611 110.913 103.685C111.221 102.525 112.452 102.344 113.258 102.61C114.255 102.93 114.998 103.951 114.414 105.132H114.425Z" fill="currentColor"/>
<path d="M178.513 125.57C179.111 126.19 179.334 126.945 179.011 127.256C178.687 127.568 178.705 126.832 177.995 126.095C177.284 125.358 176.523 125.322 176.846 125.011C177.169 124.699 177.915 124.95 178.513 125.57Z" fill="currentColor"/>
<path d="M210.959 128.354C211.391 128.802 211.508 129.389 211.221 129.666C210.933 129.943 211.009 129.351 210.496 128.819C209.983 128.286 209.37 128.321 209.657 128.044C209.945 127.767 210.528 127.906 210.959 128.354Z" fill="currentColor"/>
</g>
<defs>
<clipPath id="clip0_1200_3199">
<rect width="295.73" height="303" fill="white"/>
</clipPath>
</defs>
</svg>

