<svg width="295" height="310" viewBox="0 0 295 310" fill="none" xmlns="http://www.w3.org/2000/svg">
<g clip-path="url(#clip0_1199_1755)">
<path d="M209.902 336.521L212.217 315.714L210.788 311.676L209.25 317.936L205.382 331.651L203.93 340.707C203.518 337.243 203.487 334.035 203.658 330.812C201.981 333.538 201.32 336.536 201.507 339.689C202.027 348.504 201.173 352.496 200.986 360.93C200.87 366.429 205.809 370.568 203.938 372.285C203.666 372.533 202.68 372.564 202.346 372.394C197.717 369.978 196.474 365.078 194.696 360.426L192.933 360.713L165.836 353.614C157.347 351.393 149.06 350.5 140.331 349.467C130.359 348.287 120.798 346.873 110.725 346.819C103.596 346.78 96.7848 347.137 89.6941 347.557C81.9898 348.007 82.5723 359.074 78.4949 362.818C78.4017 359.494 82.9684 351.65 81.718 349.747C80.7239 348.24 73.8662 350.096 71.7615 350.36C71.2023 351.199 70.6431 352.395 70.4645 353.335L68.22 365.249C68.0569 366.126 67.4744 367.011 66.8531 367.578C66.5347 367.027 66.1308 366.188 66.1464 365.73L66.7288 350.057C63.9795 350.158 60.2983 359.455 59.343 361.769C59.11 362.328 58.3411 363.198 57.7121 363.346C57.3781 363.423 57.1373 362.282 57.2228 361.901L60.0575 349.778C57.0907 353.358 54.8773 356.954 52.3921 360.682C48.8118 366.056 50.3495 366.98 47.5148 369.481C45.1926 366.281 48.0895 358.562 48.9438 355.261L51.5766 345.102C50.5359 343.938 49.5418 342.974 48.7108 341.903L44.2218 336.093C40.727 331.566 41.457 328.063 41.8065 322.564L36.8282 329.29C35.7332 330.773 34.6226 332.039 32.945 333.267C33.0848 331.038 33.7993 329.197 34.7779 327.31L38.3504 320.421C50.4116 297.161 40.5872 294.59 38.9329 277.224C38.4359 271.966 37.6592 266.988 37.4262 261.746C37.201 256.76 35.3526 252.341 31.9121 248.815C30.4054 247.277 29.6443 245.708 28.6658 243.371L24.169 249.281C25.1864 245.669 28.3706 237.825 31.0656 235.806L31.2364 239.254C31.3995 242.485 32.4868 245.18 34.84 247.72C34.9022 247.743 35.073 247.595 35.3215 247.339C33.4576 234.517 34.607 221.726 39.663 209.827L46.0547 194.784C47.1109 192.291 48.0973 189.984 48.5011 187.142L38.6611 188.439C32.5645 189.239 21.1168 196.617 17.5598 201.789C13.4281 207.8 11.3467 214.922 9.84002 222.021C8.32557 229.158 7.92948 236.14 8.39547 243.347C8.80709 249.739 10.1817 255.416 12.9388 261.179C13.366 262.08 12.8611 264.301 12.6126 265.28L9.77012 276.292C8.19354 282.389 7.38584 288.315 7.47904 294.652C7.56447 300.438 7.45574 305.999 7.00529 311.754C6.52377 317.982 5.10252 323.9 2.57844 329.523C2.00373 330.812 1.44455 331.76 0 332.544C0.108729 331.278 0.310657 330.222 0.683443 329.042C2.29885 323.9 3.33955 318.821 3.51041 313.377L4.10065 294.947C4.37248 286.513 5.38987 278.513 7.49457 270.382C8.33334 267.143 8.37994 263.944 7.52563 260.659C4.90836 250.523 4.21715 240.404 5.21125 229.989C6.04225 221.267 8.3411 213.221 12.1311 205.37C16.4492 196.423 20.7751 193.953 29.1939 189.115L33.2945 181.775C35.0264 178.676 37.4961 176.448 41.0221 175.655C43.2044 175.166 44.781 174.009 46.3343 172.393C47.0799 171.617 47.7555 170.832 47.6701 169.699C47.4527 167.058 49.3476 165.38 51.8251 165.054C58.3334 164.192 56.151 159.688 63.1175 162.119C64.2669 161.761 65.6571 160.759 66.6822 159.882C72.1187 155.253 79.9317 150.562 87.3564 151.409C90.5561 149.172 91.6745 144.9 91.822 141.009C92.0084 136.023 91.7987 131.115 91.4959 126.191L88.0942 127.729C87.8612 127.838 86.8283 127.566 86.6962 127.348C86.5331 127.077 86.5021 126.649 86.5642 126.152L86.8904 123.372C85.8186 124.164 85.1274 124.747 84.1489 125.298C81.7335 126.665 78.3241 125.5 77.695 122.65C78.6736 122.813 79.8929 123.294 80.4909 123.061C82.9917 122.114 84.1489 119.326 83.5819 116.988C81.1044 119.186 76.1805 119.745 75.0389 117.097C76.4291 116.522 77.5008 116.087 78.6192 115.342C75.2408 115.109 72.3672 114.479 70.3169 111.955C69.2296 110.612 67.9404 108.398 68.8957 106.76C69.2141 106.216 69.649 105.61 70.216 104.779L70.5499 107.171C70.7829 108.849 72.1886 110.231 73.905 109.633C72.01 107.156 72.2896 104.531 73.4701 101.999C69.6956 101.199 66.4958 98.7836 65.9056 95.079C65.3154 91.3745 67.6686 87.9417 71.5052 88.3067C70.9693 88.9358 69.9674 89.8057 69.9131 90.4114C69.7422 92.3297 71.8003 93.5025 73.4701 92.9433C75.5825 92.2365 76.763 90.0387 76.5611 87.7398C76.1961 83.6081 75.4194 79.6472 74.635 75.5776C72.6934 74.5525 70.5033 75.298 69.1752 72.6808C67.7152 69.8072 65.1134 73.139 60.2517 70.413C58.9469 69.6829 58.2324 68.3083 57.7509 66.9181C57.083 64.9765 50.9165 68.2462 46.1945 62.499L45.5266 60.1148C41.3405 59.5711 37.7447 57.7382 35.3992 54.2278C34.9099 53.4978 35.1352 52.3639 35.6244 51.595C31.283 50.2747 27.229 48.0691 24.4564 44.4577C24.1535 44.0616 23.9205 42.7646 24.2622 42.4462C24.6039 42.1278 25.2175 41.6773 25.7844 41.2657C26.2038 41.1182 26.3436 41.0405 26.1106 40.9007C20.5421 39.1999 15.9211 36.2564 12.7602 31.449C12.2554 30.6801 12.7058 29.1346 13.5058 28.8317C14.7872 28.3347 15.8978 28.0706 17.3424 27.76C13.4436 25.531 9.83225 22.9215 7.4169 19.0383C6.92762 18.2539 6.34514 16.8637 6.67133 16.1026C7.33924 14.5338 9.13328 14.4095 10.5235 14.2697L12.069 14.1144C12.7136 13.9669 12.8301 13.8814 12.069 13.7494C9.71576 11.7457 7.58776 9.8662 5.70053 7.51298C4.28705 5.75001 2.67941 2.34833 4.28705 0.655257C6.23641 -1.40284 13.5912 1.94448 16.1619 3.06284C27.8114 8.12652 36.9214 11.901 49.8525 13.0194C56.718 13.6174 63.3194 13.8271 70.247 13.8271C77.1746 13.8271 84.0867 16.3045 88.7854 21.8187C92.4589 26.1446 90.5095 30.9752 88.2107 35.3477C87.0224 37.6155 87.768 40.5978 90.2688 41.5065C94.1131 38.8504 97.8565 36.2176 101.926 33.9964C102.019 30.8898 102.687 27.9386 103.347 24.9641C104.093 21.5857 105.623 19.1004 108.535 17.1511C114.943 12.864 122.655 11.3729 130.39 12.4602C140.836 13.928 155.926 13.2368 166.341 11.5282C166.76 11.4583 167.653 11.6602 167.902 11.9243C169.696 13.8737 160.267 20.1178 158.528 20.8556L157.308 22.8361C155.235 26.2144 151.328 26.9134 148.167 28.7075C146.156 29.8491 145.092 32.5518 142.063 32.8858C145.969 34.7652 149.286 36.3341 152.648 38.8814C153.417 39.4639 154.489 39.8289 155.475 39.5649C161.789 37.8718 164.648 42.4617 166.628 41.9725C169.898 41.1648 173.952 42.1045 176.025 45.0946C178.425 48.5584 176.491 51.3931 176.297 50.7718L176.118 50.2126C175.924 49.5991 175.715 48.5661 175.412 48.0458C173.633 44.9858 170.053 43.3859 166.48 44.4422C174.286 48.1856 171.536 50.1971 175.909 55.3151C177.78 57.5052 177.928 60.3322 176.39 62.732L176.142 63.1203C176.056 63.3999 175.932 63.6873 176.033 63.6329C176.142 63.5786 176.647 63.3844 176.763 63.3223C178.868 62.1418 179.776 59.1906 178.751 56.7519C178.107 55.2297 177.788 54.4531 178.285 53.4124C178.347 53.2881 183.66 56.915 181.275 62.4369C179.411 66.7473 175.365 65.2561 175.039 67.9122C174.565 71.71 171.412 74.0321 167.506 73.5351C166.744 76.2844 165.44 78.4667 163.141 80.0433C162.147 80.7268 161.611 82.2412 162.015 83.445C163.017 86.404 164.376 89.0601 165.921 91.6929C167.552 94.4733 166.558 97.6264 163.607 98.9001C162.822 99.2418 161.417 99.7855 160.966 100.523C160.027 102.061 163.094 104.453 161.09 107.28C159.351 109.734 161.712 110.759 159.755 114.184C158.753 115.932 158.73 117.726 159.436 119.543C160.966 123.473 159.18 127.511 155.242 129.127C153.751 129.74 152.283 130.098 150.489 130.657C150.948 134.393 149.953 140.303 153.41 142.105C156.866 143.906 160.213 145.654 164.011 146.485C170.317 147.867 178.604 138.291 186.409 148.178C187.628 149.723 189.135 150.733 191.263 150.585L197.158 150.182C203.417 149.747 206.998 153.661 210.757 158.36C211.588 159.4 212.597 160.06 213.91 160.488C216.232 161.241 218.445 162.46 220.441 163.718L226.546 159.051L223.144 157.117C219.369 154.973 215.82 152.605 213.211 148.986C209.491 143.836 209.149 136.552 212.628 131.123C216.698 124.793 225.124 122.588 231.726 125.679C233.846 126.673 235.454 128.21 235.578 130.494C235.671 132.094 234.561 133.6 233.497 134.222C229.458 136.598 227.074 131.527 222.694 134.765C221.226 135.853 220.34 137.973 220.682 140.217C221.552 146.027 228.813 149.925 234.242 151.494L237.426 129.282L238.591 120.032C238.871 117.827 236.091 121.865 232.93 119.341C231.213 117.974 229.877 121.19 226.398 117.998L223.144 118.658C221.14 119.062 219.191 118.51 217.933 116.91C216.154 114.635 212.892 117.741 206.803 114.914C205.211 114.177 204.256 112.717 203.666 111.124C200.256 110.247 197.453 108.204 195.325 105.292C195.138 105.043 194.913 104.383 194.905 104.08C194.905 103.715 195.822 103.28 196.187 103.319C202.229 104.034 207.968 103.133 213.63 100.974L223.897 97.0673C226.476 96.0809 228.961 96.3139 231.081 97.7429C233.201 99.1719 234.095 101.704 234.063 104.515C234.032 107.474 236.106 110.185 239.314 109.726C241.845 102.069 238.739 102.496 238.172 99.3506C237.721 96.8343 238.995 94.582 240.758 93.3394C242.832 91.8793 245.333 91.7628 247.554 92.8656C250.979 94.5665 252.012 98.5118 249.946 101.673C248.688 103.599 246.987 110.86 250.427 110.511C253.138 110.231 254.932 108.088 255.274 105.424C255.778 101.486 259.133 98.2011 263.242 98.9855C266.131 99.537 268.632 101.106 271.132 102.566L281.99 108.895C288.879 112.911 294.238 111.552 294.952 113.058C295.1 113.369 294.882 114.215 294.634 114.472C291.62 117.462 287.512 118.425 283.349 118.355C280.064 122.797 273.796 121.718 269.137 119.994C267.575 122.122 265.16 123.403 262.426 122.075L259.763 120.778C256.376 123.854 254.59 119.745 253.285 120.498C252.431 120.995 250.971 121.531 249.806 121.174C248.866 120.887 247.895 119.877 247.321 118.65L243.694 153.086C249.767 152.224 261.184 148.799 261.665 141.39C261.782 139.565 260.873 137.88 259.615 136.971C258.201 135.946 256.415 136.093 254.769 136.746C252.276 137.732 249.658 136.684 248.688 134.408C247.647 131.969 248.789 129.531 251.219 128.288C255.615 126.036 260.896 126.385 265.238 128.84C270.643 131.892 273.229 137.786 271.987 143.891C269.913 154.065 260.415 158.243 251.08 160.868L253.837 163.617C258.194 167.967 259.498 174.234 257.58 180.16C256.12 184.664 252.749 188.105 248.796 190.668L245.154 193.029C250.637 197.448 252.804 203.847 251.049 210.433C250.909 210.954 250.885 211.955 250.917 212.561C258.007 220.429 260.361 230.773 260.78 241.219L264.694 244.823C269.362 249.118 268.74 255.106 268.678 261.078C269.603 262.367 270.713 264.192 271.808 265.264C274.643 268.06 274.387 271.764 276.025 274.801C278.643 279.655 288.925 286.42 286.339 297.883C289.624 303.677 292.948 309.47 291.302 316.398C289.655 323.326 283.24 329.205 282.673 332.622L281.198 341.421C279.831 349.545 268.834 355.245 261.324 353.04C260.609 353.513 259.755 354.143 259.273 354.756C255.079 360.084 249.596 363.975 243.018 365.823C240.797 366.452 238.483 366.483 236.417 365.606L235.795 365.342C235.283 365.124 235.399 370.879 233.24 373.869C231.353 376.479 231.532 364.332 231.555 364.037C232.176 354.049 231.027 344.784 229.124 335.061C226.903 323.714 229.233 307.832 226.771 301.525C226.74 301.44 226.499 301.059 226.46 300.982C226.406 300.873 226.072 301.378 226.041 301.572L222.989 322.751L218.406 354.609C222.445 357.039 225.699 360.309 225.986 365.039C226.072 366.483 226.196 369.66 226.064 370.918L226.002 371.508C225.986 371.679 225.963 371.912 225.94 372.013L225.474 374.654L224.93 375.12C222.895 369.07 223.703 361.723 217.552 357.568C216.115 359.952 214.345 360.76 211.859 360.169C209.661 359.649 207.961 357.894 208.077 355.393C208.357 349.071 209.141 342.998 209.863 336.49L209.902 336.521ZM82.4791 44.3024C83.2324 44.8849 83.9935 45.5528 84.7158 46.2362C80.0793 45.6304 78.1221 42.3064 78.8522 37.7631C79.2483 35.3011 78.1454 33.0566 75.5903 32.3965C73.2992 31.8063 65.5406 31.1073 65.0047 33.445C64.9037 33.8643 65.2998 34.7109 65.6726 35.0837C69.1752 38.6018 72.8798 36.8622 76.0718 38.8348L69.4005 39.6037C68.9733 39.6503 68.1423 40.2483 68.0569 40.6599C67.6297 42.6326 71.0858 44.6363 73.5244 44.9237L78.2542 45.4829L74.7127 47.5565C74.3321 48.6516 75.4505 49.8321 76.499 50.298C79.2094 51.5018 82.184 51.2844 84.9333 50.1505C85.6245 49.8631 86.2147 49.7622 87.1078 49.9874L82.2694 53.1095C81.8966 53.3502 81.4539 54.1812 81.617 54.5462C82.681 56.9228 87.1777 55.8122 89.298 54.5152C88.3971 57.1868 85.8652 57.3577 83.3256 57.6528C81.9743 57.8081 80.5763 59.8585 80.1492 61.07C79.722 62.2816 80.8326 62.9883 81.7801 63.0427C84.7003 63.198 87.2399 61.6292 88.6767 59.1362C89.3135 58.0256 89.8183 57.2257 90.6959 56.0296L90.2299 60.8836C90.1756 61.4661 90.7425 62.5301 91.2629 62.7165C91.7211 62.8796 92.9171 62.7553 93.3054 62.468C96.6605 59.975 93.717 56.9072 97.4216 54.7559C100.412 53.0163 101.406 50.0262 99.9224 48.7525C98.1361 47.2225 94.2219 50.1194 90.4862 45.8168L86.5331 41.2657C84.0013 38.3533 86.5021 34.043 88.0787 31.0141C89.6552 27.9852 89.1349 25.2204 86.8749 22.805C84.2731 20.0324 80.9491 17.819 77.1902 16.6696C75.2175 16.0638 73.0041 16.1181 70.9305 16.0715L60.3915 15.8386C51.631 15.6444 43.1889 14.8056 34.7313 12.4446C28.3706 10.6661 22.5303 8.14206 16.5812 5.39276C14.7251 4.53845 6.75676 0.600891 5.73936 2.07651C5.50637 2.41046 5.35881 3.42786 5.50637 3.86278C7.85182 10.705 22.3827 18.6112 28.9531 20.6149L42.389 24.7233C33.4421 24.3583 25.3728 21.1818 17.6685 17.4384C15.2765 16.2735 10.5157 13.8193 8.61293 17.0113C9.71576 20.0945 12.1389 22.2536 14.6862 24.001C23.571 30.1054 35.7565 31.8606 46.5362 32.4276C41.123 34.3614 27.8192 31.7441 22.5148 29.9423C18.3908 28.5444 13.6455 29.3521 15.1833 31.4179C20.5576 38.6174 30.8481 40.1008 39.3601 40.3726C42.9637 40.4891 46.4585 40.5046 49.9301 39.4328C49.138 38.5242 48.4002 37.7398 47.9186 36.8156C47.2663 35.573 47.8254 34.1439 48.7652 33.3518C47.375 32.7072 40.8046 28.7696 42.1094 26.23C44.0354 29.0181 46.4974 30.9131 49.9301 31.5034C54.5822 32.3111 59.343 32.0625 64.2203 30.8355C61.4632 29.1734 59.1255 27.5736 57.5878 24.7932C56.7568 24.7388 55.6617 24.7311 54.823 24.8942C49.5107 25.9271 44.2218 24.9951 39.8416 21.8963C38.3271 20.8246 36.9447 19.582 36.4244 17.6947C43.1656 23.3953 48.8273 24.1408 57.2849 23.7059C57.3548 22.6031 57.3781 21.1508 57.9761 20.5993C59.2032 19.481 60.9972 19.947 62.4185 20.2809L66.7288 21.2906L66.3638 18.417C71.5362 24.0632 74.5418 21.3527 79.6676 24.3738C81.9354 25.7096 82.7198 28.5599 81.2132 30.5559C81.2287 27.8299 79.6288 25.5543 76.9028 24.832C71.4741 23.3952 66.0609 22.3546 60.4225 21.2828C59.9798 21.1974 58.9857 21.5857 58.8615 21.974C58.7527 22.2924 58.7761 23.1157 58.9314 23.4263C60.6245 26.8979 63.8786 29.1113 67.6686 29.8802C72.3284 30.8277 76.7009 29.9035 78.9609 32.6994C81.7335 36.1321 77.5474 40.458 82.5101 44.3179L82.4791 44.3024ZM120.263 28.9638L119.773 30.2064C126.584 29.8181 132.58 30.5248 139.003 31.7907C141.154 32.2179 143.694 30.4238 144.781 28.9871C139.453 27.892 134.568 28.6842 129.396 28.4279C133.613 27.6823 137.838 26.9445 142.241 26.7037C146.645 26.463 152.478 26.3232 155.211 21.974L137.015 21.8653C135.244 21.8575 133.613 22.0206 131.974 21.7332C137.815 20.7624 143.344 20.7624 149.107 20.5062C155.716 20.211 160.842 18.6267 165.168 13.4931L148.835 14.7668C142.412 15.2638 136.199 14.8212 129.776 14.2853C123.354 13.7494 116.542 14.7979 110.842 18.083C107.658 19.9159 105.871 22.5099 105.235 26.0591C104.846 28.2182 104.225 30.2452 104.87 32.5441C108.683 32.2412 107.495 31.0218 108.939 28.2259L108.893 31.4723C110.182 31.1849 111.642 30.9752 112.403 30.3229L116.768 26.5484L114.36 30.3539C118.072 30.152 117.606 30.618 120.263 28.9793V28.9638ZM66.6745 38.33L64.663 36.404C63.5446 35.3322 63.366 33.7401 63.7621 32.0703C59.3974 32.8547 55.452 33.3906 51.165 33.7556C50.4272 33.8177 49.371 34.4158 49.2389 35.0138C49.1224 35.5108 49.5574 36.5748 50 36.9554C54.4812 40.7764 61.7583 40.2483 66.6822 38.33H66.6745ZM79.6366 83.3906C85.6089 80.1986 90.2533 75.7252 94.4782 70.5528C97.1265 67.3142 99.6428 64.1766 103.076 61.7224C107.386 58.6469 111.774 56.084 116.628 53.9094L137.116 44.7218C145.006 41.1803 144.696 43.5335 151.414 40.6755C145.255 36.1166 138.653 33.3518 131.066 32.5441C122.561 31.6354 114.049 32.1868 105.926 34.9516C100.598 36.769 96.1169 40.0153 91.9153 43.4714C94.9441 48.9544 98.5167 45.2809 101.188 47.4478C103.029 48.9389 102.462 53.5133 98.4546 56.0995C97.2818 56.8529 96.7304 57.9169 96.7149 59.3148C96.676 62.4602 94.2529 64.7591 91.0454 64.5416C89.8727 67.8889 88.4825 71.0654 85.7487 73.24C83.9392 74.6767 81.7646 74.6767 79.9628 73.3798C75.9165 74.335 78.5105 80.4394 79.6366 83.3906ZM70.2548 45.9954C68.2278 44.4344 65.4862 42.5705 66.8609 39.6348C63.6145 40.5201 60.3682 41.2036 56.8733 41.8404C56.1821 41.9647 54.3026 42.6171 54.8385 43.6267C57.5334 48.7292 65.4319 48.7836 70.2548 45.9954ZM54.8307 46.6478C53.2076 44.9781 52.7493 42.8734 54.2016 41.39C52.7882 40.0386 51.2815 40.2949 49.5418 40.7221C43.6238 42.1899 37.566 42.2443 31.4539 41.9647C29.5744 41.8793 27.7416 42.0967 26.2582 43.3238C32.8441 52.2396 45.9071 49.8864 54.8307 46.6401V46.6478ZM142.847 47.0284C145.418 48.6438 148.618 48.8768 151.406 47.5177L156.726 44.9237C158.597 44.0073 160.477 43.6112 162.784 43.2695C158.955 40.1008 154.738 41.654 150.567 43.3782C147.864 44.4965 145.348 44.7218 142.179 44.7373C143.414 45.4984 145.053 46.0032 146.56 45.7392L152.206 44.7528C149.689 47.1138 146.342 46.9895 142.847 47.0206V47.0284ZM81.7413 57.0237C80.4753 55.9054 80.0715 54.8181 80.4443 53.1638L77.695 52.6357C75.435 52.2086 73.206 50.3757 73.0274 47.9837C72.9885 47.4555 73.1128 46.9507 72.9575 46.6867C72.8022 46.4226 71.7382 46.2362 71.4275 46.3838L63.8475 50.0961C63.2806 50.3757 62.6282 51.0824 62.5272 51.5329C62.4263 51.9833 62.8379 53.0007 63.2184 53.3269C67.2569 56.7597 72.2041 54.29 76.2116 52.9619C75.1243 54.6783 70.2936 56.5655 70.9615 58.2198C72.0411 60.8914 79.4114 59.5478 81.7413 57.0237ZM170.317 60.4565C173.012 56.3403 171.521 51.5174 167.987 48.6127C164.958 46.1275 160.896 45.5372 157.681 47.9992C162.255 46.842 166.814 48.372 169.183 52.3639C170.643 54.8258 170.41 57.5441 170.325 60.4487L170.317 60.4565ZM60.8574 53.4978C60.772 52.1542 60.873 50.896 61.3001 49.6612L55.6928 47.4167C51.1883 49.6146 46.4819 50.7718 41.5114 51.4009C39.9037 51.6028 38.366 52.0299 36.9603 52.9852C41.3949 61.3418 54.7065 57.513 60.8652 53.4978H60.8574ZM143.29 51.5407L138.149 48.4263C137.333 47.7429 136.207 47.673 135.127 48.0613C137.263 50.2126 139.966 51.727 143.29 51.5407ZM146.233 53.3502C142.521 53.6609 139.073 52.5736 135.935 50.3912C134.747 49.568 133.271 48.9544 131.734 49.5835C135.958 52.3484 140.642 56.2937 146.233 53.3502ZM167.21 53.1949C166.356 50.3679 163.125 48.4108 160.228 49.7855C163.024 50.3524 165.269 51.1368 167.21 53.1949ZM127.726 154.57C129.543 149.188 135.912 148.582 136.929 141.677L138.04 134.113C138.086 133.779 137.985 132.878 137.714 132.699C135.997 131.566 130.219 131.822 122.996 127.123C115.781 122.432 109.017 120.638 107.86 111.086C109.553 113.586 110.912 116.025 113.18 117.804C115.447 119.582 118.065 120.739 120.798 121.469L135.322 125.36L144.074 127.465C148.253 128.467 152.742 127.931 156.337 125.446C157.899 124.366 157.945 122.005 157.355 120.397C156.182 117.198 156.345 114.922 154.73 114.813L150.792 114.549L150.691 113.229L153.456 112.724C154.279 112.577 155.297 112.538 156.151 112.616C157.642 112.755 158.605 111.785 158.621 110.643C158.652 108.88 157.704 108.639 156.198 108.336C154.512 107.995 152.812 107.42 151.126 107.715L145.317 108.717L142.777 109.851C142.669 108.631 143.01 107.855 143.678 107.365C145.635 105.921 144.859 108.593 150.264 106.301C152.493 105.354 154.264 105.571 156.299 106.775C157.378 107.412 159.599 105.874 159.312 104.608L157.945 98.5739L161.588 97.1216C162.473 96.7721 163.451 96.143 163.747 95.4984C164.741 93.3704 162.457 90.6211 160.904 86.9787C159.778 84.3226 158.683 81.8451 157.386 79.2356C156.811 78.0862 156.656 76.6183 157.332 75.4844C161.96 67.6948 161.712 71.5624 164.119 69.7062C164.298 69.5665 164.104 68.9762 164.003 68.6889C162.838 65.4114 161.859 62.2583 161.355 58.8488C160.764 54.8569 156.842 53.3269 153.177 52.3794C148.198 57.7227 140.96 58.4916 134.832 54.7326C133.722 54.0492 127.936 50.4145 128.285 53.8783C128.821 59.1828 126.243 63.9979 121.459 66.2347L118.391 67.6715C118.647 68.2462 118.888 68.7432 118.865 69.0927C118.841 69.3801 118.337 69.9625 118.104 70.1334L115.005 72.3158C110.329 75.6087 113.141 80.0821 113.071 84.4469C113.032 86.9476 111.316 88.6562 109.188 89.0135C107.06 89.3708 105.072 88.1825 104.287 85.9846C103.573 83.9964 102.454 82.2878 100.676 81.0296C99.2234 80.0045 97.608 79.0492 95.8839 78.6531C93.1812 78.0396 90.6493 79.3521 89.5853 81.8529C88.3116 84.8507 88.0864 88.33 89.3679 91.39C90.393 93.8209 92.2181 95.7004 94.1675 97.3857C96.1169 99.071 97.7944 100.663 99.635 102.48C101.002 103.832 103.883 103.941 104.839 101.991C105.506 100.632 105.398 98.9001 105.848 97.1837C106.935 99.2418 107.036 101.572 106.438 103.84C105.903 105.835 103.681 106.993 101.678 106.263C100.287 105.758 99.1846 104.911 97.7167 103.847L96.0081 116.041C94.6801 125.508 100.777 143.044 91.4881 153.746C85.64 160.488 80.1958 162.15 73.8584 166.646C71.6527 168.207 70.1616 171.174 71.0081 173.807C71.8003 176.284 77.3533 172.386 83.846 175.477C87.3719 177.154 90.9988 177.271 95.014 177.31C85.0808 179.857 83.7838 173.76 73.6021 176.261C71.676 176.735 69.75 177.123 68.2122 178.63L75.0389 179.958L87.5661 183.95C93.4297 185.822 99.2856 186.396 105.444 186.482C119.936 186.668 132.114 181.395 144.028 173.628C151.522 168.743 164.088 159.851 168.531 151.867C162.885 149.125 157.145 146.26 151.468 144.473C151.15 151.191 148.959 157.218 143.849 161.528C145.612 157.63 147.492 154.391 147.631 150.236C147.802 145.157 147.453 140.241 146.901 134.967C135.221 140.497 142.902 148.364 127.726 154.554V154.57ZM100.637 74.0865C99.3321 74.1409 98.1284 74.2806 96.8158 74.4981C101.437 76.9678 106.609 75.2903 109.009 70.9333C111.751 65.9473 115.696 66.1259 120.565 63.7106C124.433 61.7845 126.6 57.5518 125.513 53.1638L123.423 54.4531C122.274 54.2511 121.653 54.787 121.288 55.8976C120.635 57.8703 119.758 59.307 118.585 61.2642C120.022 60.4798 121.047 59.5711 122.352 58.445C121.505 63.1825 116.931 65.0775 112.628 65.9629C105.755 67.3763 108.349 73.7603 100.629 74.0865H100.637ZM68.3753 58.6003C68.8413 58.1887 69.2995 57.3033 69.4393 56.8762C66.3094 56.5111 63.9252 55.952 61.6418 54.29C59.9643 55.2219 58.4188 56.3947 56.7801 57.1092L49.1613 60.4099C48.804 60.5652 48.0895 61.2253 48.1594 61.5826C48.2215 61.8855 48.6642 62.5301 48.9516 62.7087C54.854 66.5531 63.4436 62.9573 68.3753 58.6003ZM108.256 63.8582L113.63 61.1166C115.176 60.3322 116.403 58.8799 116.892 57.2956L107.106 62.3748C104.792 63.5786 103.068 65.7532 102.912 68.2617C104.497 66.6618 106.128 64.9377 108.256 63.8504V63.8582ZM77.2523 61.1865C73.6409 61.1632 71.7692 61.536 69.2684 59.0974L64.5232 62.9883C63.1485 64.1144 61.7816 65.2639 60.6089 66.5997C58.3411 69.1859 69.1597 73.1002 77.2523 61.1787V61.1865ZM74.6661 72.8982C78.8366 71.7643 81.617 68.6267 83.1392 64.8522C82.0519 64.7125 81.0268 64.5882 80.2035 64.3552C78.5027 63.8815 78.3707 62.4369 78.3784 60.6429C76.4524 63.664 74.5108 66.258 72.2274 68.9529C71.4586 69.8538 70.6975 71.2751 71.4974 72.4633C71.9401 73.1235 73.6409 73.1778 74.6739 72.8982H74.6661ZM81.9665 73.007C84.4906 74.6068 92.0939 65.2639 88.7 62.5379L84.3197 64.6115L81.9743 69.5354C81.5316 70.4596 80.5996 72.1371 81.9665 73.007ZM167.871 70.9644C169.812 70.413 170.511 68.6423 170.348 67.353C170.154 65.792 169.346 64.13 167.474 63.9902C168.267 66.5065 168.686 68.7588 167.863 70.9644H167.871ZM163.537 76.1213C163.964 75.7718 164.578 74.3273 164.236 73.8147C163.545 72.7817 161.828 72.774 161.083 73.636L159.366 75.6165C161.013 75.6786 161.883 75.7796 163.545 76.1213H163.537ZM83.7372 108.934C85.2439 108.422 86.2846 107.296 86.7661 105.898C85.9196 106.216 84.941 106.744 84.343 106.527C83.8615 106.348 83.279 105.533 82.7587 104.756L81.85 106.806C80.0715 105.02 80.5375 102.069 82.5567 100.383C88.2573 95.646 86.0905 93.5025 85.5313 88.9747C85.3293 87.3437 86.1759 85.4953 86.5953 83.7401C85.0653 83.212 83.5431 84.5245 83.4499 85.8836L82.9373 93.5646C81.2442 91.5065 82.1063 89.4018 81.9665 87.002C80.2424 90.8619 81.5005 93.184 80.6462 96.9507C82.6965 95.9722 83.4499 94.1471 84.1955 91.9337C85.6711 94.6674 84.4983 97.5798 82.4403 99.6457C80.1414 101.952 77.8891 106.092 80.4132 108.297C81.1821 108.965 82.5412 109.33 83.7372 108.927V108.934ZM70.6742 95.7935C72.2896 97.3468 74.0215 97.3002 75.7922 96.4848C76.9649 95.9411 78.4017 94.8072 78.4561 92.9899C76.9882 94.6364 75.3573 95.5373 73.206 95.6538L70.6664 95.7935H70.6742ZM248.734 98.2322C248.734 95.9411 246.878 94.0849 244.587 94.0849C242.296 94.0849 240.44 95.9411 240.44 98.2322C240.44 100.523 242.296 102.379 244.587 102.379C246.878 102.379 248.734 100.523 248.734 98.2322ZM220.022 112.538L224.798 110.402C223.587 112.585 221.311 113.493 219.548 115.101C221.435 119.178 226.235 115.59 228.945 113.959L228.417 116.064C228.324 116.429 228.425 117.338 228.736 117.462C229.046 117.586 229.87 117.586 230.196 117.4L233.403 115.621L234.18 117.741C234.32 118.122 235.578 118.145 235.951 117.92C237.698 116.864 238.739 114.534 238.382 112.445L235.353 111.07C229.52 108.422 233.862 102.558 230.118 99.7156C228.674 98.6205 226.841 98.0924 224.954 98.7448C222.445 99.6068 220.045 100.531 217.575 101.525C211.58 103.948 203.883 105.735 197.127 105.292C200.94 110.899 212.636 109.657 217.645 107.482L223.602 104.904C224.557 104.492 225.847 104.616 226.716 105.074C228.775 106.154 227.773 108.787 230.087 111.761C226.313 110.915 228.114 106.659 225.513 105.999C222.911 105.338 219.338 109.796 210.663 110.705C209.149 110.86 207.774 111.194 206.12 111.676C208.768 115.373 216.286 114.215 220.037 112.538H220.022ZM280.561 118.176L274.829 115.606C270.169 113.516 266.271 108.437 263.902 108.88C261.836 109.268 261.339 115.039 256.578 113.998C258.652 113.144 260.143 111.986 260.858 109.928C261.479 108.142 263.219 106.969 265.121 107.653C269.082 109.082 272.181 113.524 279.885 115.885C283.31 116.934 289.477 117.081 292.389 114.083C288.382 113.369 284.91 112.584 281.438 110.775C277.33 108.624 273.517 106.294 269.579 103.863C267.614 102.651 265.618 101.611 263.343 101.168C260.578 100.624 258.093 102.449 257.79 105.284C257.293 109.921 253.72 113.082 248.812 112.623C248.323 114.72 248.991 118.984 251.025 119.326C251.39 119.388 252.214 118.968 252.415 118.627L253.495 116.809C254.194 117.571 256.508 120.584 257.681 119.761C257.968 119.559 258.24 118.844 258.256 118.464L258.318 116.491C260.361 118.301 261.712 119.792 264.112 120.522C264.919 120.77 266.744 120.265 266.706 119.233C266.636 117.438 263.428 115.606 263.42 113.377L266.713 115.963C269.843 118.425 273.563 119.869 277.548 119.497C278.681 119.388 279.505 119.209 280.576 118.192L280.561 118.176ZM240.121 153.583L244.944 112.46L245.62 104.639L242.521 104.531L239.958 125.236L236.751 149.91C236.611 150.997 236.65 152.146 237.426 152.845C238.017 153.374 239.197 153.964 240.114 153.583H240.121ZM91.0532 121.951C93.0181 119.427 91.8454 115.932 90.9289 116.538C90.6959 116.693 90.1523 117.485 90.2144 117.796L91.0532 121.943V121.951ZM222.243 212.227C219.618 207.793 220.348 202.799 224.006 199.389C226.297 197.246 229.101 195.809 232.099 194.714L242.7 190.839C246.101 189.596 249.037 187.786 251.717 185.356C257.782 179.857 257.836 170.568 252.043 164.806C242.024 154.841 225.008 153.972 219.284 143.712C217.381 140.295 217.77 136.155 220.395 133.36C223.02 130.564 226.771 130.432 229.971 132.272C231.105 132.925 232.666 132.529 233.225 131.534C233.784 130.54 233.442 129.065 232.231 128.28C226.056 124.265 217.56 126.525 213.956 133.127C211.207 138.159 212.201 144.341 215.991 148.628C224.767 158.546 244.338 160.829 249.332 170.801C251.383 174.902 250.256 179.461 246.707 182.35C239.228 188.431 231.718 188.019 221.754 193.86C215.867 197.308 213.032 204.43 215.68 210.798C217.428 215.008 220.488 218.099 224.231 220.794C225.489 220.11 226.522 219.419 227.687 218.534C225.676 216.538 223.765 214.79 222.259 212.251L222.243 212.227ZM253.332 152.97L244.051 156.076L249.099 159.035C254.885 157.987 261.96 155.16 266.069 150.686C269.564 146.881 271.032 141.491 269.105 136.544C266.457 129.756 258.007 126.913 251.81 130.393C250.614 131.068 250.179 132.645 250.552 133.562C250.963 134.556 252.548 135.262 253.681 134.672C257.448 132.692 261.844 134.253 263.366 138.416C265.82 145.11 259.553 150.881 253.324 152.962L253.332 152.97ZM97.608 206.861C106.943 209.369 116.154 210.309 125.544 208.468C135.392 206.535 144.245 202.053 152.035 195.871L169.067 182.35C174.565 177.985 180.297 174.389 186.44 171.027C191.286 168.37 196.164 166.328 201.515 165.109C208.9 163.423 209.902 168.86 216.053 170.095L218.865 165.342C213.855 161.87 207.93 160.394 201.763 161.093C185.632 162.926 167.622 173.527 153.798 181.775C148.206 184.921 143.204 188.462 137.193 190.971C147.732 183.655 158.543 177.294 169.758 171.229C180.211 165.575 195.581 158.639 207.642 158.911C203.441 152.286 198.284 150.912 191.139 153.11C183.994 155.307 180.84 160.029 174.433 161.979L180.328 157.047C181.679 155.921 182.867 154.383 183.535 152.807C184.561 150.376 183.776 148.108 181.578 146.702C180.273 145.871 177.749 145.118 176.538 146.663C174.992 148.636 173.695 150.795 172.227 152.892C165.781 162.126 158.52 167.159 149.262 173.403C142.808 177.752 136.347 181.558 129.062 184.439C114.166 190.326 100.202 191.095 84.9333 186.187L76.4601 183.461C74.4952 182.832 69.1752 181.34 68.1889 183.22C67.9792 183.616 68.0336 184.75 68.4607 184.905C71.6061 186.039 74.5962 187.445 77.6018 188.882C84.8556 192.338 92.389 194.403 100.171 196.345C115.851 200.267 123.882 199.281 139.748 196.322C118.647 205.641 93.7093 200.376 74.3166 189.285C72.8177 188.431 67.0783 185.208 66.5347 188.019L68.8258 190.217L66.7987 189.977C68.6316 192.563 70.946 194.458 73.6099 196.283C80.9258 201.277 88.8708 204.515 97.6002 206.868L97.608 206.861ZM62.8068 174.133C62.9777 174.374 63.5679 174.824 63.8164 174.747C64.065 174.669 64.6552 174.281 64.795 174.048L69.0588 166.538C72.9342 159.315 78.0445 157.645 84.8478 153.933C80.6773 153.77 77.1513 155.447 73.7574 157.327C71.2178 158.732 69.1364 160.534 67.1482 162.631C65.16 164.728 57.9528 171.547 60.8108 174.226C62.403 173.333 63.2184 170.095 64.6164 169.427L62.8146 174.141L62.8068 174.133ZM225.66 169.823C229.194 165.357 233.698 165.644 231.485 162.297C230.879 161.381 229.722 160.705 228.557 161.225C221.086 164.588 216.636 170.522 217.925 178.576C218.577 182.637 221.466 186.552 225.342 188.827C226.895 188.159 228.153 187.538 229.536 186.715C224.161 182.42 221 175.717 225.66 169.823ZM55.1647 172.277C55.6307 173.263 55.9957 174.537 57.0131 174.506C57.4868 174.49 57.8052 173.139 57.7354 172.673C57.1606 168.751 60.0653 167.967 62.0768 164.922C61.8127 164.146 60.8574 163.485 60.1662 163.423C57.4092 163.183 58.2945 166.413 53.0833 166.708C52.1513 166.763 50.3651 167.105 50.0699 168.137C49.2156 171.135 50.3806 174.374 52.8891 176.246C53.3551 176.595 54.4113 176.222 54.7686 175.865C55.8947 174.731 54.5589 173.341 55.1724 172.277H55.1647ZM236.945 184.253L238.824 167.345C239.05 165.349 236.968 163.843 235.027 163.672L233.924 172.246L232.487 185.946C234.157 185.55 235.407 185.099 236.953 184.245L236.945 184.253ZM246.901 172.184C245.799 170.087 244.144 168.44 242.016 167.291L240.409 182.731C244.828 181.449 249.449 177.03 246.901 172.184ZM110.624 212.227C119.067 214.052 132.518 214.907 140.96 212.67C146.505 211.202 151.483 208.771 156.431 205.874C163.716 201.603 170.55 197.137 177.54 192.415C180.468 190.435 183.038 188.322 185.725 186.07L195.201 178.133C196.917 176.696 203.184 170.102 202.524 167.71C195.333 168.448 182.968 176.448 176.794 180.486C167.972 186.249 159.7 192.501 152.237 199.84L168.267 192.609C164.562 195.817 160.485 198.061 156.198 200.43C150.419 203.622 144.634 206.317 138.397 208.538C128.72 211.839 120.845 211.722 110.617 212.235L110.624 212.227ZM230.227 183.367C231.26 178.203 231.881 173.388 232.332 168.277C230.367 168.852 228.945 169.893 228.021 171.081L230.297 174.265L227.004 172.867C224.363 176.541 227.136 181.045 230.227 183.375V183.367ZM47.8953 183.406C48.905 183.344 49.7515 183.158 49.9923 182.125C50.1165 181.589 49.6894 180.641 49.0914 180.261C47.1265 179.01 45.1926 179.756 42.6453 179.81C47.3439 176.51 51.9261 180.96 51.5067 177.799C50.3184 176.603 49.1069 174.91 48.0973 173.131C44.1908 179.104 38.4514 175.384 35.5701 182.521L39.7639 180.23C38.0786 182.832 35.9118 184.571 33.8692 186.676C38.6611 185.115 43.0491 183.717 47.9031 183.406H47.8953ZM69.1519 199.793C86.8283 212.654 106.236 221.609 126.833 228.793C129.87 229.857 132.58 230.797 135.454 232.047C131.702 231.915 128.441 231.084 124.961 230.137C110.601 226.222 99.27 221.306 85.5546 214.782C97.5459 226.121 110.259 236.187 124.161 244.535C130.98 248.628 138.04 251.502 145.527 253.871C153.479 256.379 161.199 258.445 169.284 260.441C180.639 263.245 192.886 262.119 203.883 258.647L205.53 255.253C205.856 254.57 205.887 253.568 205.778 252.675C195.092 254.601 189.78 259.695 178.378 257.195C183.341 256.255 187.853 256.092 192.304 254.57C196.754 253.047 201.01 252.084 205.794 252.069L206.524 249.063C207.401 245.436 212.17 246.772 215.207 244.582C217.273 243.099 219.098 241.336 220.83 239.588C216.045 234.284 215.673 227.053 221.746 222.611C214.78 216.553 209.995 208.072 214.189 199.195C216.014 195.328 218.981 192.664 222.624 190.357L220.092 187.911C216.612 184.548 214.974 180.214 215.113 175.182C205.918 172.044 203.262 175.36 196.117 180.742C198.719 181.558 200.932 181.193 203.542 181.255C200.652 182.614 197.476 182.622 194.16 182.731L182.471 192.485C174.045 199.521 165.253 205.447 155.732 211.303C157.316 211.202 158.924 210.985 160.687 210.697L189.927 205.89C195.472 204.981 200.901 205.028 206.167 206.387C198.307 206.713 190.983 207.381 183.38 208.818L166.216 212.056L152.509 214.472C145.449 215.714 138.646 216.437 131.369 216.514C137.628 217.928 143.927 218.65 150.497 218.681L175.823 218.805C181.85 218.837 187.597 218.635 193.562 219.403C200.388 220.281 207.083 222.052 212.799 225.974C202.726 223.201 193.251 221.236 183.085 220.996L171.171 220.708C185.632 223.271 196.925 227.512 210.151 234.028C212.17 235.022 213.863 236.062 215.673 237.352C214.345 237.165 213.343 236.924 212.217 236.489C202.982 232.87 193.95 229.461 184.444 226.486C174.464 223.357 164.562 221.485 154.14 220.731C147.554 220.25 141.341 219.605 134.887 218.518C132.378 218.099 129.916 216.771 127.501 216.491C122.693 215.947 118.111 215.621 113.265 214.798C104.489 213.307 96.2567 210.853 88.3194 206.791C80.3821 202.729 69.8432 197.494 64.2048 190.808C58.7062 191.235 67.6996 198.729 69.1519 199.786V199.793ZM63.0553 187.973C65.7503 185.923 66.9463 182.373 65.4396 179.329C64.3446 177.123 61.8283 176.013 59.3818 176.253C55.4598 176.634 52.3377 179.577 51.7475 183.445C51.3669 185.961 52.6018 188.299 54.8928 189.285C57.6422 190.458 60.5779 189.852 63.0476 187.973H63.0553ZM40.3697 234.991C41.2085 228.622 42.8161 222.945 45.0994 217.128L51.4834 200.865C52.6794 197.828 55.6074 190.644 51.1805 189.619C49.8136 193.689 48.5322 197.37 46.8702 201.199C44.0898 207.606 41.923 214.006 40.1134 220.755C37.7835 229.414 36.7816 243.704 39.197 252.302L40.3697 234.998V234.991ZM64.1504 342.175L60.8186 337.678C58.4576 334.494 58.2868 330.711 59.5139 327.007C61.1215 322.176 63.5368 317.78 66.6822 313.75C68.5539 311.35 70.9771 309.494 72.7556 307.016L89.8028 283.274L98.9827 270.716C103.635 264.355 107.479 257.599 111.673 250.78C107.72 247.759 104.07 244.768 100.381 241.507L89.531 231.923C82.0519 225.252 76.033 217.555 71.4353 208.663C68.4607 202.9 67.7928 201.463 62.3098 196.966L63.4204 223.178C63.6611 228.91 64.896 234.144 66.3017 239.775C64.5387 236.816 63.4903 233.67 62.5971 230.292C58.5974 215.116 61.5486 204.158 59.5061 194.621C59.3119 193.728 58.5586 192.819 57.9916 192.477C57.3393 192.081 55.6928 192.206 55.2967 192.788C52.3843 204.702 48.3458 214.192 45.1771 226.176C44.0044 230.603 43.5151 234.843 42.9171 239.425C41.5502 249.98 41.1463 260.387 42.2103 270.98C42.8083 276.929 44.68 282.265 46.7925 287.771L52.3998 302.387C53.1998 297.634 53.3862 293.44 53.6425 288.928C53.7279 287.429 53.891 285.822 54.7997 284.525C57.4868 293.611 56.6092 302.356 55.0016 311.645C58.7139 308.336 61.6574 304.632 63.9873 300.554L69.8509 290.311C69.4859 294.815 67.5598 298.799 65.6881 302.861C62.4263 309.952 55.5297 314.837 50.233 322.922C48.7962 325.12 48.4856 327.768 49.5107 330.152C51.6853 335.231 53.1454 338.781 58.1858 341.219C60.042 342.12 61.8904 343.006 64.1659 342.167L64.1504 342.175ZM222.631 237.212L223.416 231.123C224.643 229.686 225.87 228.459 227.532 227.597L236.595 222.898C239.873 221.197 242.77 219.069 245.232 216.359C251.282 209.672 250.684 199.778 243.306 194.932C242.498 194.396 238.785 193.984 238.382 195.879C238.304 196.244 238.568 197.083 238.855 197.393L241.511 200.314C244.766 203.894 244.354 208.857 241.395 212.6C233.124 223.061 216.511 222.595 220.333 234.059C221.016 235.154 221.824 236.272 222.631 237.212ZM233.17 215.109C233.9 209.486 234.498 204.018 234.871 198.24C233.59 197.642 231.05 198.038 230.654 199.421C229.629 204.298 229.163 209.175 228.549 214.13C228.363 215.637 228.945 216.817 230.483 217.136C231.392 217.33 232.999 216.452 233.17 215.116V215.109ZM226.406 214.138L227.998 199.925C225.311 200.989 223.276 203.343 222.973 206.232C222.655 209.292 224.037 212.188 226.406 214.146V214.138ZM240.292 209.385C241.644 206.239 240.704 203.117 238.18 200.989L236.619 213.61C238.203 212.6 239.508 211.21 240.292 209.385ZM207.169 262.849C205.879 261.769 205.033 260.907 204.008 259.61C191.768 263.944 178.813 265.047 166.123 262.243C158.551 260.573 151.592 258.352 144.362 255.672C121.451 247.168 104.792 233.181 86.2846 217.804L78.1066 211.008C79.4813 214.549 81.5937 217.12 83.7916 219.986C88.7621 226.448 94.4704 231.915 100.559 237.367C109.506 245.382 119.067 252.201 129.652 257.909C141.146 264.115 153.285 267.827 166.271 269.334C176.918 270.568 187.178 269.768 197.328 266.46C200.691 265.365 204.023 264.433 207.161 262.833L207.169 262.849ZM246.816 229.484C250.381 234.462 249.48 234.563 255.507 237.103C255.91 237.274 256.796 236.249 256.788 235.798C256.633 228.894 254.124 220.079 249.317 215.031C247.903 216.677 246.777 218.394 245.27 219.683L239.446 224.669C241.014 227.007 242.226 229.073 242.49 231.915L247.989 233.934L246.816 229.484ZM233.419 238.602C233.287 238.936 233.698 239.899 234.009 239.977C236.052 240.528 240.991 235.402 239.306 229.841C238.949 228.669 238.219 226.945 236.976 226.712C236.075 226.549 234.693 227.581 234.164 228.164C234.801 230.191 235.896 232.21 235.104 234.261L233.411 238.594L233.419 238.602ZM230.048 237.849C230.522 234.991 230.887 232.451 231.066 229.585C229.171 229.974 227.252 230.719 226.468 232.366C225.862 233.624 226.002 235.573 225.948 236.94L230.048 237.856V237.849ZM268.554 264.682C263.04 258.375 256.648 253.242 249.503 248.908C247.818 247.891 246.288 247.013 244.835 245.576C249.317 246.78 253.138 248.675 256.873 251.121C260.034 253.187 262.582 255.812 265.533 258.398C266.224 255.144 266.247 251.401 264.352 248.551C260.384 242.586 249.154 236.87 242.342 234.206C241.504 237.872 239.795 240.085 237.419 242.679C238.436 243.914 239.562 244.908 240.812 245.755C242.467 246.873 244.059 247.984 245.573 249.273C248.796 252.007 246.132 256.193 248.695 257.599L260.143 263.889C264.5 266.289 268.274 269.108 272.282 272.161C272.88 270.133 269.905 266.227 268.554 264.682ZM228.114 292.858C228.309 293.984 229.101 295.126 229.714 295.941C232.324 299.374 236.362 300.632 240.494 299.421C241.985 298.986 243.624 298.908 245.162 299.475C242.762 301.727 239.842 302.356 236.859 302.667C236.331 302.721 235.36 303.599 235.461 304.135L238.156 318.169C238.156 318.409 238.094 318.409 237.83 318.293L235.213 313.819C235.57 320.654 236.393 328.436 240.486 333.632C244.051 338.159 248.827 341.445 254.147 343.58C256.889 344.683 259.809 344.225 262.108 342.408L268.166 337.623C267.832 340.016 264.197 342.602 263.335 344.512C264.57 344.574 265.114 344.427 265.23 344.846C265.362 345.351 265.455 346.353 265.176 346.609C265.082 346.695 257.945 346.897 256.33 347.363C260.096 348.869 265.51 351.782 269.245 349.623L273.68 347.052C277.687 344.73 276.491 341.359 277.229 338.221C278.93 331.014 281.578 324.203 281.306 316.662C281.097 310.728 278.448 305.548 273.532 302.139C270.884 300.298 268.073 298.9 265.176 297.316C260.99 295.033 257.106 285.068 250.552 282.272C250.676 285.146 251.32 287.546 250.039 290.031C249.674 287.157 248.773 284.431 248.253 281.418L245.309 264.542C244.766 261.42 244.051 258.321 244.385 255.199C244.688 252.333 243.01 250.966 240.96 249.483L229.225 240.947C227.392 239.619 225.225 239.821 223.587 241.452C221.226 243.813 218.849 246.065 216.294 248.248C215.199 249.18 214.64 250.795 215.548 251.851C219.882 250.523 224.022 252.714 225.334 249.436L226.188 247.324C227.478 252.209 231.827 253.273 236.223 253.645C238.452 253.832 235.826 256.123 229.637 254.655C226.258 253.855 223.012 253.265 219.595 253.218C217.575 253.195 215.945 254.174 214.881 255.711L211.409 260.721C210.733 261.699 210.873 263.097 211.735 263.905C217.808 258.841 222.732 262.554 228.72 263.004C230.328 263.128 231.772 262.965 233.264 263.617C231.749 265.171 229.8 265.14 227.905 264.845L219.89 263.586C217.117 263.152 214.228 263.889 212.512 266.204C210.881 268.394 210.702 271.392 211.906 273.815C216.876 269.015 221.094 272.937 226.445 272.875C227.99 272.859 229.342 272.564 230.716 273.31C225.909 276.494 221.513 273.046 216.177 273.76C214.663 273.962 213.11 274.941 212.465 275.896C211.58 277.216 211.588 278.669 211.968 280.199C212.325 281.604 213.98 283.29 215.556 282.56C216.263 282.234 217.226 281.201 218.205 281.449L223.983 282.925C225.948 283.43 227.672 284.253 229.163 285.612L226.911 285.791L228.114 292.835V292.858ZM207.052 258.344C207.891 259.571 209.258 259.136 210.027 258.476C212.698 256.162 213.84 252.395 212.97 249.017C211.634 248.644 210.081 249.188 209.343 250.112C208.675 250.951 208.582 252.667 208.854 253.482L210.764 253.451C210.997 255.89 207.759 256.154 207.052 258.352V258.344ZM147.701 320.638C150.808 318.378 153.052 314.627 155.879 313.035C150.87 324.18 140.525 330.401 129.039 332.039L120.457 333.267C133.675 335.628 147.266 333.305 159.149 327.077C170.379 321.19 175.326 310.2 178.208 298.411L183.528 276.603L181.431 276.587L171.886 295.646C169.152 301.098 166.177 306.302 161.72 310.635C162.217 308.538 163.382 306.97 164.477 305.307C166.946 301.556 168.725 297.681 170.503 293.549L176.041 280.688C176.639 279.29 177.074 277.9 177.307 276.401C167.894 276.611 159.436 275.135 150.839 271.92L146.257 280.23C142.886 286.342 132.308 302.869 125.862 305.797C129.792 299.242 134.949 294.784 138.824 288.501L148.99 271.477L138.343 267.019L132.479 277.985C129.512 283.538 118.43 299.125 112.69 301.805C115.168 297.96 117.715 294.893 120.263 291.359C126.15 283.212 131.532 274.949 137.077 266.281C128.565 261.979 120.806 257.342 113.017 251.921L109.506 257.94C107.06 262.383 104.404 266.491 101.515 270.662L96.9168 277.294L87.3486 291.375L69.4315 318.767C68.5384 320.126 67.9249 321.454 67.2958 323.108C71.9789 319.885 76.0796 316.763 80.0016 312.942C84.2809 308.771 87.8534 304.236 91.7211 299.692C94.5714 296.353 97.2663 293.285 99.9302 289.759C106.205 281.441 112.38 273.349 119.214 265.241C116.558 270.864 113.187 275.609 109.871 280.634L101.856 292.78C96.4664 300.951 90.0746 308.173 83.1004 315.031C79.9162 318.161 76.5611 320.732 73.0662 323.465C70.2082 325.702 67.3812 327.745 65.0668 330.548C63.8009 332.078 63.7621 334.191 65.1057 335.682C67.1249 337.919 69.8742 340.971 72.5226 340.295C73.2293 340.116 74.1302 339.317 74.503 338.377C76.7708 332.568 80.9025 327.931 86.5176 324.972C90.1057 323.085 93.818 321.796 97.6857 320.475C103.899 318.347 109.63 315.738 115.238 312.344C117.008 311.272 118.655 310.2 120.573 309.602C117.35 312.701 113.863 314.876 110.135 317.159C105.227 320.165 99.9612 322.238 94.6568 324.615C89.3523 326.991 81.3685 331.674 79.9317 338.136C81.2132 338.392 82.3859 338.284 83.4965 337.81L98.9438 331.224C103.751 329.174 108.729 327.892 114.003 327.605C123.136 327.1 140.277 326.052 147.725 320.646L147.701 320.638ZM283.256 293.347C283.434 291.639 283.062 290.202 282.487 288.656C279.373 281.302 272.088 275.12 265.642 270.638C259.809 266.584 254.264 262.81 247.787 259.229C248.09 262.794 248.633 265.714 249.138 269.023C249.27 269.877 249.752 270.537 250.59 270.887C260.834 274.654 270.418 279.546 278.239 287.274C280.118 289.13 281.415 291.165 283.256 293.339V293.347ZM208.108 269.66C208.232 267.99 208.24 267.33 208.085 265.947L199.068 268.534L208.116 269.66H208.108ZM285.889 320.693C288.545 316.817 289.073 312.336 287.318 308.033C285.5 303.583 283.233 299.32 280.157 295.561C276.926 291.615 273.455 288.105 269.587 284.789C265.044 280.89 255.538 274.226 249.954 272.184C249.713 274.296 250.42 275.912 251.662 277.387C254.435 280.657 257.27 283.725 260.291 286.8C262.683 289.231 265.385 290.979 268.36 292.633C281.353 299.855 283.582 306.325 285.896 320.7L285.889 320.693ZM174.798 334.548C179.38 338.633 184.522 327.24 185.694 324.188C187.085 320.545 187.706 316.918 188.778 312.965C189.43 318.192 188.646 323.225 187.116 328.265L184.755 336.055C194.867 332.241 196 322.72 195.433 313.02C194.742 301.106 194.463 289.565 194.579 277.519C192.459 277.061 190.541 276.75 188.304 276.533L186.867 286.241C185.997 292.136 185.345 297.891 184.296 303.77C183.582 307.801 183.372 311.684 181.873 315.769C181.361 310.239 182.557 303.622 182.308 298.24L178.976 308.041C174.635 319.512 169.533 328.42 157.914 334.129C164.267 335.371 170.333 333.391 175.148 329.5C176.779 328.18 178.332 327.022 180.165 325.741C179.241 329.407 176.864 331.628 174.79 334.556L174.798 334.548ZM203.021 294.97C202.78 289.806 202.773 285.092 202.866 279.779C201.608 279.197 200.427 278.832 198.781 278.428C197.53 288.245 198.509 298.279 199.379 307.863L200.241 317.392C204.435 312.336 203.332 301.743 203.021 294.978V294.97ZM215.331 286.73C214.283 286.303 213.7 286.117 212.83 285.992C212.652 291.709 212.178 296.935 213.498 302.387L215.331 286.73ZM211.37 353.987C211.168 355.595 211.657 356.558 213.195 356.713C214.127 356.806 215.137 356.045 215.3 354.81L217.187 340.272L223.649 291.476C223.858 289.899 223.649 288.493 222.391 287.491C221.894 287.095 220.542 286.987 220.037 287.328C219.602 287.616 219.121 288.555 219.043 289.223L216.675 310.511L213.739 335.169L211.378 353.979L211.37 353.987ZM236.122 362.903C240.37 366.064 249.511 358.329 252.384 355.191C246.909 355.463 243.01 352.574 241.465 347.696C240.207 343.72 238.219 337.189 236.246 334.276L238.079 349.747C238.584 353.979 241.255 358.523 246.257 359.276C244.245 359.719 241.923 359.649 239.974 358.732L236.254 356.985C236.075 359.09 236.005 360.829 236.122 362.895V362.903ZM180.149 341.584C176.856 340.66 173.82 339.184 170.433 338.548C168.119 338.113 165.696 338.486 163.312 338.322C160.135 338.105 157.114 337.445 154 336.87L146.777 337.841C152.656 338.92 158.256 340.031 164.073 341.561L177.866 345.188C182.106 346.298 186.083 347.65 189.989 349.382C193.018 344.551 183.155 342.431 180.149 341.592V341.584ZM150.326 347.324C162.232 348.846 173.765 350.485 184.863 354.321L193.173 357.195C193.671 356.799 194.02 355.649 193.787 355.207C192.537 352.853 180.817 349.273 177.827 348.504L157.751 343.332C152.485 341.973 147.375 340.746 141.931 340.039C127.92 338.221 102.975 337.732 89.4145 340.52L75.8699 343.308C74.5185 343.588 73.1827 343.961 72.3517 345.289C76.7009 345.53 80.5608 345.297 84.7469 344.97C100.59 343.743 115.913 342.92 131.734 344.939L150.326 347.316V347.324Z" fill="currentColor"/>
<path d="M141.449 70.3906C137.861 69.4741 134.513 69.8624 131.236 71.1284L123.943 73.9476C125.178 72.1924 126.638 71.2604 128.168 70.0644C134.809 64.8609 140.509 66.1268 147.872 68.0684C149.464 68.4878 150.823 68.4567 152.508 68.2781C152.275 69.4431 151.794 70.7012 151.172 71.2759C150.365 72.0215 148.928 72.3089 147.872 72.0448L141.441 70.4061L141.449 70.3906Z" fill="currentColor"/>
<path d="M139.896 79.4836C138.964 78.5283 138.324 76.6811 138.068 75.5549L131.585 78.4429C130.902 78.6603 129.613 78.4196 128.712 78.1555L134.933 74.2801C137.472 72.7035 140.509 71.9269 143.398 72.1443C145.433 72.2997 147.056 73.8607 146.885 75.7945C146.885 75.7945 146.304 75.5061 145.868 75.9164C145.579 76.189 144.939 76.9842 144.939 76.9842L144.68 77.3866C144.55 77.6644 143.973 79.3826 142.575 80.0428C141.907 80.3534 140.486 80.1127 139.88 79.4913L139.896 79.4836Z" fill="currentColor"/>
<path d="M138.979 169.529C135.772 173.559 130.747 175.804 125.497 176.208C118.794 176.72 117.761 179.027 113.063 182.553C111.447 174.274 119.687 175.151 122.134 165.948C122.53 169.645 120.355 172.402 118.266 175.485L130.801 173.629C133.83 173.179 136.067 170.926 138.971 169.529H138.979Z" fill="currentColor"/>
<path d="M102.679 93.0916C103.052 93.4644 103.331 95.173 102.772 95.1574C100.326 95.1031 98.3374 93.0061 98.3452 90.8471C98.0112 91.5849 97.3433 92.6489 96.9395 92.4314C95.5105 91.6548 95.5804 89.5889 96.3337 88.3153C97.6462 86.1018 101.483 86.5057 101.964 87.0804C102.974 88.292 100.17 90.5908 102.671 93.0916H102.679Z" fill="currentColor"/>
<path d="M115.619 159.06C112.8 154.105 110.975 148.63 109.413 142.968C108.07 138.114 107.666 133.26 107.27 128.235C107.161 126.822 107.045 125.493 107.231 124.228C108.264 130.627 109.289 136.638 110.819 142.813L115.619 159.06Z" fill="currentColor"/>
<path d="M96.2253 83.2818C95.6117 82.7615 94.3225 82.4741 93.7167 82.7693C93.1653 83.0333 92.2023 83.973 92.1013 84.6099L91.2936 89.9066C90.2917 87.864 90.3306 85.6894 90.8043 83.5925C91.2781 81.4956 93.3206 80.3151 95.4719 80.7344C97.6232 81.1538 100.706 83.9264 100.046 85.503C99.9298 85.7904 99.06 85.6972 98.8037 85.4797L96.2175 83.2818H96.2253Z" fill="currentColor"/>
<path d="M111.999 91.1722L113.118 90.0073L111.386 89.7044C114.275 87.7162 116.03 85.3552 115.719 81.6895C117.242 82.8 117.451 84.4077 117.397 86.1629C117.304 89.0054 115.09 91.7081 112.007 91.18L111.999 91.1722Z" fill="currentColor"/>
<path d="M103.379 175.733C102.167 172.603 101.647 169.427 101.476 166.064L99.8682 158.398C103.091 163.548 104.497 169.528 103.379 175.741V175.733Z" fill="currentColor"/>
<path d="M152.563 98.6217C151.639 99.3129 150.171 99.0256 149.332 98.1091C148.377 97.0684 148.082 95.6783 148.493 94.2182C148.804 93.1153 150.109 92.0281 151.359 91.8184C150.575 93.0377 149.93 94.1172 150.078 95.4841C150.194 96.5481 151.32 97.4801 152.563 98.6217Z" fill="currentColor"/>
<path d="M158.784 97.6268L152.532 97.518C154.28 95.1493 157.285 95.5764 158.784 97.6268Z" fill="currentColor"/>
<path d="M139.491 82.1716L144.702 80.6416C143.895 82.622 141.371 83.3521 139.491 82.1716Z" fill="currentColor"/>
<path d="M96.8163 96.6408C94.6961 96.4855 93.2515 95.0409 93.3602 92.8818L96.8163 96.6408Z" fill="currentColor"/>
<path d="M182.727 246.577C169.944 248.535 151.747 245.614 140.237 239.611C151.646 242.749 162.783 244.372 174.487 244.364C179.527 244.364 184.296 244.45 189.267 243.914C193.926 243.409 198.369 242.702 202.865 241.801C193.616 241.584 184.933 241.296 175.893 239.961C166.853 238.625 158.364 237.359 150.023 234.136C167.202 236.473 183.721 238.609 200.784 239.735L216.371 240.76C214.267 241.591 212.271 242.042 210.034 242.384L202.306 243.572L182.719 246.577H182.727Z" fill="currentColor"/>
<path d="M61.8815 277.069C62.6426 279.36 63.4581 281.441 63.9085 283.88C60.0409 276.572 57.0353 268.883 55.6218 260.612C53.5326 248.388 53.5559 235.985 55.2878 223.846C55.2878 233.864 55.3966 243.301 56.9731 253.055C57.3459 261.404 58.907 269.318 61.8893 277.077L61.8815 277.069Z" fill="currentColor"/>
<path d="M89.4693 264.395C86.5259 262.399 84.6387 259.626 82.7592 256.791C78.5964 250.508 75.5908 243.775 73.4007 236.552C71.63 230.704 69.7194 225.143 69.3389 218.853L74.3948 234.603C77.8353 245.313 83.2096 254.788 89.4693 264.395Z" fill="currentColor"/>
<path d="M243.158 264.495C242.536 265.714 241.977 266.67 241.325 267.78L241.068 260.053C242.94 260.387 244.121 262.616 243.158 264.503V264.495Z" fill="currentColor"/>
<path d="M239.337 278.475L236.665 273.062C236.58 272.246 238.319 272.029 239.446 272.339L239.329 278.483L239.337 278.475Z" fill="currentColor"/>
<path d="M98.1973 61.7702C100.084 57.9103 108.954 53.0563 112.79 51.3866L128.642 44.4745C131.849 43.0765 134.855 41.6863 138.101 40.467C139.98 40.0554 141.705 39.737 143.631 40.1797C139.662 41.0417 136.074 42.4707 132.253 44.1405L115.276 51.5419C109.047 54.2524 103.377 57.3434 98.1973 61.7702Z" fill="currentColor"/>
<path d="M55.3507 186.622C53.6265 185.542 53.8906 183.243 54.6672 181.807C54.7915 182.956 54.776 184.121 55.4672 184.898C56.9661 186.575 60.4532 185.247 61.6803 182.917C62.3637 181.62 61.9366 180.145 61.6026 178.529C64.383 180.129 64.0568 183.733 61.9055 185.667C60.1425 187.243 57.5796 188.02 55.3507 186.63V186.622Z" fill="currentColor"/>
<path d="M140.292 74.8829C142.45 74.3786 144.633 74.905 145.629 75.8769C146.661 76.8833 143.201 75.5607 140.636 76.16C138.072 76.7593 135.583 77.5877 136.156 76.8773C136.642 76.0951 138.134 75.3872 140.292 74.8829Z" fill="currentColor"/>
</g>
<defs>
<clipPath id="clip0_1199_1755">
<rect width="295" height="310" fill="white"/>
</clipPath>
</defs>
</svg>

