<svg width="296" height="292" viewBox="0 0 296 292" fill="none" xmlns="http://www.w3.org/2000/svg">
<path d="M214.913 224.213C215.497 229.809 219.437 248.57 220.995 252.791L223.876 260.592C225.525 265.056 222.072 271.481 218.543 274.339C220.133 267.646 225.166 266.413 221.509 258.221C217.007 248.132 211.76 216.839 209.956 204.598C208.387 193.958 207.696 183.685 207.777 172.582C206.154 174.876 204.425 177.395 203.981 180.235C203.038 186.257 203.087 192.244 202.867 198.35C202.819 199.761 202.728 200.869 202.198 202.12C201.732 201.314 201.464 200.532 201.438 199.684C201.293 194.616 201.7 178.682 204.232 175.161L206.369 172.197C210.577 166.352 220.706 148.651 229.594 152.819L226.574 148.527L226.911 145.267L221.75 137.306C218.629 141.716 215.984 146.067 213.436 150.78L205.748 164.959C207.225 158.93 210.223 154.135 212.906 148.948C215.513 143.915 218.586 139.44 221.975 135.041C223.271 133.358 223.721 131.573 222.693 129.511C221.745 127.608 220.133 126.203 218.254 125.296C214.699 123.583 216.76 120.797 213.645 119.344C211.926 118.544 210.748 117.187 209.624 115.592C207.338 112.356 203.231 111.312 200.431 114.175C204.061 113.618 207.498 114.667 209.003 118.414C206.267 116.95 203.815 115.515 200.87 115.616C197.047 115.746 193.605 117.282 190.35 119.303C188.508 120.453 183.459 123.767 181.773 123.387C187.1 120.566 190.237 117.566 195.147 114.774C192.663 113.683 190.403 114.359 188.224 115.9C183.957 118.924 179.76 121.781 174.995 123.826C171.268 125.42 167.649 124.513 159.854 128.942C152.541 133.097 148.723 136.814 142.181 140.637C135.13 144.763 127.618 141.894 121.863 136.719C118.436 133.636 115.272 130.613 112.263 127.027C109.544 123.784 108.96 118.242 109.897 118.206C110.057 118.2 109.41 117.833 109.217 117.886C107.969 118.212 105.55 119.255 104.875 120.856C104.152 122.563 104.746 124.917 105.405 126.665C108.483 134.822 111.985 142.427 115.599 150.436C114.603 150.412 113.977 149.665 113.57 148.835C110.309 142.261 107.311 135.693 104.789 128.746C103.777 125.96 103.456 123.411 103.981 120.37C96.9244 118.491 91.9185 120.323 85.8686 123.796C81.8693 126.09 79.1067 125.966 77.8485 130.56C76.5903 135.154 76.2905 139.718 76.1139 144.532C75.8622 151.509 76.3601 158.077 77.8271 164.834C78.6677 168.699 79.5457 172.588 82.0245 175.617L82.9561 140.584C82.9722 139.926 83.106 139.511 83.529 139.22L83.62 159.819C83.6414 164.265 83.2506 168.51 83.454 172.914C83.6146 176.275 84.5837 179.476 85.4617 182.671C85.783 183.839 86.0293 184.746 86.0614 186.086L84.0804 182.612C84.1982 191.93 83.9252 200.644 82.576 209.577C82.4475 210.425 82.2441 211.243 81.6498 211.753L82.8491 190.751C83.0097 187.929 83.0471 178.196 80.2471 176.607C80.2203 183.608 80.1239 189.962 79.7331 196.69L78.5981 216.169C78.4803 218.208 78.9621 220.01 80.0168 221.469L80.6004 218.777C80.6379 218.149 80.7075 218.291 80.8842 218.902C81.2589 222.684 80.5255 226.175 79.4493 229.679L75.1983 243.484C74.1972 246.733 75.6641 249.726 78.507 250.776C79.4333 251.119 80.6272 252.009 80.9002 252.999C81.6605 255.719 80.8895 258.428 79.5671 260.687C78.657 262.24 78.9835 263.473 79.7759 265.453C78.9889 265.18 78.0841 264.599 77.7414 264.018C76.4351 261.807 78.5178 259.727 79.2512 256.17C79.6474 254.243 78.6302 252.809 77.1686 252.258C72.3608 250.444 72.773 244.86 74.1543 240.432L78.4749 226.555C79.7492 222.458 76.6974 220.591 76.8688 218.297C77.8646 204.817 78.6462 191.628 78.5499 178.136C78.5338 175.848 78.2394 173.922 77.2703 171.918L69.1056 174.04C60.3252 176.316 46.5497 177.757 37.3517 177.775C31.0877 177.787 25.086 177.182 19.0147 175.493C16.9748 174.923 14.844 173.133 14.3461 170.798L12.0493 160.009C10.4859 152.665 9.32948 145.456 9.8381 137.881L11.3104 115.942L12.9808 94.6848C13.1575 92.4441 13.211 90.2685 13.2646 87.9626C12.9434 87.4113 12.7774 87.2217 12.7453 87.8678L10.1647 92.859C9.64536 93.8667 8.52104 94.5899 7.36995 94.2995C5.07314 93.7185 -1.39436 90.9265 0.270701 87.4943L6.14927 75.3838L3.68648 69.1478C1.78585 64.3463 -0.334288 58.9935 0.190393 53.8718C0.329594 52.5262 1.98394 51.6489 3.07614 52.2595C4.2647 52.9234 5.0892 53.7414 6.25635 54.7314C6.38484 52.4788 8.40861 51.3644 9.5008 50.2796C10.154 47.0964 12.333 45.8871 14.9778 45.3832C18.3187 42.0281 17.553 42.6268 22.5536 42.3186C23.967 38.0268 27.174 34.2864 28.052 29.8346C28.6035 27.0545 28.0467 23.7468 31.259 22.247C30.5576 19.5143 30.5898 16.9535 31.1305 14.3571C31.5802 12.1876 33.1061 10.8064 34.7551 9.73938C36.9502 8.32263 38.7812 6.98888 40.9495 5.29353C41.4367 6.15306 41.6081 7.20821 41.5652 8.44119C47.0262 7.30898 43.3802 1.50566 48.6538 0C49.4408 2.54303 50.185 5.22832 50.2546 7.97882C50.2974 9.75123 49.1999 11.162 48.445 12.9997L50.0726 12.7922C51.3307 19.4254 48.2683 26.4202 42.5289 29.1766C42.9626 32.7748 40.9228 35.2408 38.0102 36.2841C37.1911 37.5585 36.3987 39.3132 35.7295 40.9196C36.4951 41.4057 37.6408 41.8147 37.9728 42.4549C39.0168 44.4644 36.6611 47.0608 36.8217 51.5126L37.3678 66.4684C37.5391 71.181 32.7474 83.908 32.7688 86.4748C32.8384 95.1768 34.209 103.541 35.4297 112.172L40.0233 144.638C47.4277 142.273 54.4842 139.914 61.5888 137.122C66.327 135.261 70.4923 132.664 74.7433 129.789C76.5636 128.936 77.6129 127.288 79.0853 125.948C82.5278 122.818 86.7199 120.773 90.9388 119.208C94.74 117.797 98.5306 117.495 102.482 118.111C106.128 118.68 107.086 113.82 112.692 116.985C115.192 115.859 117.735 114.478 120.139 113.014C122.543 111.549 124.069 109.048 124.374 105.959C125.022 99.3084 124.85 92.6871 124.24 86.0361C117.928 84.3645 116.975 81.0271 114.662 75.2179C110.004 72.5444 106.765 62.888 108.521 57.5589C103.606 51.8208 105.967 45.7863 108.162 39.8526C109.699 35.7031 109.244 30.5756 113.821 27.6295C115.031 26.8529 116.584 24.7841 117.542 23.4504C121.349 18.1746 123.801 20.1604 128.154 16.9713C132.506 13.7821 136.913 13.7644 141.624 12.9167C147.005 11.9504 152.46 12.1876 156.267 17.2203C162.311 17.9553 166.247 22.7865 170.214 27.3924L174.566 32.4429C176.157 34.2864 175.541 36.9835 176.371 38.75C178.432 43.1307 179.722 46.8593 179.647 51.8801C179.578 56.4979 179.364 61.003 178.678 65.5437C178.121 69.2308 177.795 72.3251 175.648 75.4905C175.054 79.4385 173.978 83.6294 169.684 84.3467C168.163 88.8577 168.04 91.0392 163.254 93.0072C163.639 99.8716 165.909 105.645 171.777 108.331C177.056 110.749 182.496 112.581 188.208 113.245C189.814 113.055 191.592 111.97 193.23 112.166C194.702 112.344 196.378 113.262 197.781 112.842C199.184 112.421 200.383 111.786 201.646 111.306C205.25 109.931 208.751 111.407 211.08 114.715C211.969 115.971 212.959 117.068 214.271 117.756C218.276 119.854 216.461 122.279 219.652 124.099C225.305 127.335 226.108 130.868 224.556 137.59C225.295 139.291 226.392 141.188 227.42 142.724C230.365 147.128 226.917 147.14 230.563 151.1C232.169 152.842 232.367 154.751 231.168 156.939C231.425 158.172 232.03 159.606 232.704 160.827C234.493 159.203 236.013 157.751 237.4 155.8C239.204 153.263 239.616 146.814 243.177 142.896C246.309 139.452 249.077 138.9 250.345 135.154L255.325 120.5C255.865 118.906 256.845 117.234 257.145 115.616C257.514 113.612 257.632 111.864 258.537 110.127L263.061 101.448C263.371 100.85 264.335 100.322 264.94 100.779C265.877 101.472 266.396 102.397 267.017 103.594L269.502 101.84C270.08 101.431 271.204 101.354 271.804 101.68C272.328 101.97 272.976 103.256 272.869 103.944L272.243 107.815L272.532 108.159C273.801 106.475 274.582 104.827 276.151 103.997C279.165 102.415 281.783 100.903 284.707 98.6682C284.835 100.322 284.701 102.077 284.482 103.671C285.536 103.511 286.848 103.375 287.635 103.873C288.663 104.519 288.54 106.202 287.956 107.104L284.316 112.711C286.789 112.729 289.477 109.86 291.704 111.419C292.754 112.154 292.475 113.826 292.229 114.928C293.942 115.088 295.752 116.043 295.73 117.821C295.73 118.206 295.302 118.876 295.008 119.101L292.416 121.075C289.814 123.061 290.119 123.761 287.089 125.361L286.629 125.604L286.158 125.978C285.735 126.233 285.74 126.233 286.168 125.972L288.711 125.818C289.6 125.764 290.355 127.335 290.253 128.254C289.964 130.85 292.946 129.949 292.871 133.103C292.845 134.271 292.004 135.255 290.955 135.758L281.441 140.364L268.516 146.215C269.78 148.071 271.306 149.564 271.75 151.74C272.484 155.326 270.401 158.699 267.505 160.217C266.257 160.869 265.706 161.586 265.743 163.222C265.872 168.936 263.211 168.853 262.295 171.657L259.795 179.316C258.194 184.224 254.28 185.439 250.024 186.412L247.224 200.846C245.163 211.468 240.323 220.722 232.303 227.159L234.123 245.553L235.82 264.226C236.233 268.778 235.917 277.166 231.832 279.697C230.076 277.468 228.475 275.506 226.392 273.746C224.663 272.288 223.87 269.798 224.85 267.403C227.452 261.06 232.308 261.665 230.863 257.818L224.17 239.981C223.265 237.568 222.205 235.47 221.659 232.791C223.292 234.877 224.036 237.236 225.054 239.679L232.753 258.09C233.293 259.383 232.838 260.527 231.933 261.375C229.733 263.431 223.474 268.512 226.762 271.713C228.432 273.337 230.017 274.89 231.569 276.65C231.708 276.81 232.083 277.267 232.158 277.113L232.576 276.33C234.535 272.685 234.915 268.44 234.46 264.137L232.249 243.36L230.729 229.447C230.338 225.885 226.183 231.878 219.475 226.981L215.481 224.065L214.913 224.231V224.213ZM32.7045 22.0811C35.5314 23.5926 38.2994 25.3413 40.896 27.1849C45.8323 25.8037 48.8305 20.605 48.6538 15.0803L45.6288 17.3862C45.7359 15.5249 46.2017 14.0667 46.9298 12.5254C49.2588 7.59351 49.6603 8.26928 47.856 1.86726C45.3451 4.40436 47.4384 7.143 43.9531 9.01618C42.9947 9.5319 41.7366 10.178 41.0245 10.9664L38.2405 14.0311L40.3499 7.7832L35.1352 11.5474C31.7408 13.9955 31.3661 18.3584 32.7153 22.087L32.7045 22.0811ZM126.58 98.852C126.606 101.958 126.349 104.851 125.868 107.661C125.337 110.737 123.78 113.126 121.36 114.703C118.19 116.766 114.887 118.301 111.401 119.896C111.423 122.901 112.568 125.616 114.544 127.489L122.778 135.302C125.22 137.614 128.057 139.291 131.045 140.406C134.75 141.793 138.267 141.242 141.576 139.06L155.175 130.103C165.931 123.02 168.747 124.97 175.696 121.65C179.262 119.949 182.34 117.88 185.676 115.266C177.624 111.899 165.824 111.478 162.702 101.022C159.747 91.1221 160.443 81.9933 160.555 71.8983C159.704 70.4401 159.094 68.9107 160.052 67.5888C160.523 68.5135 161.166 69.5153 161.787 69.6813C164.137 70.3156 165.658 66.5158 166.086 64.121L161.787 63.6824L160.422 59.7048C158.714 58.0865 157.67 56.2311 157.472 53.6703L157.124 49.2422C155.357 47.9085 155.073 45.8219 154.157 44.0139C153.51 42.7394 152.375 41.542 152.118 39.817C149.762 39.9415 148.921 37.0191 147.513 36.0944L143.037 33.172C142.154 32.591 140.114 32.0516 138.995 31.7434C138.358 31.5655 133.331 32.1761 133.759 29.4315C135.199 29.7753 136.302 30.1369 137.603 29.9413C140.162 29.556 139.279 24.4225 139.081 22.3241C141.324 24.4462 140.778 27.4931 140.077 30.2851C140.826 31.032 142.395 31.6782 143.418 31.115C144.569 30.4808 144.719 28.8269 144.729 27.6058L144.745 24.8553C146.378 27.096 146.1 29.7694 144.906 32.1939C145.093 33.332 146.662 34.1026 147.572 34.0611C148.937 33.9959 149.826 33.0238 150.222 31.6248L150.892 29.2537C152.396 31.6604 150.613 33.7351 149.478 35.5016C149.451 37.606 152.578 38.9338 154.248 37.7482L156.465 36.1655C156.444 38.1454 154.431 38.5188 153.815 39.8941C153.199 41.2693 155.416 43.018 156.711 42.8402L160.347 42.3423C159.201 43.6879 157.712 44.0673 155.855 44.4289C156.904 49.017 161.38 50.8902 165.69 49.0288C164.148 51.5896 161.171 51.6549 158.746 50.5582C158.639 52.9471 158.805 55.5257 160.288 57.2566C161.251 58.3829 162.777 58.128 164.426 59.1002L161.937 60.1731C163.136 62.3249 165.551 62.8169 167.606 62.0581C169.454 61.3764 170.84 59.3195 170.904 56.7824C170.947 54.9685 170.514 53.1605 170.139 51.3407C169.288 47.2031 168.565 50.2796 168.998 45.2173C169.127 43.7116 168.683 42.532 167.483 41.9214C163.987 40.149 167.676 35.5964 162.975 32.2413C161.958 31.5181 160.968 30.3148 160.636 28.9573C159.827 25.6437 157.654 23.403 154.554 22.6916C153.981 22.5612 153.258 22.087 152.91 21.5238L154.891 18.6726C154.147 16.995 152.567 16.0347 151.24 15.2463C147.663 13.1064 144.344 14.1793 140.832 14.944C137.86 15.5901 134.98 15.4419 132.051 16.8172C130.054 17.7597 127.988 19.544 126.066 20.2197C122.95 21.3104 120.342 21.8084 118.415 25.0687C116.263 28.7083 110.957 31.5418 110.363 36.5923C110.191 38.0683 110.207 39.5681 110.149 41.1626C107.118 44.583 106.213 49.7165 108.296 54.0082C109.356 56.2015 111.321 56.7646 113.163 58.4422C112.151 58.7979 111.235 58.5667 110.229 58.2584C109.404 60.6888 109.715 63.4512 110.775 65.8164L111.749 67.9919C112.012 67.5769 112.279 67.0434 112.499 67.1146C112.702 67.1798 115.288 68.1638 115.288 69.3256C114.169 69.3316 113.35 69.1952 112.253 69.0115C112.783 71.2462 114.319 72.6808 116.07 73.6114C116.493 74.3524 116.744 74.9511 117.601 75.5617L115.813 68.3298C114.432 62.7339 114.587 59.4677 114.341 53.5992C114.212 50.5582 111.08 53.5518 110.223 50.0721C111.573 50.4397 112.954 51.5126 113.778 50.0069C114.341 48.9814 114.383 46.5925 113.816 45.6856C112.36 44.9979 110.593 44.3459 110.994 42.366C111.835 43.107 112.676 43.9665 113.521 43.8776C115.245 43.7057 116.552 41.3108 116.14 39.7696C113.987 38.1454 113.211 35.3475 114.351 32.763C114.865 34.8377 114.812 36.7879 116.386 37.7601C117.366 38.3707 119.02 37.3748 119.288 36.1892C118.12 34.4524 117.012 32.0101 118.41 30.1014C118.731 31.7315 118.683 33.5632 119.994 34.3753C121.06 35.0333 122.5 34.1026 123.303 33.3498C120.739 31.281 121.777 24.5115 123.812 23.6341C123.474 25.8096 122.966 27.5406 123.014 29.3189C123.057 30.9609 124.202 32.182 125.685 32.0753C127.608 31.939 129.605 31.038 131.296 30.0302C130.889 27.5761 130.531 25.1932 132.046 23.3911C132.019 25.6911 132.148 27.9081 132.324 29.8702C130.718 32.9764 127.051 34.0493 124.047 33.7173C123.362 35.4245 121.697 35.6202 120.706 36.6101C119.903 37.4163 118.661 38.4892 118.158 39.5918L116.236 43.8005C115.915 44.5059 115.497 45.3536 115.411 46.391C116.621 43.9369 122.313 41.0619 125.241 42.6565C127.008 43.6168 128.009 46.308 128.014 48.4657C128.031 55.5909 125.434 58.0391 128.047 59.6574L131.104 61.5543L128.421 62.4257C127.806 62.6272 126.778 62.8999 126.323 62.5561C124.641 61.2816 125.664 58.2584 126.119 56.1126C126.847 52.6922 127.254 48.9992 125.985 45.7685C123.871 44.1325 116.712 44.5356 115.54 48.2642C115.085 49.7105 115.567 51.8742 115.711 53.451C115.974 56.2904 115.85 59.0113 116.263 61.7914C117.023 66.9604 118.522 71.8983 120.176 76.7176C121.349 80.1439 123.539 82.4498 126.194 84.3467C129.192 86.4925 132.442 87.3461 136.072 86.7652L140.682 86.0302C139.145 88.9644 136.559 89.9188 133.802 90.2271C131.312 90.5057 129.171 89.5276 126.489 88.3242L126.574 98.8461L126.58 98.852ZM164.105 71.4774C163.082 72.1888 162.14 72.6748 162.097 74.1212L161.888 82.0763C161.814 84.9513 161.985 87.7789 162.445 90.6301C166.097 90.3219 168.233 86.0776 167.221 82.4794C166.659 81.5725 165.39 80.9797 165.775 79.5392C166.916 80.8078 168.003 81.9696 169.288 81.9637C172.96 81.94 173.592 77.6245 173.881 74.2516C176.306 71.8983 176.269 68.9462 176.842 65.8697C177.698 61.2816 177.918 56.9306 177.816 52.1587C177.725 47.6951 177.629 43.3678 174.593 39.9356C174.775 35.2289 173.276 33.089 170.123 30.1014C169.239 29.2656 168.763 28.3112 168.088 27.2501C165.245 22.7924 160.791 19.7751 155.865 18.8089C155.33 18.8978 154.693 20.2968 154.671 20.8007C162.483 23.397 160.919 28.1037 163.329 30.5163L166.145 33.338L167.633 29.6746C168.179 31.4173 167.414 32.7985 166.98 34.6124C166.589 36.2366 167.151 39.1176 168.297 40.2735C172.221 44.2392 169.802 44.2095 170.572 48.5309L173.116 46.4147C173.089 48.2345 171.226 49.1415 171.515 50.825L172.462 56.3556L176.633 53.3265C176.381 55.911 173.892 56.6579 172.35 57.3989C171.734 59.7819 171.113 62.3545 168.816 63.4927C166.354 64.7197 168.067 68.7269 164.116 71.4656L164.105 71.4774ZM38.0317 34.2805C39.5468 33.4328 41.0405 31.7908 40.9228 30.0184C39.8573 27.2797 31.0395 20.3027 29.7171 25.8452C29.4869 26.8174 29.3637 27.7303 29.3691 28.7913C33.0525 29.1411 35.6545 31.1506 38.0263 34.2805H38.0317ZM27.1419 54.2512L29.8616 48.7206L36.9555 34.2093C35.087 32.0931 32.8009 30.6764 30.2632 30.297L23.8117 43.5338L25.9212 45.2647C27.2757 46.3732 27.3025 48.6435 25.9372 49.8054L24.4328 51.0858C25.3108 52.3069 26.0175 53.1724 27.1365 54.2572L27.1419 54.2512ZM76.767 168.201L75.0591 157.282C73.7207 148.723 74.7218 140.305 75.814 131.455C70.1282 135.474 64.4906 138.278 58.264 140.43L35.6492 148.225L37.6837 145.053C37.6997 142.22 37.5766 139.357 37.1643 136.494L34.0644 114.982C32.7367 105.752 31.7516 96.7358 31.1251 87.4291C30.9592 84.9395 31.3072 82.7462 32.0942 80.541C33.2239 77.3874 34.134 74.3109 34.9478 71.0328C35.6224 68.3179 35.7616 65.6208 35.5368 62.7873C35.1459 57.8316 35.253 53.0657 35.3601 48.1752C35.3922 46.883 35.3065 45.8575 35.9329 44.6304C36.1739 44.1562 36.2702 43.1781 35.9329 42.9706C33.3363 41.3701 30.4934 48.6139 30.397 49.9595L29.5565 61.6432C29.535 61.9514 28.9568 62.6983 28.823 62.5087L28.0841 61.4179C26.0282 62.811 24.5934 65.5259 24.0527 68.3238L23.1264 73.1194C22.3876 71.5367 22.2859 70.6712 21.8736 68.9996L15.1384 83.09C14.9992 83.3804 14.8761 84.1688 14.9136 84.4771C14.9511 84.7853 15.4543 85.1647 15.7434 85.3425L17.4406 86.3621L15.0046 87.1564L12.7131 122.267C11.7066 137.673 11.6102 145.61 14.6941 160.732L16.7821 170.958C17.114 172.57 18.8219 172.689 20.0319 172.991C39.6057 177.846 57.7072 174.265 76.7884 168.207L76.767 168.201ZM23.6351 48.2819C22.7517 47.6654 22.136 47.2446 21.9539 46.7288C23.2282 46.8237 24.2561 47.1734 25.0378 45.9938C23.3352 44.2214 17.628 42.3838 16.6054 46.4977L19.2181 47.7069C20.6851 48.3886 22.1146 49.1355 23.6351 48.276V48.2819ZM8.48356 58.2703C8.31759 58.1576 7.94817 57.5589 8.1195 57.4997C11.1873 56.4919 15.7541 61.0919 18.4418 59.9004L16.4341 58.3829L18.9611 58.543C19.1217 58.5548 19.625 58.1399 19.6036 57.962C19.2502 55.5494 9.74173 51.4592 11.1177 51.1154C13.2325 50.5878 19.7321 55.3775 21.7184 57.1203C22.6714 57.9561 23.8546 58.3711 24.8343 57.8138C25.5303 57.4167 26.478 56.3734 26.4994 55.3657C24.6951 53.0953 21.6006 49.426 19.3627 48.5309C16.6001 47.4283 13.9767 45.8338 11.6852 48.1456C10.9196 48.9162 10.7804 50.1492 10.7536 51.5304C8.48356 51.7912 7.06478 53.8541 7.53057 56.3734C7.88393 58.2999 8.94935 62.0819 8.64953 62.9829L6.79174 60.0664C6.17068 60.8785 5.90834 61.3942 4.77867 61.4831L6.18675 59.118C6.24564 56.7528 3.29565 52.8286 1.98394 54.3283C0.179685 56.3912 5.66742 70.0666 7.40208 73.0839L12.0385 63.5579C12.3544 62.9058 12.5739 61.3883 12.2366 60.76L8.49427 58.2584L8.48356 58.2703ZM3.22069 84.7913C5.88693 85.55 8.02313 86.8601 9.9773 88.8103L24.2615 60.096L21.4935 59.3491C19.111 64.1566 15.4543 60.8074 14.4103 62.3249L3.22069 84.7913ZM122.061 82.9062L117.96 77.1563C118.115 80.0964 119.984 82.2364 122.061 82.9062ZM9.0136 91.3652C9.9773 88.9585 5.61388 86.2139 2.82986 86.3799C2.19275 86.4155 1.41643 88.342 1.80191 88.9348C2.85127 89.901 8.17839 93.4577 9.0136 91.3711V91.3652ZM280.9 112.367C276.82 116.973 274.786 116.932 271.172 122.86C274.764 120.791 274.823 118.692 278.989 115.728C280.456 114.685 281.939 113.452 282.94 111.887L286.586 106.202C286.768 105.918 286.993 105.224 286.805 105.011C286.655 104.839 285.884 104.56 285.654 104.655L281.093 106.44L283.347 101.739L277.543 104.602C276.499 105.118 275.568 105.829 274.952 106.938L270.819 114.359C269.614 116.523 268.918 118.941 267.44 120.909C266.054 122.765 262.59 129.262 262.194 131.568C264.191 129.611 266.011 127.875 267.601 125.776C269.978 122.64 272.023 119.457 274.995 117.009C276.965 115.385 278.437 113.15 280.905 112.379L280.9 112.367ZM266.889 136.381C269.025 134.52 269.662 136.037 273.865 133.399L281.184 128.817C281.537 128.598 281.858 127.631 281.708 127.252C281.58 126.926 280.846 126.286 280.525 126.339L275.696 127.098L278.228 124.01C278.405 123.796 278.212 122.759 277.971 122.711C275.171 122.19 268.709 127.424 266.487 129.825L258.408 138.55C258.001 138.989 257.348 139.22 256.7 139.226L258.473 135.61L263.221 124.828C264.351 122.261 266.214 120.222 267.596 117.821C269.346 114.768 269.812 111.247 270.658 107.815L271.552 104.187C271.638 103.837 271.413 102.895 271.097 102.835C269.084 102.468 264.961 108.502 263.998 110.494C263.837 110.69 263.58 110.968 263.511 110.832C262.467 108.834 266.391 106.149 265.754 103.784C265.566 103.096 264.94 102.409 264.201 102.249L260.395 108.734C257.91 112.96 259.72 115.728 258.226 120.091L257.482 118.852L252.037 135.355C251.223 137.827 250.024 139.617 248.011 140.963C243.889 143.72 241.185 147.97 240.558 153.281L245.479 154.834C244.124 153.151 243.021 151.764 243.027 149.547C243.027 147.75 243.958 146.452 245.586 146.209C247.674 145.895 249.639 146.577 251.523 147.537L257.884 150.78C255.399 147.567 255.426 148.995 253.59 144.52L251.887 145.895C251.753 146.002 251.282 146.126 251.304 145.954C251.491 144.431 252.546 145.018 254.163 141.55C254.805 140.181 256.053 139.736 257.225 140.275L260.63 141.852L266.884 136.393L266.889 136.381ZM290.162 120.453C291.078 119.469 294.37 117.714 293.862 117.222C292.48 115.883 290.301 116.979 288.278 116.896C289.332 115.752 290.767 114.584 291.104 113.055C290.226 111.253 287.18 113.92 284.246 114.904C283.004 115.319 281.762 115.485 280.697 116.28C278.748 117.744 277.024 119.451 275.503 121.544C276.869 121.627 278.111 121.081 279.031 121.793C279.776 122.368 279.61 123.915 279.422 125.023C283.748 125.93 287.094 123.743 290.168 120.453H290.162ZM271.831 138.93L264.357 143.583C264.442 143.909 265.149 144.674 265.518 144.692C265.888 144.709 266.38 144.176 266.803 143.803C268.72 142.083 271.022 140.933 273.469 140.258C272.286 142.101 270.476 142.172 268.998 143.607C276.173 140.957 283.181 137.774 290.178 134.241C290.821 133.915 291.436 132.978 291.34 132.445C291.233 131.852 290.232 131.076 289.691 131.224L286.029 132.231C286.955 130.329 288.706 130.133 288.845 128.284C288.915 127.353 287.41 127.068 286.682 127.258L283.513 128.094C282.661 129.226 281.714 130.311 280.515 131.058L274.925 134.537C269.389 137.981 270.508 135.355 266.08 138.965L262.065 142.238L263.88 143.672C263.976 142.362 271.011 137.43 271.841 138.936L271.831 138.93ZM263.163 155.451C263.559 157.045 264.972 158.622 266.557 158.171C268.543 157.602 270.246 155.462 270.278 153.151C270.331 148.995 260.63 143.293 257.578 141.597C256.743 141.129 255.876 140.981 255.351 141.971C255.051 142.534 255.266 143.595 255.892 144.051C256.261 144.324 257.268 144.781 257.589 144.514L259.019 143.316C259.094 143.909 258.408 145.172 257.819 145.338C257.032 145.569 256.165 145.267 255.207 145.065C258.007 149.138 262.402 151.438 265.063 155.67L263.163 155.451ZM237.287 167.798C236.388 165.86 236.934 163.151 238.851 162.718C240.018 162.457 241.265 163.311 242.641 163.483C240.848 161.704 239.225 160.14 238.417 157.573C231.425 165.048 224.47 171.805 217.264 178.611C216.942 178.913 216.536 179.571 216.562 179.921C216.648 180.887 217.901 182.12 218.292 181.895C220.069 180.845 230.959 168.415 234.262 166.316C229.637 172.831 224.154 177.887 218.704 183.282C217.944 184.035 214.908 182.505 215.01 179.595C215.036 178.86 215.69 177.893 216.327 177.271L228.164 165.795C224.877 165.664 220.835 168.314 218.008 168.243C219.293 166.731 227.356 163.767 228.721 165.066C229.503 164.479 230.611 163.358 231.269 162.534L228.378 154.793C228.154 154.194 227.8 153.607 227.35 152.89C222.312 154.105 213.42 164.455 210.298 168.942C208.719 171.219 208.896 182.28 209.142 185.333C210.09 197.01 212.001 208.267 214.116 219.738C217.248 222.85 222.821 228.031 227.067 226.4C228.464 225.861 230.017 225.274 231.184 224.29C234.824 221.226 238.021 217.722 240.639 213.573C245.018 206.625 246.582 194.853 248.027 186.412C245.484 185.979 243.16 186.904 241.233 184.805C245.414 185.522 248.927 184.876 252.642 183.685C260.834 181.059 257.798 173.287 262.772 167.946C265.245 165.291 263.495 163.518 264.962 159.642C259.993 157.834 262.311 154.55 255.185 150.833C252.99 149.689 250.924 148.444 248.546 147.786C246.169 147.128 246.405 150.376 244.44 149.884C245.029 149.084 245.532 148.266 245.559 147.596C243.91 147.656 244.039 149.333 244.14 150.24C244.221 150.934 244.933 151.989 245.602 152.433L252.755 157.187C254.109 158.089 255.298 159.547 256.39 160.827L259.934 164.959C258.515 167.265 255.533 161.716 253.322 160.258C250.554 158.432 247.561 157.288 244.563 155.943C243.691 155.551 242.839 156.008 242.379 156.737C242.218 156.079 241.881 155.083 241.447 154.959C240.917 154.805 240.152 155.374 239.975 155.836C239.675 156.624 239.975 157.152 240.767 157.792L239.964 158.219C240.858 159.381 241.736 160.388 242.855 161.195C245.961 163.447 248.627 165.884 251.55 168.444L255.86 172.22C256.026 172.369 256.165 172.949 256.181 173.151C256.197 173.353 255.405 173.293 255.126 173.074C251.325 170.033 246.292 166.767 241.827 164.71C241.469 165.617 241.121 166.542 240.628 166.814C240.216 167.045 239.466 167.045 238.76 167.087C239.247 167.964 239.986 169.031 240.789 169.737L245.805 174.159C248.033 176.121 250.04 177.994 251.77 180.768C251.063 181.1 250.485 180.916 250.013 180.525L244.847 176.198C244.242 175.688 243.102 175.83 242.598 176.512L230.616 192.76C229.695 194.005 228.207 194.135 227.093 193.78C225.712 193.335 225.766 191.385 225.343 190.3C223.972 189.79 222.66 189.227 221.268 188.231C218.736 190.857 216.75 193.827 214.394 196.892C214.865 192.956 217.751 190.087 219.775 187.081C219.368 186.127 219.041 184.841 219.218 184.165L220.546 184.1L232.153 172.274C232.351 172.072 232.876 171.948 233.009 171.971C234.032 172.108 222.676 184.046 221.359 185.25C224.261 188.723 223.18 187.455 226.596 189.227C226.59 189.227 226.869 188.184 227.093 187.876C230.798 182.861 234.573 177.549 239.129 173.187C238.47 175.967 229.251 187.022 227.591 188.777C227.136 189.257 226.419 189.844 226.547 190.448C226.654 190.958 227.27 191.77 227.72 191.895C228.1 192.007 229.005 191.705 229.289 191.326L238.701 178.83C239.937 177.188 241.356 175.712 241.918 173.673C240.119 171.788 238.385 170.205 237.271 167.804L237.287 167.798ZM240.575 165.889C240.821 165.196 240.435 164.342 240.071 164.105C239.788 163.921 238.936 163.88 238.765 164.194C238.476 164.71 238.754 165.581 239.07 165.866C239.365 166.133 240.43 166.293 240.575 165.889Z" fill="currentColor"/>
<path d="M182.297 249.401C181.633 251.274 181.039 252.904 179.658 254.019L180.921 248.66C179.004 250.492 177.666 252.3 176.081 254.321L164.169 269.544C164.683 267.172 166.059 265.264 167.387 263.284C170.754 258.281 174.62 253.888 178.833 249.798C181.221 247.48 182.361 245.014 183.486 241.849L191.597 219.033C192.791 215.672 193.358 209.246 192.245 205.891C189.257 211.552 187.303 217.166 185.445 223.188C183.587 229.211 182.8 234.824 180.498 240.491C181.13 233.141 183.031 226.448 185.183 219.869C186.307 216.442 188.047 213.638 188.807 209.851C183.052 216.158 177.982 221.505 174.775 229.602C170.363 240.746 170.594 246.241 164.335 257.226L154.104 275.169C151.255 280.166 147.706 284.405 143.396 287.813C144.231 286.118 145.452 285.08 146.533 283.711C150.334 278.886 153.488 273.657 156.481 268.186C157.46 266.39 158.451 264.878 159.024 262.81C149.901 267.421 145.602 273.474 136.65 277.724C126.884 282.359 111.931 285.436 103.413 276.242C108.381 278.412 112.59 280.433 117.81 280.415C127.27 280.386 136.655 277.262 144.643 271.227L136.227 272.988C133.491 273.557 120.727 272.442 117.895 270.771C123.811 271.227 129.171 271.553 134.851 271.518C138.063 271.494 140.954 270.966 143.926 269.555C149.21 267.054 154.157 264.137 159.061 260.765C160.635 259.68 162.07 258.18 163.05 256.467C165.159 252.768 166.953 249.105 168.356 244.748C166.53 245.898 165.448 247.326 164.046 248.66C160.619 251.92 157.343 255.252 153.129 257.581C155.394 254.991 157.787 252.969 160.137 250.622L168.993 241.784C170.187 240.592 170.369 238.233 170.685 236.508C167.435 239.098 164.779 241.582 161.84 244.196C153.986 251.191 145.671 256.935 136.564 261.766C131.692 264.351 126.858 266.378 121.718 268.168L108.242 272.857C105.876 273.681 96.3994 275.139 94.1722 272.413C97.2774 271.921 100.12 271.932 103.102 271.737C108.162 271.405 112.991 270.196 117.66 267.973L137.978 258.304C144.804 255.056 151.004 251.292 157.016 246.461C161.851 242.572 166.337 238.589 170.824 234.226C172.264 232.827 173.046 230.663 173.42 228.689C169.807 230.888 166.589 232.785 163.071 234.558L154.773 238.749L143.974 244.433C136.554 248.34 129.315 251.997 121.386 254.534C113.141 257.166 105.158 259.644 96.7581 261.47C94.3542 261.992 92.0627 262.045 89.6428 261.677C86.5161 261.203 81.4192 252.554 80.8624 249.069L87.1746 258.156C88.3097 259.786 89.9212 260.877 91.9289 260.45C90.9545 258.968 89.9801 257.605 89.1877 255.957C87.8171 253.118 89.1127 250.486 87.2014 249.573C85.8254 248.915 85.1187 247.51 85.3275 245.886L85.7826 242.347C85.2419 242.667 84.7172 243.017 84.3585 243.42C80.4769 247.759 78.3514 244.084 77.4145 248.103C76.9648 247.581 76.8202 246.579 77.0665 245.85C77.2539 245.293 78.1694 244.671 78.7904 244.647C82.3561 244.528 82.0135 242.406 85.9379 240.456C86.3394 240.254 87.7261 240.468 87.7314 240.948C87.7314 241.76 87.3888 242.946 87.1746 243.989C90.387 242.649 91.1686 234.765 91.0401 231.944C90.2317 214.492 94.6112 221.41 89.4286 196.904L87.8706 189.542C87.5601 188.066 87.5226 186.62 87.3995 185.072C87.2014 182.512 86.7142 180.046 86.9283 177.437C87.7314 167.443 85.5203 162.221 86.5589 150.863C87.0461 145.528 89.3697 126.986 93.3958 123.471C89.9586 134.787 86.3073 150.395 88.2079 162.576C89.0592 154.971 90.146 147.538 91.704 139.997C92.2983 137.134 92.8283 134.514 93.9259 131.859C94.0972 133.589 93.776 134.959 93.4226 136.536C90.8849 147.947 89.3751 159.346 88.663 171.112C88.0634 180.947 88.2668 180.763 91.0562 189.447C91.8004 191.765 92.3572 193.982 92.2555 196.424C91.9878 202.684 92.6784 208.843 93.792 214.96L95.8212 226.093L95.0181 226.176L93.2352 219.869C92.5874 222.02 92.6302 224.267 92.5499 226.656C92.3304 232.815 93.0532 238.695 95.093 244.422C95.4517 245.423 95.5963 246.467 95.5749 247.747C94.4238 247.024 93.9741 245.921 93.6368 244.676L92.0681 238.879C90.9063 241.778 89.6374 243.989 87.437 245.477C87.0408 245.743 86.9176 246.799 87.0568 247.19C87.2282 247.67 88.315 247.99 88.5613 247.563C89.2841 246.33 89.616 245.554 90.9116 244.866C91.4203 246.739 88.39 248.731 90.5047 250.166C94.6808 252.993 97.7967 253.242 101.668 256.603C97.3417 255.892 93.4708 253.207 89.5303 252.181C89.964 255.702 91.9664 258.488 94.7397 260.077C95.5267 260.527 97.1489 259.792 98.0162 259.555L113.168 255.453C123.228 252.732 132.645 248.968 141.854 243.704C149.392 239.395 156.866 235.654 164.651 231.991C177.318 226.022 173.87 225.251 180.022 217.8L187.49 208.766C188.069 206.051 182.399 202.127 180.102 197.817C176.665 191.362 174.919 184.023 174.588 176.412C175.482 176.72 175.669 177.74 175.792 178.635C176.515 183.893 177.896 188.73 179.626 193.65C180.568 196.323 181.789 198.529 183.593 200.585L188.47 206.164C188.775 206.513 189.793 206.827 190.044 206.466C193.754 201.137 191.511 196.395 194.386 190.526C196.228 186.768 196.276 182.927 195.403 178.83C192.887 167.07 192.764 156.411 189.332 145.078C188.492 142.303 186.976 140.312 184.899 138.658C178.319 133.435 169.121 133.471 162.959 139.482L159.618 142.742C155.913 146.358 152.128 149.618 147.743 152.203L139.504 157.058C136.184 159.014 132.372 161.035 129.245 158.071C122.184 151.379 116.327 143.625 111.856 134.591C110.389 131.627 108.521 128.942 108.205 125.273C113.286 135.522 119.405 146.518 127.538 154.266C130.156 156.761 133.02 157.484 136.366 156.103C142.213 153.685 147.716 150.335 152.728 146.103L159.864 140.074C161.899 138.355 163.842 136.773 166.059 135.048C160.02 135.593 158.103 138.966 153.391 142.149C155.758 137.235 160.089 134.793 164.747 134.147L170.936 133.293C171.295 132.86 171.273 132.831 171.011 132.819L168.259 131.224C170.765 130.507 172.912 131.343 175.257 132.06C183.791 134.68 185.756 135.469 191.613 142.807C193.701 145.421 195.88 147.597 198.552 149.446C199.194 149.891 199.719 150.667 199.676 151.497C196.426 150.667 194.247 148.178 191.806 145.902L191.377 145.504C191.297 145.427 191.201 146.139 191.286 146.494C192.7 152.238 193.958 160.17 194.804 166.756C195.237 170.14 195.468 172.855 196.533 175.944L198.584 168.575C199.092 166.738 199.692 164.793 200.966 163.353C197.138 177.485 196.255 184.503 196.967 199.038C197.069 201.101 197.304 202.98 196.892 205.191C194.922 202.429 196.158 196.098 195.12 192.281C194.156 194.581 193.84 196.857 193.829 199.376L193.776 210.343C193.765 212.66 193.776 214.99 193.251 217.243C192.207 221.789 190.655 225.879 189.107 230.236L182.286 249.419L182.297 249.401Z" fill="currentColor"/>
<path d="M178.117 285.922C177.951 287.054 177.629 287.896 176.794 288.5C176.596 286.497 176.864 284.76 177.206 282.828L180.82 262.72C173.239 271.891 165.123 279.858 155.395 285.809C150.812 288.613 143.263 292.484 138.134 291.583C139.071 290.99 139.917 290.682 140.87 290.397C144.773 289.247 148.488 287.967 152.081 285.815C160.652 280.67 168.26 274.232 175.14 266.562C180.906 260.136 186.051 253.491 191.185 246.472L200.18 234.172C201.963 231.736 203.167 229.365 204.211 226.193C204.784 231.102 201.556 233.271 202.118 238.903C202.584 243.58 203.018 248.031 203.762 252.661L207.108 273.515C207.633 276.775 208.296 279.751 208.195 283.32C207.595 282.128 207.242 281.002 206.958 279.603C204.484 267.332 202.562 255.109 201.181 242.596C200.951 240.491 200.747 238.92 200.084 236.816C198.033 239.359 196.555 241.665 194.815 244.232C191.507 249.122 188.198 253.769 184.6 258.411C183.524 259.798 182.742 261.434 182.309 263.236C180.499 270.735 179.246 278.115 178.122 285.916L178.117 285.922Z" fill="currentColor"/>
<path d="M102.653 238.125C102.845 239.507 102.931 240.568 102.481 241.735C101.678 240.2 101.266 238.783 101.036 237.058L95.5053 195.41C94.199 185.558 92.8016 176.103 92.6035 166.014L96.1799 188.711L98.9479 211.515L102.653 238.125Z" fill="currentColor"/>
<path d="M144.584 213.122C135.766 210.851 123.806 186.5 120.064 177.887C118.158 173.5 116.889 169.007 116.578 164.093C118.415 169.125 119.678 174.241 121.9 179.173C125.589 187.371 130.027 194.917 134.904 202.262C137.688 206.453 140.751 209.689 144.584 213.122Z" fill="currentColor"/>
<path d="M117.343 247.023C117.772 247.764 114.42 246.566 111.513 240.093C108.172 232.654 102.631 217.224 100.8 209.535L98.6744 200.585C98.2943 198.984 97.9784 197.508 98.2461 195.718C99.0599 198.071 99.2954 200.015 99.9272 202.25C103.568 215.137 107.696 227.615 112.6 239.993C113.665 242.684 116.133 244.919 117.343 247.023Z" fill="currentColor"/>
<path d="M172.452 211.439C172.479 211.658 172.398 212.293 172.361 212.405C172.323 212.512 172.232 212.512 172.131 212.459C170.985 211.925 169.379 199.447 169.229 197.278C168.982 193.65 169.159 190.33 169.314 186.726L170.358 162.659C171.772 169.109 169.775 191.13 170.417 196.003L172.452 211.433V211.439Z" fill="currentColor"/>
<path d="M213.42 268.067C214.828 274.042 216.043 280.373 216.745 286.253C216.782 286.556 216.439 287.237 216.322 287.439C216.204 287.641 215.519 286.941 215.427 286.461L209.94 257.178L207.15 243.484C207.713 244.059 208.093 244.842 208.275 245.654L210.727 256.62L213.42 268.073V268.067Z" fill="currentColor"/>
<path d="M115.315 224.556C113.548 223.051 112.627 220.662 111.76 218.279C108.917 210.49 106.727 202.635 104.73 194.502C103.419 189.144 101.871 184.117 101.357 178.302C102.98 182.576 103.783 186.998 105.052 191.473L110.502 210.685C111.846 215.422 113.425 219.666 115.315 224.55V224.556Z" fill="currentColor"/>
<path d="M157.835 212.031C155.945 208.931 155.56 205.416 155.073 201.818C153.681 191.515 153.445 181.201 153.643 170.786C153.665 169.594 153.884 168.355 154.848 167.597L155.04 187.739C155.121 196.056 156.272 203.904 157.835 212.031Z" fill="currentColor"/>
<path d="M87.2126 229.507C86.7683 232.376 86.4685 235.108 85.1621 237.675C86.6344 228.292 87.5981 219.418 87.8765 209.649L88.1067 201.652C88.1228 201.035 88.171 200.674 88.685 200.33L89.1133 218.594C89.2471 224.296 89.8735 229.969 88.428 235.618C87.823 231.344 89.1615 227.503 88.1871 223.176L87.2126 229.501V229.507Z" fill="currentColor"/>
<path d="M197.128 162.314C198.402 159.901 199.874 158.289 201.529 156.546C205.459 152.396 208.757 147.773 211.134 142.337C212.52 139.166 213.704 135.644 213.206 132.147C213.077 131.252 212.365 130.209 212.488 129.225C214.121 129.545 214.566 131.299 214.491 132.941C214.26 137.808 212.735 142.384 210.384 146.546C208.623 149.664 200.694 161.691 197.128 162.32V162.314Z" fill="currentColor"/>
<path d="M190.505 195.338C190.987 196.559 191.442 197.591 190.949 198.901C186.8 191.064 183.909 182.511 182.164 173.601C181.269 169.031 180.333 164.775 180.193 160.026C181.296 163.322 181.537 166.6 182.356 170.056C184.418 178.77 187.212 186.992 190.505 195.332V195.338Z" fill="currentColor"/>
<path d="M138.363 190.761C143.187 181.17 146.919 171.781 150.41 161.792L153.772 152.166C154.205 150.921 154.735 149.771 155.662 148.822L150.11 165.681C148.316 171.129 142.331 187.015 138.363 190.756V190.761Z" fill="currentColor"/>
<path d="M217.13 255.102L213.473 244.824L207.402 227.734C206.802 226.038 206.288 224.432 206.347 222.541C208.762 228.202 211.043 233.709 213.088 239.595C214.849 244.664 216.573 249.572 217.13 255.102Z" fill="currentColor"/>
<path d="M148.471 235.458C142.459 235.292 131.221 216.115 129.144 210.288C135.627 220.016 139.862 227.657 148.471 235.458Z" fill="currentColor"/>
<path d="M113.002 259.886C107.456 263.271 88.4442 269.59 84.4502 261.208C87.5608 263.033 90.136 264.355 93.5036 264.106C101.229 263.543 105.598 261.356 113.002 259.886Z" fill="currentColor"/>
<path d="M115.952 193.667C114.999 193.151 114.415 192.268 113.901 191.23C110.009 183.394 106.513 175.237 104.757 166.357L112.557 185.498L115.952 193.673V193.667Z" fill="currentColor"/>
<path d="M133.722 178.805C134.29 179.398 133.77 180.216 133.845 180.05C133.77 180.222 133.106 179.908 132.962 179.748C127.442 173.589 122.313 166.161 119.898 157.756C122.238 160.927 123.753 164.371 125.691 167.608C128.106 171.639 130.462 175.391 133.722 178.8V178.805Z" fill="currentColor"/>
<path d="M170.835 216.631C165.535 210.152 161.691 200.407 159.105 192.131C158.832 191.26 158.773 190.252 159.014 189.298C161.857 200.051 165.824 206.874 171.643 215.528C171.847 215.837 171.922 216.489 171.911 216.714C171.9 216.993 171.006 216.85 170.83 216.631H170.835Z" fill="currentColor"/>
<path d="M157.836 231.901C152.953 230.911 148.129 210.87 148.911 206.181C150.271 210.022 150.64 213.845 151.7 217.615C153.14 222.749 155.095 227.266 157.836 231.907V231.901Z" fill="currentColor"/>
<path d="M125.546 210.697C122.537 207.567 117.253 190.08 117.526 185.492L125.546 210.697Z" fill="currentColor"/>
<path d="M195.752 130.162C192.695 131.312 189.799 130.091 186.886 129.379L174.615 126.38C177.977 125.419 181.163 126.504 184.343 127.304L195.752 130.162Z" fill="currentColor"/>
<path d="M186.088 281.789C186.045 282.151 185.569 282.578 185.403 282.667C185.237 282.755 184.974 282.009 185.007 281.765L188.342 256.904C188.701 257.041 188.835 257.479 188.76 258.102L186.083 281.795L186.088 281.789Z" fill="currentColor"/>
<path d="M148.006 142.285C143.573 146.707 134.391 149.612 129.251 144.407C137.266 147.448 140.408 145.059 148.006 142.285Z" fill="currentColor"/>
<path d="M145.248 156.6C145.586 159.86 138.262 173.713 135.81 174.49L145.248 156.6Z" fill="currentColor"/>
<path d="M114.56 252.637C110.833 253.395 100.939 249.868 99.2422 245.63C101.817 247.047 103.996 248.635 106.529 249.596L114.56 252.637Z" fill="currentColor"/>
<path d="M201.598 225.31L200.779 212.346C200.699 211.041 200.576 209.785 200.875 208.469C202.433 210.508 202.947 223.01 201.598 225.31Z" fill="currentColor"/>
<path d="M92.957 151.141C93.0748 146.132 94.6596 141.283 96.3835 136.292C97.2455 137.543 94.1884 149.855 92.957 151.141Z" fill="currentColor"/>
<path d="M98.3703 130.056C97.8082 131.402 97.3156 132.576 96.6143 133.429C96.7106 130.489 99.7302 122.516 102.075 121.23C102.284 121.117 102.423 121.977 102.284 122.232C100.967 124.621 99.5 127.365 98.3703 130.05V130.056Z" fill="currentColor"/>
<path d="M206.246 136.481C203.815 139.706 196.325 142.042 193.354 138.147C196.127 138.841 198.616 139.303 201.261 138.325L206.246 136.481Z" fill="currentColor"/>
<path d="M195.142 247.58C195.897 251.919 194.981 260.609 194.66 264.83C194.462 259.003 194.521 253.466 195.142 247.58Z" fill="currentColor"/>
<path d="M83.5124 133.476C83.2768 130.909 83.4642 128.135 85.2364 125.93C85.0811 128.52 84.5029 131.081 83.5124 133.476Z" fill="currentColor"/>
<path d="M214.855 124.068C213.425 123.695 212.317 123.328 210.957 122.782C212.301 121.751 214.448 122.142 214.855 124.068Z" fill="currentColor"/>
<path d="M123.785 49.9543C123.383 51.5489 122.939 52.4855 122.034 52.8115C120.787 53.262 119.871 52.77 119.079 51.5785C118.94 51.7505 118.715 52.0528 118.774 52.2602L119.149 53.5288C119.02 54.1809 116.964 53.8845 117.039 53.2383L117.392 50.2152C117.553 48.8399 118.661 47.85 119.818 47.1979C122.05 45.9412 125.011 46.202 126.173 48.8043C123.64 47.5239 121.237 46.6822 119.331 48.7747C125.6 46.86 127.538 51.8868 125.338 50.7546L123.78 49.9543H123.785Z" fill="currentColor"/>
<path d="M144.698 46.4142C144.039 47.9139 143.376 48.7972 142.219 48.8979C140.966 49.0046 140.329 48.3526 139.21 47.1196L139.173 48.6668C138.787 48.8683 137.861 48.8742 137.021 48.6193C138.777 45.525 140.185 43.4859 143.852 44.5351C145.603 45.033 146.952 46.0822 148.339 47.4338C147.423 48.2815 146.588 48.5245 145.26 48.5245L146.32 47.3982L144.693 46.4142H144.698Z" fill="currentColor"/>
<path d="M131.601 69.2007C130.156 69.6275 128.635 68.9044 127.596 70.4871C127.136 71.1925 125.508 71.4059 125.246 70.5108L127.238 67.7544C128.383 66.1716 129.46 66.4799 130.932 66.2191C132.501 65.9405 133.678 64.8794 135.451 66.2783C136.511 67.1142 138.208 67.4995 139.669 67.7721C138.235 70.3626 137.689 67.3868 131.601 69.1948V69.2007ZM131.639 68.1752C132.549 68.1456 133.828 67.5113 134.803 67.2505C134.235 65.733 128.549 67.2742 128.207 68.2879L131.633 68.1752H131.639Z" fill="currentColor"/>
<path d="M145.811 40.3501C142.465 39.1112 139.172 41.4527 135.869 41.832C135.532 41.8735 134.938 41.014 135.034 40.7117C136.121 37.4158 147.541 36.9357 149.639 41.7728L145.811 40.356V40.3501Z" fill="currentColor"/>
<path d="M154.21 122.574C153.049 122.847 152.015 123.179 150.987 122.414C154.965 120.357 159.077 119.486 163.36 118.946C165.759 118.644 168.018 118.057 170.572 118.768L154.21 122.58V122.574Z" fill="currentColor"/>
<path d="M144.333 84.8263L155.18 77.3691C153.097 81.6312 148.964 84.5477 144.333 84.8263Z" fill="currentColor"/>
<path d="M146.469 45.1568C143.477 42.513 139.911 42.9932 137.325 46.3009C137.186 44.0365 139.268 42.679 141.142 42.4656C144.13 42.1336 147.208 43.171 148.734 46.1705C147.851 46.2653 147.144 45.7496 146.464 45.1509L146.469 45.1568Z" fill="currentColor"/>
<path d="M145.312 122.574C143.154 126.072 139.193 126.712 135.916 125.005C138.625 124.732 140.804 124.448 142.951 122.93C143.583 122.486 144.498 122.284 145.312 122.58V122.574Z" fill="currentColor"/>
<path d="M152.144 21.1149C148.616 18.1095 147.604 18.5601 144.001 16.5209C146.234 15.6376 152.208 17.9139 152.144 21.1149Z" fill="currentColor"/>
<path d="M133.245 73.4095L130.29 73.7651C129.792 73.8244 129.155 73.3917 128.903 72.7219C131.216 71.7319 133.55 71.5185 136.11 71.7971C135.639 73.1724 134.514 73.2554 133.24 73.4095H133.245Z" fill="currentColor"/>
<path d="M122.542 124.798C123.051 124.828 123.688 125.231 123.57 125.616C120.438 126.179 117.274 126.203 114.646 124.336L122.548 124.798H122.542Z" fill="currentColor"/>
<path d="M135.933 60.0132C135.671 60.8964 134.605 61.0565 133.668 60.8312L130.991 60.1792C131.569 58.4838 133.127 58.6557 134.284 59.5923C134.701 59.9302 135.226 60.0251 135.927 60.0191L135.933 60.0132Z" fill="currentColor"/>
<path d="M23.5594 75.3711C24.6944 77.8608 27.9603 80.4809 27.3821 81.5064C26.5683 82.9468 22.6439 78.501 23.5594 75.3711Z" fill="currentColor"/>
<path d="M232.63 178.385C232.035 179.126 224.615 188.397 224.24 187.531C223.683 186.239 229.133 180.578 230.327 179.262C231.752 177.691 232.79 176.257 234.568 175.006C234.375 176.47 233.475 177.33 232.624 178.379L232.63 178.385Z" fill="currentColor"/>
<path d="M256.406 135.444L259.827 126.386C260.502 124.596 261.284 122.877 262.708 121.608L259.57 129.812C258.799 131.834 257.964 133.778 256.406 135.444Z" fill="currentColor"/>
<path d="M268.816 110.37C268.522 112.575 267.965 114.128 266.787 115.811C266.102 115.734 268.511 109.605 268.816 110.37Z" fill="currentColor"/>
<path d="M166.257 78.4364C166.075 78.0451 163.724 73.2732 164.993 73.0361L167.274 76.6817C167.44 76.9426 167.435 77.7606 167.44 78.0629C167.445 78.3652 166.38 78.715 166.251 78.4364H166.257Z" fill="currentColor"/>
<path d="M176.023 66.9365C174.492 69.1832 171.766 69.4914 169.759 68.0213L176.023 66.9365Z" fill="currentColor"/>
<path d="M39.4189 25.0927C39.5153 23.5752 40.8324 22.5319 41.6194 21.2633C42.7169 19.4909 42.9632 17.4043 43.959 15.1162C44.6122 18.9219 43.0435 23.2729 39.4243 25.0927H39.4189Z" fill="currentColor"/>
<path d="M36.1788 22.6911C35.9647 20.7053 36.2163 15.2932 37.9617 14.5938L37.8171 18.7076C37.5548 20.1422 37.3674 21.4166 36.1842 22.6911H36.1788Z" fill="currentColor"/>
<path d="M279.31 137.412L273.576 139.096C274.422 135.996 276.499 137.525 280.119 135.024C281.741 133.903 283.384 132.907 285.462 132.901C284.257 134.288 282.876 134.881 281.452 135.818C280.89 136.191 279.985 137.211 279.31 137.406V137.412Z" fill="currentColor"/>
<path d="M39.4662 32.6508C37.1533 30.0722 33.8767 28.1516 30.9267 27.2861C28.4961 26.5748 32.0939 24.4052 37.1747 28.8096C38.3044 29.7877 39.8945 30.5939 39.4608 32.6508H39.4662Z" fill="currentColor"/>
</svg>

