<svg width="296" height="304" viewBox="0 0 296 304" fill="none" xmlns="http://www.w3.org/2000/svg">
<g clip-path="url(#clip0_1123_1065)">
<path d="M152.966 103.877C153.121 103.606 154.042 102.782 153.91 102.774C150.11 102.654 147.01 101.694 143.619 100.138L147.408 103.196C147.652 103.393 147.791 104.666 147.76 104.686C140.206 98.9694 134.586 100.506 125.82 96.953C128.723 103.722 126.242 107.917 130.275 113.115C132.214 115.615 133.723 118.115 135.209 121.049C134.764 121.115 134.567 121.142 134.671 121.126C130.263 114.265 127.005 112.898 126.265 104.651C125.213 92.9164 120.518 93.6285 118.598 89.8512C117.221 87.142 116.559 84.2278 115.715 81.2903L115.344 80.8413C113.749 83.1518 111.798 83.7556 109.159 82.6758L109.24 94.8283C109.298 103.424 110.769 111.648 112.665 119.985C113.842 125.171 114.628 130.527 112.801 135.764C112.689 130.179 112.855 124.958 110.471 119.718C109.275 122.578 108.23 125.477 106.032 127.748C102.057 131.866 97.6915 135.311 92.7802 138.248L81.1812 145.18C78.5455 146.755 76.0106 148.791 73.6652 150.734C65.2707 151.964 57.2632 154.128 49.9524 158.613C44.8824 161.725 39.9788 165.371 36.844 170.472C28.3295 184.315 24.1496 204.266 30.3691 219.631C32.37 224.57 33.9839 229.276 35.6287 234.698C37.4051 229.492 36.9639 222.352 40.482 218.404C43.8606 214.615 49.6466 209.104 55.1733 208.737C53.7645 206.14 52.0113 203.605 51.8526 200.543C51.4076 192.013 53.9774 183.557 59.0938 176.718L55.421 186.243C53.5478 191.104 52.8512 197.021 54.4225 202.153C55.7461 206.488 58.9545 209.909 61.265 213.733C62.5461 215.854 64.1174 218.033 66.335 219.225C71.1457 221.81 78.6462 221.23 83.0156 219.163L98.9609 211.628C104.046 209.224 108.845 206.751 113.691 203.86C116.106 202.42 118.169 200.392 120.054 198.326C121.648 196.576 122.391 194.44 123.726 192.168C123.01 200.226 116.578 205.238 109.6 208.493L93.6974 215.912C89.0377 218.087 84.5715 219.925 79.7492 221.721C75.3758 223.347 70.8245 223.753 66.6872 220.935C66.9426 225.425 67.1477 229.109 67.1632 233.285C67.1981 244.397 70.182 254.962 75.6003 264.688C75.7396 265.129 76.0376 265.753 75.9332 265.102C75.2017 262.053 75.2443 259.169 76.5679 256.255C77.9341 258.817 75.4378 262.653 78.6617 265.571C79.8421 266.639 80.6974 267.405 81.8894 268.713C80.0472 268.28 79.2731 267.692 77.5393 266.716C77.6476 270.25 78.1701 273.83 79.0487 277.487C79.3815 278.865 80.0123 280.978 79.2809 282.251C76.6143 286.911 74.0174 291.234 71.7417 296.06C70.2207 299.284 69.9691 303.003 70.0272 306.374C71.3276 306.254 72.5119 306.641 72.3571 307.57C70.4723 308.484 68.5372 309.567 67.1052 311.084C59.7363 318.879 56.524 314.672 53.4433 320.899C52.4603 322.889 51.752 324.948 52.4177 327.235C55.4287 326.751 58.1263 326.453 61.0715 327.003C62.7241 329.1 56.5975 327.092 53.3349 328.605C52.5803 328.953 51.6166 329.611 50.8309 330.083C48.4353 331.523 47.6419 335.138 49.3757 337.561C59.6628 351.931 71.6527 359.377 88.0353 365.763L106.891 373.112C112.789 375.411 118.37 377.807 124.694 379.146C134.455 381.213 144.533 384.591 154.7 383.899C166.906 383.067 191.583 371.526 196.343 358.011C194.633 357.415 193.274 357.945 191.73 358.595C185.433 361.239 179.372 363.959 172.847 365.991C161.925 369.393 147.834 367.009 137.102 363.367L101.689 351.346C93.2949 348.498 85.5081 345.216 77.7638 341.113L73.8897 339.062C73.3091 338.257 73.7426 338.389 74.3734 338.722C87.6251 345.003 101.264 349.961 115.197 354.129L124.094 356.792L142.474 362.887C150.365 365.507 158.438 366.541 166.705 365.6C170.885 365.124 174.717 363.777 178.668 362.233C181.184 361.25 197.837 354.779 198.905 356.385C199.796 357.721 195.949 363.696 194.88 365.058C190.194 371.05 184.28 375.241 177.372 378.337C170.332 381.491 163.199 384.437 155.447 385.331C151.093 385.834 146.777 384.862 142.4 384.421C128.138 382.981 114.883 378.984 101.84 373.267C97.1768 371.224 92.9234 368.832 88.1205 367.276C70.5652 361.595 60.7193 354.756 49.6273 340.092C48.292 338.327 47.4561 336.55 46.7633 334.368C45.0914 334.894 44.209 336.384 43.4736 337.94L38.4695 348.54C37.9431 349.655 37.3239 352.256 38.0786 353.363C40.78 357.326 46.7865 362.856 52.1274 364.013L52.1855 363.189C46.2602 357.275 45.49 347.882 46.5156 340.061L47.1929 340.401C47.0071 348.235 47.7889 357.105 53.9542 362.473C57.5922 365.639 62.012 367.532 66.3737 369.374L67.0626 369.664C67.1826 369.714 67.1477 369.916 67.02 369.908L66.1144 369.861C61.9307 369.652 58.2076 367.214 54.4264 365.782C51.2799 364.59 47.8238 364.931 44.9095 362.899C41.8636 360.774 39.1119 358.332 36.8091 355.375C35.4855 353.676 35.5203 351.203 36.3021 349.187C38.0398 344.724 40.2381 340.61 42.3126 336.303C43.3575 334.135 45.2191 333.621 46.9491 332.169C48.0366 331.256 49.1435 329.089 50.5097 328.055C49.4376 321.182 53.3117 318.778 54.2057 316.271L56.2686 310.469C57.6773 306.506 58.7339 302.643 57.6502 298.611C55.4597 300.352 53.7762 302.264 51.1212 303.507L64.4386 286.334C68.5372 281.052 70.9677 275.149 72.7673 268.651C72.001 267.277 69.9459 264.127 68.5372 264.386C66.1802 264.824 63.8542 271.98 63.1808 274.364C60.5452 283.687 59.5815 289.423 51.1173 295.205C50.9509 295.232 50.7883 294.977 50.6877 294.651L55.3088 289.009C57.329 286.543 58.9042 283.505 59.7518 280.308C61.834 272.46 63.831 264.87 65.441 256.894C66.2189 253.039 65.5919 249.01 65.4874 245.155L65.0385 228.842C64.9572 225.913 64.6669 223.014 63.6839 220.243L60.82 216.984L56.4853 210.668C53.513 210.308 51.0012 211.926 48.6326 213.489C44.7082 216.078 39.7582 219.829 38.9571 224.589C38.7287 225.955 35.4894 241.39 33.5001 235.809L29.2467 223.873C26.3131 215.637 24.8502 207.579 25.7403 198.848C26.5801 190.605 28.4882 182.957 32.5093 175.627C33.8174 173.243 34.8469 170.592 36.3563 168.343C40.3465 162.406 46.2176 158.308 52.5803 155.126C59.3764 151.728 66.5285 150.277 73.8897 148.272C84.2773 140.373 93.0627 137.211 103.176 128.162C106.895 124.834 109.612 120.55 109.739 115.441C109.778 113.788 108.9 111.439 108.547 109.883L104.379 109.16C96.3989 107.774 99.0229 101.682 96.2673 101.566C95.1565 101.52 94.0767 101.466 93.5929 101.075C92.4396 100.142 92.2887 94.3368 92.6331 92.4713C90.4852 93.4002 89.7382 96.3648 90.3381 98.3889C90.431 98.6985 89.1035 99.2016 88.9642 98.8998L88.3836 97.611C87.8418 96.4151 87.3503 95.4862 86.5917 94.4335C83.5188 90.1724 85.2023 84.3052 89.475 81.6463L92.1532 79.9821L88.1476 77.6987C86.7775 76.9169 86.6459 75.1985 86.1931 73.902C85.8874 73.0312 84.1922 72.3926 85.2952 71.2316C87.5399 72.7874 89.7576 73.7472 92.0913 72.8532C96.8826 71.0187 91.2747 67.9071 95.8493 63.9788C94.7617 63.4795 93.5194 63.1312 92.4667 63.2202L87.7296 63.6227C88.3178 61.4438 88.9758 59.9421 89.9704 57.9877C86.7233 58.5489 83.9561 58.5644 81.0109 57.6742C82.1023 59.23 86.6575 59.9151 86.4137 60.5459L86.0615 61.4631C85.6474 62.5352 85.3726 63.6459 85.3107 65.0741C86.0925 65.0431 86.6962 64.6832 87.6715 64.0562C87.3735 66.1732 86.1737 67.7716 84.1032 69.2191C86.1234 69.637 87.8031 68.623 89.5757 67.431C88.9913 70.264 85.8951 71.7037 83.3098 70.6394C82.9576 70.4962 82.3113 69.8615 82.2493 69.5055C82.1874 69.1494 82.5938 68.4644 82.9228 68.1315C85.2952 65.7359 80.8793 67.0169 84.3818 61.1032C80.3994 60.2015 77.0207 57.6045 75.3874 53.7691C77.934 53.8388 79.9582 54.0865 81.9204 53.7459C82.35 53.6724 82.8221 53.4131 82.8067 53.6182C82.7912 53.8233 82.7021 54.6709 82.497 54.7096L78.3791 55.5224C79.5518 56.8344 81.1154 57.0937 82.9499 57.1633C93.6239 57.5542 93.4459 52.5694 94.367 52.5771L95.9963 52.5887L95.412 53.6917C97.3819 53.4711 98.2256 52.9951 100.037 53.951C96.2673 56.1609 92.8537 55.4798 90.2684 60.5227C94.3863 59.5474 98.2682 58.8353 102.301 59.7022C99.3634 61.0955 96.6156 60.1782 93.473 61.3277C97.5019 63.0615 101.217 62.9067 105.103 62.0166C109.349 61.0452 108.524 58.4947 114.736 57.0937C113.532 59.3036 111.535 60.7007 109.542 62.2256C114.028 67.2182 107.758 67.8916 111.462 70.713C112.526 71.5257 113.308 72.9383 112.093 73.9059L109.24 72.1333C108.76 71.8353 107.518 71.785 106.686 71.6186L108.698 71.278C108.164 69.4551 108.993 67.5278 109.465 65.6468C108.687 63.9478 104.263 63.166 103.179 64.7412C101.825 66.7112 103.659 69.0913 104.255 70.8562C105.61 74.8812 107.228 73.0235 107.831 74.1575C108.648 75.6862 103.447 75.4656 101.159 64.7335C98.9416 66.5641 101.43 71.1464 103.098 73.0583L108.439 79.181C109.291 80.1602 110.27 81.0039 111.439 81.0658C112.259 81.1084 114.152 80.3653 114.279 79.5603L114.891 75.1753C118.382 77.8535 117.759 83.2718 120.243 87.9935C122.209 91.7282 126.281 94.4567 130.383 95.2192L138.758 96.7711C149.758 98.8069 147.83 102.41 161.364 99.8131C163.644 99.3758 164.824 96.9298 165.68 95.0837C166.941 92.3591 168.381 89.7196 168.776 86.7821C169.321 82.699 169.523 78.732 170.32 74.707C170.982 71.3554 172.433 68.0503 171.284 64.5903C170.479 62.1675 169.902 59.6325 169.635 57.1788C169.101 57.7516 168.47 58.3902 168.002 58.5837C167.599 58.7501 166.488 58.2044 166.287 57.8174L164.925 55.2011C164.193 55.3559 163.005 55.743 161.864 56.1726C163.114 59.768 164.426 62.303 166.07 65.5888C166.906 67.2607 165.463 70.4537 163.814 71.3593C162.463 72.1024 161.012 72.4507 159.178 72.3888C160.942 69.877 165.316 68.9559 165.238 65.3914C163.4 62.7094 159.998 56.1687 161.082 53.4518C161.136 53.3125 161.492 53.6105 161.546 53.7498L161.929 54.7483C164.12 53.8427 168.64 51.598 170.753 54.9728C171.276 53.8504 172.1 52.0933 171.589 50.7852C170.75 48.6295 164.619 51.9037 162.665 51.8302C161.302 47.8168 168.366 47.7471 170.715 46.9111C169.91 44.5696 169.155 41.9379 168.745 39.3565L167.785 33.3073L170.204 35.4166C172.874 36.0126 176.129 36.5389 177.143 39.6661C175.111 38.7256 173.319 38.0019 171.144 37.7697L175.371 40.5562C173.265 40.6723 172.209 39.6738 170.486 38.9694C170.688 40.6917 170.959 43.1802 171.725 44.469C173.3 45.394 175.092 46.0829 176.396 47.1975C178.018 48.5753 178.266 51.1219 176.443 52.2791C176.528 50.4292 176.671 48.614 175.162 47.7548L172.243 46.0984C175.386 54.1562 169.058 55.5882 172.093 62.2643C172.99 64.242 173.215 66.2932 173.459 68.5456C174.511 68.1973 175.313 67.3575 175.32 66.6841C175.351 63.3673 173.149 63.9014 172.917 60.3679L176.903 64.6212C178.32 64.1646 179.005 62.3765 178.734 61.1613C176.35 61.3316 175.235 59.9538 175.208 57.8251C175.158 53.5137 178.436 55.4643 179.202 49.5351C179.481 47.3833 178.854 45.4791 177.07 44.0317L179.817 41.8876C180.615 41.2645 181.118 39.5461 181.021 38.4431C180.816 36.1132 177.817 35.0566 176.868 33.4234C179.214 33.8221 180.398 33.7485 181.335 31.8521C181.629 31.26 181.768 29.9789 181.505 29.2978C180.708 27.2272 178.033 29.0617 176.087 25.4043C175.282 23.8949 174.155 22.8152 172.522 21.5225C174.198 20.702 176.129 21.9792 177.128 23.5853C177.956 24.9167 179.175 25.7101 180.669 26.248C182.844 27.0337 184.195 29.1933 183.301 31.5231C182.825 32.7655 181.884 34.0427 181.11 35.1341C183.587 37.8819 182.949 41.7328 179.945 43.9311C182.294 48.3779 181.234 53.4208 177.155 56.2732C176.315 56.8615 176.64 59.2532 177.356 59.648L179.79 59.888C180.615 61.0336 180.766 62.9222 180.092 64.1762C179.636 65.0276 178.095 65.8287 177.004 66.5022L175.955 69.1339C175.7 69.7725 174.105 70.0202 173.114 70.2679C171.93 74.2039 171.164 78.5037 170.881 82.6448C170.603 86.7124 169.256 90.0873 168.315 93.9072C167.479 97.3091 168.931 101.303 168.725 104.926C168.683 105.642 169.635 106.923 170.293 107.105C176.392 108.808 181.575 111.606 186.834 115.487C189.834 111.35 194.784 110.325 199.014 113.185C201.139 111.168 203.797 110.913 206.228 110.866C210.048 110.793 210.853 113.374 213.024 115.352C214.348 116.56 218.171 116.745 218.272 119.253C218.315 120.306 219.716 121.316 220.559 121.591C230.448 124.842 226.136 130.086 232.356 130.798C242.674 131.982 251.428 137.048 257.849 145.083C269.73 159.952 269.727 171.803 270.841 190.384C283.226 199.107 287.413 209.449 293.575 222.607C294.364 224.291 295.127 225.847 295.734 227.763C294.867 228.01 294.26 227.372 293.927 226.698C286.694 212.119 283.152 202.982 270.702 192.083C270.028 191.495 268.817 191.499 268.651 190.299C268.008 185.627 267.586 181.161 267.474 176.436C267.114 161.733 260.337 148.38 248.835 139.409C243.119 134.951 236.497 133.229 229.755 131.108C226.194 129.989 221.755 124.865 212.908 128.77C210.582 129.796 208.178 130.74 206 132.114L198.244 136.998L204.448 141.139C203.271 141.511 195.941 137.912 196.668 137.675L195.229 138.144C192.396 139.065 189.505 139.893 187.039 141.484C185.843 142.254 185.042 143.814 183.157 142.455C184.81 140.648 187.024 139.363 189.427 138.531C193.104 137.257 196.409 135.651 199.73 133.616L206.495 129.467C212.107 126.022 218.129 124.997 224.867 126.015C221.639 122.168 217.552 123.886 216.569 120.283C214.197 111.594 197.106 125.132 195.469 126.916L189.536 133.387C191.134 130.206 193.027 127.385 195.426 124.842C198.34 121.757 206.174 116.889 210.725 116.223C210.071 111.927 203.163 112.833 201.82 113.541C197.361 115.898 194.462 119.4 191.018 123.394C191.626 119.516 194.718 117.016 197.535 114.524C195.043 113.014 192.276 113.316 189.981 114.802C182.945 119.354 188.003 126.003 185.662 130.748C183.819 134.479 181.3 137.842 177.639 140.261C179.02 137.66 180.622 135.334 182.291 133.02C187.577 125.686 182.376 123.147 185.94 116.683C179.376 113.278 176.868 110.731 169.395 108.831L169.635 115.189C168.218 114.334 167.963 113.254 167.77 112.012L165.858 99.7086C163.775 101.408 161.538 101.876 159.151 102.607C156.434 104.968 151.7 112.364 148.074 113.103L154.843 104.767C152.672 106.013 151.302 108.347 148.492 107.848C150.071 106.772 152.258 105.123 152.981 103.861L152.966 103.877ZM98.841 70.0163C98.8526 69.5519 98.0011 68.743 97.8657 68.3792C97.5406 67.5084 98.3262 66.0106 98.9919 64.5903L96.4492 64.2691C92.7957 68.9249 98.2837 71.4019 94.5605 73.2712C92.4938 74.3084 90.2917 74.4555 87.8844 74.6374C88.1205 77.0949 95.021 78.4031 95.5397 78.2212C98.3107 77.2614 98.7713 72.5668 98.841 70.0163ZM99.4408 102.298C100.068 104.303 100.714 106.242 102.703 106.938C102.502 106.276 102.003 104.372 102.498 103.741L105.579 99.8557C106.461 98.7411 107.154 97.5761 107.096 96.0784C105.885 97.7193 104.987 99.8441 102.541 100.196C107.313 95.0992 108.28 86.1009 106.105 79.4945C105.575 82.401 105.591 85.5049 102.823 87.4749L104.735 80.0634L105.962 79.4984L100.339 72.3694C99.6769 80.6246 95.6016 79.3319 90.5239 83.0396C86.5221 85.9616 85.6745 91.1825 88.3991 95.494C89.1731 92.4674 93.9374 89.4719 97.1961 87.8774C95.1333 90.6097 93.4614 93.3189 94.634 96.5118C95.3075 93.8336 96.2673 91.4031 98.6707 90.1182L95.9112 96.3609C95.4545 97.3942 94.8353 98.5824 95.3152 99.697C100.161 99.1745 103.234 95.9429 105.73 91.8327C106.101 96.9375 98.7403 100.065 98.9609 100.761L99.4447 102.298H99.4408ZM141.073 99.2055C137.849 98.0251 135.144 97.5413 132.094 97.3981C135.089 98.4469 138.12 99.0313 141.073 99.2055ZM104.008 106.601C105.385 107.631 106.759 107.991 108.242 108.204L107.05 100.069L104.043 103.718C103.539 104.33 103.222 106.017 104.004 106.601H104.008ZM68.1695 307.117C67.736 297.748 71.7262 291.579 76.177 283.741C77.1097 282.096 77.5277 280.436 77.16 278.586L75.4145 269.851C72.6318 275.556 70.1781 280.823 67.0007 286.025C65.2126 288.954 62.7086 291.443 61.3037 294.582C59.9453 297.62 60.5026 301.409 59.9608 304.718C59.3764 308.29 58.3275 311.448 57.1974 315.001C62.1436 314.161 64.2877 310.601 68.1695 307.114V307.117Z" fill="currentColor"/>
<path d="M125.047 26.0585C122.264 27.4828 117.194 29.3985 114.222 29.027C116.645 32.4134 120.163 31.2485 123.112 31.6936C127.888 32.4134 132.06 31.6162 135.856 28.3497C134.955 33.8957 120.043 34.1008 116.126 32.6379C116.908 33.6325 118.51 34.6852 119.892 34.8246L127.446 35.587L122.225 37.0074C130.546 39.5656 142.842 38.7567 145.927 29.0696C146.399 27.5873 148.268 26.3217 149.557 26.2714C151.209 26.2056 152.661 27.328 153.539 28.7561C154.286 29.9713 154.542 31.442 153.361 32.5527L152.065 29.3443C151.867 28.8528 150.559 28.0439 150.041 28.1175C149.522 28.191 148.779 28.5935 148.407 28.8567C149.905 29.1508 151.089 29.6191 151.662 30.6912C150.35 30.6486 147.869 29.8281 147.188 30.9892C145.741 33.4622 144.475 35.5444 141.987 36.9841C138.256 39.1437 134.119 39.8597 129.796 39.8791C128.081 41.5858 127.744 44.2872 127.168 46.4778C126.545 48.8347 124.122 50.259 122.67 52.1128C121.204 53.986 120.588 56.4707 119.636 58.6225C118.816 60.4725 117.047 62.5276 118.68 64.5169L121.548 68.0155L118.251 68.093L118.394 70.3415C116.741 70.3532 116.559 68.9057 115.545 68.3252C113.436 67.1177 111.803 64.4511 112.546 62.2451C112.689 61.8155 114.168 61.4478 114.253 61.5949L114.783 65.7437L118.611 66.4636C117.717 64.2498 115.526 62.098 116.761 59.683C117.736 57.775 119.083 55.8631 120.128 54.0982C109.914 58.5335 111.4 55.7973 101.326 55.7779L103.788 54.5665L100.157 52.4418C99.5614 52.0935 98.7022 51.9658 97.8276 51.8729C97.5721 51.5516 98.1759 49.3921 98.8919 49.2566L102.793 48.5058C99.8633 47.1589 97.7889 45.1426 96.7129 41.9419C95.9776 41.7058 94.5843 41.5936 93.7329 41.6594C91.3333 46.2069 82.5789 49.3147 77.6057 47.1357C78.0546 49.7094 80.102 50.8395 82.3196 51.5903C85.706 52.7359 88.9919 51.9967 92.7963 51.66C90.3155 53.9473 87.1187 53.2507 84.0999 53.0959C81.0811 52.9411 77.4354 51.9193 75.9841 48.8735C75.4461 47.7433 75.7944 45.7386 75.9724 44.2408C81.1043 48.1265 87.9933 45.7386 91.3953 41.6361C90.0291 41.1756 89.2821 40.8389 88.8332 39.852C96.8136 36.2024 92.4054 31.2291 100.01 26.7048C97.0496 25.7799 95.4667 23.9067 96.0008 20.9576C96.1169 20.3267 96.2717 19.5295 96.5078 19.1657C96.7942 18.7322 98.3887 18.8212 98.8377 19.1773C100.01 20.1061 101.744 20.7254 103.381 19.692C107.166 17.2964 111.033 15.0129 115.294 13.6313C117.388 12.954 118.967 12.1141 120.271 10.2796C122.574 7.03641 125.848 4.8149 129.745 4.335C132.369 0.248047 137.478 -0.471813 141.472 1.37815C145.865 -1.97346 152.212 1.66455 154.995 5.59669C156.376 6.01854 158.439 6.28946 160.01 6.34364C164.682 6.50619 169.198 8.1162 172.271 11.4407C174.949 14.3356 174.558 17.5131 172.794 20.5589C170.777 24.0383 168.831 26.9255 165.022 29.1547C168.355 30.9505 171.582 28.0362 175.224 28.369C172.774 30.397 169.67 30.9698 166.578 31.5388C171.683 32.7811 173.459 30.8189 178.061 31.3104C177.066 32.9746 175.522 32.9204 173.959 32.754C166.539 31.9683 168.66 34.4375 164.415 30.5518C163.002 31.3104 161.307 32.1696 159.53 32.5605C158.485 30.5673 162.038 31.0472 165.347 24.1466C167.089 20.5125 166.357 16.89 163.668 13.5655C167.426 14.8775 168.726 19.0147 167.759 22.5908L166.81 26.0972C169.167 23.5468 171.482 20.4854 172.263 16.8629C172.91 13.8712 170.433 11.6187 168.037 10.6202C166.597 10.0203 165.115 9.04892 163.699 8.77027C161.233 8.28649 159.314 8.03879 156.616 7.81432L159.871 10.6086C153.934 11.4639 150.199 -1.55934 143.051 2.44633C144.75 4.50529 146.766 6.08046 147.37 8.71608C145.118 6.7384 143.283 4.74137 140.891 3.16619C138.016 1.27365 134.153 1.90837 131.978 4.29242C133.538 4.53238 134.846 4.70654 135.876 5.6083C127.346 5.14387 124.462 7.61307 119.129 14.204L114.408 16.0037C108.42 18.2871 103.486 24.8936 97.9359 21.2208C98.0404 22.2348 98.1681 23.2797 98.439 23.8061C99.2557 25.3774 106.071 24.9091 107.081 24.642L116.029 22.2657C114.822 23.6551 113.003 24.4601 111.184 24.9981L104.786 26.8906C97.8701 28.938 98.4352 29.7314 96.1208 35.3354C95.2964 37.3363 94.0309 38.3542 92.1809 40.0455L96.0898 40.0261C100.854 40.0029 105.084 38.6212 108.691 35.4051C108.215 37.5337 106.311 39.0044 104.291 39.7862L98.5319 42.0038C99.573 45.1116 102.619 46.1953 105.603 46.7874C111.35 47.933 110.975 45.1619 115.549 43.4087C113.498 47.4453 109.454 48.9315 105.433 49.5198L98.9538 50.468C103.215 53.4055 107.662 53.3474 112.887 52.2754L110.023 54.5665C113.339 55.2825 116.842 53.777 119.694 51.6407C122.016 49.9029 127.079 46.3036 126.328 43.1339C122.992 46.234 119.454 48.769 115.263 47.8904C119.075 46.2843 122.481 45.0187 124.9 42.0348C125.089 41.8026 125.647 41.0904 125.898 41.2104L127.071 41.7639L127.926 40.3087C120.147 38.0678 115.286 38.0562 112.685 28.8644L120.844 26.074C122.105 25.6444 123.263 24.9865 125.055 26.0508L125.047 26.0585Z" fill="currentColor"/>
<path d="M223.161 331.669C221.605 328.167 217.835 326.932 214.472 328.093C213.551 328.411 211.968 328.287 211.341 327.737C211.724 325.315 212.882 323.147 212.673 320.659C212.514 318.755 211.043 315.337 209.286 314.335C207.072 313.073 203.674 314.149 201.29 314.904C190.295 318.391 179.261 320.457 168.432 324.27L151.701 330.152C158.791 325.009 166.745 322.431 175.054 320.492C183.905 318.426 192.129 315.658 200.961 313.077C197.544 308.022 186.978 307.736 181.707 306.567C188.646 306.331 193.828 306.513 199.982 309.493C207.587 302.473 206.534 290.177 205.099 280.645C204.839 278.915 205.718 278.125 206.418 276.898C208.477 273.295 209.182 268.813 209.476 264.649C209.607 262.791 208.651 260.914 209.851 259.157C211.628 262.493 210.645 265.965 210.896 269.827C217.298 265.044 221.539 258.573 224.229 251.328C225.646 247.519 226.876 243.866 228.757 240.278C230.665 236.644 232.36 232.921 231.993 228.648C231.598 227.22 230.77 225.165 230.042 223.776C227.256 218.435 225.127 213.167 223.358 207.439C222.093 203.337 219.902 199.951 216.543 197.334C215.602 196.603 214.128 196.382 213.071 197.125C206.298 201.905 199.03 205.442 191.073 207.854C190.369 208.066 189.436 207.757 188.995 207.072C200.071 202.257 209.155 198.491 217.584 189.691C222.217 184.853 225.986 179.876 229.69 174.287C229.136 176.389 228.258 178.157 227.337 180.154C229.736 180.019 232.244 179.469 234.512 179.926C239.528 180.936 244.513 183.278 247.752 187.562C245.658 187.372 244.207 186.029 242.458 185.023C237.608 182.229 231.757 180.727 226.156 182.399L218.238 192.942C221.025 197.493 223.676 201.901 225.375 207.033C228.517 216.527 232.349 225.285 236.598 234.38C240.259 242.213 245.511 248.92 251.263 255.357C252.617 256.874 254.734 257.4 255.214 259.842C248.615 256.301 241.351 247.163 237.868 240.909L233.827 233.649C231.83 239.485 230.282 241.261 227.855 247.616C223.029 260.279 221.276 264.525 210.277 273.334L208.322 278.516C207.51 280.672 207.61 283.164 207.695 285.498C207.827 289.116 207.874 292.576 207.707 296.145C207.289 305.081 202.331 307.779 202.254 310.24C202.231 310.941 203.156 312.485 203.879 312.558C205.745 312.748 208.562 311.993 210.246 312.872C212.483 314.041 213.973 316.854 214.294 319.296C214.592 321.576 214 323.732 213.636 326.352C215.316 326.348 217.356 325.93 219.066 326.139C221.98 326.491 224.411 329.084 225.39 331.604C225.909 332.931 226.389 334.166 227.321 335.048C229.628 337.235 229.643 340.49 227.763 342.932C226.698 344.314 225.564 345.595 224.016 346.442C225.437 343.834 229.144 339.178 226.238 336.267C224.868 334.897 223.974 333.516 223.153 331.669H223.161Z" fill="currentColor"/>
<path d="M1.04522 344.484C1.01426 344.879 0.549843 345.557 0.49566 345.684C0.422126 345.866 -0.0771484 345.177 -0.0771484 344.895C-0.0384463 333.466 1.00264 321.577 3.42927 310.372C4.94639 303.379 7.21823 297.411 11.042 291.521L17.9658 280.854C20.5279 276.907 21.5767 272.607 21.4219 267.846C21.1278 258.86 22.7455 250.237 26.31 242.063C27.7884 238.673 28.7289 235.259 31.5 232.364C30.5247 236.347 28.9727 239.826 27.4672 243.534C24.6497 250.461 23.1906 257.463 22.881 264.897L22.6023 271.558C22.4475 275.231 21.4993 278.153 19.4907 281.156C9.33135 296.351 5.82106 303.449 3.30542 322.072C2.35334 329.135 1.54834 337.739 1.03748 344.484H1.04522Z" fill="currentColor"/>
<path d="M143.937 54.7988L143.249 52.825C137.087 53.394 137.803 56.1689 133.205 54.764C137.401 50.5068 140.837 51.2112 145.277 49.8411C139.7 45.3787 137.304 48.0221 131.448 49.129C133.732 46.981 136.584 45.491 139.734 44.9995C141.255 44.7634 143.338 45.2742 144.843 45.6574L153.025 47.7434C153.327 47.8208 154.132 48.0724 154.31 47.8557L155.459 46.4547C155.753 47.5654 155.517 49.3767 154.697 50.3326C153.57 51.6446 151.895 51.4201 149.944 51.4356C148.589 51.4472 148.349 54.3693 148.481 55.7393L147.599 54.9072C146.902 55.4529 146.26 55.9483 145.784 56.1534C145.269 56.374 144.115 55.3291 143.93 54.7988H143.937Z" fill="currentColor"/>
<path d="M173.335 207.56C176.13 207.699 178.789 206.596 181.262 208.551C173.792 209.205 166.365 209.182 158.992 208.137C151.685 207.099 144.769 206.182 137.493 204.448C132.853 203.341 128.402 198.628 126.8 194.277C124.799 188.844 125.503 183.282 126.177 178.026C127.168 189.722 126.146 193.012 134.525 201.093C136.166 202.672 138.012 203.736 140.338 203.937C152.591 204.994 160.328 206.921 173.328 207.564L173.335 207.56Z" fill="currentColor"/>
<path d="M151.299 15.2988C149.034 15.7052 148.527 14.7725 147.107 13.9094C143.024 11.4248 137.087 11.3396 132.783 13.3637C129.892 14.7222 123.495 20.5314 119.59 18.5537C122.698 17.4894 125.434 16.5412 127.872 14.6757C133.825 10.1282 143.198 8.0267 149.038 13.5263L153.052 13.534C158.195 13.5418 162.901 18.9562 160.591 21.7234C159.194 17.8184 156.036 14.4513 151.299 15.2988Z" fill="currentColor"/>
<path d="M166.327 262.993C168.672 255.861 172.875 250.775 170.956 242.601C170.034 238.681 166.644 236.838 166.335 234.199C168.405 235.345 169.686 236.989 171.203 238.983C178.104 234.598 179.946 237.322 187.47 233.228C183.828 238.53 175.975 236.208 171.908 240.446C173.58 245.887 172.937 251.557 170.669 256.863L167.832 263.497C167.732 263.729 167.279 264.139 167.182 264.278C167.043 264.48 166.211 263.342 166.323 262.993H166.327Z" fill="currentColor"/>
<path d="M144.502 27.4553C142.594 33.0943 136.658 36.2717 130.922 35.3003C132.524 35.1184 137.374 32.4247 137.284 32.2467L137.78 33.2297C139.382 32.3009 141.352 30.954 142.649 29.5104C142.73 25.23 144.804 22.1648 148.597 20.4503C150.799 19.4556 153.125 19.5214 155.521 20.7599C157.185 21.6191 158.621 23.6548 159.236 25.946C160.018 28.8602 158.915 31.968 155.8 32.8659C155.053 31.5075 159.383 30.0097 156.957 25.1293C156.276 23.7632 154.716 21.9867 152.816 21.7042C148.717 21.0966 145.783 23.678 144.506 27.4592L144.502 27.4553Z" fill="currentColor"/>
<path d="M90.0982 249.73C88.6353 253.782 88.9874 258.248 90.4814 261.972C91.5998 264.754 93.3647 266.925 94.0845 270.037C87.8496 264.468 84.9431 253.051 90.4156 246.251C86.6382 244.718 84.1303 241.548 83.5498 237.628C85.6978 239.695 87.153 243.851 90.7329 244.56C91.4915 244.71 92.7261 243.426 93.264 243.011L94.0381 242.415C94.1929 242.299 94.7463 242.911 94.6418 243.069L94.1465 243.832C92.9312 245.697 90.9419 247.389 90.0982 249.726V249.73Z" fill="currentColor"/>
<path d="M29.9286 288.347C23.8175 275.572 27.1653 261.349 30.7142 248.132C31.4496 245.395 32.0649 242.729 33.2492 240.256C31.5966 249.045 29.6112 257.161 28.4811 265.842C27.5368 273.416 28.2992 280.475 29.9286 288.347Z" fill="currentColor"/>
<path d="M143.721 143.287C141.491 144.138 140.597 146.971 137.834 147.3C139.572 144.99 141.665 142.215 144.483 141.201C149.255 139.478 154.17 138.147 159.24 137.625L176.943 135.794C175.847 136.614 174.531 136.494 173.215 136.731L162.464 138.67C156.074 139.823 149.917 141.239 143.721 143.287Z" fill="currentColor"/>
<path d="M127.353 227.778C127.86 229.284 128.077 230.669 128.046 232.151C126.363 231.157 126.1 229.504 125.48 227.836C123.565 222.685 122.856 217.267 124.648 212.011C125.956 208.172 128.855 204.623 133.101 203.938C129.974 206.48 127.036 208.756 126.146 212.684C125.004 217.712 125.666 222.762 127.353 227.782V227.778Z" fill="currentColor"/>
<path d="M94.1393 284.039C89.9207 290.51 91.8055 295.61 93.0788 302.886C90.9192 300.63 90.5903 297.6 90.122 294.72C89.4911 290.808 90.5709 287.464 92.4634 283.942C92.9395 283.052 92.6454 280.942 92.4132 279.727C90.9541 272.172 96.4459 269.111 94.9791 272.246C93.7484 274.874 93.311 278.338 94.027 281.356L95.9234 280.466C95.3197 281.987 94.894 282.885 94.1431 284.035L94.1393 284.039Z" fill="currentColor"/>
<path d="M156.356 300.349L163.133 291.54C165.328 288.688 166.04 285.15 165.796 281.388L165.324 274.097C165.308 273.838 165.56 273.126 165.641 272.932C166.454 270.985 168.234 280.44 166.98 285.452C165.494 291.397 162.096 297.132 156.356 300.352V300.349Z" fill="currentColor"/>
<path d="M130.232 163.374C128.142 166.346 129.423 174.114 126.606 173.309C125.503 167.67 129.551 159.062 132.911 154.321C132.601 156.57 131.823 158.373 131.134 160.471C133.406 159.682 135.589 158.962 137.903 158.772C135.627 160.568 132.113 160.696 130.232 163.37V163.374Z" fill="currentColor"/>
<path d="M158.083 263.736C146.573 261.19 137.888 259.858 126.885 266.298C128.177 263.473 131.343 262.269 134.3 261.468C142.292 259.305 150.776 259.905 158.086 263.736H158.083Z" fill="currentColor"/>
<path d="M127.183 239.4C124.292 246.726 124.865 254.289 125.829 261.87C121.099 256.653 123.301 240.112 127.04 238.289C127.187 238.216 127.264 239.199 127.183 239.4Z" fill="currentColor"/>
<path d="M122.21 266.883C112.856 263.492 103.877 264.452 95.7764 270.002C99.2983 262.873 117.043 260.919 122.21 266.883Z" fill="currentColor"/>
<path d="M75.0284 157.673C72.3657 160.103 70.3222 162.619 67.3809 164.941C69.5714 158.961 80.1758 149.39 87.3512 149.603C83.0514 152.173 78.7864 154.247 75.0284 157.676V157.673Z" fill="currentColor"/>
<path d="M106.547 145.733L94.3369 147.305C96.0321 146.523 97.6498 146.217 99.5075 145.822C104.585 144.739 117.887 141.317 122.009 145.041C116.815 145.091 111.896 145.044 106.544 145.733H106.547Z" fill="currentColor"/>
<path d="M119.652 277.742L113.959 277.196C115.999 273.585 122.756 277.688 123.813 276.631C122.512 274.448 123.267 272.37 124.977 270.59L124.691 276.008C127.389 275.118 129.815 273.462 132.466 275.342C129.947 276.004 127.733 276.399 125.647 277.316C123.662 278.191 121.978 277.963 119.656 277.738L119.652 277.742Z" fill="currentColor"/>
<path d="M139.126 16.1464C134.126 16.456 128.789 25.7793 119.748 21.9749C126.289 22.0136 128.243 20.5313 133.247 17.1333C136.479 14.9389 140.771 13.654 144.456 15.8174L139.126 16.1464Z" fill="currentColor"/>
<path d="M122.69 237.113C112.066 234.822 110.669 235.48 100.498 237.616C104.705 233.951 118.019 231.629 122.69 237.113Z" fill="currentColor"/>
<path d="M180.665 193.201C184.555 196.885 188.839 192.88 190.062 195.063C191.622 197.845 178.417 197.195 178.37 192.214C178.339 188.952 184.017 188.487 186.32 189.981L181.428 190.651C181.045 190.705 180.371 191.262 180.185 191.525C179.957 191.858 180.348 192.899 180.665 193.205V193.201Z" fill="currentColor"/>
<path d="M37.9439 310.678C38.8456 311.908 39.5887 313.271 39.3333 314.513C33.6286 307.686 30.9697 302.96 31.1245 293.978C34.3755 300.843 33.3112 304.369 37.9439 310.678Z" fill="currentColor"/>
<path d="M159.704 80.1216C158.361 80.4351 156.477 79.5179 155.126 79.7501L146.414 81.2517C146.008 81.3214 145.725 79.8778 146.035 79.7114C148.156 78.5813 147.389 80.5241 150.977 79.1773C157.672 76.6694 155.799 79.1502 161.384 78.6393C162.75 78.5155 163.861 79.5914 164.716 80.6789L165.39 81.5342C165.583 81.7819 165.057 82.5985 164.747 82.5444C162.905 82.2115 163.671 79.2005 159.704 80.1216Z" fill="currentColor"/>
<path d="M143.596 230.212C139.478 230.344 135.705 231.911 131.587 232.449C137.547 228.029 145.458 227.193 152.343 229.93L143.596 230.212Z" fill="currentColor"/>
<path d="M276.876 208.009L272.549 202.858C269.282 198.968 264.607 194.963 260.389 192.532C260.118 192.373 259.553 191.774 259.634 191.65L260.164 190.849C264.565 193.167 268.47 196.046 271.519 199.862C273.617 202.482 275.583 204.894 276.876 208.009Z" fill="currentColor"/>
<path d="M200.148 255.609C201.116 251.963 203.519 248.619 207.475 247.183C209.851 246.32 212.266 244.044 211.62 241.231L210.563 236.637C212.75 238.394 213.141 241.041 212.58 243.506C211.26 249.308 205.834 247.199 202.881 252.013C202.145 253.344 201.608 254.455 200.148 255.612V255.609Z" fill="currentColor"/>
<path d="M71.7155 209.576C73.968 209.893 77.1841 207.904 76.5959 205.245C76.383 204.293 74.0106 204.707 73.2636 205.133L70.6473 206.63C71.4794 203.855 74.4943 202.733 76.8165 203.437C78.3684 203.91 78.4962 206.166 77.7492 207.451C75.4116 211.48 68.2285 212.606 70.2758 209.862C70.4771 209.595 71.2008 209.502 71.7155 209.576Z" fill="currentColor"/>
<path d="M44.597 296.551C44.9685 296.849 43.9662 299.16 39.527 295.305C37.1855 293.269 34.2635 291.644 33.6172 288.211L43.8384 295.944L44.597 296.551Z" fill="currentColor"/>
<path d="M73.6778 232.829C73.8597 239.342 76.5959 239.857 80.141 244.211C73.6894 243.348 71.0112 233.123 72.6986 227.646C73.4572 229.256 73.6274 231.126 73.6778 232.829Z" fill="currentColor"/>
<path d="M209.151 224.79C210.401 222.452 210.981 234.922 197.769 239.934C199.007 238.483 200.242 237.407 201.755 236.493C207.63 232.952 208.056 226.837 209.151 224.79Z" fill="currentColor"/>
<path d="M107.023 30.7178C105.286 34.7351 101.377 38.822 96.7324 37.3823C106.613 34.1042 103.35 30.0714 108.25 27.8848L107.023 30.7139V30.7178Z" fill="currentColor"/>
<path d="M99.9756 41.9303C104.101 41.911 107.627 41.8761 111.01 39.5695C112.167 38.78 113.308 37.7543 114.965 37.5918C111.745 42.3096 105.305 44.9181 99.9717 41.9342L99.9756 41.9303Z" fill="currentColor"/>
<path d="M124.516 143.302C122.635 142.923 122.136 141.333 122.121 139.75C122.086 135.93 120.859 132.613 119.764 128.696C122.813 131.932 123.467 136.146 124.071 140.272L124.512 143.299L124.516 143.302Z" fill="currentColor"/>
<path d="M174.799 255.717C175.089 252.149 178.522 250.523 181.618 250.113C185.318 249.621 188.48 248.464 191.557 246.413C189.753 249.409 186.324 250.771 182.996 251.026C179.497 251.293 177.303 252.915 174.799 255.717Z" fill="currentColor"/>
<path d="M140.906 142.188C140.771 139.014 142.184 135.74 144.266 133.538C147.238 130.395 148.825 127.02 150.524 122.926C150.241 127.767 147.397 131.289 144.707 134.869C143.093 137.017 142.412 139.703 140.906 142.188Z" fill="currentColor"/>
<path d="M183.723 267.003C184.377 262.571 195.449 259.398 198.933 256.688C197.779 258.794 195.705 260.025 193.627 260.942C190.016 262.536 186.985 264.518 183.723 267.003Z" fill="currentColor"/>
<path d="M171.346 221.593C171.722 223.625 165.8 234.426 163.989 233.052C163.699 232.832 163.66 231.764 163.95 231.446C166.636 228.517 169.14 224.886 171.346 221.593Z" fill="currentColor"/>
<path d="M90.4934 227.422C89.9439 230.498 92.386 233.006 93.3845 236.06C88.3571 233.111 87.7495 225.885 91.5307 221.616L90.4973 227.422H90.4934Z" fill="currentColor"/>
<path d="M194.185 227.7C194.765 226.69 195.795 225.599 196.704 224.96C200.957 221.964 202.068 217.498 203.783 212.587C204.75 219.17 199.661 224.941 194.185 227.7Z" fill="currentColor"/>
<path d="M180.588 128.336C176.249 127.113 172.422 122.98 171.868 118.157L180.588 128.336Z" fill="currentColor"/>
<path d="M125.213 164.825C121.266 163.405 116.529 162.751 112.48 162.739L116.575 162.089C119.822 161.574 124.064 161.969 126.413 164.318C126.553 164.457 125.492 164.926 125.213 164.825Z" fill="currentColor"/>
<path d="M177.194 224.337C183.824 220.088 185.244 222.394 191.146 214.933C189.115 221.415 183.178 222.781 177.194 224.337Z" fill="currentColor"/>
<path d="M160.27 86.0655L153.977 86.8395C154.074 86.4835 154.298 85.7868 154.058 85.5546L152.754 84.2891L161.841 84.8851C161.435 85.7481 160.97 85.9765 160.266 86.0616L160.27 86.0655Z" fill="currentColor"/>
<path d="M141.379 17.8221C135.078 20.9028 136.615 20.9028 132.241 25.0052C132.303 22.3851 138.418 15.7477 141.379 17.8221Z" fill="currentColor"/>
<path d="M136.104 146.271C132.223 147.316 131.065 137.837 131.476 136.107C132.834 139.834 133.608 143.047 136.104 146.271Z" fill="currentColor"/>
<path d="M121.885 286.365L121.927 280.594C121.927 280.149 122.961 279.274 123.305 279.588C123.572 282.034 124.253 285.629 122.957 287.328C122.802 287.533 121.881 286.694 121.881 286.365H121.885Z" fill="currentColor"/>
<path d="M135.636 9.92294C131.685 9.0831 128.414 8.98248 124.443 9.1218C128.074 7.17896 132.668 7.12477 135.636 9.92294Z" fill="currentColor"/>
<path d="M93.9769 47.6582C93.7253 49.5353 85.1992 51.8109 83.624 48.8657C87.3317 49.2566 90.2731 48.9315 93.9769 47.6582Z" fill="currentColor"/>
<path d="M143.275 21.2979C139.862 25.6828 140.338 29.3905 138.321 30.4548C138.503 26.72 139.854 23.1207 143.275 21.2979Z" fill="currentColor"/>
<path d="M155.846 31.2676C155.478 31.0354 155.006 30.153 155.037 29.6731C155.273 26.1783 152.862 24.5722 149.437 23.9955C151.697 22.4668 154.565 24.2974 155.37 26.4918C155.873 27.858 155.877 29.2435 155.846 31.2676Z" fill="currentColor"/>
<path d="M84.545 256.278C82.2035 258.767 73.7548 250.74 74.854 248.801C77.0445 252.791 79.9665 255.012 84.545 256.278Z" fill="currentColor"/>
<path d="M130.302 150.323L124.671 145.752C127.585 145.292 129.377 147.509 130.302 150.323Z" fill="currentColor"/>
<path d="M159.488 69.3309L154.371 70.4417C154.669 68.0963 157.808 67.361 159.488 69.3309Z" fill="currentColor"/>
<path d="M162.255 213.265C160.358 211.933 158.71 210.749 157.421 209.077C159.859 209.476 161.388 211.233 162.255 213.265Z" fill="currentColor"/>
<path d="M123.87 208.848L117.392 205.582C119.915 205.69 122.794 206.488 123.87 208.848Z" fill="currentColor"/>
<path d="M151.093 8.22439C149.773 7.12138 148.93 5.78615 148.295 4.21484C150.044 4.48189 151.619 5.92161 151.093 8.22439Z" fill="currentColor"/>
<path d="M289.941 227.441C287.452 225.913 286.523 223.219 285.575 220.606C287.239 222.812 288.629 224.957 289.941 227.441Z" fill="currentColor"/>
<path d="M100.556 83.3332C96.2325 86.4255 94.2161 84.7497 90.0518 89.5062C91.6076 81.9554 99.9905 86.8048 103.102 76.3242C104.074 78.9753 102.618 81.8548 100.556 83.3293V83.3332Z" fill="currentColor"/>
</g>
<defs>
<clipPath id="clip0_1123_1065">
<rect width="295.685" height="303.038" rx="12" fill="white"/>
</clipPath>
</defs>
</svg>

