<svg width="295" height="297" viewBox="0 0 295 297" fill="none" xmlns="http://www.w3.org/2000/svg">
<g clip-path="url(#clip0_1204_4074)">
<path d="M51.3555 284.813L46.3047 284.568C47.125 284.09 47.9646 284.07 48.9657 284.115L51.7882 284.251C54.5203 284.38 57.1361 284.303 59.894 284.251L75.7374 283.948C79.5029 283.876 83.0552 283.67 86.8659 283.896C82.4674 284.606 78.0496 284.451 73.4574 284.652L68.7167 284.858C62.9038 285.11 57.1813 285.091 51.3619 284.813H51.3555Z" fill="currentColor"/>
<path d="M90.5477 51.3923C88.8103 53.8014 87.131 48.5892 82.0156 52.4063C82.4807 50.6883 84.2374 49.7712 85.6584 49.5516C87.6025 49.248 89.2688 50.1458 90.5477 51.3923Z" fill="currentColor"/>
<path d="M294.955 190.231V195.895C294.199 195.223 293.443 194.28 292.849 193.298C290.731 189.804 288.322 186.73 285.654 183.668C284.466 182.299 283.452 181.376 281.533 181.04C275.191 179.916 268.881 179.683 262.377 179.548C256.919 179.438 251.655 179.78 246.23 178.269L257.436 178.12L272.84 178.101C274.855 178.101 276.631 178.715 278.737 178.941C278.207 178.579 277.626 178.308 276.961 178.056L263.048 172.74L248.051 166.572C244.751 165.216 241.825 163.614 238.802 161.612C240.501 161.915 241.993 162.283 243.543 162.897L264.573 171.242L280.868 177.707L276.754 171.293L269.94 160.714C268.325 158.208 266.788 155.831 264.954 153.428C260.187 147.196 254.439 142.093 248.348 137.178C243.717 133.445 239.364 129.77 233.441 132.592C231.807 133.374 230.231 134.013 228.494 134.73C229.088 136.584 228.494 138.031 227.422 139.387C225.936 141.26 224.606 143.094 223.256 145.155L231.09 148.591C236.16 150.813 239.842 151.239 244.977 153.364C249.717 155.327 260.723 161.16 264.114 165.074C259.063 162.258 254.277 159.358 248.962 157.187L245.241 155.676C243.104 154.804 240.921 153.906 238.692 153.293C233.816 151.956 229.172 150.69 224.715 148.307C222.132 146.924 219.49 146.983 216.732 148.093C219.406 151.368 222.287 154.43 225.258 157.607L229.656 162.316C233.48 166.411 237.097 170.596 240.01 175.414L242.548 179.612C245.048 183.739 245.254 185.419 250.88 185.554L260.859 185.787C267.143 185.935 273.26 186.497 279.286 187.925L274.945 187.654C273.156 187.544 271.367 187.298 269.546 187.285L247.903 187.188C248.594 189.423 250.331 190.599 252.514 190.625L267.77 190.799C274.532 190.876 281.314 191.962 287.366 195.101L294.968 199.047V203.122C291.622 201.275 288.108 199.815 284.556 198.143C272.53 192.511 269.01 195.591 256.848 194.855C256.163 194.816 255.285 195.191 254.975 195.708C254.704 196.166 254.852 197.238 255.272 197.794C258.979 202.631 262.629 207.443 265.012 213.075L267.402 218.72L270.922 216.899C279.357 212.539 285.977 213.902 294.968 214.929V216.686C291.08 216.505 287.191 216.544 283.193 217.015C279.195 217.487 273.692 219.347 270.831 222.143C270.721 222.253 270.476 222.654 270.573 222.77C270.637 222.847 270.799 223.041 270.902 223.151L273.421 225.922C275.507 228.215 277.458 230.566 279.363 232.994C282.108 236.501 281.785 235.1 284.414 238.168L284.853 238.678C285.841 239.828 279.086 236.243 277.006 233.982L273.615 230.288C273.24 229.881 272.685 228.822 272.181 228.454L267.88 225.366L268.319 224.927C268.377 224.869 268.338 224.817 268.177 224.708L266.065 223.235C265.696 222.977 266.484 222.608 265.58 222.072C264.211 221.259 262.247 220.451 261.111 219.34C260.413 218.656 259.896 218.023 259.089 217.558C254.678 215 257.184 215.252 255.169 214.47C253.367 213.773 251.758 212.972 250.512 211.829L250.66 211.164L248.574 210.543C248.445 210.505 248.18 210.414 248.103 210.408L245.655 208.27C244.596 207.346 242.057 206.378 240.417 205.932L239.874 205.783C238.996 203.691 235.889 203.846 236.225 203.581L236.49 203.374L237.084 202.909L230.8 201.139C229.585 200.797 228.526 199.215 227.17 199.15C226.957 199.137 226.64 199.131 226.569 199.118L224.154 198.601C222.616 197.206 220.737 198.194 217.785 195.998L218.276 195.023C215.066 193.266 213.677 193.796 210.913 191.471L208.388 189.352C208.007 187.783 205.152 188.151 202.53 185.277C202.433 185.173 202.097 185.025 202.084 185.038C202.071 185.051 201.942 185.451 201.909 185.561L200.43 190.521C199.868 192.407 200.114 193.809 197.937 194.752C196.116 195.546 194.049 196.573 191.995 195.972L192.751 195.436C192.835 195.378 192.867 195.197 192.803 195.126C192.751 195.068 192.531 194.829 192.583 194.887C197.188 192.401 199.119 190.16 200.275 185.031C201.819 178.185 201.328 176.092 196.891 170.576C192.971 165.694 185.401 165.093 181.371 170.208C180.085 171.842 179.517 174.219 178.529 176.06L176.888 179.128C176.384 179.412 176.132 179.554 176.475 179.141L177.314 176.706C175.435 176.706 173.71 176.544 171.824 176.693C161.632 177.507 163.686 178.101 156.504 181.46C152.19 183.475 148.411 186.407 145.544 190.231C138.575 199.512 139.472 195.643 136.708 207.547C136.094 210.195 139.576 215.239 134.467 221.11C132.613 223.241 130.902 225.437 129.3 227.788L127.382 230.611L126.975 231.186C127.155 230.934 129.442 232.697 131.425 232.142C131.625 232.084 132.142 232.478 132.122 232.671C131.677 236.992 132.936 238.762 128.402 240.48C128.389 240.364 128.415 240.641 128.428 240.764L130.973 242.521L130.856 241.94L130.714 241.662L131.838 241.901C132.142 241.965 132.426 241.849 131.489 242.366C133.078 243.955 137.218 244.142 139.95 243.69L146.616 242.592C147.623 242.424 149.109 240.816 151.402 242.275L148.295 243.083L136.824 245.854C138.73 247.339 140.557 248.314 142.695 249.102L146.564 248.024C147.753 247.694 149.387 248.05 150.549 247.623C151.964 247.1 153.23 246.868 154.586 247.139L154.231 246.351C154.179 246.228 154.767 246.286 154.909 246.312L156.905 246.629C157.021 246.648 157.434 246.629 157.428 246.603C157.428 246.59 157.383 246.248 157.363 246.041L160.522 245.563C160.593 245.55 160.883 245.434 161.238 245.292C161.342 245.369 161.129 245.208 160.922 245.059L160.509 244.762C164.629 243.632 164.636 243.445 168.511 244.846L168.537 243.761L173.594 245.343C173.885 243.141 178.987 246.874 179.827 247.288C179.827 247.32 179.827 247.081 179.827 246.919L179.504 246.338C179.446 246.228 179.704 245.983 179.82 246.028C179.937 246.073 180.434 246.261 180.544 246.338L183.418 248.495C183.47 248.534 183.689 248.76 183.941 249.012C183.915 249.309 183.96 248.805 183.967 248.683C183.967 248.599 183.877 248.36 183.805 248.147C183.896 247.798 184.038 247.32 184.012 247.604C184.916 248.36 184.264 247.656 185.065 248.773L184.91 247.785C184.871 247.539 185.285 247.036 185.459 247.236L186.079 247.953C186.118 247.998 186.299 248.302 186.331 248.373L187.913 251.815C187.881 251.815 188.165 251.802 188.281 251.796L188.443 251.195L188.579 250.698L188.714 250.213C188.74 250.129 188.779 249.929 188.798 249.813L188.895 249.309C188.908 249.232 188.934 248.973 188.94 248.87L188.966 248.282L188.998 247.682C188.998 247.63 189.121 247.423 189.334 247.049C189.715 247.753 190.045 248.67 190.342 249.716L191.763 247.216C191.969 246.739 192.221 246.332 192.189 246.881C192.279 247.307 192.331 247.539 192.338 247.61L192.447 248.863C192.46 249.044 192.473 249.361 192.505 249.477L192.602 249.871L193.545 249.148C193.461 250.872 192.88 251.835 192.047 253.223L193.978 252.132L193.352 253.701C195.496 252.461 196.387 250.259 195.89 247.765L195.296 248.922C195.238 249.038 195.134 249.464 195.108 249.574C195.083 249.684 194.792 249.671 194.811 249.561L194.908 248.947L195.192 247.074C195.263 246.59 195.451 246.035 195.67 245.402L196.174 247.133L197.298 243.496C197.356 243.302 197.537 242.883 197.601 242.741C197.647 242.65 197.911 243.083 197.918 243.186L197.937 243.658L198.008 245.253C199.268 243.793 199.481 242.863 199.933 240.667L200.573 241.914C200.637 242.037 200.753 242.818 200.818 242.695L201.031 242.275C201.606 241.132 201.05 239.214 200.611 237.935C199.81 235.61 198.312 234.796 198.822 234.9L199.688 235.074C201.444 235.429 202.917 236.45 203.208 238.575C203.544 240.977 202.762 243.625 200.986 245.208C200.889 245.292 201.18 245.634 201.18 245.466C202.032 244.523 202.878 243.684 203.731 242.954C203.95 244.594 203.15 245.557 202.116 246.519L200.153 248.347C199.952 248.528 198.318 250.665 199.132 251.311L198.732 252.545L199.365 252.455C200.017 252.358 196.626 258.022 196.148 258.416C198.9 258.196 200.017 257.693 202.542 258.106C202.995 258.177 202.665 258.913 199.817 258.539C197.879 258.28 196.284 259.062 194.488 259.469C191.911 260.05 186.538 258.164 187.481 259.017L187.862 259.359L188.417 259.863C188.514 259.953 187.946 260.231 187.784 260.212L181.881 259.598C181.377 260.677 179.975 259.798 177.437 259.779C177.101 259.779 176.365 259.992 176.055 259.876L171.327 258.061C170.604 257.783 169.189 257.841 168.35 257.867C166.16 257.945 164.804 256.511 163.002 255.716C161.058 254.857 158.765 254.612 156.73 254.037C156.679 254.211 156.646 254.334 156.646 254.315L156.879 255.219C156.93 255.561 151.072 252.358 152.106 252.719C148.96 251.621 148.398 253.165 146.177 251.537C145.434 250.995 144.161 250.698 143.367 251.098L139.763 252.926C138.781 253.423 137.225 252.706 136.185 252.209C132.82 250.582 128.983 253.255 130.365 251.247C130.365 251.247 130.249 251.124 130.133 250.995C128.228 249.503 124.165 249.961 124.462 250.414L124.869 251.034C125.257 251.621 126.122 252.842 126.768 253.081L130.753 254.547C135.726 252.035 139.776 256.808 141.249 252.442C141.391 252.022 142.34 251.97 143.199 252.015L143.089 252.577L142.508 253.294L148.34 253.837C148.45 253.85 148.922 254.037 148.993 254.076C149.432 254.315 148.702 254.302 148.754 254.663L150.11 255.897C149.064 256.343 147.882 256.071 146.984 255.497C144.846 254.127 142.863 254.618 140.538 255.219C138.426 255.768 134.77 254.334 132.839 255.645C133.634 256.608 134.654 257.176 135.926 257.376L136.637 257.492C136.869 257.531 136.831 255.419 137.619 255.884C138.374 256.646 139.485 256.763 140.428 256.369C142.779 259.533 144.543 258.952 147.313 260.011C147.462 260.069 147.856 260.509 147.707 260.573C145.712 261.471 144.226 260.748 141.965 260.547C144.53 263.124 143.38 265.747 145.602 265.992L148.05 266.263C148.153 266.309 148.463 266.541 148.379 266.593L147.998 266.825C144.497 268.957 144.827 267.652 143.063 269.241C141.623 270.533 140.176 269.351 138.898 269.564C138.697 269.596 138.252 271.741 139.343 272.457C139.899 272.826 140.596 272.638 141.281 272.302C142.702 271.605 145.828 271.049 145.169 271.708L144.762 272.115L144.032 272.845L146.7 274.137L145.763 274.77C146.286 275.157 146.532 275.332 146.416 275.248L141.649 275.487C140.067 275.564 142.004 274.343 138.917 274.201C138.762 274.188 138.387 274.402 138.471 274.531C139.782 276.598 141.022 276.404 143.264 278.903C144.639 280.434 146.5 281.009 148.605 280.796C149.567 280.699 150.659 281.093 151.576 281.241L155.477 281.868L155.096 282.449L155.761 282.733L161.962 283.043L161.484 283.818L163.46 284.135L162.02 284.71C161.329 284.742 162.026 284.923 162.524 284.994C163.538 284.716 164.3 285.401 165.165 285.614C166.573 285.956 168.421 285.575 169.777 285.756C170.526 286.66 171.501 287.087 172.787 286.641C173.336 286.628 173.911 286.667 173.2 287.151C171.883 287.623 170.681 287.416 168.995 287.287C170.991 289.328 172.018 287.713 174.963 288.714C175.086 288.753 174.802 289.044 174.686 289.095L173.936 289.418C175.467 290.019 176.824 290.884 178.283 291.937L178.632 292.189C178.755 292.273 179.149 292.506 179.187 292.376C179.213 292.279 179.394 291.879 179.485 291.918L182.714 293.423C182.895 293.507 182.985 293.552 182.992 293.552L183.399 292.938C183.45 292.861 183.825 292.983 183.896 293.042L189.018 296.962L189.179 296.29L188.895 295.819L188.579 295.296C188.54 295.238 188.805 295.225 188.869 295.263L189.25 295.457C189.347 295.509 189.605 295.632 189.657 295.644L190.342 295.825C190.426 295.851 190.426 295.502 190.458 295.341L190.574 294.734L192.273 296.026C200.405 302.226 195.121 296.497 203.079 302.329L203.705 302.426L203.053 300.495C203.666 300.527 204.086 300.579 204.054 300.379L203.944 299.597C203.944 299.559 203.834 299.307 203.724 299.016C205.817 298.415 205.707 301.89 210.396 302.284L212.302 303.311C212.392 303.363 212.805 303.447 212.896 303.453C212.922 303.453 213.219 302.53 213.322 302.898L212.818 301.102L212.663 300.547L214.808 301.903C214.911 301.968 215.37 302.032 215.344 301.929L215.221 301.451C215.053 300.799 214.149 297.576 214.491 297.052L214.814 296.562L216.041 298.37L216.274 298.712C216.358 298.835 216.778 299.248 216.907 299.307L218.005 299.83C218.838 300.23 217.766 298.215 218.599 297.84C218.825 297.737 219.297 297.518 219.555 297.414C221.15 295.283 222.778 295.47 224.393 294.12C227.286 291.692 227.68 288.527 229.308 285.569C230.425 288.346 228.416 290.161 228.197 292.531H228.681L228.972 291.911C230.651 290.82 232.537 288.753 233.331 287.151C233.461 286.893 234.119 286.815 234.333 286.828C234.694 286.654 234.643 286.57 234.83 286.189L235.05 285.73C235.127 285.569 235.36 285.078 235.418 285.214L235.747 285.95C235.792 286.047 235.902 286.408 235.941 286.499C236.341 287.552 237.019 282.947 237.09 282.372L237.549 278.464L238.053 278.412C239.048 280.983 239.073 283.198 238.544 286.324C240.113 286.434 241.851 286.273 243.982 285.989L243.123 285.278C240.959 283.495 250.428 285.433 250.215 285.362L250.777 285.536L251.791 285.859C252.294 286.021 251.041 286.182 250.596 286.24L247.664 286.609L245.506 286.906L244.944 286.983C244.815 287.003 244.072 287.067 244.176 287.151L244.563 287.474C244.628 287.532 244.854 287.648 244.996 287.732L245.396 287.965L245.933 288.353C246.036 288.43 245.648 288.546 245.519 288.559L244.964 288.611L239.739 289.102C237.95 289.27 236.303 289.844 234.843 290.697L235.198 291.169C234.565 291.634 230.296 294.133 230.851 294.521L231.452 294.94L226.149 298.816C225.852 299.358 225.775 299.533 226.214 299.184L227.06 299.326C225.91 301.218 223.869 302.555 223.844 305.132L225.361 304.138C225.348 306.314 223.592 307.677 222.791 309.621L221.105 313.697C220.853 314.375 220.827 314.452 221.105 313.742C221.628 313.128 222.255 312.353 222.591 312.592C222.623 314.62 222.132 316.125 221.286 317.63C219.923 317.378 220.75 316.016 220.343 315.189C219.852 314.188 216.778 311.481 217.52 313.193L217.682 313.561C218.282 314.943 218.87 316.028 219.891 317.404C218.631 317.449 216.319 317.088 216.216 315.383C216.112 313.677 216.674 313.199 216.164 312.34L215.699 313.884L210.538 314.427C210.396 314.44 209.918 314.885 210.015 314.982L210.584 315.57C209.608 316.422 208.975 317.753 209.841 318.909C211.268 320.821 212.625 322.823 214.653 324.205C217.029 325.82 226.782 332.356 227.854 334.113C227.893 334.178 227.938 334.32 227.854 334.313C227.712 334.294 227.422 334.262 227.331 334.229L226.905 334.081C226.459 333.926 225.865 333.725 225.503 333.506L221.693 331.194L221.312 330.851L217.708 328.494C214.691 326.524 213.109 325.646 210.706 322.952C206.844 318.631 201.251 313.38 196.232 310.564L192.331 308.375C192.286 308.349 191.969 308.252 191.931 308.213L191.375 307.761C191.298 307.697 191.717 307.6 191.808 307.645L192.241 307.845L198.622 310.848L199.093 311.062L204.183 313.736C204.248 313.955 204.131 313.522 204.06 313.271L203.091 312.231C203.059 312.198 202.736 312.011 202.504 311.785C198.835 308.149 193.584 304.409 188.398 301.806C189.237 301.199 201.18 307.516 202.362 308.271L204.629 309.731C204.777 309.828 205.294 310.061 205.455 310.132C205.559 310.177 205.384 309.841 205.32 309.738L204.977 309.208C203.763 307.335 202.194 306.373 200.191 305.507C198.661 304.848 198.021 303.925 195.489 303.117C191.814 301.935 188.721 299.546 185.097 297.976C183.224 297.169 179.362 296.516 178.832 296.245C176.94 295.263 175.273 293.933 173.329 293.087C168.931 291.175 164.61 289.315 160.044 287.804L155.845 286.415L152.622 285.188C148.024 283.444 145.066 284.568 141.487 281.829C140.344 280.957 139.253 279.627 137.948 279.02C132.962 276.707 128.893 276.384 123.719 274.912C123.409 274.531 123.345 274.408 123.571 274.473L127.646 274.712C127.808 274.718 128.086 274.731 128.176 274.744L129.959 275.028L134.796 275.952L134.254 274.163C133.905 273.019 130.281 272.27 129.145 272.083C124.908 271.379 120.89 270.662 116.692 269.732C111.163 268.505 107.114 270.92 102.696 267.174C101.54 266.192 99.4472 270.074 98.8724 270.985C95.9401 275.667 90.3533 273.019 89.8689 275.002C89.3844 276.985 93.1758 281.422 96.812 282.204L103.038 283.541C105.221 284.012 107.237 284.387 109.252 285.885C102.431 287.862 101.966 286.583 94.9261 289.438C93.2274 290.129 91.9163 291.188 91.4965 293.08C90.786 296.336 90.2758 299.507 90.1982 303.066C90.0174 303.776 90.2887 303.402 90.6181 302.943C94.4611 298.273 98.0844 295.593 103.671 293.326C109.788 290.846 119.521 288.74 126.154 287.855C129.7 287.384 133.311 287.287 136.682 288.391C142.941 290.439 148.224 294.463 152.306 299.5C156.388 304.538 158.435 308.575 162.246 313.161L166.922 318.786C166.922 318.786 177.695 332.111 175.241 330.283L174.828 329.973C171.779 327.693 169.008 325.148 166.599 322.184L161.116 315.428C159.921 313.955 158.623 312.192 157.002 311.21C153.255 308.943 148.973 308.452 144.691 308.032C138.691 307.445 132.833 307.102 126.832 307.438C121.769 307.722 117.138 309.092 112.365 310.758C111.861 310.752 111.306 310.719 112.003 310.513C120.923 306.14 130.424 305.145 140.054 306.263C142.812 306.579 145.485 306.373 148.205 306.838C150.646 307.257 152.797 307.929 155.522 308.575C154.308 306.218 153.036 303.963 151.189 302.065C150.633 301.496 148.941 301.444 148.179 301.393C145.466 301.212 142.87 300.999 140.138 300.631C130.256 299.3 118.759 298.306 108.851 299.604C108.438 299.617 107.779 299.642 108.509 299.617L109.045 299.248C109.103 299.21 109.426 299.048 109.491 299.022C117.596 296.284 133.253 298.189 142.133 299.21C144.685 299.507 147.042 300.004 149.38 300.863L149.916 301.063L149.755 300.605C148.637 299.358 147.61 298.105 146.351 297.065C142.824 294.153 138.891 290.703 134.028 290.536C130.12 290.4 126.477 291.304 122.66 291.898C117.086 292.764 111.738 293.662 106.578 295.954C97.9294 299.791 88.7256 307.077 90.1853 317.43C90.1982 317.52 90.4695 317.243 90.547 317.146C92.7947 314.498 95.2619 312.36 98.2136 310.526C102.27 308 106.216 305.358 111.325 304.39C109.82 305.514 108.05 306.321 106.339 307.348C102.476 309.667 98.9757 312.166 95.7851 315.395C93.7506 317.449 92.2263 319.762 90.7408 322.3C89.2553 324.838 88.7709 327.415 87.6018 329.476C87.5437 329.573 87.2983 328.927 87.2983 328.778V324.212C87.2853 317.411 86.7105 310.926 87.3241 304.151C87.6664 300.392 87.4081 296.904 87.4597 293.067L83.2873 293.255L66.1909 293.733C60.0422 293.901 54.0936 294.133 48.0288 293.868L42.0286 293.61L42.1061 303.014L41.8413 316.958C41.8413 317.055 41.7573 317.507 41.7444 317.604C41.7315 317.688 41.6346 317.643 41.3698 317.604C41.021 316.991 40.5108 316.087 40.4139 315.454L40.0587 313.128C39.1738 307.29 38.1856 304.952 37.346 299.475C37.1974 299.216 37.1135 299.022 37.0747 299.119C37.0295 299.236 36.8293 299.655 36.8034 299.759L36.3384 301.373L35.1629 305.578C35.1306 305.694 34.9627 306.011 34.8658 306.192C33.9939 303.498 34.911 300.799 35.544 298.028C36.6161 293.339 38.3019 289.128 41.1437 285.207C42.0803 283.915 42.5776 281.965 43.8758 280.951C49.7146 276.352 55.831 272.561 62.1929 268.692C63.6526 267.807 65.5709 265.308 66.1716 263.874C66.2232 263.757 66.2953 263.544 66.3563 263.269L66.4866 262.412L66.4493 261.968L58.5114 264.461C55.844 265.301 53.6803 266.696 51.6264 268.595L44.1923 275.48C42.7197 276.843 41.57 278.49 40.3881 280.124L38.2115 283.134C34.1101 288.805 29.815 294.094 24.8676 299.352C23.6017 297.311 31.0616 287.293 32.4115 285.524C39.2255 276.617 42.119 270.281 46.046 259.902L49.9794 249.509L53.4025 240.396C54.8816 236.463 57.1228 233.149 60.0874 230.223C63.052 227.298 67.5796 223.61 72.0103 222.912C76.7704 222.156 81.7695 223.19 85.8644 225.612C86.6201 226.057 87.5954 226.516 88.0087 225.599C86.7751 223.726 84.8052 222.441 82.6608 221.963C73.9027 219.993 71.2417 215.723 62.4255 214.832C57.2132 214.309 52.4918 218.875 48.8943 222.273C46.9114 224.139 45.8393 226.645 44.8188 229.164L41.6282 237.037C40.0845 240.842 39.7422 244.995 38.5731 248.269L33.5159 262.42C32.5342 265.172 31.6493 267.91 30.1121 270.365L25.6233 277.528C23.9117 280.26 21.9095 282.682 19.636 285.046C19.2226 285.388 19.087 285.562 19.1516 284.91L24.2476 277.392L27.1282 272.709C29.6083 268.679 31.4039 264.532 32.8636 260.063C33.5418 257.996 34.1295 255.955 34.9239 253.953C36.3642 250.33 37.5914 246.868 38.1598 242.96C39.0446 236.895 41.1631 234.622 43.0426 228.68C43.9921 225.683 45.5293 223.022 47.848 220.903L52.86 216.331C53.2023 216.434 52.8406 216.124 52.6339 216.001L51.8653 216.195L49.7469 216.731L50.9611 215.866C48.1192 214.864 45.3743 214.851 42.4161 215.239C39.458 215.627 37.5074 213.121 31.7527 214.147L22.3551 215.827C18.5703 216.505 13.8295 222.234 10.0705 224.204L9.89613 223.836L11.1491 222.408L9.05648 223.241C7.17052 223.991 5.51061 225.095 3.56651 225.076C3.85716 223.61 8.97252 219.812 9.81862 219.302C13.3387 217.196 17.1235 216.117 20.889 214.593L29.1498 211.254C34.0068 209.29 35.3438 212.978 41.8671 212.888C45.5616 212.836 49.017 213.121 52.7889 213.909C50.2829 211.964 47.2344 211.39 44.2375 210.208C39.0834 208.186 34.0132 206.384 28.3618 206.113C25.2422 205.958 22.381 206.668 19.5003 207.727C12.6669 210.246 12.4409 211.176 6.21462 214.548L6.0596 214.044C8.31372 211.512 11.4785 209.594 14.5529 207.915C23.634 202.961 30.4803 204.266 39.9489 206.371L48.7393 208.328C52.3045 209.123 55.7277 209.749 59.125 211.125C60.0293 211.493 61.2048 212.591 62.1025 212.675L66.5397 213.095L66.5139 212.746C63.7301 208.625 59.9259 204.944 55.6373 202.367L45.962 196.554C37.1716 191.27 29.3112 188.002 18.8157 190.192C16.8458 190.599 14.9017 191.697 13.3968 192.879L10.9424 194.803L9.05648 201.081L7.91328 204.795L12.7961 201.85L13.3839 201.986C9.96717 205.893 5.7625 207.508 2.35872 211.545C1.31239 212.785 1.30594 214.716 1.22843 216.234L1.19614 216.925C1.16384 217.584 -0.974017 215.116 0.543799 211.745C1.31239 210.04 2.52019 208.78 3.80549 207.411C6.27274 204.769 6.60214 200.855 5.85292 197.413C5.16829 194.241 8.61083 191.548 7.82285 188.338C7.31261 186.265 3.45671 185.038 4.27698 180.336C4.63867 178.256 5.29101 176.344 6.35025 174.471C10.232 167.593 1.62887 169.24 12.6734 153.176C13.9006 151.394 14.6369 149.489 14.2752 147.273C13.7004 143.734 14.4948 140.252 16.7618 137.469C21.4057 131.766 20.8761 134.84 26.0043 126.838C28.5168 122.924 32.4761 120.443 36.2157 117.892C38.0823 116.62 39.7293 115.483 41.7832 114.295C37.0618 112.073 37.0618 108.495 35.6925 104.187C34.0455 104.38 32.3663 104.658 31.4039 102.959C32.9928 101.5 35.4858 102.727 35.4536 101.061C35.3179 94.1432 38.7023 85.8178 44.7348 82.2009L46.0072 82.2784C52.7308 77.3439 56.4705 81.5421 62.0638 77.0984C63.0326 76.3298 63.2974 74.5795 63.6074 73.4363L64.5439 69.9485C64.6279 69.6321 65.164 69.0831 65.4675 69.1024C67.2825 69.2445 69.2653 72.7387 70.1308 74.4568C71.2675 76.7238 74.7811 68.0432 78.0493 69.4835C78.7404 70.4007 79.0698 79.598 79.7156 78.7971L80.1419 78.2675C82.48 75.361 85.7804 77.3826 89.6751 73.0488C88.7902 79.1975 81.1689 75.7098 80.213 79.6303C84.9279 86.2118 78.2818 86.5735 81.4595 92.2572C81.1043 90.3777 83.9203 88.5499 85.3542 87.4325C85.1539 88.5046 84.6243 89.0601 83.9655 89.6801C80.9622 92.4897 82.1958 93.3294 79.1731 95.5964C79.8319 96.591 80.3421 98.1735 79.7867 99.4329L78.2689 102.869C77.9911 103.489 78.2947 104.8 79.0698 104.897C80.749 105.11 85.2379 104.871 84.8697 103.47C84.5662 102.301 81.5693 99.4975 84.198 96.5717C86.8268 93.6458 89.0357 93.2389 88.2283 89.4089C87.5179 86.0568 87.9441 82.808 90.2305 80.1599C93.77 76.0586 98.8789 74.2501 104.317 74.5601C111.499 74.967 113.56 69.4318 114.516 63.606C109.181 66.8871 104.453 65.408 99.6668 69.7483C100.209 68.237 101.566 67.1906 103.058 66.6158L106.274 65.3757C99.2212 64.3682 96.5989 63.0376 91.5352 68.4049C92.6268 64.1938 96.9089 61.9332 101.159 62.592C106.19 63.3735 110.363 64.5813 114.761 60.2022L118.998 55.9782C120.974 54.0083 123.855 52.7746 126.665 53.1105C131.903 53.7305 134.854 55.4486 139.04 51.0437C141.087 48.8929 143.503 47.9628 146.435 47.8466C150.42 47.6851 154.257 46.2835 157.189 43.5386C158.771 42.0595 159.54 38.9076 161.594 37.9775L158.674 43.319C156.769 46.8067 152.532 48.5054 148.728 49.3256C143.683 50.4107 143.593 54.0341 139.285 54.5831L144.232 49.9457C142.282 49.6163 140.88 50.8951 139.789 52.3419C137.787 54.9835 134.796 56.0169 131.657 56.5853C132.949 57.2764 134.112 57.58 135.513 57.7866C133.769 58.3227 131.941 57.6446 130.688 56.2301L128.557 59.1817C127.498 60.6543 129.629 64.0129 127.304 64.2519C125.644 64.4198 124.669 62.3982 125.089 60.9515C125.437 59.7566 125.043 59.1495 124.139 58.5552L121.562 56.8695C121.104 57.186 120.471 57.6833 120.193 58.0385C119.424 59.0267 121.336 61.0096 120.884 62.3336L118.753 59.5951L117.506 61.1388C118.61 63.1151 118.979 65.0528 118.953 67.2294C118.908 70.3684 121.465 72.3189 124.475 71.9379C126.219 71.7183 127.214 70.3425 127.414 68.5599L127.95 68.2305C128.848 69.9808 128.189 71.9185 126.8 73.1327L124.049 75.5354L126.212 75.7098C124.824 76.4009 123.732 77.0984 122.428 78.1835C122.234 76.9628 123.073 75.8002 123.881 74.5084C121 74.7797 121.155 79.0942 118.675 81.2127C120.697 81.2062 122.531 80.8639 124.378 80.1534C122.189 84.1514 115.988 81.5292 114.373 88.6597C113.831 91.0559 112.41 92.7545 110.634 94.5372C119.063 94.5113 116.408 93.704 122.938 90.5327C123.325 90.6877 123.332 90.7265 122.854 90.7458C117.945 97.8893 112.765 94.3499 107.857 97.8634C105.157 99.7946 103.607 103.205 104.033 106.628C106.558 102.992 108.515 102.191 112.791 101.035C109.232 104.432 108.225 102.54 105.428 107.707C103.775 110.762 103.975 114.146 106.358 117.02C106.662 113.791 108.645 111.046 112.19 110.232C112.449 110.019 112.158 110.374 111.945 110.613C107.811 113.759 106.92 117.485 108.438 122.181C109.975 119.675 111.784 117.64 114.102 115.993L119.179 112.396C118.229 114.85 114.903 116.768 112.701 118.906C109.768 121.754 109.426 125.772 111.312 129.227C113.618 133.458 110.376 135.182 109.194 136.713C107.424 138.999 107.488 142.468 109.29 144.683L112.126 148.171C109.633 147.596 107.676 145.697 106.843 143.902C105.609 141.26 106.048 138.709 107.146 136.138C104.194 136.571 101.546 136.59 98.3751 136.552L109.219 152.576C111.829 156.432 114.451 160.003 117.674 163.336L123.545 169.407C116.376 165.099 110.078 156.503 105.441 149.65L98.2976 139.103C95.2361 134.582 90.3339 135.04 86.013 130.422C81.9439 132.069 79.819 130.9 75.6014 133.91C73.864 135.15 73.7348 136.784 73.9609 138.715C74.6197 144.341 76.0018 149.56 77.3646 155.062C78.7274 160.565 79.3992 165.506 80.0515 170.906C81.0591 179.186 80.9622 187.272 81.072 195.591C81.1107 198.453 81.5822 201.204 82.1571 203.943C82.9386 207.669 83.5328 211.17 83.9397 214.968C84.5597 220.761 85.929 220.787 89.1778 224.23C90.6633 225.806 93.7054 222.466 97.3288 222.525C96.2437 220.154 95.5268 217.59 94.868 214.968C94.4288 213.224 93.7635 211.7 93.6279 209.839C95.1199 212.565 96.2243 215.207 97.3158 218.165C97.8584 219.631 98.8853 221.355 100.112 222.227C102.748 222.305 104.782 222.841 107.262 224.036C106.442 222.583 105.68 221.278 104.789 219.864C100.913 213.734 95.5655 199.609 93.8668 192.078C94.0025 191.497 94.0541 191.445 94.1769 192.02L97.1802 198.834L101.637 207.947C103.077 210.899 104.466 213.715 106.087 216.595C107.185 218.552 108.664 220.212 110.059 221.969C114.793 227.956 117.377 226.833 121.033 230.798C121.42 231.218 122.182 231.709 122.725 232.019C127.394 230.068 128.725 224.876 133.278 219.876C135.21 217.758 136.32 214.961 135.597 212.042C134.783 208.767 135.222 205.809 136.01 202.638C136.966 198.814 138.652 195.869 141.184 192.84L145.272 187.957C146.151 186.911 147.023 185.871 147.959 184.837L144.594 183.3C135.507 179.154 135.739 178.366 127.62 172.805C126.865 172.869 126.981 172.772 127.64 172.533C130.96 173.102 134.964 176.57 138.116 178.353C136.605 173.58 140.183 174.038 142.179 170.635C142.766 173.451 136.882 174.4 139.931 178.411C140.241 178.818 140.628 179.483 140.964 180.006C143.587 181.246 146.39 182.577 149.245 183.552C151.24 182.312 161.31 176.822 162.808 176.357C165.934 175.388 169.189 174.581 172.464 174.684L175.596 174.788C177.76 174.859 178.044 169.375 181.816 166.856C183.896 165.461 186.538 164.815 189.063 164.776C195.212 164.673 199.817 169.621 201.955 174.891C202.207 175.511 202.904 176.06 203.64 176.118C208.723 176.499 213.516 177.287 218.25 178.979L207.974 178.237L203.35 177.972C202.297 187.989 209.931 184.301 212.599 190.418C214.142 191.723 215.667 191.309 216.558 192.678L220.356 194.074C219.025 194.978 225.788 197.4 225.775 197.4L231.865 198.698C228.3 194.151 228.765 191.91 223.075 188.648C218.489 186.019 213.367 184.682 208.22 183.513C211.204 182.964 213.942 183.785 216.771 184.463C219.742 185.18 222.539 185.987 225.613 187.059C224.586 183.339 222.345 180.555 220.194 177.604L212.224 166.682C210.203 163.911 208.381 161.076 206.011 158.608C204.086 156.6 202.387 154.746 201.638 152.162C200.508 153.267 199.119 154.119 199.378 155.941C197.446 152.815 202.949 151.362 200.133 144.961C199.106 142.623 197.808 140.73 195.612 139.316C193.061 137.675 191.827 134.64 192.37 131.611C193.009 128.052 191.814 125.042 188.675 122.885C192.402 123.376 194.075 126.644 193.629 130.035C193.326 132.366 193.5 135.047 195.27 136.726C197.802 139.122 199.694 138.179 201.36 144.987C202.672 141.518 205.688 140.259 204.725 136.229C203.763 132.198 198.28 132.302 199.429 127.632C199.701 126.528 200.463 125.255 201.102 124.209C202.323 122.213 202.006 119.894 200.204 118.389L197.834 116.413C196.058 114.928 195.696 112.499 196.723 110.471C197.498 108.934 197.543 107.332 196.348 105.976C193.597 102.85 194.663 98.8387 197.201 95.8483C201.767 90.4746 198.157 86.7349 204.525 82.4851C205.972 81.5227 206.734 80.0566 206.889 78.3902C207.27 74.1984 209.602 74.5343 209.337 69.2704C209.253 67.5588 210.319 66.0733 211.171 64.6588L212.941 61.7136L212.709 64.9107C212.534 67.3134 212.457 69.4577 211.488 71.686C210.713 73.4686 210.177 75.4191 210.209 77.3697C210.254 80.3472 208.891 82.7692 206.418 84.3516C204.105 85.8307 202.859 88.369 203.15 91.1269C203.376 93.2583 202.691 95.1959 201.748 97.0302C200.45 99.5621 200.669 102.333 202.697 104.271C205.119 106.589 205.119 110.18 203.027 112.635C205.107 104.083 199.177 105.943 199.035 99.3425C195.502 104.335 202.407 105.369 199.41 111.033C197.647 114.366 201.167 116.019 203.046 117.924C205.313 120.224 204.809 123.795 202.762 126.101C202.155 126.779 201.561 128 202.039 128.853C202.717 130.073 203.95 131.313 205.029 132.05C206.573 131.52 207.206 129.893 207.257 128.523C207.309 127.051 206.405 125.849 205.346 124.571C209.318 125.21 208.187 130.086 208.562 130.125L209.35 130.203C210.732 130.338 211.649 130.758 212.289 132.024C212.696 132.825 213.742 133.832 214.666 133.774C218.037 133.555 219.897 130.513 219.497 127.393C219.148 124.667 217.753 122.517 215.234 121.373C211.062 119.475 209.221 115.108 210.364 110.703C211.333 106.977 210.009 103.67 207.044 101.39C204.467 99.4071 203.518 95.7191 205.623 93.1421C205.152 96.2552 205.849 98.9808 208.349 100.608C211.417 102.611 213.019 105.795 212.373 109.476C211.559 114.114 211.656 117.86 216.558 120.069C219.355 121.328 221.04 123.66 221.357 126.657C221.712 129.977 223.734 132.889 227.493 132.231C231.4 131.552 236.483 128.523 236.27 123.963C237.452 125.442 237.355 127.173 236.432 129.15C239.706 129.796 244.085 129.925 246.036 126.618C246.649 125.578 246.553 124.105 245.474 123.46C241.121 120.857 236.684 118.854 232.098 116.788C229.437 115.586 227.454 113.203 227.293 110.264L226.95 103.935C226.731 99.8979 224.347 96.9334 220.582 95.6804C216.816 94.4274 214.317 91.3336 214.375 87.3227C214.433 83.3118 215.557 81.1287 213.258 77.9381C211.501 75.5031 211.307 72.1122 213.497 69.8452C210.958 78.0866 216.791 76.3427 215.525 84.3904C214.853 88.6726 216.836 92.4574 220.911 93.8654C230.658 97.224 227.454 103.224 231.517 108.314C232.699 109.799 234.804 110.703 236.619 109.786C237.452 109.36 238.253 108.669 238.996 108.101C239.035 109.483 238.356 110.729 237.323 111.356C233.913 113.416 230.942 110.393 229.062 107.687C228.507 110.691 229.76 113.578 232.569 114.824C234.694 115.767 236.755 116.73 238.841 117.815L245.752 121.399C247.812 122.465 248.813 124.622 247.967 126.857C247.315 128.569 245.881 129.712 244.169 130.797C253.289 136.616 262.015 145.232 268.306 153.977L274.991 163.265C278.821 168.587 281.068 173.967 285.531 179.225C288.729 182.984 291.7 186.788 295 190.25L294.955 190.231ZM98.2007 85.4303C94.8292 87.9234 97.9359 91.8438 95.5203 95.4478C93.841 97.9474 97.1156 98.5739 99.2147 104.639C99.8412 106.454 98.7303 107.72 97.3611 108.591C95.9918 109.463 91.9357 112.099 90.4824 111.433L85.619 109.224C89.0486 109.024 91.729 110.096 94.4998 107.028C97.3933 103.831 94.8421 100.925 92.9045 98.0895C88.4544 99.6913 93.8539 102.727 90.9991 105.711C91.7354 102.023 88.8548 99.9948 91.8129 97.5405C98.2653 92.1926 90.8635 86.567 98.0651 83.0857C103.536 80.4376 109.148 85.5594 114.722 81.4258C118.003 78.9909 118.623 74.4826 116.686 70.9755C115.743 75.9165 110.511 81.7229 105.344 79.6044C110.602 79.5851 114.703 75.5031 114.716 70.1617C111.932 75.3029 109.058 76.6786 103.135 76.459C98.9241 76.304 94.9455 77.8864 92.1553 80.9802C86.5943 87.1483 93.0918 91.3013 87.5695 95.9064C85.929 97.2757 85.5479 99.3296 86.8009 101.093C87.7116 102.378 88.9259 104.077 87.886 105.62C87.5372 106.137 86.478 106.841 85.7934 106.919L81.2335 107.422L82.2346 110.284C85.5673 112.079 88.8032 113.778 92.3619 115.024C94.0412 114.404 95.8497 114.004 97.6129 113.978L102.334 113.92L102.018 110.981C100.132 112.073 96.2372 112.977 94.2867 112.402C96.7539 111.408 98.9951 110.826 100.875 109.257C102.541 107.868 102.702 105.801 101.366 104.174C100.804 103.489 100.158 102.656 99.7121 101.907C98.5818 100.014 99.7637 98.0314 101.533 97.0173C108.522 93.0258 99.7573 90.1646 109.252 85.1073C105.467 85.1719 101.333 83.1245 98.2072 85.4367L98.2007 85.4303ZM64.2985 110.316L66.2814 111.885L66.2038 110.025L68.7938 111.737C69.0199 109.186 66.9466 108.675 65.2738 107.946C63.7043 107.261 63.6591 104.994 63.3555 103.508C62.9809 101.674 62.4125 100.04 63.756 98.2832L64.3954 100.751C64.4729 101.041 64.6925 101.519 64.8475 101.713C65.0025 101.907 65.7388 101.28 66.0101 101.28C67.1598 101.3 68.5871 100.699 69.3751 99.5944L71.4032 96.7461C70.0339 96.8236 68.7874 96.3715 68.1738 95.1701L69.4655 93.9042C69.3622 93.6781 68.6194 93.1356 68.2836 93.1098L65.5903 92.916C62.9874 90.1646 64.7442 91.1398 62.4771 88.7049L62.0961 88.298C62.025 88.2269 62.7742 88.2011 62.8324 88.2786C68.1221 95.1572 69.1878 90.7975 71.6034 93.1873C73.2116 94.7761 75.0588 95.3897 77.3259 94.9441L79.1989 94.7374C76.7511 94.3757 76.6929 92.9354 76.6929 92.9354L77.539 92.8579C78.1397 92.8062 79.0116 92.7997 79.27 92.451C80.2582 91.1205 78.3464 89.3895 79.9352 86.3345C82.0666 82.2332 77.778 80.1986 77.7715 78.5646C77.7651 76.0909 77.7393 73.4105 77.0029 70.8463C74.8715 71.4534 73.7542 73.404 73.5798 75.206L75.1751 76.4203C74.0771 76.1942 70.4796 75.7808 70.57 76.6076L70.6604 77.4343C68.4515 76.459 68.8713 72.39 65.5838 70.8205L64.1112 76.8013C64.0014 77.247 63.5428 78.0866 63.7366 78.4548C63.911 78.7777 64.3954 79.2363 64.7635 79.4817L66.5591 75.3545L67.5731 76.6721C67.2243 78.3256 66.7012 79.753 65.2738 81.0964L62.2834 79.1588C61.4243 79.3461 60.0422 80.5022 59.209 80.7347C53.5059 82.3107 54.901 80.457 49.6693 82.6659C45.6972 84.3452 42.4355 86.9352 40.4785 90.7717C39.1867 93.31 37.7658 95.6804 37.9208 98.6643C38.0629 101.383 38.3535 103.973 38.9155 106.57C39.4386 108.973 40.4527 110.755 42.6422 112.028C43.3979 112.467 47.5896 115.238 48.2872 113.849C48.4486 113.526 48.6037 113.093 48.9137 112.286L50.3669 112.983C50.7092 113.145 51.7362 113.242 51.7814 112.874C51.4455 110.116 48.6747 110.962 47.2279 110.484L50.2894 108.146C52.3885 106.544 52.0397 103.935 52.2658 101.622C52.8794 95.422 46.3366 95.5447 47.8415 94.7697C49.1656 94.085 51.0838 95.4478 52.5693 96.0485C53.8676 94.9957 52.1883 92.2895 54.4618 91.0365C54.5522 91.9084 54.3778 93.0581 54.0872 93.8784L55.9473 93.1033L53.7513 95.4672C53.8223 97.1853 53.8546 98.7612 54.1453 100.305C54.5134 102.288 56.535 103.366 57.6847 104.755C58.9442 106.286 59.8355 107.804 60.9464 109.515C61.1854 109.89 62.18 110.032 62.49 110.303L64.2598 111.86L64.305 110.316H64.2985ZM107.372 94.3369C108.754 90.3325 106.914 90.7523 110.582 87.1418C109.116 87.5423 106.991 88.4723 106.797 90.2873C106.655 91.579 107.114 93.0775 107.372 94.3369ZM74.807 104.529C74.0254 101.345 75.3107 99.491 75.0588 96.5394L72.6045 96.0356C70.3375 100.473 71.9005 101.816 69.4462 106.421L72.7531 107.364L79.6446 108.23C78.7597 105.53 75.5303 107.5 74.8005 104.522L74.807 104.529ZM102.554 102.068L103.917 97.9345C103.297 98.1993 102.263 98.7095 101.753 99.265C100.875 100.208 101.663 101.894 102.554 102.075V102.068ZM45.9685 125.346C50.9999 124.719 55.915 124.732 60.9722 124.661C64.7312 124.609 68.2836 124.377 72.0232 124.118C75.7629 123.86 79.4314 123.847 83.268 123.305C79.8319 119.571 66.8626 118.157 62.3996 117.815C58.3758 117.505 54.5264 117.421 50.5736 116.504C54.9656 115.967 58.97 116.355 63.1553 116.523C71.0609 116.839 79.4444 117.937 86.0775 122.342L87.8085 119.907L86.7945 119.397C87.3047 119.313 88.4092 119.397 88.7127 119.113L91.5611 116.387L80.5747 111.091C76.764 109.25 72.6045 108.417 68.4063 108.114C69.7885 109.392 70.4925 110.942 69.782 112.46C69.556 112.932 68.3934 112.912 67.9348 113.035C64.1629 114.056 60.3134 112.615 58.3952 108.953C56.5673 109.502 55.0947 110.148 53.2411 111.214L56.3542 112.925L53.6803 112.88C53.3444 115.07 51.7491 114.863 50.2183 115.121C48.6876 115.38 47.4088 115.761 45.7747 115.696C44.864 115.664 43.7014 116.258 42.8876 116.762L33.9228 122.349C31.3781 123.931 29.4469 126.011 27.4769 128.433L28.8914 128.459L28.0776 129.725L34.3362 127.645C38.0952 126.392 42.0092 125.83 45.9685 125.339V125.346ZM106.126 127.128C106.81 126.327 107.437 124.474 107.082 123.582C105.402 119.3 105.376 119.63 101.96 117.647L104.827 117.879C104.059 116.484 102.199 114.921 101.198 116.155C100.636 116.839 99.9962 117.136 99.1889 117.104C98.5947 117.078 98.0134 116.342 97.6969 115.528C93.757 115.141 90.3662 117.724 88.674 121.251C87.3758 123.97 87.1432 127.225 89.6428 129.369C95.0101 133.981 104.278 135.376 109.497 130.293L107.514 126.773C106.313 128.614 104.595 130.022 102.405 129.873C103.768 129.021 105.041 128.401 106.132 127.128H106.126ZM10.0318 173.199C8.66896 175.782 7.47408 178.488 6.89925 181.401C6.55693 183.119 7.84223 184.844 9.15982 185.684C10.1157 181.828 9.99947 180.62 12.0017 177.016L9.67653 179.328C11.4721 175.227 14.5077 172.366 17.7242 169.582C23.6081 164.479 29.3242 160.475 35.7571 156.141L46.5368 148.888L54.4811 143.766C61.3662 139.329 68.0252 134.924 75.1945 130.945C77.6488 129.583 80.3551 129.059 83.0355 128.349C85.2637 127.761 84.7147 126.954 85.0377 124.971C83.4617 125.094 82.2346 125.371 80.8265 125.843L77.2678 127.025C75.0136 127.774 72.9597 128.827 70.4731 128.891L78.4755 125.507C72.5335 124.977 66.9983 125.597 61.2112 126.282L45.2451 128.181C39.5678 128.859 34.1618 131.087 30.2478 135.253C26.1206 139.645 22.9235 144.509 19.1903 149.204C16.7166 152.317 14.4237 155.276 12.3634 158.673C10.458 161.812 8.80459 165.177 9.66361 169.02L14.2364 163.194C17.8404 158.595 24.1507 155.863 29.5373 153.68C27.9937 154.778 26.5404 155.786 24.9128 156.664C17.6144 160.604 13.8489 165.997 10.0382 173.205L10.0318 173.199ZM19.0547 146.001C22.6587 139.794 27.0894 134.459 32.3081 129.789C26.5017 130.777 21.5349 134.065 18.454 138.773C16.6262 141.57 16.6003 145 17.1946 148.113C17.9825 147.467 18.5444 146.879 19.0547 146.001ZM212.566 135.305C210.758 134.375 209.621 130.971 208.168 132.295L206.295 134.007C206.153 134.666 207.206 135.395 207.839 135.383L212.56 135.305H212.566ZM203.647 144.483C208.943 146.446 218.631 145.82 222.5 142.293C224.018 140.911 225.064 138.967 226.052 137.191C226.66 136.099 226.027 134.73 224.845 134.459C223.353 134.11 222.067 133.187 220.73 132.276C215.531 136.849 216.823 134.982 213.484 135.705C211.275 136.183 209.079 136.493 206.844 136.545C206.805 137.914 206.663 139.329 206.314 140.75C209.731 142.171 213.619 141.874 217.23 141.215C213.639 143.301 209.344 143.475 205.946 141.286L203.64 144.483H203.647ZM60.2359 163.168C63.2393 170.092 66.6624 176.641 68.8649 183.888L72.8306 189.565C74.7165 192.265 75.8145 195.165 76.8609 198.304C78.3399 184.515 77.0805 168.91 74.9297 155.372L73.0954 143.824C72.837 142.19 72.5981 140.666 71.8617 139.2C71.3773 138.237 70.1631 137.863 69.1555 138.373C66.6624 139.626 64.3696 141.183 62.18 142.92C62.729 144.987 62.9357 146.886 62.6321 148.952L62.2317 151.697C61.2822 148.752 62.4255 146.685 61.011 143.617L55.8052 146.756C54.3003 147.661 53.9838 149.392 54.6943 150.884L57.1357 156.025L60.2359 163.168ZM251.642 210.104C253.412 212.475 256.37 212.391 258.721 213.98C258.676 214.858 259.141 215.129 259.825 215.562L262.919 217.493C261.828 214.089 260.588 211.073 258.76 208.218L255.918 203.781C253.296 199.68 250.363 195.947 247.877 191.748C245.823 188.28 243.917 184.993 241.637 181.621C238.395 176.835 234.966 172.372 231.323 167.87L226.201 161.534L215.822 149.004C215.266 148.513 214.485 148.126 213.774 148.216C210.396 148.655 207.445 148.236 204.021 147.293C206.611 152.679 209.356 157.594 212.483 162.49L217.256 169.956C218.328 171.629 219.297 173.315 220.543 174.878C222.364 177.158 223.973 179.393 225.4 181.937L230.406 190.864L234.21 198.149C236.742 203 237.627 200.603 242.542 203.568L241.644 203.917L248.813 207.631L252.521 209.536L251.629 210.117L251.642 210.104ZM24.2476 186.549C27.5157 186.665 30.7645 187.027 33.8195 188.041C45.9039 192.058 58.3758 199.641 67.121 208.858L70.9252 212.959C73.2891 215.51 75.9825 217.487 79.186 218.882C79.0956 215.019 78.6047 211.402 77.1192 207.96L72.0232 196.14C68.4321 187.815 65.9843 179.225 62.1865 171.1L58.1239 162.406C56.8451 159.668 54.6103 150.515 51.7814 149.773C51.1032 149.592 49.7275 150.199 49.0493 150.638C41.5829 155.444 34.6527 160.63 27.6643 166.101C23.0721 169.692 18.9643 173.373 14.9663 177.578C12.6476 180.013 10.6841 182.725 11.246 186.317C12.4926 184.812 14.0039 183.701 15.793 182.79C19.875 180.684 24.4478 179.16 29.1627 180.181C25.4231 180.626 22.1291 180.833 18.7899 182.403C15.9157 183.759 12.9899 185.619 11.2137 188.422C10.5291 189.507 6.67965 197.09 8.13933 198.304C8.8498 195.391 10.0705 193.35 12.0081 191.458C13.9458 189.565 15.7478 188.009 18.4411 187.35C20.2431 186.911 22.3035 186.478 24.2476 186.543V186.549ZM205.714 153.551L203.305 149.547C202.898 152.776 204.499 155.573 207.225 157.323L205.707 153.551H205.714ZM128.738 264.849C130.966 265.915 133.401 266.625 135.823 266.793C135.991 265.721 136.456 264.771 137.496 264.591C138.91 264.345 140.525 264.616 141.177 266.083L137.709 265.178C137.16 265.036 136.275 265.74 136.262 266.47L141.139 267.969C142.269 267.445 142.728 265.734 142.372 264.604C141.978 263.351 140.913 262.414 139.957 261.549C135.41 257.421 133.563 259.527 131.289 257.079C128.202 253.759 127.969 256.207 124.23 252.797C120.826 249.697 119.515 249.484 115.233 247.791C113.476 244.123 112.539 242.844 108.192 243.005L110.104 242.275C108.606 241.178 107.062 239.679 105.351 239.156C102.877 238.4 100.545 237.819 99.1372 235.481C100.087 235.229 100.784 236.056 101.624 236.353L107.695 238.523L107.902 236.792C108.657 238.917 110.001 239.983 111.906 240.932L118.862 244.394C122.085 246.002 126.619 242.553 126.303 239.795C126.109 238.11 124.268 236.953 123.157 235.817C120.303 232.904 117.009 230.617 113.179 229.164C104.091 225.715 107.036 223.874 97.9294 224.049C91.8646 224.165 89.8366 228.396 85.4058 227.931C83.2098 227.698 80.8911 228.234 80.1742 230.553C79.3992 233.039 79.1796 235.726 78.9535 238.368C78.7274 241.01 79.1602 243.199 79.9546 245.569C80.9363 248.489 82.9515 255.574 86.7686 255.225L84.8116 253.307C91.7677 254.928 92.8528 256.814 98.9435 260.089C99.9123 260.612 101.269 261.432 101.947 262.24C104.059 264.759 106.823 265.605 110.046 264.759C115.581 263.292 122.576 269.738 127.562 266.651L127.511 267.801C127.465 268.828 133.64 268.492 134.331 268.214C131.87 267.4 129.545 266.942 127.317 265.992C125.741 265.32 124.372 264.914 122.602 264.791C119.502 264.584 114.864 261.251 111.163 260.354L108.309 259.856L110.085 259.114C107.637 257.706 105.674 259.385 102.845 257.68C103.704 257.447 111.222 258.145 111.951 258.351C114.49 259.081 116.641 260.618 118.927 261.878C124.585 265.01 123.771 262.459 128.731 264.83L128.738 264.849ZM89.0938 264.151C91.6192 264.429 93.8862 264.093 95.5203 261.917C90.8312 263.06 87.3499 263.279 84.2626 259.288C82.5381 257.06 80.9557 254.676 79.8771 252.015C77.1644 245.318 76.1891 237.586 78.4691 230.656C79.2312 228.331 80.9234 227.033 83.1194 226.135C80.2969 226.18 77.8491 226.749 75.1364 226.942C73.8834 227.033 72.2622 226.529 71.0867 226.949C68.458 227.892 67.0112 230.301 65.9972 232.697C63.9756 237.464 64.4148 242.921 66.1393 247.675C66.9983 250.039 69.782 257.848 72.8241 257.344C76.2214 256.782 79.0891 258.629 80.4584 261.678C81.5435 264.093 87.2789 263.945 89.1003 264.145L89.0938 264.151ZM64.3954 258.9C65.0865 259.23 66.1005 259.585 66.8045 259.54C67.4181 259.508 68.529 258.558 68.5226 257.906C68.5032 255.923 64.0789 254.134 62.8001 241.178C62.3867 236.999 63.7753 233.343 65.713 229.681L62.3221 232.18C58.5243 234.984 56.7611 239.55 57.1809 244.194C57.6912 249.813 59.0927 254.457 63.433 257.815C63.5622 256.485 63.8464 255.413 64.7054 255.135C65.6226 254.838 66.7593 255.219 67.1727 255.929C67.6312 256.704 67.5473 258.164 66.5268 258.532C66.0101 258.72 65.2286 258.765 64.3954 258.9ZM129.849 237.464C130.675 236.249 130.85 235.029 130.475 233.853L126.451 231.735C125.773 232.471 126.548 234.654 127.039 235.074L129.849 237.464ZM128.544 247.914C129.513 247.74 130.598 247.669 131.58 247.785L134.712 248.166L133.711 245.653C131.212 245.524 129.526 244.174 127.569 242.611C126.813 243.393 126.032 244.426 125.269 245.046C123.125 246.79 120.251 246.364 117.706 245.737C117.558 246.357 117.99 247.372 118.552 247.539L121.814 248.495C123.971 248.45 126.064 248.334 128.189 248.779C128.318 248.805 128.822 248.805 128.79 248.696L128.544 247.908V247.914ZM55.2239 262.925C56.5939 262.264 59.9776 259.734 61.0304 258.791L58.4921 254.812C56.7223 252.035 56.0377 248.747 55.2239 245.576L52.4356 253.307C51.738 255.949 47.0148 264.988 46.046 267.572L55.2239 262.925ZM171.728 253.888L170.565 251.97L175.7 253.688C177.095 254.153 178.102 253.643 178.781 252.132L180.602 253.533C180.143 251.55 178.658 252.048 176.94 250.685L176.604 251.447L172.91 248.418L170.772 248.088C169.415 247.882 168.233 247.765 166.883 247.927L162.75 248.437C161.471 248.592 160.302 248.799 159.139 249.057L159.579 249.677L155.077 250.271L152.635 250.672C157.376 252.823 153.443 252.196 158.138 252.467C159.746 252.558 161.49 252.487 163.06 252.7L168.014 253.378L171.721 253.882L171.728 253.888ZM139.608 251.35C137.774 250.278 137.38 251.376 134.641 250.291C133.285 249.755 132.245 250.013 131.102 251.137C136.327 249.716 137.005 253.779 139.608 251.35ZM79.1021 263.912C79.1021 260.928 76.68 258.506 73.696 258.506C70.7121 258.506 68.29 260.928 68.29 263.912C68.29 266.896 70.7121 269.318 73.696 269.318C76.68 269.318 79.1021 266.896 79.1021 263.912ZM83.029 274.628C83.0807 273.736 82.79 272.277 82.1958 271.928L79.2571 271.553L78.4433 269.628C77.5907 270.029 76.2473 271.017 75.2462 271.256C72.4947 271.902 69.9758 270.959 68.2384 268.853L66.2038 270.965C65.319 271.883 64.2598 272.348 63.3232 273.245L74.9103 273.394C77.8878 273.433 80.2582 273.659 83.029 274.628ZM75.498 291.769L87.1626 291.401C88.0668 291.375 88.9388 290.716 89.0163 289.741C89.4232 284.865 89.5265 279.672 84.0301 277.838C80.3874 276.623 76.7123 276.514 72.8629 276.455C67.9671 276.384 63.4395 276.888 58.7181 278.089C54.1453 279.246 49.8631 280.686 46.0008 283.476L41.1696 291.001C41.7509 291.375 42.442 291.705 43.1395 291.75C50.9869 292.292 58.6148 292.292 66.4687 292.047L75.4916 291.769H75.498ZM105.551 286.034C103.316 285.298 100.991 285.323 98.7109 284.69L93.2403 283.166C93.4147 284.258 93.7054 285.265 94.1187 286.079L105.557 286.034H105.551ZM214.666 308.2C214.401 308.271 213.761 308.749 213.425 308.691L208.969 307.884C210.403 308.95 211.914 310.81 214.033 310.674L218.089 310.422C217.624 309.421 215.925 307.865 214.666 308.2Z" fill="currentColor"/>
<path d="M18.4087 270.178C17.3301 272.231 16.3807 274.001 14.8887 275.693C15.2245 272.89 16.1611 270.546 17.3107 268.111L20.2043 261.975L25.0742 251.693L33.2381 233.182C34.8011 229.642 36.8163 226.652 39.1608 223.584C41.7766 221.213 44.4699 218.972 47.8995 217.745C44.5991 219.799 42.035 222.182 39.6065 225.231C37.7592 227.982 36.0541 230.805 34.7301 233.95L30.4802 244.007C29.9893 245.163 29.5824 246.403 29.0786 247.559L26.3401 253.863L21.2764 264.739L18.4216 270.171L18.4087 270.178Z" fill="currentColor"/>
<path d="M122.479 203.354C114.819 199.453 102.973 183.138 99.9314 175.904L95.7461 165.971L91.8644 156.115C91.1216 154.235 90.5532 152.42 89.9655 150.463C88.5575 145.774 86.6844 141.408 86.0127 136.402L91.1604 149.12L97.0895 164.705L102.153 176.188C105.861 184.591 111.202 191.767 117.641 198.252C119.366 199.989 120.987 201.559 122.479 203.361V203.354Z" fill="currentColor"/>
<path d="M16.4129 228.944C14.7465 230.571 13.2222 231.986 11.459 233.336C12.6603 228.608 21.1795 221.949 24.8416 219.133C26.7663 217.654 32.4759 214.967 35.1627 215.826C29.6082 217.292 25.2033 220.334 21.1924 224.261L16.4129 228.944Z" fill="currentColor"/>
<path d="M89.4044 195.249L86.1105 182.118L84.5668 173.418C83.6884 168.458 83.0038 163.653 82.5 158.589L85.1998 172.533L89.4044 195.243V195.249Z" fill="currentColor"/>
<path d="M14.7731 256.498C13.2617 249.8 17.1564 235.959 21.2964 230.204C19.0617 235.423 17.2661 240.706 16.3619 246.448L14.7731 256.498Z" fill="currentColor"/>
<path d="M34.743 199.718C28.775 199.085 23.2528 200.874 17.8984 203.561C18.5895 202.47 19.8102 202.069 20.947 201.527C29.479 197.464 36.7969 197.781 45.2643 201.656C41.6474 201.068 38.3405 200.093 34.743 199.712V199.718Z" fill="currentColor"/>
<path d="M135.713 188.028C129.384 185.141 121.052 176.551 116.401 171.145L127.821 181.117L135.713 188.028Z" fill="currentColor"/>
<path d="M116.176 182.887C122.266 188.958 124.023 190.624 131.393 195.288C125.25 192.885 119.773 188.306 116.176 182.887Z" fill="currentColor"/>
<path d="M57.4392 193.123C59.0087 194.17 60.9076 194.899 61.7085 196.579L47.7833 188.131C45.6778 186.852 43.3978 186.219 41.3633 184.882C45.723 185.709 49.4109 187.769 53.002 190.165L57.4327 193.123H57.4392Z" fill="currentColor"/>
<path d="M61.9028 191.793C59.6551 189.901 58.5184 187.375 56.8972 185.063C53.3772 180.051 51.3168 176.751 50.1865 170.524L53.6484 178.113L61.8963 191.793H61.9028Z" fill="currentColor"/>
<path d="M47.9067 39.0559C48.3717 39.6049 49.192 40.2702 49.5472 41.2778C47.4223 39.2303 45.1876 37.8029 41.9905 38.0742C41.3446 38.1323 40.2789 37.7254 39.8203 37.3314C41.6159 35.8459 43.5922 36.5822 45.6138 37.1248L45.0003 35.8459C46.1047 35.8201 46.8023 36.0268 47.7452 36.3562C49.6441 37.0279 52.725 37.635 52.4472 40.6836C51.1813 39.3853 49.8637 38.2034 48.3717 37.6415L47.9132 39.043L47.9067 39.0559Z" fill="currentColor"/>
<path d="M37.4361 62.062L33.9483 67.145C32.114 65.8727 36.9323 59.2589 38.0238 59.782L39.3737 56.1328C41.4276 57.7023 39.3866 62.6562 37.5394 64.1869C37.4554 63.3731 37.4361 63.1083 37.4361 62.062Z" fill="currentColor"/>
<path d="M27.981 89.5832C24.4803 90.5003 18.7514 84.8747 21.1217 82.3945C22.491 84.1513 23.5696 85.8435 25.2489 87.1288C26.2436 87.891 27.2059 88.6402 27.981 89.5767V89.5832Z" fill="currentColor"/>
<path d="M41.4285 60.9644L40.7762 52.7876C40.7633 52.6261 40.6276 52.103 40.7697 52.1352L41.7127 52.3484C41.0022 50.2622 39.1873 49.19 37.127 47.7304C37.5597 47.1684 38.38 46.9941 39.0775 47.1943C42.3521 48.1502 44.406 51.3731 43.8699 54.835L41.7902 52.4259C43.3339 55.2484 43.3145 58.3421 41.435 60.958L41.4285 60.9644Z" fill="currentColor"/>
<path d="M43.4365 48.2665C38.3922 43.1511 36.4416 47.5883 34.6848 46.1867C33.6902 45.3988 37.8626 42.1694 41.9058 44.9466C42.965 45.6765 43.6303 46.9424 43.4365 48.2665Z" fill="currentColor"/>
<path d="M25.5657 82.3368C26.2309 83.0731 26.7476 83.8352 26.922 84.8493C23.9122 84.1776 21.91 81.5036 21.7098 78.5972C21.6452 77.68 22.1425 76.6143 22.7561 75.9297C23.6409 78.2936 23.8864 80.4767 25.5721 82.3433L25.5657 82.3368Z" fill="currentColor"/>
<path d="M62.5549 57.0826C63.8337 60.0407 55.7667 64.6006 54.5137 62.6049C57.2199 61.326 59.784 59.5563 61.4827 57.3345C61.6248 57.1472 62.458 56.863 62.5549 57.0826Z" fill="currentColor"/>
<path d="M48.1834 76.4139C46.3491 77.1502 45.0122 78.0738 43.1133 77.4085C43.8496 76.2459 51.9683 72.4998 52.5044 73.5526C53.1309 74.7863 49.5592 75.8649 48.1834 76.4203V76.4139Z" fill="currentColor"/>
<path d="M36.597 42.3689C37.7854 42.2526 38.7349 42.3301 39.7101 42.9889L35.8542 43.4539C35.0792 41.6261 35.5959 40.6379 36.9522 39.682C37.8952 39.0168 39.0513 38.4936 40.2462 38.823C41.2409 39.0943 42.0999 39.8176 42.6489 41.1546C42.1839 41.1159 41.4928 40.9996 41.144 40.8252C39.2451 39.8758 37.5335 40.6767 36.5905 42.3689H36.597Z" fill="currentColor"/>
<path d="M25.7459 72.125C25.2356 76.9562 27.2249 78.4288 27.0505 79.5074C27.0183 79.6947 26.2949 79.6495 26.1269 79.5203C23.6661 77.6279 22.6779 73.6945 25.0354 71.0528C25.2873 70.7687 25.7846 71.7504 25.7459 72.125Z" fill="currentColor"/>
<path d="M29.3182 93.3807C27.1609 95.0858 24.4612 94.3689 22.911 92.386C22.1747 91.443 21.2318 90.6357 22.052 89.1631C22.911 89.8219 23.6667 90.4548 24.4676 91.2234C25.8498 92.16 27.3547 92.6573 29.3182 93.3807Z" fill="currentColor"/>
<path d="M57.5427 49.2607C58.5632 40.8126 56.5674 42.6082 56.2445 41.142C56.1605 40.7674 56.7418 39.6565 57.1358 39.7986C60.1262 40.916 60.4686 46.871 57.5492 49.2607H57.5427Z" fill="currentColor"/>
<path d="M43.8693 81.6131C42.81 82.3817 41.88 83.977 40.3428 83.5765C41.0209 81.3547 46.1621 76.8465 47.7768 77.9315C48.0223 78.0995 47.6993 78.8358 47.4281 79.0295L43.8693 81.6066V81.6131Z" fill="currentColor"/>
<path d="M31.7074 96.0226C31.3715 97.8698 29.6341 98.4317 28.3423 98.5738C26.592 98.7611 24.1247 97.4564 23.6856 95.9063C23.6145 95.6544 24.5317 95.48 24.8158 95.6157C26.7406 96.5393 29.253 96.7912 31.7138 96.0226H31.7074Z" fill="currentColor"/>
<path d="M55.5082 69.3673C56.4059 70.2457 51.0064 74.586 46.6338 72.3125C49.1979 71.5826 52.0721 70.4265 54.3133 69.2123C54.6298 69.0443 55.3273 69.1929 55.5017 69.3673H55.5082Z" fill="currentColor"/>
<path d="M33.4966 101.415C30.3899 103.657 26.6309 100.879 27.4512 100.027C28.2715 99.1743 29.8991 101.241 32.8895 99.7039C33.3997 99.4391 33.9875 99.3358 34.7496 99.2324C34.4913 100.104 34.0973 100.976 33.4966 101.415Z" fill="currentColor"/>
<path d="M63.4849 51.9795C63.4913 54.1432 60.7334 57.8441 57.7236 57.7989L59.7323 55.2412C61.3406 53.1938 62.0381 51.4563 62.8196 51.1076C63.0328 51.0107 63.4849 51.7276 63.4913 51.9795H63.4849Z" fill="currentColor"/>
<path d="M58.1627 64.3552C59.461 64.2066 54.5264 70.4329 50.4639 68.0173C51.7427 67.2164 52.8407 66.8095 54.1777 66.1959C56.1605 65.2852 56.6901 64.5231 58.1627 64.3552Z" fill="currentColor"/>
<path d="M28.2517 75.2376C25.61 74.1719 26.7726 67.4483 29.214 66.6797C29.3109 67.1318 29.3174 67.8358 29.1753 68.2944C28.4777 70.5614 28.2646 72.6282 28.2517 75.2376Z" fill="currentColor"/>
<path d="M61.0891 44.9531C63.5111 46.2061 61.6575 52.3807 58.5508 52.9426C59.8232 50.2687 60.5078 47.8596 61.0891 44.9531Z" fill="currentColor"/>
<path d="M51.9561 36.8024C54.2425 36.0984 57.9046 43.1126 55.0757 45.2375C54.9659 41.9565 53.9131 39.528 51.9561 36.8024Z" fill="currentColor"/>
<path d="M30.7063 70.9044C28.6847 69.955 31.3263 64.2519 33.0314 63.6318C33.406 64.0517 33.3737 64.8267 33.1154 65.2917C32.1724 67.055 31.533 68.6955 30.7063 70.9044Z" fill="currentColor"/>
<path d="M73.1793 88.7494C71.6227 88.7235 69.9305 87.8516 69.459 86.4565C69.1038 85.3908 69.6076 83.8407 70.8412 83.8536C71.8423 83.8665 72.9145 84.7901 73.1922 85.5135C73.5668 86.4823 73.6766 87.9937 73.1793 88.7494Z" fill="currentColor"/>
<path d="M69.7107 80.1725C69.2005 80.2564 68.6192 80.1273 68.5223 79.8495C68.4061 79.5072 68.3802 78.6224 68.6709 78.6676C69.0067 78.7193 69.5557 78.913 69.7107 78.7645L70.4664 78.0088C70.6343 78.1121 70.8733 78.9001 70.7764 79.2166C70.6796 79.5331 70.0918 80.1144 69.7107 80.1725Z" fill="currentColor"/>
<path d="M55.0819 120.947L41.3828 122.194C44.0761 121.154 46.9051 120.928 49.8503 120.715L55.0754 120.947H55.0819Z" fill="currentColor"/>
<path d="M70.8548 264.158C71.0485 265.004 71.055 265.856 70.506 266.528C68.9688 264.862 69.2078 262.401 70.5383 260.838C71.281 259.966 72.5405 259.507 73.5933 260.25C71.6815 260.76 70.3574 262.039 70.8483 264.158H70.8548Z" fill="currentColor"/>
<path d="M76.1436 266.974L77.7001 263.971C78.1393 265.069 77.8874 266.806 76.1436 266.974Z" fill="currentColor"/>
<path d="M187.79 189.243L187.629 187.654L184.774 189.856L184.6 188.216H183.96C183.676 188.209 184.199 187.098 183.876 187.079L183.16 187.047L183.973 183.243L183.101 183.785C183.36 181.731 181.945 176.332 185.259 175.569C185.375 175.544 185.846 176.164 185.749 176.228C187.778 174.975 187.629 175.227 188.953 173.063C189.644 173.839 190.406 174.807 191.033 175.686L191.931 175.234C192.163 175.802 192.492 176.758 192.874 177.081C195.115 178.993 191.285 182.39 193.519 181.634L193.268 182.455C193.216 182.616 193.455 182.881 193.636 183.178C193.132 183.953 192.486 185.225 191.911 185.936C190.929 187.15 189.922 187.706 190.129 189.533C190.335 191.361 189.366 192.885 187.9 193.796C187.319 191.93 187.816 190.308 188.721 188.616L187.797 189.243H187.79ZM190.755 179.968L188.017 182.151C187.952 182.203 187.907 182.784 187.913 182.861C187.945 183.346 190.6 180.575 190.762 179.961L190.755 179.968Z" fill="currentColor"/>
<path d="M182.12 313.826C185.175 319.278 188.566 324.096 192.39 329.127C190.652 328.972 189.935 327.487 188.902 326.376C184.038 321.164 180.77 315.002 177.528 308.711C173.924 301.716 169.19 297.344 163.338 292.267C161.426 290.614 159.611 289.206 157.519 287.591C161.2 287.901 167.484 293.927 170.01 296.394C173.213 299.514 176.133 302.846 178.245 306.799L179.666 309.454L182.12 313.833V313.826Z" fill="currentColor"/>
<path d="M169.784 305.636C172.535 309.486 175.319 313.103 177.405 317.546C175.68 315.796 174.486 313.904 173.09 311.908C167.148 303.44 160.489 295.812 153.133 288.553L149.303 284.774C152.19 285.64 153.927 287.849 155.904 289.767L159.663 293.416C163.519 297.156 166.657 301.264 169.784 305.636Z" fill="currentColor"/>
<path d="M150.698 217.326C147.947 220.336 146.468 219.871 143.154 218.275C143.832 217.965 144.859 217.313 144.743 216.912L143.348 215.575C143.445 214.865 144.007 214.038 144.562 213.405L149.704 215.336L152.965 216.428L150.698 217.332V217.326Z" fill="currentColor"/>
<path d="M123.235 279.62L119.237 278.122C114.542 277.392 109.962 277.205 105.196 277.134C102.083 277.088 99.1309 276.656 96.373 275.357C100.261 275.848 103.775 276.333 107.566 276.404C111.286 276.475 120.613 276.63 123.242 279.627L123.235 279.62Z" fill="currentColor"/>
<path d="M206.076 241.487C205.746 240.783 205.759 239.304 206.353 238.968L208.523 237.761C208.814 237.599 209.24 237.031 209.473 236.74C210.913 236.101 212.625 235.222 213.645 233.95L215.725 231.354C215.693 233.524 214.562 235.242 213.019 236.54C212.392 237.07 210.816 237.347 210.099 237.709C208.782 239.214 207.652 240.512 206.076 241.481V241.487Z" fill="currentColor"/>
<path d="M205.52 232.587C203.053 232.238 201.148 230.385 199.733 228.156L203.176 229.351L200.211 225.65C202.562 225.947 204.125 227.517 204.984 229.455L204.397 230.52L205.52 232.594V232.587Z" fill="currentColor"/>
<path d="M130.378 283.373C132.464 283.631 140.577 285.278 141.836 286.996C138.258 285.892 135.067 285.123 131.547 284.439C128.757 283.896 125.818 283.134 124.029 280.68C125.993 282.088 127.917 283.069 130.385 283.373H130.378Z" fill="currentColor"/>
<path d="M178.917 243.652C177.754 243.671 177.192 243.606 176.43 244.065C175.481 244.504 170.811 241.514 172.619 240.577L175.797 241.391C177.057 241.714 178.135 242.586 178.917 243.645V243.652Z" fill="currentColor"/>
<path d="M113.69 273.846C110.144 274.724 106.818 274.989 103.562 273.768C106.585 273.633 108.975 273.71 111.965 273.264L108.949 270.952C110.532 271.275 113.354 271.843 113.69 273.852V273.846Z" fill="currentColor"/>
<path d="M265.232 285.679C263.236 285.537 261.46 285.421 259.425 285.822C257.074 285.512 254.813 285.021 252.372 284.317C254.885 283.309 257.397 283.871 259.845 284.807C261.705 284.911 263.52 284.975 265.238 285.679H265.232Z" fill="currentColor"/>
<path d="M240.702 281.972C238.357 280.351 240.211 278.504 238.854 274.435C240.947 276.23 241.619 279.053 240.702 281.972Z" fill="currentColor"/>
<path d="M216.991 292.99C215.635 292.228 215.312 290.458 216.274 289.225C216.345 289.134 216.5 288.74 216.571 288.792L217.127 289.166L218.812 287.72C219.135 289.27 217.34 290.484 216.991 292.99Z" fill="currentColor"/>
<path d="M287.87 244.556C285.668 243.787 283.478 242.101 283.304 239.789C285.661 240.525 287.011 242.392 287.87 244.556Z" fill="currentColor"/>
<path d="M202.898 235.125C201.587 234.964 200.741 234.389 200.069 233.511L202.937 233.685C202.272 233.168 201.781 232.729 201.213 231.986C202.569 232.128 204.358 233.013 204.048 234.311C203.97 234.628 203.241 235.164 202.898 235.125Z" fill="currentColor"/>
<path d="M176.256 187.099C174.479 186.149 173.614 184.037 174.647 182.151C175.474 183.579 176.159 185.122 176.256 187.099Z" fill="currentColor"/>
<path d="M241.709 276.074C240.54 274.44 239.629 272.942 238.692 271.095C240.785 271.605 242.128 273.698 241.709 276.074Z" fill="currentColor"/>
<path d="M238.389 265.838C236.73 263.881 235.322 262.376 233.52 260.748C235.967 261.413 238.131 263.312 238.389 265.838Z" fill="currentColor"/>
<path d="M97.5029 291.182C96.618 292.163 95.7332 293.035 94.7644 293.694L92.3682 295.341C92.2906 294.547 96.9087 290.432 97.4964 291.175L97.5029 291.182Z" fill="currentColor"/>
<path d="M234.366 280.395L234.256 274.169C235.593 275.893 235.819 278.425 234.366 280.395Z" fill="currentColor"/>
<path d="M222.895 230.314L218.864 229.313C219.51 228.919 220.079 228.654 220.718 228.531C221.952 228.299 222.856 229.158 222.901 230.314H222.895Z" fill="currentColor"/>
<path d="M221.344 231.064C219.91 231.645 218.199 231.781 216.352 231.413C217.779 230.573 219.471 229.914 221.344 231.064Z" fill="currentColor"/>
<path d="M152.603 221.64C151.777 222.137 150.782 222.492 149.742 222.415L150.64 221.104C151.034 220.529 152.248 220.122 153.185 220.051L152.145 221.084L152.603 221.64Z" fill="currentColor"/>
<path d="M203.033 221.898C204.441 221.918 207.044 222.835 206.928 224.656C205.494 223.843 204.325 223.003 203.033 221.898Z" fill="currentColor"/>
<path d="M219.678 262.505L215.422 260.38C217.121 259.799 219.039 260.522 219.678 262.505Z" fill="currentColor"/>
<path d="M205.043 260.276C203.693 260.793 202.259 260.25 201.322 259.204C202.73 258.674 203.99 259.281 205.043 260.276Z" fill="currentColor"/>
<path d="M228.158 284.936C227.719 283.393 227.829 281.739 228.578 280.183C229.289 281.72 229.231 283.367 228.158 284.936Z" fill="currentColor"/>
<path d="M191.395 236.391C190.472 235.042 190.407 233.582 190.368 232.09C191.725 233.272 191.899 234.893 191.395 236.391Z" fill="currentColor"/>
<path d="M196.562 242.031C195.645 240.687 194.992 239.376 194.611 237.987C195.948 238.995 197.214 240.293 196.562 242.031Z" fill="currentColor"/>
<path d="M227.397 281.377C226.189 279.995 225.549 278.18 225.892 276.294C226.673 277.889 227.158 279.362 227.397 281.377Z" fill="currentColor"/>
<path d="M191.943 294.049C190.38 294.262 189.224 292.861 188.785 291.298C189.922 292.092 190.845 292.835 191.943 294.049Z" fill="currentColor"/>
<path d="M193.798 244.207C193.688 242.773 193.682 241.397 193.733 239.866C194.883 241.1 194.663 242.76 193.798 244.207Z" fill="currentColor"/>
<path d="M186.105 238.142C187.591 238.678 190.162 239.924 189.638 242.159C188.896 240.454 187.656 239.537 186.105 238.142Z" fill="currentColor"/>
<path d="M221.875 282.275C220.822 281.028 220.002 279.44 220.945 277.586L221.875 282.275Z" fill="currentColor"/>
<path d="M231.059 212.759C229.922 213.314 228.766 213.689 227.248 213.508C228.333 212.546 229.664 212.223 231.059 212.759Z" fill="currentColor"/>
<path d="M186.37 217.848L182.598 215.109C184.387 215.187 186.04 216.201 186.37 217.848Z" fill="currentColor"/>
<path d="M218.793 279.969L217.747 275.674C219.045 276.681 219.549 278.16 218.793 279.969Z" fill="currentColor"/>
<path d="M169.628 243.167C168.201 243.167 167.129 242.198 166.205 241.055C167.652 241.145 168.679 242.004 169.628 243.167Z" fill="currentColor"/>
<path d="M186.479 223.178L182.914 221.492C184.438 220.904 185.737 221.905 186.479 223.178Z" fill="currentColor"/>
<path d="M251.501 263.525C250.512 262.853 249.421 261.981 249.221 260.566C250.261 261.245 251.352 261.865 251.501 263.525Z" fill="currentColor"/>
<path d="M234.895 270.384C233.784 269.79 232.841 269.015 231.943 267.943C233.448 267.775 234.456 269.047 234.895 270.384Z" fill="currentColor"/>
<path d="M249.595 262.395C248.213 261.794 247.018 260.909 246.708 259.359C247.89 260.109 248.839 261 249.595 262.395Z" fill="currentColor"/>
<path d="M237.052 242.211C235.502 241.83 234.229 241.249 232.841 240.448C234.578 240.306 235.883 241.119 237.052 242.211Z" fill="currentColor"/>
<path d="M243.672 264.792L241.114 261.924C242.651 261.969 243.737 263.274 243.672 264.792Z" fill="currentColor"/>
<path d="M157.253 204.672C156.214 205.383 154.812 205.538 153.649 204.55C154.799 204.401 155.774 204.401 157.253 204.672Z" fill="currentColor"/>
<path d="M290.324 249.548C289.032 248.889 288.134 247.85 287.476 246.545C288.742 247.255 289.62 248.328 290.324 249.548Z" fill="currentColor"/>
<path d="M217.217 296.388C215.731 296.595 214.355 295.529 213.787 294.082L217.217 296.388Z" fill="currentColor"/>
<path d="M185.278 279.201C183.979 280.338 182.326 280.254 181.086 279.518L185.278 279.201Z" fill="currentColor"/>
<path d="M100.448 249.742C101.378 249.91 101.456 251.725 100.332 252.229L100.028 250.989C95.9593 250.84 92.1098 249.038 92.084 244.188C95.6751 247.888 93.337 248.45 100.442 249.742H100.448Z" fill="currentColor"/>
<path d="M98.1625 256.175C95.3077 255.232 91.6908 253.998 90.2246 251.26L93.7511 253.042C95.3658 253.863 96.9676 254.483 98.1625 256.168V256.175Z" fill="currentColor"/>
<path d="M118.274 241.436C119.204 241.921 120.477 243.4 121.607 242.883C122.595 242.424 123.209 241.068 124.1 240.429C123.771 241.288 123.073 242.45 122.298 242.993C120.981 243.916 118.513 242.973 118.274 241.436Z" fill="currentColor"/>
<path d="M101.65 260.057C100.164 259.74 98.8141 258.765 97.8389 257.37C99.4213 257.751 100.842 258.326 101.65 260.057Z" fill="currentColor"/>
<path d="M88.8422 243.677C87.6021 243.38 86.7108 242.146 87.2017 240.622C87.8475 241.546 88.3126 242.282 88.8422 243.677Z" fill="currentColor"/>
<path d="M260.329 154.843C256.028 153.254 252.12 151.323 247.747 149.999L240.397 147.77C236.987 146.737 233.635 145.955 230.528 144.121L235.121 145.361C240.662 146.86 246.016 148.345 251.41 150.328C254.497 151.626 257.442 152.84 260.323 154.843H260.329Z" fill="currentColor"/>
<path d="M240.179 199.583C238.499 197.62 237.447 195.372 236.484 192.957L234.308 187.486L230.025 177.882C232.228 180.181 233.21 182.913 234.501 185.581C235.98 188.629 237.311 191.633 238.454 194.823L240.172 199.596L240.179 199.583Z" fill="currentColor"/>
<path d="M195.722 47.5237C189.78 47.2202 189.186 45.7023 185.195 42.4859C181.319 42.4471 177.754 41.136 174.751 38.6946C174.318 38.3458 173.259 37.7645 172.755 37.8291C169.054 38.2747 165.773 37.1315 163.105 34.632C162.246 33.8246 161.181 33.3725 159.986 33.3338C156.879 33.2304 154.199 32.0808 151.719 30.2723C145.634 30.705 141.462 29.1485 135.985 26.7587C132.885 27.65 129.888 26.9912 126.807 26.6166C125.199 27.1527 123.474 28.748 121.53 28.1603C115.285 26.2678 115.239 33.9796 108.483 31.8999C105.609 31.0151 102.612 31.9516 100.617 34.1411C99.7124 35.1358 99.2668 36.5502 99.4282 37.7903C104.847 33.0237 105.693 36.505 111.616 36.2144C107.851 38.1649 104.35 34.8968 100.675 38.6235L98.2075 41.1231C97.5358 38.7656 97.3162 36.1627 98.7113 33.9732C100.953 30.4338 105.512 28.9612 109.42 30.311C113.011 31.5447 114.012 27.4821 117.565 26.3583C120.167 25.5315 122.454 27.3917 124.282 25.8739L119.373 23.9556C120.523 22.6961 121.433 22.3151 122.893 21.5336C120.826 20.4356 119.257 18.8209 119.024 16.218L126.394 15.4171C126.381 12.9111 127.098 10.4438 128.189 8.03468C130.314 8.93246 131.328 10.6634 132.672 12.5752C133.854 9.95294 136.075 8.44159 138.775 7.61486C139.382 7.42756 139.886 7.3888 140.448 7.74404C146.377 1.09148 159.508 -0.400496 167.956 0.0839135C178.154 0.665205 180.505 4.0819 186.209 5.07656C199.559 7.41464 204.493 15.3719 206.418 16.218C212.392 18.8467 210.448 20.0997 213.891 22.1471C216.39 23.6327 217.87 25.7188 218.884 28.3799C219.245 29.3229 220.143 30.2529 220.802 31.099C224.832 36.3242 225.368 41.2458 225.62 47.6658C227.209 47.2912 228.552 46.6195 230.141 45.8444C231.175 48.8736 230.27 52.0901 227.79 54.4411L232.447 55.0676C231.491 57.1215 230.07 57.974 228.611 59.2464L230.91 63.4382C231.937 65.3048 227.112 64.956 225.885 64.3876C225.872 66.3188 225.949 68.1854 224.955 70.1553L221.067 68.1208C219.026 72.3319 219.213 72.784 221.351 76.7497C222.998 79.8048 223.049 83.1246 221.28 86.0375C220.292 87.6651 220.957 89.7771 222.759 90.4811C223.805 90.888 225.026 90.888 226.285 90.888C224.768 92.3284 222.533 92.5156 220.795 91.2562C217.178 88.6339 220.44 84.6359 220.718 81.7812C221.215 76.7562 215.486 74.838 218.251 68.5665C218.761 67.4039 218.477 65.4275 217.495 64.6589C216.494 64.7558 215.176 64.9495 214.298 64.7364L214.156 60.6609C210.842 59.9181 208.285 58.0322 206.644 55.087C205.004 52.1418 202.284 54.6478 198.345 50.3656L195.729 47.5237H195.722ZM208 45.0371C205.017 43.2932 202.788 40.2382 202.743 36.6859C202.704 33.8828 201.49 31.7643 199.133 30.2917L195.89 28.2701C194.56 32.4166 195.522 34.8903 199.307 37.0605C200.663 37.842 201.916 38.546 202.814 40.0057C197.576 38.6816 192.661 35.6912 192.228 29.6587C192.041 27.0364 190.232 25.0471 187.856 24.2333L184.394 23.0449L184.413 26.4552C184.445 31.9839 190.413 31.9774 193.513 34.7289C187.307 34.5997 182.165 31.4284 182.262 24.7177C182.32 20.9716 179.763 18.1039 176.101 17.6131C174.324 17.3741 170.572 17.1545 170.191 15.1071L177.179 16.1534C179.827 16.5474 181.603 18.1362 183.186 20.1126C185.86 23.4518 191.595 20.907 193.94 28.6447L195.135 25.8674C199.688 29.5747 202.317 28.3024 204.371 34.9291L205.63 31.6222C206.935 33.1142 208.097 34.4576 209.486 35.6654C214.291 39.8507 211.139 43.0672 213.568 46.4709C214.266 44.6948 215.493 42.8023 214.982 40.9874L213.749 36.5761L218.502 41.5106C220.621 43.7066 221.822 46.4064 221.39 49.3257C223.282 48.6346 223.327 47.007 223.405 45.3988C223.928 35.1099 218.599 32.1066 217.23 28.8126C216.119 26.1387 214.453 24.1817 211.876 22.8318C210.629 22.1794 209.912 21.1396 209.176 19.9834C208.298 18.6206 206.496 18.1491 205.133 17.3612C203.37 16.3407 202.117 14.8358 200.541 13.5053C195.516 9.26185 189.251 6.78168 182.689 6.1358C178.271 5.70306 177.347 1.4338 162.841 1.75028C155.658 1.90529 143.238 4.24983 140.086 11.91L143.975 11.7614C145.583 11.7033 147.553 12.3427 148.877 13.3761C149.523 13.8799 150.091 15.191 150.356 15.9402C152.19 21.2042 157.46 19.0017 160.909 22.0826L157.138 22.2569L159.637 23.807L153.243 22.7413C148.276 21.9146 146.493 24.6402 143.665 27.1204C145.983 28.0634 148.205 28.2959 150.627 28.2378C157.118 28.0763 155.503 24.5369 161.962 24.3173C164.907 24.214 167.659 24.7048 169.868 26.8104C165.379 26.3454 161.53 24.7629 157.738 27.4563L154.399 29.8331C156.259 30.9505 158.494 31.3703 160.735 31.5253C167.652 31.9903 166.593 29.3681 170.139 28.6124C173.685 27.8567 177.153 28.4832 180.066 30.5565L174.802 29.9106C169.429 29.2518 168.046 32.9204 164.656 33.5211C167.142 35.7752 170.1 36.4857 173.336 36.0206C174.796 35.8075 176.482 35.7364 177.67 34.8968C179.556 33.5598 181.513 33.0819 183.825 33.3661C186.628 33.7148 189.289 34.3672 191.382 36.4534L185.588 35.1874C181.048 34.1928 180.053 36.2854 176.23 37.4545C180.757 41.3104 186.57 41.1101 191.75 39.0692C194.837 37.8485 198.5 38.8819 200.773 41.1683C193.423 38.7398 193.978 41.6204 187.92 42.4277C189.606 44.5333 192.028 45.3407 194.553 45.7023C197.079 46.064 198.823 45.1856 201.051 44.3072C204.093 43.1059 207.6 45.0242 209.609 47.3106C204.92 45.6248 203.415 44.8627 198.81 47.8725C200.489 51.1665 204.648 52.5745 208.149 51.0179C210.293 50.0685 212.27 49.8424 214.543 51.0438C211.785 47.162 211.992 47.3558 208.033 45.0435L208 45.0371ZM135.849 13.9832L136.327 17.5226L139.705 18.0006C138.091 15.3331 137.755 12.6592 138.045 9.61063C134.002 11.3093 133.692 13.8863 133.97 17.9425L135.688 17.4581C135.501 16.1146 135.346 15.0683 135.856 13.9897L135.849 13.9832ZM131.063 18.3365C133.305 15.43 131.238 12.9498 129.287 10.9153C128.738 12.0456 128.318 13.0855 128.176 14.2416C127.944 16.1663 129.274 17.8197 131.063 18.3365ZM152.003 20.9458C147.876 17.936 149.652 13.8605 143.535 13.5376L139.834 13.7184C141.617 19.7703 146.552 19.9641 152.003 20.9458ZM129.281 19.344C126.542 16.1728 125.238 16.922 121.104 17.5356C121.866 19.4022 123.655 20.6681 125.845 20.3064C127.04 20.1126 128.209 19.738 129.287 19.344H129.281ZM137.044 23.6004L141.798 20.1643L140.125 18.6659L136.909 18.9888C133.272 19.3505 130.237 21.1266 128.312 24.2333C131.141 24.8017 134.525 25.4153 137.038 23.6004H137.044ZM128.092 21.2494C125.78 21.4238 123.784 22.0373 121.924 23.6197C124.779 24.905 126.355 23.3226 128.092 21.2494ZM143.981 24.7048L146.164 22.3474C141.604 21.2946 141.158 22.5347 137.91 25.4476C139.628 26.5327 142.321 26.4939 143.981 24.7048ZM210.7 44.5656L210.681 41.5493C210.674 40.1413 210.087 38.5783 209.066 37.5449L206.043 34.4705L205.482 37.1186C204.958 39.5794 206.16 42.0144 208.304 43.2222L210.694 44.5721L210.7 44.5656ZM218.716 53.0072L219.588 49.1643C220.33 45.9026 218.825 44.036 216.39 41.8658L215.622 45.2438C214.75 49.0868 215.984 49.5453 218.716 53.0008V53.0072ZM222.442 50.8435C223.347 52.4841 223.579 53.4787 223.424 55.1193C226.311 54.2473 228.869 51.864 228.862 48.4538L225.317 49.4097C224.29 49.6874 223.217 50.2041 222.442 50.8435ZM222.229 55.2807C223.024 53.7565 222.791 52.3549 221.532 51.3021C220.44 52.3032 220.388 54.0084 220.763 55.3389C220.873 55.7328 222.048 55.623 222.229 55.2807ZM218.968 57.3217C217.353 54.6413 215.157 53.4658 212.631 52.4905C211.068 52.5357 209.602 52.9556 208.336 53.6531C209.273 56.6565 211.585 58.5424 214.621 58.8589C216.132 58.607 217.579 58.1743 218.968 57.3217ZM224.69 58.1936C226.415 59.0914 228.372 58.1097 229.424 56.4175C227.739 55.8879 225.678 55.7328 224.328 56.6242L224.69 58.2001V58.1936ZM223.011 58.1097C223.011 57.4444 222.475 56.9083 221.809 56.9083C221.144 56.9083 220.608 57.4444 220.608 58.1097C220.608 58.7749 221.144 59.311 221.809 59.311C222.475 59.311 223.011 58.7749 223.011 58.1097ZM219.691 61.8945C220.363 61.3197 220.35 60.4284 219.969 59.9246C219.433 59.2141 218.509 59.1431 217.837 59.6985C216.726 60.6028 216.126 61.8816 216.197 63.3219C217.501 63.1669 218.703 62.7536 219.697 61.8945H219.691ZM223.857 59.8277C224.587 62.1141 226.518 63.393 228.694 63.0248C227.777 60.2798 226.369 59.1625 223.857 59.8277ZM224.154 67.8043C224.638 65.111 224.406 61.7718 221.738 60.6803C221.054 61.7395 220.472 62.4306 219.575 63.1734C220.595 65.1304 221.939 67.0551 224.154 67.8108V67.8043Z" fill="currentColor"/>
<path d="M179.278 107.048C180.453 109.458 176.571 111.524 177.766 116.594C178.205 118.461 179.549 119.727 180.602 121.426C178.787 121.006 177.204 119.85 176.326 118.248C174.679 115.245 177.23 112.377 174.711 109.651L173.536 110.982C173.684 106.267 172.089 108.999 167.645 104.297C165.688 102.224 162.491 104.258 158.558 99.6983C157.117 98.0319 156.82 99.1945 154.398 97.5733C151.815 95.8359 151.124 98.4324 149.012 98.8845L150.433 97.16C148.501 96.6433 146.783 97.4571 145.388 98.6907C140.77 102.766 136.734 101.055 131.334 100.906C135.248 97.8058 139.789 102.54 146.008 95.2998C148.043 92.9295 151.492 92.0511 154.121 93.3105C152.267 93.4332 150.433 93.472 149.167 94.7831C157.221 94.486 154.263 97.7994 162.02 96.7337C161.238 97.3537 160.554 97.709 159.759 98.0707L161.174 99.4528C164.364 102.56 166.089 99.8468 168.001 102.514C168.634 103.393 169.576 104.097 170.455 104.433C170.216 103.121 170.054 102.14 170.429 100.938L171.65 104.549L172.225 102.424L173.523 105.472L174.169 103.431L175.293 106.344C175.538 106.99 176.106 107.72 176.726 108.482C176.726 107.578 176.578 106.7 176.384 105.757C177.618 106.732 177.405 108.14 177.217 109.696C178.328 109.38 178.813 108.34 179.297 107.042L179.278 107.048Z" fill="currentColor"/>
<path d="M196.394 76.543C192.442 72.9196 190.343 76.4913 185.783 74.2824C185.557 74.1726 184.853 74.4891 184.743 74.7216C184.633 74.9542 185.066 75.5354 185.363 75.5807L189.083 76.1813C191.092 76.5043 193.171 77.3697 194.767 78.6421C197.157 80.5475 197.027 83.8737 200.095 84.8555C198.41 85.5853 197.421 84.4357 196.207 83.5766C192.377 82.4011 189.542 82.6853 187.759 78.3773L188.321 77.6862C189.006 76.8401 186.041 78.4484 184.685 76.1878C184.084 81.0383 181.714 81.9103 179.97 85.8501C180.015 84.3129 180.596 82.8403 181.371 81.4969C185.221 74.8121 179.905 74.8766 189.296 69.2188L188.818 71.0272C192.17 69.6515 193.171 69.5029 196.608 71.1564L195.755 71.5891C197.228 72.5256 198.513 73.3459 200.36 73.7528L199.546 72.9196C201.497 72.6807 203.441 73.9595 204.126 75.9617L205.101 78.8165C201.658 77.2599 203.428 76.2911 198.72 74.9283C196.834 74.3858 195.238 73.262 193.385 72.4675C192.461 72.0735 187.152 72.6742 186.312 73.6882C191.24 74.5537 189.548 73.3395 194.663 74.9348C197.48 75.8132 199.688 78.4354 198.435 81.5357C198.306 79.5464 197.744 77.7896 196.394 76.5559V76.543Z" fill="currentColor"/>
<path d="M166.78 93.5493C165.914 89.0475 162.071 89.8807 161.587 86.8515C161.348 85.3466 161.91 84.352 162.704 82.9504C159.281 83.958 158.513 85.6566 153.882 84.6491C150.691 83.958 147.584 84.8235 145.104 86.7934C144.019 87.6589 142.572 88.0593 141.235 87.9108C142.217 87.2455 143.102 86.6771 143.942 85.9021C146.693 83.3509 150.31 82.2787 154.05 82.9698C161.29 84.3068 163.299 78.4422 167.658 82.6275C165.83 82.7954 164.403 83.1636 163.596 84.2099C162.562 85.5469 162.42 87.2068 163.202 88.7762C164.145 88.3758 165.391 88.2337 166.341 88.731C169.693 90.4814 166.915 94.066 172.179 95.164C174.02 95.5515 175.842 95.4417 177.501 94.3114C178.838 93.4007 179.478 91.6827 180.007 89.5965C181.499 91.2241 181.351 93.8076 180.253 95.5773C179.052 97.5214 176.765 98.2319 174.479 97.8315L169.899 97.037C168.168 96.7399 167.103 95.1769 166.786 93.5299L166.78 93.5493Z" fill="currentColor"/>
<path d="M230.774 124.241C228.449 115.909 221.37 119.119 218.509 113.978C215.647 108.837 220.24 103.773 216.59 99.5812C214.13 96.7651 209.55 96.3582 209.46 92.2246C210.19 94.3302 211.817 95.6478 213.897 96.3776C218.489 97.9794 220.937 102.087 219.923 106.828C219.516 108.72 219.658 110.955 220.498 112.621C221.389 114.398 223.172 115.05 224.884 115.78C228.513 117.001 231.329 120.023 230.768 124.241H230.774Z" fill="currentColor"/>
<path d="M151.821 170.603C151.841 172.405 151.679 173.858 150.504 175.144C148.566 177.269 145.634 177.979 142.96 177.113C144.581 176.655 145.989 176.319 147.294 175.667C149.742 174.44 150.446 171.469 149.044 169.221L147.158 166.205C145.847 164.112 146.273 161.645 147.578 159.694C150.174 155.825 150.639 155.767 150.355 150.994C152.965 155.909 148.792 159.281 148.34 162.426C147.953 165.158 149.716 167.561 151.996 168.84C153.249 169.537 154.431 170.28 155.212 171.462C155.994 172.644 156.097 173.994 155.206 175.215C154.586 176.061 153.184 176.655 151.912 176.455C153.094 175.712 154.302 174.853 154.315 173.464C154.321 172.179 153.229 171.1 151.834 170.603H151.821Z" fill="currentColor"/>
<path d="M126.685 171.165C127.544 169.343 130.599 172.017 134.241 170.519C135.604 169.957 136.922 168.807 137.006 167.257C137.077 165.952 136.373 164.506 135.785 163.356C134.416 160.669 135.572 157.898 138.297 156.762L142.999 154.792L145.099 151.892C145.04 154.637 143.012 156.419 140.597 157.394C138.982 158.047 137.393 159.616 137.652 161.489C138.039 164.247 141.559 168.568 137.09 171.404C133.628 173.6 130.792 172.721 126.685 171.158V171.165Z" fill="currentColor"/>
<path d="M117.357 160.843C118.701 160.378 119.915 159.752 120.361 158.822C122.382 154.61 114.425 152.802 113.553 148.869C112.339 143.417 116.343 139.251 120.264 136.616C119.702 138.063 118.869 138.935 118.01 140.001C115.465 143.14 115.168 147.764 118.132 150.625C119.986 152.414 124.352 155.469 121.756 159.241C120.839 160.565 119.011 161.282 117.364 160.85L117.357 160.843Z" fill="currentColor"/>
<path d="M88.9712 54.8605C83.5329 55.1447 81.6147 57.0049 79.3605 62.0169C79.1732 59.8726 79.9095 57.4763 81.5436 55.8229C85.5997 51.7151 92.3879 55.5129 94.2028 48.1176C95.6755 42.098 101.172 41.1873 106.397 42.0398C105.725 42.4338 105.086 42.5501 104.356 42.6018C101.727 42.7826 98.9888 43.4995 97.3741 45.7601C95.0812 48.9766 95.2815 54.5311 88.9712 54.8605Z" fill="currentColor"/>
<path d="M171.773 69.5806C171.521 70.4784 169.429 68.4116 166.316 68.1403C164.023 67.9401 159.954 66.5644 160.277 63.955C158.404 63.7742 154.289 62.4824 153.54 60.2412C155.374 61.2811 157.047 61.9399 159.036 62.3016L165.592 63.5029C167.142 63.7871 168.88 64.4911 169.803 65.7893C170.546 66.8421 172.006 68.7474 171.773 69.5806ZM169.306 67.6753L168.066 65.8539L167.097 67.4751L169.306 67.6753Z" fill="currentColor"/>
<path d="M203.938 161.483C201.632 157.64 198.848 161.185 196.129 158.97C195.29 158.279 194.385 156.768 194.553 155.456L195.044 151.659C195.703 146.537 191.479 145.155 188.76 142.584C186.99 140.911 186.318 138.257 187.474 136.164C187.319 139.309 189.012 141.719 191.673 143.114C199.281 147.099 195.658 153.558 196.646 156.496C197.963 160.423 204.08 156.29 203.938 161.489V161.483Z" fill="currentColor"/>
<path d="M177.554 62.1403C177.586 62.2631 177.883 62.8896 178.032 62.7927L179.027 62.1274C179.02 62.67 178.581 63.5677 178.122 63.8325C177.567 64.1555 176.417 64.3686 175.978 64.078L174.35 63.0123C173.265 61.3265 171.806 60.4934 169.881 60.0994C165.689 59.2403 164.565 56.8054 160.206 57.1025L159.928 56.5664C159.844 56.4049 159.334 56.476 158.998 56.4179L157.002 56.0949L153.676 55.8624L157.196 54.2606C158.455 53.6858 159.902 53.4533 161.103 53.9312C159.896 54.3769 158.888 54.7644 158.19 55.5524C161.31 55.1326 163.848 54.4479 166.658 55.7914L163.926 56.2693L168.092 57.1606L166.839 57.5417C171.489 59.5181 173.931 57.18 175.868 63.4127L177.547 62.1339L177.554 62.1403Z" fill="currentColor"/>
<path d="M132.083 168.503C132.723 165.506 128.932 164.389 126.968 161.437C123.216 163.633 122.473 164.008 118.294 161.922C119.909 162.096 121.62 162.329 123.248 161.844C127.795 160.501 126.18 156.516 128.034 154.895C129.364 157.342 127.078 159.693 129.804 162.251C131.463 163.808 134.066 166.475 132.083 168.503Z" fill="currentColor"/>
<path d="M199.507 160.857C197.866 161.955 195.715 162.368 193.707 162.181C191.02 161.929 189.379 159.733 189.741 157.169C190.187 154.023 188.792 151.427 186.124 149.754C189.373 150.083 191.336 153.132 191.142 156.335C191 158.654 192.305 160.676 194.818 160.74L199.507 160.863V160.857Z" fill="currentColor"/>
<path d="M161.768 169.646C163.506 171.041 163.499 173.418 161.955 174.677C162.214 173.483 162.595 172.346 162.188 171.332C161.174 168.813 157.008 170.15 155.439 166.649C153.333 161.967 159.482 159.938 157.002 152.73C159.256 155.411 158.804 159.028 157.137 161.96C156.498 163.077 156.207 164.46 156.588 165.764C157.253 168.044 160.141 168.335 161.768 169.646Z" fill="currentColor"/>
<path d="M188.133 161.696C187.19 163.763 184.665 164.841 182.404 164.014C180.725 163.401 179.808 161.567 180.085 159.797C180.473 157.388 179.426 155.147 177.056 154.333L174.989 153.157C179.213 153.248 181.765 155.515 181.719 159.79C181.7 161.457 182.882 162.845 184.671 162.71C185.769 162.626 186.854 162.167 188.133 161.689V161.696Z" fill="currentColor"/>
<path d="M109.064 46.1414C105.105 47.0715 102.45 47.5365 99.4922 49.4806C102.806 45.192 107.004 46.8067 114.483 42.1499C115.93 41.2457 117.473 40.5417 119.127 40.1348C114.728 42.5374 114.005 44.9853 109.064 46.1479V46.1414Z" fill="currentColor"/>
<path d="M186.848 112.364C184.568 109.025 188.185 106.254 183.631 102.889C182.081 101.746 180.938 100.015 181.009 98.1738C182.101 99.5431 183.244 100.66 184.594 101.539C187.352 103.334 188.295 106.202 187.1 109.283C186.757 110.168 186.822 111.311 186.854 112.364H186.848Z" fill="currentColor"/>
<path d="M154.876 39.8184C151.188 47.1491 143.328 44.5462 136.501 46.8391C142.94 42.5052 146.919 46.8132 154.876 39.8184Z" fill="currentColor"/>
<path d="M161.691 165.513C161.878 163.394 165.657 163.84 167.026 161.463C168.583 158.763 165.967 156.716 165.812 154.022L167.904 156.774C168.951 158.15 169.196 159.874 168.647 161.579C168.176 163.045 166.748 164.143 164.991 164.615L161.685 165.506L161.691 165.513Z" fill="currentColor"/>
<path d="M128.558 45.4961C123.029 47.931 119.832 48.3186 114.174 51.8192C116.551 48.4736 122.415 46.678 126.174 45.4379C128.855 44.5531 131.128 43.3001 133.692 41.9502C132.317 43.5843 130.502 44.6435 128.558 45.4961Z" fill="currentColor"/>
<path d="M213.878 126.128L209.189 124.442C206.948 123.635 205.811 121.219 206.043 118.875C206.205 117.208 205.914 115.755 205.365 114.069C209.163 116.608 205.52 121.781 211.256 124.126C212.231 124.526 213.193 125.282 213.884 126.128H213.878Z" fill="currentColor"/>
<path d="M163.822 109.528C162.266 109.483 161.768 110.846 161.174 112.086C160.857 110.82 161.497 109.683 162.446 108.734C160.509 107.881 158.539 107.235 156.427 107.371L157.286 106.318C160.625 105.337 163.519 108.146 166.961 109.451C165.921 109.567 164.965 109.561 163.822 109.528Z" fill="currentColor"/>
<path d="M87.4928 61.242C83.0298 63.1021 83.7338 65.8019 81.0986 68.6179C81.4603 67.0937 81.7445 65.4725 82.4421 63.9999C83.7984 61.1257 87.1376 59.4852 90.3605 60.0471L87.4864 61.242H87.4928Z" fill="currentColor"/>
<path d="M128.776 151.872C131.192 146.899 136.617 148.804 138.852 141.635C139.414 148.546 132.69 148.236 128.776 151.872Z" fill="currentColor"/>
<path d="M143.477 137.398C140.202 132.818 143.884 128.045 147.004 125.294C144.84 130.564 142.631 131.268 143.477 137.398Z" fill="currentColor"/>
<path d="M125.819 121.457C122.525 123.834 119.231 126.398 119.948 131.016C118.927 129.505 119.018 127.522 119.883 125.817C121.033 123.55 123.242 121.845 125.819 121.457Z" fill="currentColor"/>
<path d="M198.525 133.212C197.601 132.734 197.207 131.365 197.11 130.125L196.781 125.972C196.684 124.758 195.418 123.737 194.733 122.549C197.31 123.04 198.189 125.694 197.756 128.078C197.44 129.821 197.679 131.229 198.525 133.212Z" fill="currentColor"/>
<path d="M177.328 144.386L178.542 146.369C176.837 145.968 175.739 144.573 175.345 143.282C174.815 141.544 175.39 139.839 176.443 138.27C175.978 140.407 176.126 142.416 177.328 144.386Z" fill="currentColor"/>
<path d="M131.418 28.3798C126.458 28.974 124.424 30.227 119.418 30.4983C120.309 29.5941 121.362 29.4068 122.46 29.2388L128.77 28.2765C129.545 28.1602 130.495 28.2442 131.418 28.3863V28.3798Z" fill="currentColor"/>
<path d="M128.777 37.1383C123.449 37.0156 123.578 35.9241 117.487 37.7196C120.484 34.8778 125.167 35.6722 128.777 37.1383Z" fill="currentColor"/>
<path d="M125.231 140.284C126.078 136.409 129.72 135.744 129.707 130.338C130.87 132.308 130.108 134.698 128.564 136.319C127.337 137.61 126.336 138.87 125.231 140.284Z" fill="currentColor"/>
<path d="M149.394 143.372C146.959 141.525 145.402 136.08 148.56 133.303C147.172 136.758 147.727 139.749 149.394 143.372Z" fill="currentColor"/>
<path d="M156.318 135.298C153.547 132.682 152.501 128.297 154.929 125.1C153.98 130.183 154.587 130.519 156.318 135.298Z" fill="currentColor"/>
<path d="M112.391 137.766C110.266 140.143 110.615 142.481 111.771 144.896C110.169 144.108 109.781 142.474 109.839 141.021C109.891 139.665 110.776 138.489 111.99 137.449L112.391 137.766Z" fill="currentColor"/>
<path d="M180.312 132.96C180.628 129.944 179.717 127.851 177.838 125.52C181.029 126.417 181.991 130.422 180.312 132.96Z" fill="currentColor"/>
<path d="M167.187 117.95C165.85 117.601 165.004 116.232 164.791 115.069C164.519 113.59 164.778 112.085 166.205 111.104C165.243 113.474 165.566 115.612 167.193 117.95H167.187Z" fill="currentColor"/>
<path d="M174.505 170.415C173.697 171.281 172.619 171.152 171.65 170.803C170.274 170.312 169.124 169.24 169.589 167.561C170.558 169.55 172.393 170.131 174.505 170.415Z" fill="currentColor"/>
<path d="M232.582 127.89C231.794 129.078 230.199 129.621 228.771 129.014C227.609 128.523 227.137 127.018 227.531 126.056C228.022 126.973 228.577 128.077 229.501 128.277C230.425 128.478 231.445 128.116 232.588 127.896L232.582 127.89Z" fill="currentColor"/>
<path d="M161.84 70.1873L164.972 71.5114C162.253 72.0346 159.928 70.5749 158.158 68.5791L161.84 70.1873Z" fill="currentColor"/>
<path d="M131.231 109.482L127.246 109.276C130.857 107.713 130.96 109.831 135.449 107.978C134.622 109.541 132.969 109.566 131.225 109.476L131.231 109.482Z" fill="currentColor"/>
<path d="M139.285 97.1339C143.038 95.5644 142.179 93.1618 145.46 92.3867C144.517 93.1941 143.684 94.0273 142.928 95.08C142.217 96.3137 141.023 97.431 139.285 97.1339Z" fill="currentColor"/>
<path d="M138.93 86.4958L140.383 85.6433L138.136 85.1266C140.08 84.978 141.003 84.3902 142.631 83.4473C141.888 84.978 141.107 87.2838 138.93 86.4958Z" fill="currentColor"/>
<path d="M172.289 66.971L171.889 64.62C171.249 60.8997 167.82 62.3529 166.857 61.2356C168.479 61.2097 170.164 61.6037 171.611 62.579C172.754 63.3476 172.393 65.4209 172.464 66.4026C172.477 66.5382 173.284 66.6803 173.232 66.803L172.98 67.4166C172.909 67.5781 172.322 67.1518 172.289 66.9774V66.971Z" fill="currentColor"/>
<path d="M137.103 58.174C140.558 56.9404 138.846 57.0114 141.372 55.1836C141.411 56.3333 140.92 57.2052 140.293 57.7219C139.337 58.5099 138.284 58.9749 137.103 58.174Z" fill="currentColor"/>
<path d="M173.956 135.35C174.208 132.838 173.892 130.59 172.387 128.375C174.473 129.996 175.778 132.838 173.956 135.35Z" fill="currentColor"/>
<path d="M140.828 75.5931L139.75 78.6223C138.846 76.6524 139.614 74.3982 141.752 73.5586L140.828 75.5931Z" fill="currentColor"/>
<path d="M178.787 52.3033C176.611 50.9664 174.751 49.9394 172.639 48.9189C175.19 48.8091 177.618 50.2559 178.787 52.3033Z" fill="currentColor"/>
<path d="M190.523 85.5274C187.636 85.4369 186.228 82.8018 186.202 80.2764C187.268 82.5822 188.359 84.3971 190.523 85.5274Z" fill="currentColor"/>
<path d="M121.788 98.5934C122.059 96.5008 124.236 95.3059 126.27 95.3447L121.788 98.5934Z" fill="currentColor"/>
<path d="M177.625 166.927C176.908 167.599 175.52 167.612 174.305 167.185C173.53 166.914 172.432 166.094 172.465 164.524C173.563 166.184 175.184 166.875 177.625 166.927Z" fill="currentColor"/>
<path d="M193.707 116.911C191.873 116.963 190.284 114.863 190.743 112.926C191.518 114.289 192.39 115.296 193.707 116.911Z" fill="currentColor"/>
<path d="M104.847 71.4854C106.752 70.7362 108.16 70.0192 109.536 68.7598C109.181 71.0397 106.817 71.8729 104.847 71.4854Z" fill="currentColor"/>
<path d="M152.274 111.104C154.057 110.626 155.207 109.509 156.55 107.952C156.608 110.09 154.451 111.653 152.274 111.104Z" fill="currentColor"/>
<path d="M135.675 119.133C133.97 119.953 132.478 121.122 131.399 122.834C131.36 120.605 133.291 118.958 135.675 119.133Z" fill="currentColor"/>
<path d="M187.442 131.294C187.112 129.505 186.37 127.968 185.291 126.359C187.209 127.089 188.365 129.292 187.442 131.294Z" fill="currentColor"/>
<path d="M136.638 60.7841L140.293 58.7754C140.016 59.544 139.647 60.3707 139.182 60.6743C138.498 61.1135 137.413 61.2491 136.644 60.7841H136.638Z" fill="currentColor"/>
<path d="M98.711 55.0811C98.0264 56.8249 96.0048 57.8648 94.0801 57.6323L98.711 55.0811Z" fill="currentColor"/>
<path d="M132.181 91.269C129.921 91.3852 128.196 91.65 126.439 92.1538C128.015 90.4099 130.386 90.3906 132.181 91.269Z" fill="currentColor"/>
<path d="M202.568 62.915C201.096 61.9268 199.668 61.1905 197.982 60.3444C199.894 59.8987 201.864 61.2809 202.568 62.915Z" fill="currentColor"/>
<path d="M166.742 138.877L165.786 133.581C167.44 135.002 167.498 137.179 166.742 138.877Z" fill="currentColor"/>
<path d="M181.022 117.118C179.103 116.201 179.174 113.707 180.479 112.293C180.234 114.011 180.408 115.458 181.022 117.118Z" fill="currentColor"/>
<path d="M137.935 63.8326C137.489 64.1362 136.553 63.7034 136.404 63.3417L139.472 61.7852C139.22 62.6119 138.813 63.2384 137.935 63.839V63.8326Z" fill="currentColor"/>
<path d="M151.13 107.913C150.026 109.618 148.521 109.999 146.99 109.534C148.398 109.004 149.464 108.552 150.736 107.894C150.84 107.894 151.143 107.913 151.13 107.913Z" fill="currentColor"/>
<path d="M177.929 64.4909L181.016 62.2109C181.113 63.6965 179.841 65.0722 177.929 64.4909Z" fill="currentColor"/>
<path d="M187.5 56.1979C186.26 54.848 185.207 53.8211 183.786 52.6973C185.472 53.0783 187.571 54.1828 187.5 56.1979Z" fill="currentColor"/>
<path d="M142.463 81.6389C141.662 83.1244 141.274 84.048 139.646 83.9834L141.965 81.2578L142.463 81.6389Z" fill="currentColor"/>
<path d="M194.14 101.042L192.867 103.393C192.409 101.726 193.313 100.57 194.392 99.4141C194.456 99.821 194.366 100.635 194.146 101.042H194.14Z" fill="currentColor"/>
<path d="M189.231 106.829C187.739 105.279 189.018 104.594 188.863 102.095C189.128 102.424 189.477 103.231 189.444 103.684L189.231 106.829Z" fill="currentColor"/>
<path d="M152.856 86.3147L147.779 86.8314C149.181 85.5784 151.274 85.5203 152.856 86.3147Z" fill="currentColor"/>
<path d="M184.284 99.9239L182.669 96.2295C184.038 96.9335 184.917 98.2834 184.284 99.9239Z" fill="currentColor"/>
<path d="M137.477 82.4915L140.344 79.1846C140.415 80.7024 139.259 82.3106 137.477 82.4915Z" fill="currentColor"/>
<path d="M125.295 85.7663L121.188 87.0323C122.156 85.5532 123.797 85.3917 125.295 85.7663Z" fill="currentColor"/>
<path d="M175.867 121.458C174.408 120.857 173.458 119.313 173.671 117.537L175.867 121.458Z" fill="currentColor"/>
<path d="M151.493 60.403C150.104 61.1264 148.496 60.6807 148.212 59.1436L151.493 60.403Z" fill="currentColor"/>
<path d="M201.645 72.041C200.366 71.3886 199.546 70.5813 198.765 69.7158C199.908 70.1098 201.587 70.4263 201.645 72.041Z" fill="currentColor"/>
<path d="M191.802 101.525L191.207 105.394C190.336 104.245 190.387 102.275 191.802 101.525Z" fill="currentColor"/>
<path d="M176.941 60.8865C176.017 60.1049 175.294 59.078 174.887 57.9219C176.082 58.4773 177.076 59.2395 176.941 60.8865Z" fill="currentColor"/>
<path d="M136.301 69.4709L138.561 66.8486C138.781 68.2696 137.961 69.4321 136.301 69.4709Z" fill="currentColor"/>
<path d="M204.648 81.6071C203.983 80.677 203.46 79.6953 202.969 78.5908C204.157 79.0494 204.99 80.0699 204.648 81.6071Z" fill="currentColor"/>
<path d="M196.025 82.7629L194.385 82.5562L195.496 81.0771L196.161 82.5691C196.206 82.666 196.129 82.7758 196.032 82.7629H196.025Z" fill="currentColor"/>
<path d="M93.5506 127.005C94.965 128.2 96.4829 128.885 98.1944 129.731C96.1793 129.692 94.0285 129.137 92.3945 127.787C90.4762 126.211 89.882 123.744 91.0704 121.561C92.1038 119.675 95.0296 116.671 97.316 117.537C96.0824 118.254 94.3192 119.177 93.7637 120.359C93.6797 120.553 94.261 121.36 94.0737 121.438C93.8864 121.515 93.2341 121.754 93.0726 121.897C91.7744 123.046 92.0198 125.714 93.5506 127.005Z" fill="currentColor"/>
<path d="M170.151 20.3909C169.318 17.0582 166.883 14.7459 163.828 13.8804L161.038 13.0925L161.089 16.0183C161.141 18.9958 163.234 21.2564 165.966 22.1477C167.742 22.7225 169.195 23.5557 170.636 25.0089C165.494 24.2339 160.301 22.955 158.564 16.9936C157.905 14.7395 155.845 13.2475 153.5 13.0666L148.391 12.6727C147.939 12.6404 147.365 11.5424 147.235 10.9546L151.195 11.0257C154.411 6.58201 159.442 5.2515 164.887 5.94259C164.067 6.22032 163.195 6.40762 162.265 6.48513C158.222 6.81453 154.65 8.31297 151.621 11.0644C154.644 11.2194 156.872 11.6005 159.21 13.874L159.597 10.2506C161.122 11.3228 162.588 11.917 164.487 12.4143C167.878 13.2992 171.21 16.2185 172.153 19.6611C174.272 27.3922 178.735 24.1951 181.46 28.8067C176.377 27.5214 171.675 26.5074 170.151 20.4167V20.3909Z" fill="currentColor"/>
<path d="M213.374 27.8182L206.166 22.6641C209.008 23.4197 211.979 24.7567 213.374 27.8182Z" fill="currentColor"/>
<path d="M198.067 16.3078L190.71 12.5488C193.481 12.6715 196.135 14.1635 198.067 16.3078Z" fill="currentColor"/>
<path d="M175.946 7.18921H169.151C171.283 6.36894 173.621 6.45936 175.946 7.18921Z" fill="currentColor"/>
</g>
<defs>
<clipPath id="clip0_1204_4074">
<rect width="295" height="297" fill="white"/>
</clipPath>
</defs>
</svg>

