<svg width="20" height="20" viewBox="0 0 20 20" fill="none" xmlns="http://www.w3.org/2000/svg">
<path d="M17.126 14.3752C17.2931 14.3753 17.4555 14.4313 17.5872 14.5342C17.7189 14.6371 17.8124 14.7811 17.853 14.9432L18.144 16.1062L19.308 16.3972C19.4702 16.4378 19.6141 16.5315 19.717 16.6633C19.8198 16.7951 19.8757 16.9575 19.8757 17.1247C19.8757 17.2919 19.8198 17.4543 19.717 17.5861C19.6141 17.7179 19.4702 17.8116 19.308 17.8522L18.144 18.1432L17.854 19.3072C17.8137 19.4698 17.7201 19.6143 17.5882 19.7175C17.4563 19.8208 17.2935 19.8769 17.126 19.8769C16.9585 19.8769 16.7957 19.8208 16.6638 19.7175C16.5319 19.6143 16.4383 19.4698 16.398 19.3072L16.108 18.1432L14.944 17.8532C14.7814 17.8129 14.6369 17.7193 14.5337 17.5874C14.4304 17.4555 14.3743 17.2927 14.3743 17.1252C14.3743 16.9577 14.4304 16.7949 14.5337 16.663C14.6369 16.5311 14.7814 16.4375 14.944 16.3972L16.107 16.1072L16.398 14.9432C16.4386 14.7809 16.5323 14.6368 16.6642 14.5339C16.7961 14.431 16.9587 14.3751 17.126 14.3752ZM2.23 0.632201C2.528 -0.238799 3.815 -0.209799 4.048 0.719201L4.344 1.9072L5.532 2.2042C6.492 2.4442 6.492 3.8072 5.532 4.0462L4.344 4.3432L4.048 5.5312C3.808 6.4912 2.445 6.4912 2.205 5.5312L1.908 4.3432L0.72 4.0462C-0.24 3.8062 -0.24 2.4442 0.72 2.2042L1.908 1.9072L2.205 0.719201L2.23 0.632201ZM3.126 2.9222C3.06845 2.99928 3.00008 3.06765 2.923 3.1252C3.00008 3.18275 3.06845 3.25112 3.126 3.3282C3.18355 3.25112 3.25192 3.18275 3.329 3.1252C3.25185 3.06734 3.18348 2.99963 3.126 2.9222ZM14.864 1.8522C15.1078 1.60855 15.4383 1.47168 15.783 1.47168C16.1277 1.47168 16.4582 1.60855 16.702 1.8522L18.399 3.5492C18.6427 3.79298 18.7795 4.12354 18.7795 4.4682C18.7795 4.81287 18.6427 5.14342 18.399 5.3872L16.49 7.2972L12.954 3.7612L14.864 1.8522ZM6.944 16.8432C6.87424 16.9126 6.78553 16.96 6.689 16.9792L3.153 17.6862C3.07234 17.7023 2.98897 17.6982 2.91027 17.6743C2.83157 17.6504 2.75998 17.6075 2.70182 17.5494C2.64367 17.4912 2.60076 17.4196 2.5769 17.3409C2.55303 17.2622 2.54894 17.1789 2.565 17.0982L3.272 13.5632C3.29134 13.4662 3.33902 13.3771 3.409 13.3072L12.247 4.4682L15.783 8.0042L6.944 16.8432Z" fill="currentColor"/>
</svg>
