<svg width="10" height="10" viewBox="0 0 10 10" fill="none" xmlns="http://www.w3.org/2000/svg">
<path d="M6.92578 0.618653C7.62217 1.02074 8.20148 1.59774 8.60635 2.29252C9.01122 2.9873 9.22761 3.77578 9.2341 4.57989C9.2406 5.38401 9.03697 6.17588 8.64338 6.87711C8.24978 7.57834 7.67987 8.16462 6.99007 8.5779C6.30026 8.99119 5.51447 9.21715 4.7105 9.23343C3.90652 9.2497 3.11224 9.05571 2.40627 8.67067C1.70031 8.28564 1.10714 7.7229 0.685498 7.03816C0.263855 6.35343 0.0283538 5.57045 0.00230864 4.76673L0 4.61714L0.00230864 4.46754C0.0281663 3.67015 0.2602 2.89306 0.675789 2.21204C1.09138 1.53102 1.67634 0.969306 2.37364 0.581661C3.07095 0.194017 3.8568 -0.00633052 4.65459 0.000152481C5.45237 0.00663548 6.23486 0.219727 6.92578 0.618653ZM4.61718 1.84682C4.50409 1.84684 4.39494 1.88836 4.31043 1.96351C4.22592 2.03866 4.17193 2.14221 4.1587 2.25452L4.15547 2.30854V4.61714L4.15962 4.67762C4.17015 4.75773 4.20151 4.83367 4.25058 4.89786L4.29075 4.94403L5.6759 6.32919L5.71931 6.36705C5.80028 6.42987 5.89985 6.46397 6.00234 6.46397C6.10483 6.46397 6.2044 6.42987 6.28537 6.36705L6.32877 6.32873L6.3671 6.28532C6.42992 6.20435 6.46402 6.10478 6.46402 6.00229C6.46402 5.8998 6.42992 5.80023 6.3671 5.71926L6.32877 5.67586L5.0789 4.42552V2.30854L5.07567 2.25452C5.06244 2.14221 5.00845 2.03866 4.92394 1.96351C4.83943 1.88836 4.73027 1.84684 4.61718 1.84682Z" fill="white"/>
</svg>
