<svg width="20" height="14" viewBox="0 0 20 14" fill="none" xmlns="http://www.w3.org/2000/svg">
<path d="M10 0C9.20435 0 8.44129 0.316071 7.87868 0.87868C7.31607 1.44129 7 2.20435 7 3C7 3.79565 7.31607 4.55871 7.87868 5.12132C8.44129 5.68393 9.20435 6 10 6C10.7956 6 11.5587 5.68393 12.1213 5.12132C12.6839 4.55871 13 3.79565 13 3C13 2.20435 12.6839 1.44129 12.1213 0.87868C11.5587 0.316071 10.7956 0 10 0ZM11 7H9C6.24 7 4 9.24 4 12V12.5C4 13.33 4.67 14 5.5 14H14.5C15.33 14 16 13.33 16 12.5V12C16 9.24 13.76 7 11 7ZM4.5 6C4.97 6 5.4 5.88 5.77 5.67C5.3506 5.00224 5.09407 4.24523 5.02111 3.46007C4.94815 2.67491 5.06081 1.8836 5.35 1.15C5.09 1.06 4.8 1 4.5 1C3.06 1 2 2.06 2 3.5C2 4.94 3.06 6 4.5 6ZM4.11 7H3.5C1.57 7 0 8.57 0 10.5V11.5C0 11.78 0.22 12 0.5 12H2C2 10.04 2.81 8.27 4.11 7ZM15.5 6C16.94 6 18 4.94 18 3.5C18 2.06 16.94 1 15.5 1C15.19 1 14.91 1.06 14.65 1.15C14.9392 1.8836 15.0519 2.67491 14.9789 3.46007C14.9059 4.24523 14.6494 5.00224 14.23 5.67C14.6 5.88 15.02 6 15.5 6ZM16.5 7H15.89C16.5582 7.64998 17.0892 8.42738 17.4516 9.28621C17.814 10.145 18.0005 11.0678 18 12H19.5C19.78 12 20 11.78 20 11.5V10.5C20 8.57 18.43 7 16.5 7Z" fill="white"/>
</svg>
