<svg width="20" height="19" viewBox="0 0 20 19" fill="none" xmlns="http://www.w3.org/2000/svg">
<path d="M12.2967 2.13631C11.4744 1.78416 10.5822 1.62581 9.68904 1.6735C8.79584 1.7212 7.92557 1.97366 7.14552 2.41138C6.36547 2.84909 5.69652 3.46033 5.1904 4.19783C4.68428 4.93534 4.35453 5.77936 4.22667 6.66464C4.66 6.69798 5 7.06464 5 7.49631V12.4963C5 12.963 4.625 13.3296 4.16167 13.3296H2.5C1.83725 13.3296 1.20162 13.0665 0.732822 12.598C0.264029 12.1295 0.000441835 11.4941 0 10.8313L0 9.16464C0 8.5016 0.263392 7.86572 0.732233 7.39687C1.20107 6.92803 1.83696 6.66464 2.5 6.66464H2.54667C2.75211 4.83164 3.6258 3.13862 5.00076 1.90915C6.37572 0.679685 8.15552 0 10 0C11.8445 0 13.6243 0.679685 14.9992 1.90915C16.3742 3.13862 17.2479 4.83164 17.4533 6.66464H17.5C18.163 6.66464 18.7989 6.92803 19.2678 7.39687C19.7366 7.86572 20 8.5016 20 9.16464V10.8313C19.9999 11.4637 19.7601 12.0725 19.329 12.5352C18.8979 12.9979 18.3075 13.28 17.6767 13.3246C17.525 14.3913 17.1117 15.2246 16.535 15.858C15.9504 16.4794 15.2131 16.9368 14.3967 17.1846C13.9854 17.3165 13.5623 17.408 13.1333 17.458C12.959 17.7803 12.6832 18.0361 12.3488 18.1859C12.0144 18.3357 11.6399 18.3711 11.2834 18.2867C10.9268 18.2022 10.608 18.0026 10.3763 17.7188C10.1446 17.4349 10.0129 17.0825 10.0016 16.7163C9.99028 16.35 10.1 15.9902 10.3138 15.6926C10.5275 15.395 10.8334 15.1761 11.1841 15.0698C11.5348 14.9636 11.9108 14.9759 12.2538 15.1048C12.5968 15.2337 12.8878 15.472 13.0817 15.783C13.3546 15.7436 13.6239 15.6817 13.8867 15.598C14.4217 15.4246 14.9233 15.153 15.3033 14.733C15.6577 14.3389 15.8945 13.8532 15.9867 13.3313H15.8367C15.6156 13.3304 15.4038 13.2425 15.2472 13.0865C15.0906 12.9305 15.0018 12.719 15 12.498V7.49798C15 7.05131 15.3417 6.69798 15.7733 6.66631C15.6307 5.67655 15.236 4.74009 14.6272 3.94681C14.0184 3.15353 13.2159 2.53008 12.2967 2.13631Z" fill="white"/>
</svg>
