<svg width="18" height="18" viewBox="0 0 18 18" fill="none" xmlns="http://www.w3.org/2000/svg">
<path fill-rule="evenodd" clip-rule="evenodd" d="M9 0C9.1498 9.36103e-05 9.29766 0.0338405 9.43267 0.0987475C9.56768 0.163655 9.68638 0.258063 9.78 0.375L13.7649 4.54145C13.8519 4.64331 13.9175 4.76162 13.9579 4.88933C13.9983 5.01705 14.0126 5.15158 14 5.28494C13.9874 5.41829 13.9481 5.54776 13.8845 5.66564C13.8209 5.78353 13.7343 5.88744 13.6297 5.9712C13.5252 6.05496 13.4049 6.11686 13.276 6.15324C13.1471 6.18961 13.0122 6.19972 12.8793 6.18295C12.7464 6.16619 12.6182 6.12289 12.5024 6.05564C12.3865 5.98839 12.2854 5.89854 12.2049 5.79145L10 3.85V11C10 11.2652 9.89464 11.5196 9.70711 11.7071C9.51957 11.8946 9.26522 12 9 12C8.73478 12 8.48043 11.8946 8.29289 11.7071C8.10536 11.5196 8 11.2652 8 11V3.85L5.76491 5.79245C5.68446 5.89954 5.58331 5.98939 5.46747 6.05664C5.35162 6.12389 5.22345 6.16719 5.09055 6.18395C4.95765 6.20072 4.82274 6.19061 4.69383 6.15424C4.56491 6.11786 4.44462 6.05596 4.34008 5.9722C4.23555 5.88844 4.14891 5.78453 4.08531 5.66664C4.02171 5.54876 3.98244 5.41929 3.96983 5.28594C3.95722 5.15258 3.97153 5.01805 4.01192 4.89033C4.0523 4.76262 4.11793 4.64431 4.20491 4.54245L8.22 0.376C8.31353 0.25888 8.43218 0.164281 8.56719 0.0991981C8.7022 0.0341153 8.85012 0.000213602 9 0ZM5.46973 11.1768V10H2C1.46957 10 0.960859 10.2107 0.585786 10.5858C0.210714 10.9609 0 11.4696 0 12V15.4397C0 15.9701 0.210714 16.4788 0.585786 16.8539C0.960859 17.229 1.46957 17.4397 2 17.4397H16C16.5304 17.4397 17.0391 17.229 17.4142 16.8539C17.7893 16.4788 18 15.9701 18 15.4397V12C18 11.4696 17.7893 10.9609 17.4142 10.5858C17.0391 10.2107 16.5304 10 16 10H12.5303V11.1768C12.5303 12.113 12.1583 13.011 11.4963 13.673C10.8342 14.3351 9.93629 14.707 9 14.707C8.06371 14.707 7.16577 14.3351 6.50372 13.673C5.84166 13.011 5.46973 12.113 5.46973 11.1768ZM14 13C13.7348 13 13.4804 13.1054 13.2929 13.2929C13.1054 13.4804 13 13.7348 13 14C13 14.2652 13.1054 14.5196 13.2929 14.7071C13.4804 14.8946 13.7348 15 14 15H14.01C14.2752 15 14.5296 14.8946 14.7171 14.7071C14.9046 14.5196 15.01 14.2652 15.01 14C15.01 13.7348 14.9046 13.4804 14.7171 13.2929C14.5296 13.1054 14.2752 13 14.01 13H14Z" fill="white"/>
<path d="M14 13C13.7348 13 13.4804 13.1054 13.2929 13.2929C13.1054 13.4804 13 13.7348 13 14C13 14.2652 13.1054 14.5196 13.2929 14.7071C13.4804 14.8946 13.7348 15 14 15H14.01C14.2752 15 14.5296 14.8946 14.7171 14.7071C14.9046 14.5196 15.01 14.2652 15.01 14C15.01 13.7348 14.9046 13.4804 14.7171 13.2929C14.5296 13.1054 14.2752 13 14.01 13H14Z" fill="white"/>
</svg>
