<svg width="20" height="22" viewBox="0 0 20 22" fill="none" xmlns="http://www.w3.org/2000/svg">
<path d="M19.32 6.42305C19.32 5.70856 18.9388 5.04834 18.3201 4.69106L10.6601 0.267924C10.0412 -0.0894244 9.27875 -0.0894237 8.65989 0.267924L0.999892 4.69106C0.38115 5.04834 0 5.70856 0 6.42305V15.2678C0 15.9823 0.381151 16.6425 0.999893 16.9998L8.65989 21.4229C9.27875 21.7803 10.0413 21.7803 10.6601 21.4229L18.3201 16.9998C18.9389 16.6425 19.32 15.9823 19.32 15.2678V6.42305ZM9.66 14.8454C8.59913 14.8454 7.58172 14.424 6.83157 13.6739C6.08143 12.9237 5.66 11.9063 5.66 10.8454C5.66 9.78456 6.08143 8.76715 6.83157 8.017C7.58172 7.26686 8.59913 6.84543 9.66 6.84543C10.7209 6.84543 11.7383 7.26686 12.4884 8.017C13.2386 8.76715 13.66 9.78456 13.66 10.8454C13.66 11.9063 13.2386 12.9237 12.4884 13.6739C11.7383 14.424 10.7209 14.8454 9.66 14.8454Z" fill="white"/>
</svg>
