<svg width="20" height="19" viewBox="0 0 20 19" fill="none" xmlns="http://www.w3.org/2000/svg">
<path d="M19.5417 3.8155L17.4355 0.481532C17.248 0.183791 16.9135 0 16.5569 0H3.44163C3.08508 0 2.75058 0.183791 2.56311 0.481532L0.453193 3.8155C-0.634848 5.53578 0.328215 7.92873 2.36094 8.20442C2.50797 8.2228 2.65868 8.23382 2.80571 8.23382C3.7651 8.23382 4.61789 7.81478 5.20234 7.16784C5.7868 7.81478 6.63959 8.23382 7.59897 8.23382C8.55836 8.23382 9.41115 7.81478 9.99561 7.16784C10.5801 7.81478 11.4328 8.23382 12.3922 8.23382C13.3553 8.23382 14.2044 7.81478 14.7889 7.16784C15.377 7.81478 16.2261 8.23382 17.1855 8.23382C17.3362 8.23382 17.4832 8.2228 17.6303 8.20442C19.6703 7.93241 20.6371 5.53945 19.5454 3.8155H19.5417ZM17.781 9.36965H17.7773C17.5825 9.39538 17.384 9.41008 17.1818 9.41008C16.726 9.41008 16.2886 9.34024 15.8806 9.21527V14.1151H4.11798V9.21159C3.70629 9.34024 3.26519 9.41008 2.80939 9.41008C2.60722 9.41008 2.40505 9.39538 2.21023 9.36965H2.20656C2.05585 9.34759 1.90881 9.32186 1.76546 9.28511V16.4676C1.76546 17.7652 2.82042 18.8202 4.11798 18.8202H15.8806C17.1781 18.8202 18.2331 17.7652 18.2331 16.4676V9.28511C18.0861 9.32186 17.939 9.35127 17.781 9.36965Z" fill="white"/>
</svg>
