<svg width="20" height="20" viewBox="0 0 20 20" fill="none" xmlns="http://www.w3.org/2000/svg">
<path d="M17.25 18.25V19.75H2.75V18.25H17.25ZM1.7959 17.75C1.83287 17.8541 1.89012 17.9507 1.96973 18.0303C2.04934 18.1099 2.14589 18.1671 2.25 18.2041V19.7344C1.74532 19.6779 1.27174 19.4534 0.90918 19.0908C0.546592 18.7282 0.321082 18.2547 0.264648 17.75H1.7959ZM19.7354 17.75C19.6789 18.2547 19.4534 18.7282 19.0908 19.0908C18.7283 19.4534 18.2547 19.6779 17.75 19.7344V18.2041C17.8541 18.1671 17.9507 18.1099 18.0303 18.0303C18.1099 17.9507 18.1671 17.8541 18.2041 17.75H19.7354ZM19.75 10.25V17.25H18.25V10.25H19.75ZM1.75 2.75V17.25H0.25V2.75H1.75ZM19 9.25C19.1989 9.25 19.3896 9.32907 19.5303 9.46973C19.6099 9.54934 19.6671 9.64589 19.7041 9.75H18.2959C18.3329 9.64589 18.3901 9.54934 18.4697 9.46973C18.6104 9.32907 18.8011 9.25 19 9.25ZM2.25 1.79492C2.14577 1.83188 2.04941 1.89004 1.96973 1.96973C1.89012 2.04934 1.83287 2.14589 1.7959 2.25H0.264648C0.321082 1.74528 0.546592 1.27177 0.90918 0.90918C1.27177 0.546592 1.74528 0.321082 2.25 0.264648V1.79492ZM9.75 0.25V1.75H2.75V0.25H9.75ZM10.25 0.294922C10.3542 0.33188 10.4506 0.390038 10.5303 0.469727C10.6709 0.610379 10.75 0.801088 10.75 1C10.75 1.19891 10.6709 1.38962 10.5303 1.53027C10.4507 1.60988 10.3541 1.66713 10.25 1.7041V0.294922Z" fill="url(#paint0_linear_1134_315)"/>
<path d="M17.25 18.25V19.75H2.75V18.25H17.25ZM1.7959 17.75C1.83287 17.8541 1.89012 17.9507 1.96973 18.0303C2.04934 18.1099 2.14589 18.1671 2.25 18.2041V19.7344C1.74532 19.6779 1.27174 19.4534 0.90918 19.0908C0.546592 18.7282 0.321082 18.2547 0.264648 17.75H1.7959ZM19.7354 17.75C19.6789 18.2547 19.4534 18.7282 19.0908 19.0908C18.7283 19.4534 18.2547 19.6779 17.75 19.7344V18.2041C17.8541 18.1671 17.9507 18.1099 18.0303 18.0303C18.1099 17.9507 18.1671 17.8541 18.2041 17.75H19.7354ZM19.75 10.25V17.25H18.25V10.25H19.75ZM1.75 2.75V17.25H0.25V2.75H1.75ZM19 9.25C19.1989 9.25 19.3896 9.32907 19.5303 9.46973C19.6099 9.54934 19.6671 9.64589 19.7041 9.75H18.2959C18.3329 9.64589 18.3901 9.54934 18.4697 9.46973C18.6104 9.32907 18.8011 9.25 19 9.25ZM2.25 1.79492C2.14577 1.83188 2.04941 1.89004 1.96973 1.96973C1.89012 2.04934 1.83287 2.14589 1.7959 2.25H0.264648C0.321082 1.74528 0.546592 1.27177 0.90918 0.90918C1.27177 0.546592 1.74528 0.321082 2.25 0.264648V1.79492ZM9.75 0.25V1.75H2.75V0.25H9.75ZM10.25 0.294922C10.3542 0.33188 10.4506 0.390038 10.5303 0.469727C10.6709 0.610379 10.75 0.801088 10.75 1C10.75 1.19891 10.6709 1.38962 10.5303 1.53027C10.4507 1.60988 10.3541 1.66713 10.25 1.7041V0.294922Z" stroke="black" stroke-width="0.5"/>
<path d="M17.25 18.25V19.75H2.75V18.25H17.25ZM1.7959 17.75C1.83287 17.8541 1.89012 17.9507 1.96973 18.0303C2.04934 18.1099 2.14589 18.1671 2.25 18.2041V19.7344C1.74532 19.6779 1.27174 19.4534 0.90918 19.0908C0.546592 18.7282 0.321082 18.2547 0.264648 17.75H1.7959ZM19.7354 17.75C19.6789 18.2547 19.4534 18.7282 19.0908 19.0908C18.7283 19.4534 18.2547 19.6779 17.75 19.7344V18.2041C17.8541 18.1671 17.9507 18.1099 18.0303 18.0303C18.1099 17.9507 18.1671 17.8541 18.2041 17.75H19.7354ZM19.75 10.25V17.25H18.25V10.25H19.75ZM1.75 2.75V17.25H0.25V2.75H1.75ZM19 9.25C19.1989 9.25 19.3896 9.32907 19.5303 9.46973C19.6099 9.54934 19.6671 9.64589 19.7041 9.75H18.2959C18.3329 9.64589 18.3901 9.54934 18.4697 9.46973C18.6104 9.32907 18.8011 9.25 19 9.25ZM2.25 1.79492C2.14577 1.83188 2.04941 1.89004 1.96973 1.96973C1.89012 2.04934 1.83287 2.14589 1.7959 2.25H0.264648C0.321082 1.74528 0.546592 1.27177 0.90918 0.90918C1.27177 0.546592 1.74528 0.321082 2.25 0.264648V1.79492ZM9.75 0.25V1.75H2.75V0.25H9.75ZM10.25 0.294922C10.3542 0.33188 10.4506 0.390038 10.5303 0.469727C10.6709 0.610379 10.75 0.801088 10.75 1C10.75 1.19891 10.6709 1.38962 10.5303 1.53027C10.4507 1.60988 10.3541 1.66713 10.25 1.7041V0.294922Z" stroke="url(#paint1_linear_1134_315)" stroke-width="0.5"/>
<path d="M1 15.5L6.3465 10.599C6.52671 10.4338 6.76117 10.3404 7.00558 10.3364C7.24999 10.3323 7.48742 10.4179 7.673 10.577L14 16M12 13.5L14.3865 11.1135C14.5567 10.9432 14.7827 10.84 15.0229 10.8229C15.2631 10.8058 15.5014 10.876 15.694 11.0205L19 13.5M13 4H19M16 1V7" stroke="black" stroke-width="2" stroke-linecap="round" stroke-linejoin="round"/>
<path d="M1 15.5L6.3465 10.599C6.52671 10.4338 6.76117 10.3404 7.00558 10.3364C7.24999 10.3323 7.48742 10.4179 7.673 10.577L14 16M12 13.5L14.3865 11.1135C14.5567 10.9432 14.7827 10.84 15.0229 10.8229C15.2631 10.8058 15.5014 10.876 15.694 11.0205L19 13.5M13 4H19M16 1V7" stroke="url(#paint2_linear_1134_315)" stroke-width="2" stroke-linecap="round" stroke-linejoin="round"/>
<defs>
<linearGradient id="paint0_linear_1134_315" x1="1.31905" y1="14.0056" x2="15.338" y2="15.9582" gradientUnits="userSpaceOnUse">
<stop stop-color="#DF6730"/>
<stop offset="1" stop-color="#FFAE00"/>
</linearGradient>
<linearGradient id="paint1_linear_1134_315" x1="1.31905" y1="14.0056" x2="15.338" y2="15.9582" gradientUnits="userSpaceOnUse">
<stop stop-color="#DF6730"/>
<stop offset="1" stop-color="#FFAE00"/>
</linearGradient>
<linearGradient id="paint2_linear_1134_315" x1="2.18714" y1="11.5042" x2="14.6994" y2="13.5955" gradientUnits="userSpaceOnUse">
<stop stop-color="#DF6730"/>
<stop offset="1" stop-color="#FFAE00"/>
</linearGradient>
</defs>
</svg>
